<svg xmlns="http://www.w3.org/2000/svg" xml:space="preserve" fill-rule="evenodd" stroke-linejoin="round" stroke-miterlimit="2" clip-rule="evenodd" viewBox="0 0 64 64">
  <g id="grey">
    <circle cx="32" cy="32" r="22.25" fill="#6e6e6e"/>
  </g>
  <g id="blue">
    <path fill="none" stroke="#d7e3f0" stroke-dasharray="1,1" stroke-width="1px" d="m28.801 40.95-4.609 5.82a1.596 1.596 0 0 1-2.145.295 1.433 1.433 0 0 1-.281-2.059l4.468-5.641c.01-.063.024-.125.042-.187l1.888-6.575a1.088 1.088 0 0 1-.051-.33v-5.479l-1.09 1.621c0 .034-.001.068-.004.103l-.258 3.304a1.321 1.321 0 0 1-1.39 1.195 1.3 1.3 0 0 1-1.188-1.381l.258-3.302c.009-.119.034-.233.073-.34-.01-.262.065-.521.212-.739l3.262-4.849c.122-.18.284-.322.466-.421.196-.186.462-.301.753-.301 1.209.619 4.415.62 5.551 0 .461 0 .856.286 1.017.691l7.012 7.715a1.206 1.206 0 0 1-.12 1.754 1.353 1.353 0 0 1-1.83-.126l-4.985-5.485v6.04c0 .039-.002.078-.006.116l3.503 4.933c.236.333.327.72.287 1.09l1.794 7.805a1.5 1.5 0 0 1-1.147 1.795 1.575 1.575 0 0 1-1.828-1.167l-1.747-7.602a1.853 1.853 0 0 1-.103-.131l-4.433-4.878-2.695 5.788c-.11.379-.349.708-.676.928Zm3.217-27.932c2.184.001 3.981 1.798 3.982 3.982a4.003 4.003 0 0 1-3.983 3.875A4.002 4.002 0 0 1 28.035 17c.001-2.184 1.799-3.981 3.983-3.982Z"/>
    <path fill="#e9ffff" fill-rule="nonzero" d="M14 47.15 47.617 14 50 16.35 16.298 49.5 14 47.15Z"/>
  </g>
  <g id="red">
    <path fill="#f23923" d="M30.186 8v1.859c-2.699.169-5.23.93-7.592 2.028l-.928-1.605c2.615-1.268 5.483-2.028 8.52-2.282Zm12.232 2.282-1.012 1.605c-2.362-1.098-4.893-1.774-7.592-2.028V8a24.959 24.959 0 0 1 8.604 2.282ZM33.814 56v-1.859c2.699-.169 5.23-.93 7.592-2.028l.928 1.605c-2.615 1.268-5.483 2.028-8.52 2.282Zm-21.68-37.606a24.443 24.443 0 0 1 6.242-6.253l.928 1.605a21.885 21.885 0 0 0-5.568 5.578l-1.602-.93Zm38.045.93c-1.434-2.197-3.374-4.056-5.567-5.578l.928-1.605a24.443 24.443 0 0 1 6.242 6.253l-1.603.93ZM8 30.141c.253-3.042 1.097-5.916 2.278-8.535l1.602.929c-1.096 2.366-1.771 4.902-2.024 7.606H8Zm0 3.718h1.856c.169 2.704.928 5.24 2.024 7.606l-1.602.929C9.012 39.775 8.253 36.901 8 33.859Zm13.582 19.859.928-1.605c2.362 1.098 4.892 1.774 7.592 2.028V56c-3.037-.254-5.905-1.014-8.52-2.282Zm32.056-11.324-1.603-.929c1.097-2.366 1.772-4.902 2.025-7.606h1.856c-.253 3.042-1.013 5.916-2.278 8.535ZM56 30.141h-1.856c-.169-2.704-.928-5.24-2.024-7.606l1.602-.929c1.266 2.619 2.025 5.493 2.278 8.535ZM45.624 51.859l-.928-1.605a21.885 21.885 0 0 0 5.568-5.578l1.602.93a24.443 24.443 0 0 1-6.242 6.253Zm-33.49-6.253 1.602-.93a21.885 21.885 0 0 0 5.568 5.578l-.928 1.605a24.443 24.443 0 0 1-6.242-6.253Z"/>
  </g>
</svg>
