<svg xmlns="http://www.w3.org/2000/svg" xml:space="preserve" fill-rule="evenodd" stroke-linejoin="round" stroke-miterlimit="2" clip-rule="evenodd" viewBox="0 0 64 64">
  <g id="blue">
    <path fill="#9eb9e1" d="M54.475 8h.001C55.312 8 56 8.688 56 9.524v6.473h-2.001v-5.996h-5.996V8h6.472ZM38.004 53.999h7.997V56h-7.997v-2.001Zm-10.007 0h8.006V56h-8.006v-2.001Zm-9.998 0h8.005V56h-8.005v-2.001ZM8 38.004h2.001v7.997H8v-7.997ZM9.525 56h-.001A1.531 1.531 0 0 1 8 54.476v-6.473h2.001v5.996h6.005V56H9.525Zm44.474-28.003H56v7.997h-2.001v-7.997ZM8 27.997h2.001v7.997H8v-7.997Zm48 19.997v6.473c0 .837-.688 1.525-1.525 1.525h-6.472V53.99h5.996v-5.996H56Zm-2.001-29.995H56v7.997h-2.001v-7.997Zm0 20.005H56v7.997h-2.001v-7.997ZM10.001 10.001v5.996H8V9.524C8 8.688 8.688 8 9.524 8h6.473v2.001h-5.996ZM27.997 8h8.006v2.001h-8.006V8Zm-9.998 0h8.005v2.001h-8.005V8Zm20.005 0h7.997v2.001h-7.997V8ZM8 17.999h2.001v7.997H8v-7.997Z"/>
  </g>
  <g id="brown">
    <path fill="#785d3e" d="M17.937 15.008c5.459-4.119 11-3.046 11.828-2.316 1.019.899 3.212 6.291-.548 12.274a17.777 17.777 0 0 1-4.127 4.487c-6.006 4.027-10.525 3.036-11.513 2.233-.968-.788-2.799-5.544.244-11.773a16.073 16.073 0 0 1 4.116-4.905Z"/>
    <path fill="#624e38" d="M29.766 12.693c1.02.901 3.209 6.292-.549 12.273a17.777 17.777 0 0 1-4.127 4.487c-5.747 3.853-10.13 3.113-11.365 2.338 2.259-.198 5.307-1.123 8.853-3.587a21.814 21.814 0 0 0 4.74-5.183c2.581-4.025 2.871-7.748 2.448-10.328Z"/>
    <path fill="#8c6f4f" d="M29.697 12.639c-2.916.527-4.95 1.498-8.396 4.532a18.958 18.958 0 0 0-4.463 5.153c-2.413 3.916-3.184 6.906-3.351 9.282-.986-.994-2.62-5.649.334-11.691a16.113 16.113 0 0 1 4.116-4.905c5.326-4.022 10.732-3.097 11.76-2.371Z"/>
    <path fill="#f6f0e4" d="M22.838 30.775c-.894.455-1.828.829-2.79 1.116l-7.83-6.628c.112-1 .324-1.986.632-2.943l9.988 8.455Zm8.486-12.406a12.288 12.288 0 0 1-.496 3.058l-9.758-8.264a14.046 14.046 0 0 1 3.004-.935l7.25 6.141Z"/>
    <path fill="#ecdfcb" d="m21.002 29.22 1.836 1.553-.04.02-.019.01-.033.017-.084.042-.013.006-.047.023-.04.019-.046.023-.044.021h-.003c-.781.375-1.591.687-2.421.934l-1.603-1.355c.88-.382 1.734-.82 2.557-1.313Zm8.721-12.208 1.602 1.357v.69l-.004.041v.023l-.003.032v.023l-.003.033v.021l-.005.052v.016l-.005.039v.021l-.004.035-.003.025v.006l-.01.086v.008l-.006.043v.004l-.005.039v.009l-.006.041v.008l-.005.036v.009l-.006.041v.011l-.005.035v.008l-.006.041v.011l-.007.038v.005l-.006.041v.012l-.007.04v.007l-.007.036v.013l-.007.04v.01l-.006.034v.012l-.007.04v.011l-.007.034v.01l-.007.041v.012l-.007.035v.009l-.008.04v.013l-.008.038v.009l-.008.037v.013l-.009.042v.009l-.007.035v.012l-.009.041v.011l-.008.034v.012l-.01.041v.012l-.008.035v.009l-.01.043-.003.012-.009.038v.005l-.011.043v.012l-.011.044v.004l-.01.04v.012l-.012.043v.008l-.01.038v.009l-.011.045v.008l-.011.039v.008l-.012.044v.009l-.012.043v.003l-.013.046v.009l-.013.046-1.887-1.595c.308-.918.527-1.863.653-2.823h-.001Z"/>
    <path fill="#f6f0e4" d="M17.383 20.539c.199-.286.394-.556.587-.812l-.611-.517a.398.398 0 0 1-.046-.552.397.397 0 0 1 .552-.045l.585.495c.217-.27.431-.523.644-.762l-.584-.494a.398.398 0 0 1-.046-.552.398.398 0 0 1 .552-.046l.612.519c.242-.248.482-.478.724-.697l-.692-.585a.399.399 0 0 1-.045-.552.397.397 0 0 1 .552-.045l.786.665c.277-.227.561-.445.85-.656.179-.129.595-.288.828-.057a.458.458 0 0 1-.123.691c-.276.211-.547.428-.812.652l.627.53c.163.14.184.388.046.552a.397.397 0 0 1-.552.046l-.716-.607c-.248.226-.49.458-.726.695l.797.675a.396.396 0 0 1 .046.551.397.397 0 0 1-.551.046l-.836-.707c-.226.244-.446.494-.66.748l.851.721c.162.14.183.387.046.552a.398.398 0 0 1-.551.045l-.839-.71c-.205.263-.405.531-.597.804l.79.669a.39.39 0 0 1-.506.597l-.726-.614c-.235.361-.458.728-.67 1.102a.438.438 0 0 1-.677.174c-.286-.2-.145-.617-.029-.806.232-.375.458-.728.678-1.061l-.733-.621a.396.396 0 0 1-.046-.551.397.397 0 0 1 .552-.046l.669.566Z"/>
  </g>
  <g id="white">
    <path fill="#fbfcfc" d="M39.315 26.896c1.771 5.338-1.16 11.188-6.496 12.965-5.338 1.772-11.189-1.16-12.965-6.496-1.772-5.338 1.159-11.188 6.496-12.965 5.337-1.771 11.188 1.16 12.965 6.496Z"/>
    <path fill="#fefdfb" d="M15.555 24.609a22.92 22.92 0 0 0-1.101 2.546l-2.236-1.892.01-.086.005-.039v-.008l.004-.038.005-.043.005-.036v-.011l.004-.035v-.014l.011-.079.004-.032v-.018l.005-.031.003-.02.005-.031.006-.044.005-.029.003-.023.004-.028.005-.026.004-.027.007-.046.005-.026.014-.083.005-.023.012-.073.006-.031.004-.023.006-.035.005-.02.008-.049.005-.022.006-.034.004-.022.008-.04.002-.014.011-.052.004-.021.008-.035.005-.021.008-.045v-.016l.01-.046.005-.022.012-.056.011-.05v-.014l.01-.045.013-.058.005-.02.012-.054.004-.014.01-.042.005-.022.009-.036.006-.021.027-.11.006-.022.009-.037.006-.021.014-.054.019-.019.016-.06.01-.036.006-.022.015-.053.006-.023.01-.034.007-.026.017-.058.014-.051.008-.027.009-.031.018-.058.008-.028.016-.051.009-.031.008-.026.009-.032.009-.024.009-.031.01-.03.006-.019 2.703 2.289Zm10.408-10.78c-.83.422-1.622.914-2.368 1.473l-2.525-2.139c.933-.41 1.909-.717 2.909-.916h.009l.052-.01.029-.006h.004l1.89 1.598Z"/>
  </g>
  <g id="orange">
    <path fill="#c56d2b" d="M40.922 30.002c6.033.037 10.969 5.029 10.939 11.061-.039 6.033-5.03 10.968-11.063 10.937-6.033-.038-10.969-5.028-10.938-11.061.038-6.033 5.03-10.968 11.062-10.937Z"/>
    <path fill="#ee8c09" d="M32.454 48.094a10.956 10.956 0 0 1-2.594-7.155c.038-6.033 5.03-10.968 11.062-10.937 2.348.011 4.631.776 6.51 2.182a11.1 11.1 0 0 1 1.809 6.145c-.068 6.183-5.209 11.217-11.392 11.156a11.367 11.367 0 0 1-5.395-1.391Z"/>
  </g>
  <g id="grey">
    <path fill="#d9d9d9" d="M30.007 33.696h-.009v-.011c0-.006.006.001.009.011Zm1.145 2.164c-.452-.873-1.057-2.035-1.145-2.164.095-.082.181-.172.259-.269l1.09 2.07c-.07.12-.138.241-.204.363ZM25.8 32.839c-.005-.008 0-.012.01-.013 0 0 0 .004-.01.013Zm.001.001-.001-.001.002-.001-.001.002Zm0 0c.097.077.201.145.31.202l-2.859 2.346-.196-.302s2.554-2.058 2.745-2.246Zm6.518-2.892h.003l-.003.001v-.001Zm0 .001c0 .008-.001.011-.013.008l.013-.008Zm0-.001a2.022 2.022 0 0 0-.231-.291l3.441-1.326.092.349s-3.074 1.153-3.302 1.268Zm-7.018-1.526a2.026 2.026 0 0 0-.124.353l-2.922-2.249.246-.263s2.58 2.021 2.801 2.158l-.001.001Zm.001-.001c.002-.003.005-.004.007-.003.002 0 .004.004.006.01.001.005-.002 0-.012-.007h-.001Zm3.993-1.781c.006.002.006.009-.003.015-.009.009.002-.003.003-.015Zm-.003 0a1.968 1.968 0 0 0-.367.053l.641-3.658.345.097s-.6 3.256-.619 3.508Zm4.257-5.314a.008.008 0 0 1-.002.004l-.002.001.004-.005Zm0 0c.051-.112.108-.22.171-.325a5.292 5.292 0 0 1 3.146 3.117l-.273.236c.353-.378-2.696-3.406-3.044-3.028Z"/>
    <path fill="#bebebe" d="M29.877 40.38a10.273 10.273 0 0 1-6.512-2.096c2.238.675 4.627.658 6.852-.049-.185.702-.299 1.42-.34 2.145Zm7.986-9.956c.6-1.989.656-4.102.161-6.12.551.799.986 1.673 1.291 2.594.345 1.043.512 2.105.516 3.153-.675.064-1.333.19-1.968.373Z"/>
    <path fill="#2e2e2e" d="m29.191 26.399 3.221 3.321-2.144 4.128-4.548-.77-.665-4.603 4.136-2.076Z"/>
    <path fill="#444" d="m22.652 26.685-3.034 1.035a10.315 10.315 0 0 1 2.997-5.113l.037 4.078Zm4.046-6.394a10.228 10.228 0 0 1 7.076.483l.08.555-4.136 2.075-3.02-3.113Z"/>
    <path fill="#2e2e2e" d="M40.978 30.002h.687l.034.003h.02l.044.003h.013l.054.005h.02l.034.003.024.002.03.003.026.002.028.004.027.002.028.003.026.003.028.003.026.003.028.003.026.004.027.002.027.004.054.006.026.004.028.004.025.003.028.004.025.003.028.004.025.004.051.008.05.008.033.005.052.008.052.009.034.006.019.003.032.006.02.003.033.006.072.014.032.006.02.004.033.006.019.004.033.006.052.011.018.004.034.007.052.011.015.004.037.008.052.012h.007c.097.022.194.046.289.07h.005l.044.011.009.002.05.014.04.01.011.004.038.011.062.017.039.012.01.002.041.012.007.003.044.012h.006l.044.014.144.043a10.659 10.659 0 0 0-5.743 1.808c.974.885 2.674 1.095 4.614.854 1.456-.18 2.699-1.091 4.894-.081.282.539.52 1.1.711 1.677a4.667 4.667 0 0 0-2.683-.97c-1.678.125-2.754.369-3.671.436-1.877.133-3.405-.371-4.515-1.446-.587.457-1.128.971-1.615 1.534a45.312 45.312 0 0 1 7.987 4.107 46.212 46.212 0 0 1 4.496 3.301c-.125.38-.271.753-.436 1.117a43.45 43.45 0 0 0-4.671-3.473 42.857 42.857 0 0 0-8.118-4.103 11.627 11.627 0 0 0-1.296 2.434c2.706.402 4.654 1.681 5.616 5.147.314 1.13.149 2.289.717 4.36.175.649.509 1.245.971 1.734-.366.119-.736.22-1.112.302-1.484-1.929-1.113-3.711-1.527-5.468-.909-3.864-2.881-4.706-5.01-4.999a11.964 11.964 0 0 0-.456 3.208 11.766 11.766 0 0 0 2.48 7.333 11.373 11.373 0 0 1-1.533-.393 12.876 12.876 0 0 1-1.964-6.945c.005-1.093.148-2.181.424-3.238-1.412.192-2.168 1.45-2.911 2.299v-.676l.002-.037v-.003l.006-.088v.002l.003-.038v-.005l.007-.088.025-.043c.014-.162.031-.323.052-.483v-.002l.006-.044c.829-.775 1.975-1.726 3.143-1.865.343-.962.801-1.879 1.363-2.731a37.069 37.069 0 0 0-2.257-.705l.024-.03.005-.007.018-.022.024-.031.007-.008.023-.029.006-.006.017-.022.035-.042.011-.015.023-.027.012-.015.019-.027.023-.028.015-.017.008-.01.016-.018.006-.008.038-.044.023-.027.017-.019.03-.034.018-.02.021-.024.039-.044.024-.026.009-.01.016-.017.023-.026.048-.052.026-.028.013-.013.015-.016.009-.01.025-.026.006-.006.02-.022.008-.008.019-.02.008-.007.022-.023.004-.004.085-.087c.708.215 1.412.45 2.108.702a12.439 12.439 0 0 1 1.964-1.942 2.512 2.512 0 0 1-.429-1.184l.051-.021.098-.039.051-.02.05-.019.049-.019.05-.018h.002l.05-.018.051-.019.049-.017h.004l.098-.034h.005l.048-.016h.003l.05-.017.048-.015.007-.002.048-.016c.082.329.194.649.335.958a11.802 11.802 0 0 1 3.036-1.474h.083l.003-.004Z"/>
    <path id="grey1" fill="#6e6e6e" d="M53.999 10.001V53.99H10.001V10.001h43.998ZM19.51 32.038a10.277 10.277 0 0 0 .645 2.121l-.003-.001a10.207 10.207 0 0 0 3.213 4.126l.132.099a10.274 10.274 0 0 0 6.074 2.001l-.002.003c.097 0 .193-.001.289-.003v.633l.002-.002a10.952 10.952 0 0 0 2.594 7.079l.054.029a11.177 11.177 0 0 0 3.144 2.549l.036.039c.882.471 1.824.819 2.801 1.034l-.015-.01a10.869 10.869 0 0 0 6.032-.365l.025.006a10.972 10.972 0 0 0 1.723-.786l-.041.001a11.163 11.163 0 0 0 4.731-5.224l.012.012c.168-.388.314-.786.436-1.192l-.007-.007a10.864 10.864 0 0 0-.091-6.64l.024.039a11.032 11.032 0 0 0-2.019-3.632 3.708 3.708 0 0 0-.097-.079 11.153 11.153 0 0 0-1.74-1.638l-.03-.046a10.953 10.953 0 0 0-3.234-1.665h.01l-.111-.034.112-.003-.144-.043-.044-.014h-.006l-.044-.012-.007-.003-.041-.012-.01-.002-.039-.012-.062-.017-.038-.011-.011-.004-.04-.01-.05-.014-.009-.002-.044-.011h-.005a12.207 12.207 0 0 0-.289-.07h-.007l-.052-.012-.037-.008-.015-.004-.052-.011-.034-.007-.018-.004-.052-.011-.033-.006-.019-.004-.033-.006-.02-.004-.032-.006-.072-.014-.033-.006-.02-.003-.032-.006-.019-.003-.034-.006-.052-.009-.052-.008-.033-.005-.05-.008-.051-.008-.025-.004-.028-.004-.025-.003-.028-.004-.025-.003-.028-.004-.026-.004-.054-.006-.027-.004-.027-.002-.026-.004-.028-.003-.026-.003-.028-.003-.026-.003-.028-.003-.027-.002-.028-.004-.026-.002-.03-.003-.024-.002-.034-.003h-.02l-.054-.005h-.013l-.044-.003h-.02l-.034-.003h-.563l-.18-.002h-.027l-.006.002c-.354-.001-.705.015-1.051.048a10.263 10.263 0 0 0-.522-3.152l-.001-.002a10.263 10.263 0 0 0-1.533-2.926l-.009.001a10.335 10.335 0 0 0-3.996-3.174l-.003-.023a10.193 10.193 0 0 0-2.547-.765l.002-.01v-.007l.007-.04v-.012l.006-.041v-.005l.007-.038v-.011l.006-.041v-.008l.005-.035v-.011l.006-.041V19.7l.005-.036v-.008l.006-.041v-.009l.005-.039v-.004l.006-.043v-.008l.01-.086v-.006l.003-.025.004-.035v-.021l.005-.039v-.016l.005-.052v-.021l.003-.033v-.023l.003-.032V19.1l.004-.041V18.7c.185-3.12-.922-5.445-1.559-6.008a1.119 1.119 0 0 0-.069-.053 2.09 2.09 0 0 0-.463-.229c-.915-.343-2.739-.607-4.973-.214l-.185.034-.002-.002a14.047 14.047 0 0 0-3.004.935l.001.001a15.499 15.499 0 0 0-3.134 1.844 16.088 16.088 0 0 0-4.116 4.905v.002a17.71 17.71 0 0 0-.971 2.405l-.032.104c-.068.217-.131.434-.188.649l-.017.017-.014.054-.006.021-.009.037-.006.022-.027.11-.006.021-.009.036-.005.022-.01.042-.004.014-.012.054-.005.02-.013.058-.01.045v.014l-.011.05-.012.056-.005.022-.01.046v.016l-.008.045-.005.021-.008.035-.004.021-.011.052-.002.014-.008.04-.004.022-.006.034-.005.022-.008.049-.005.02-.006.035-.004.023-.006.031-.012.073-.005.023-.014.083-.005.026-.007.046-.004.027-.005.026-.004.028-.003.023-.005.029-.006.044-.005.031-.003.02-.005.031v.018l-.004.032-.011.079v.014l-.004.035v.011l-.005.036-.005.043-.004.038v.008l-.005.039a2.516 2.516 0 0 0-.01.086c-.362 3.321.602 5.67 1.269 6.343v-.002a1.29 1.29 0 0 0 .238.187c.791.497 2.877.979 5.785.247Z"/>
  </g>
  <g id="black">
    <path d="M29.877 40.383c-.102.003-.205.004-.308.004l.37-.695c-.028.23-.049.46-.062.691Zm8.304-10.045-2.777-1.784 1.163-4.508 1.215-.076a10.242 10.242 0 0 1 2.056 6.08c-.565.054-1.119.151-1.657.288ZM23.343 35.03l.154 3.353a10.209 10.209 0 0 1-3.345-4.225l3.191.872Z"/>
    <path d="M29.9 40.042c.015-.177.035-.354.059-.53l-.006.044v.002c-.021.16-.038.321-.052.483l-.001.001Zm7.31-9.42c.104-.037.209-.072.315-.106a5.6 5.6 0 0 0 .333.958A11.76 11.76 0 0 1 40.895 30h.027l.18.002h-.124l-.003.004h-.083c-1.077.343-2.1.84-3.036 1.474a5.494 5.494 0 0 1-.335-.958l-.048.016-.007.002-.048.015-.05.017h-.003l-.048.016h-.005l-.098.034h-.004Zm6.887-.137.111.034c-2.039.038-4.024.66-5.72 1.791l-.022-.02a10.661 10.661 0 0 1 5.631-1.805ZM48 33.115c.089.041.18.086.272.134.365.198.709.431 1.027.698a11.032 11.032 0 0 1 2.019 3.632c-1.572-2.572-4.021-3.869-5.317-3.773-1.678.126-2.755.369-3.672.437-1.877.133-3.405-.371-4.515-1.446-.577.449-1.11.953-1.59 1.505l-.023-.008a11.376 11.376 0 0 1 1.615-1.534c1.11 1.075 2.638 1.579 4.515 1.446.917-.067 1.993-.311 3.671-.436a4.667 4.667 0 0 1 2.683.97A11.136 11.136 0 0 0 48 33.115Zm.675 8.615a45.47 45.47 0 0 1 2.717 2.457c-.122.406-.268.804-.436 1.192a42.766 42.766 0 0 0-7.376-5.997 42.852 42.852 0 0 0-8.118-4.102c-.52.747-.951 1.552-1.284 2.399a.077.077 0 0 0-.015-.002c.334-.86.769-1.677 1.296-2.434a42.857 42.857 0 0 1 8.118 4.103 43.45 43.45 0 0 1 4.671 3.473c.161-.355.304-.719.427-1.089Zm-7.213 7.189c.954 1.019 2.54 1.734 4.792 1.671-.55.311-1.127.574-1.723.786-.814-.214-2.644-.481-3.723-1.619-2.018-2.135-1.532-4.081-1.984-6.002-.909-3.862-2.879-4.705-5.007-4.998l.001-.004c2.129.293 4.101 1.135 5.01 4.999.414 1.757.043 3.539 1.527 5.468.374-.082.743-.182 1.107-.301Zm-6.909-1.692a11.629 11.629 0 0 0 3.936 4.518 10.934 10.934 0 0 1-2.801-1.034 12.74 12.74 0 0 1-1.377-1.81c.501.167 1.012.298 1.531.393-.5-.642-.932-1.335-1.289-2.067Z"/>
  </g>
</svg>
