<svg xmlns="http://www.w3.org/2000/svg" xml:space="preserve" fill-rule="evenodd" stroke-linejoin="round" stroke-miterlimit="2" clip-rule="evenodd" viewBox="0 0 64 64">
  <g id="grey">
    <path fill="#6e6e6e" d="M10.001 10.001h43.998V53.99H10.001z"/>
    <path fill="#1d3041" d="M56.011 44.191h-.651s-.081-2.33.651-4.184v4.184Zm-29.308 0h-1.132s-.147-5.116 2.711-5.925a7.967 7.967 0 0 1 6.304.262c2.151 1.146 2.168 5.663 2.168 5.663h-1.203c.107-.393.162-.799.162-1.207 0-2.516-2.07-4.587-4.586-4.588-2.516.002-4.586 2.073-4.586 4.589 0 .407.055.813.162 1.206Z"/>
    <path fill="#3a4654" d="M31.127 38.396c2.516 0 4.586 2.071 4.586 4.587 0 2.516-2.07 4.586-4.586 4.586-2.516 0-4.586-2.07-4.586-4.586.001-2.516 2.07-4.585 4.586-4.587Zm0 1.541a3.075 3.075 0 0 0-3.046 3.046 3.076 3.076 0 0 0 3.046 3.046 3.076 3.076 0 0 0 3.046-3.046 3.075 3.075 0 0 0-3.046-3.046Z"/>
    <path fill="#ababab" d="M31.127 39.937a3.075 3.075 0 0 1 3.046 3.046 3.076 3.076 0 0 1-3.046 3.046 3.076 3.076 0 0 1-3.046-3.046 3.075 3.075 0 0 1 3.046-3.046Z"/>
  </g>
  <g id="red">
    <path fill="#e0504f" d="M55 40.008c-.622 1.575-.657 3.494-.655 4.035l-17.592.09c-.012-.53-.159-4.535-2.167-5.605a7.967 7.967 0 0 0-6.304-.262c-2.81.796-2.715 5.758-2.711 5.92l-2.746.014a21.443 21.443 0 0 0-2.248-1.878c-.969-.653-1.006-1.082-.983-2.435.33-.736 1.288-.761 1.288-.809l-.014-.165h2.165l.182-2.064-.26-.256h-1.984c.1-.595.256-1.179.466-1.744.784-.932 9.518-2.482 12.546-2.994l2.635.416 5.111-5.547-1.009-.628-.822.67c.679-.644 1.279-1.18 1.675-1.472 1.099-.814 8.35-.757 13.427-.641v2.058h-5.675v6.313H55v6.984Zm-17.692-6.955 10.524-.003.652-6.342h-4.587s-.845.232-1.146.326a1.77 1.77 0 0 0-.917.639l-4.526 5.38Z"/>
  </g>
  <g id="white">
    <path fill="#fff" fill-rule="nonzero" d="M20.971 36.593h1.984l.26.256-.182 2.064h-2.252c-.297-.845-.222-1.617.19-2.32Z"/>
  </g>
  <g id="blue">
    <path fill="#809ba5" d="M55 33.024h-5.675v-6.313H55v6.313Zm-17.692.029 4.526-5.38c.228-.306.55-.532.917-.639.381-.113.763-.222 1.146-.326h4.587l-.652 6.342-10.524.003Zm-3.593-1.241 7.005-5.716 1.009.628-5.111 5.547-2.903-.459Z"/>
    <path fill="#c2f0ff" d="M9.012 33.677c-.009-1.855-.024-5.368.004-6.278.037-1.183-.011-4.027 2.66-5.001a3.844 3.844 0 0 0 3.15 1.391c2.336.039 3.017-1.565 3.421-1.391 2.363.964 2.576 3.856 2.579 5.001l.002.969v5.768l-.001.077-.001.571a1.147 1.147 0 0 1-1.125 1.126h-.909v9.764s0 1.923-1.939 1.822c-1.842 0-1.939-1.72-1.939-1.923 0 .203-.097 1.822-1.939 1.923-1.939.101-1.939-1.822-1.939-1.822V35.91h-.894a1.148 1.148 0 0 1-1.126-1.126l-.001-.374A2.502 2.502 0 0 1 9 34.136c0-.135.004-.286.012-.459Zm5.902-18.309c2.184.001 3.981 1.798 3.982 3.982-.001 2.184-1.798 3.981-3.982 3.982-2.184-.001-3.981-1.798-3.982-3.982.001-2.184 1.798-3.981 3.982-3.982Z"/>
    <path fill="#9eb9e1" d="M54.475 8h.001C55.312 8 56 8.688 56 9.524v6.473h-2.001v-5.996h-5.996V8h6.472ZM38.004 53.999h7.997V56h-7.997v-2.001Zm-10.007 0h8.006V56h-8.006v-2.001Zm-9.998 0h8.005V56h-8.005v-2.001ZM8 38.004h2.001v7.997H8v-7.997ZM9.525 56h-.001A1.531 1.531 0 0 1 8 54.476v-6.473h2.001v5.996h6.005V56H9.525Zm44.474-28.003H56v7.997h-2.001v-7.997ZM8 27.997h2.001v7.997H8v-7.997Zm48 19.997v6.473c0 .837-.688 1.525-1.525 1.525h-6.472V53.99h5.996v-5.996H56Zm-2.001-29.995H56v7.997h-2.001v-7.997Zm0 20.005H56v7.997h-2.001v-7.997ZM10.001 10.001v5.996H8V9.524C8 8.688 8.688 8 9.524 8h6.473v2.001h-5.996ZM27.997 8h8.006v2.001h-8.006V8Zm-9.998 0h8.005v2.001h-8.005V8Zm20.005 0h7.997v2.001h-7.997V8ZM8 17.999h2.001v7.997H8v-7.997Z"/>
  </g>
</svg>
