<svg xmlns="http://www.w3.org/2000/svg" xml:space="preserve" fill-rule="evenodd" stroke-linejoin="round" stroke-miterlimit="2" clip-rule="evenodd" viewBox="0 0 64 64">
  <g id="grey">
    <path fill="#6e6e6e" d="M10.001 10.001h43.998V53.99H10.001z"/>
  </g>
  <g id="blue">
    <path fill="#9eb9e1" d="M54.475 8h.001C55.312 8 56 8.688 56 9.524v6.473h-2.001v-5.996h-5.996V8h6.472ZM38.004 53.999h7.997V56h-7.997v-2.001Zm-10.007 0h8.006V56h-8.006v-2.001Zm-9.998 0h8.005V56h-8.005v-2.001ZM8 38.004h2.001v7.997H8v-7.997ZM9.525 56h-.001A1.531 1.531 0 0 1 8 54.476v-6.473h2.001v5.996h6.005V56H9.525Zm44.474-28.003H56v7.997h-2.001v-7.997ZM8 27.997h2.001v7.997H8v-7.997Zm48 19.997v6.473c0 .837-.688 1.525-1.525 1.525h-6.472V53.99h5.996v-5.996H56Zm-2.001-29.995H56v7.997h-2.001v-7.997Zm0 20.005H56v7.997h-2.001v-7.997ZM10.001 10.001v5.996H8V9.524C8 8.688 8.688 8 9.524 8h6.473v2.001h-5.996ZM27.997 8h8.006v2.001h-8.006V8Zm-9.998 0h8.005v2.001h-8.005V8Zm20.005 0h7.997v2.001h-7.997V8ZM8 17.999h2.001v7.997H8v-7.997Z"/>
  </g>
  <g id="black">
    <path id="black1" d="M24.214 46.412V45.24h1.458v1.172h-1.458Zm0-3.13v-.787h1.458v.787h-1.458Zm15.694-.787v.787H38.45v-.787h1.458Zm0 2.745v1.172H38.45V45.24h1.458Zm.734 3.695V52H39.18v-3.065h1.462Zm-15.699 0V52h-1.459v-3.065h1.459Z"/>
  </g>
  <g id="brown">
    <path fill="#b28e5e" d="M44.065 39.974c-.763 3.042-1.239 6.084.605 9.634.317.61 1.202 1.082 1.649 1.729.564.819-.614.551-1.082.287-2.29-1.292-3.193-.412-4.49-.522l-.105.012v-2.179h1.105v-2.523h-1.839V45.24h1.241v-1.958h-1.241v-.787h1.241v-1.958h-1.556a37.411 37.411 0 0 0-.014-.58c.922.09 1.913.112 2.96.112.523 0 1.032-.032 1.526-.095Zm-21.263 2.24v.281h.727c-.064.261-.124.524-.18.787h-.547v1.958h.268c-.025.39-.025.781-.001 1.172h-.864v2.523h1.279v2.29c-1.15-.313-1.794.11-2.641.039a5.934 5.934 0 0 0-1.64.424c-.436.05-.863.155-1.273.312-.673 0-.769-.21-.443-.696.25-.208.705-.238 1.126-.497.655-.405 1.273-1.052 1.261-1.356-.099-2.451.077-4.909-.001-7.318.769.074 1.594.091 2.467.091.156 0 .31-.003.462-.01Zm2.141 8.673c.207.178.408.363.554.57.359.51-.129.505-.554.377v-.947Zm14.237.576c-.133.049-.266.1-.397.157a6.126 6.126 0 0 0-1.526.379c-.807 0-.92-.257-.53-.849.299-.255.844-.291 1.349-.608a5.36 5.36 0 0 0 1.104-.928v1.849Z"/>
    <path fill="#9c794b" d="M35.285 38.501c-.167.676-.32 1.354-.443 2.036h-4.533a65.06 65.06 0 0 0-.027-2.164c1.067.1 2.21.124 3.416.124.508 0 1.004-.025 1.489-.075l.098.079Zm-5.038 6.739h4.426c.054.387.128.777.224 1.172h-4.654c-.001-.391 0-.781.004-1.172Zm.04-2.745h4.303c-.018.261-.031.523-.035.787h-4.28l.012-.787Zm-.175 6.44h5.695c.056.118.115.237.177.357.354.69 1.346 1.225 1.848 1.958.631.924-.689.623-1.214.324-2.566-1.461-3.576-.467-5.031-.591-.759.085-1.5.283-2.201.586a6.816 6.816 0 0 0-1.709.431c-.905 0-1.032-.29-.595-.961.335-.288.947-.329 1.512-.688.628-.399 1.233-.969 1.518-1.416Z"/>
    <path fill="#e0b98c" d="M22.802 42.495v-1.958h18.347v1.958H22.802Zm0 2.745v-1.958h18.347v1.958H22.802Zm-.597 3.695v-2.523h19.542v2.523H22.205Z"/>
  </g>
  <g id="green">
    <path fill="#4b9711" d="M19.892 24.573a7.536 7.536 0 0 1 4.567-3.7c.249-4.789 4.158-8.653 8.973-8.872a9.338 9.338 0 0 1 2.435.289 8.345 8.345 0 0 1 3.606 6.3c-2.651 1.162-4.556 3.736-4.729 6.757-2.697.755-4.578 3.217-4.589 6.005.002.382.037.758.107 1.125l-.002-.003c.098.521.263 1.028.49 1.508a90.81 90.81 0 0 1-.904-.007 6.543 6.543 0 0 0-1.106-1.928c.117-.529.168-1.07.152-1.61-.089-2.955-2.18-5.501-5.073-6.179l.01.007a6.504 6.504 0 0 0-1.674-.173 6.512 6.512 0 0 0-2.263.481Z"/>
    <path fill="#3a7f06" d="M29.846 33.975c.296.004.598.006.904.007a6.27 6.27 0 0 0 3.287 3.125 5.51 5.51 0 0 0 1.142 1.308c-.492.051-.986.076-1.481.076-1.426 0-2.766-.035-3.994-.188a5.105 5.105 0 0 0 .528-1.785v-.003a6.5 6.5 0 0 0-.386-2.54Zm9.627-15.385a8.345 8.345 0 0 0-3.679-6.349 9.575 9.575 0 0 1 6.52 5.693c-.98.04-1.943.263-2.841.656Z"/>
    <path fill="#54b60b" d="M12.093 36.006a4.973 4.973 0 0 1-.093-.927 5.176 5.176 0 0 1 3.832-4.913c.223-3.324 2.975-5.969 6.323-6.074a6.504 6.504 0 0 1 1.674.173 5.673 5.673 0 0 1 2.589 4.516c.016.476-.031.951-.139 1.415a5.504 5.504 0 0 1 1.391 3.923c-.29 2.703-3.303 5.011-7.355 5.011-2.923 0-5.292-.204-6.617-2.13a5 5 0 0 1-1.605-.994Z"/>
    <path fill="#367c01" d="M22.802 42.214c-.152.007-.307.01-.463.01-3.137 0-5.678-.232-7.099-2.429a5.18 5.18 0 0 1-3.155-3.797A5.001 5.001 0 0 0 13.698 37c1.325 1.926 3.694 2.13 6.617 2.13 4.052 0 7.065-2.308 7.355-5.011a5.504 5.504 0 0 0-1.391-3.923c.108-.464.155-.939.139-1.415a5.674 5.674 0 0 0-2.599-4.523c2.893.678 4.984 3.224 5.073 6.179a6.517 6.517 0 0 1-.153 1.612 6.521 6.521 0 0 1 1.493 4.469c-.156 1.544-1.049 2.975-2.448 4.019h-4.982v1.677Z"/>
    <path fill="#83e637" d="M30.262 32.477a6.16 6.16 0 0 1-.107-1.125c.011-2.788 1.892-5.25 4.589-6.005.23-4.02 3.527-7.248 7.57-7.413a7.925 7.925 0 0 1 2.041.233 6.958 6.958 0 0 1 3.069 5.498 6.733 6.733 0 0 1-.167 1.727 6.806 6.806 0 0 1 1.665 4.79c-.347 3.297-3.955 6.115-8.807 6.115-3.501 0-6.336-.246-7.923-2.6a5.976 5.976 0 0 1-1.93-1.22Z"/>
    <path fill="#54b60b" d="M44.308 18.136c3.493.86 5.993 3.963 6.074 7.541a8.097 8.097 0 0 1-.179 1.97 8.048 8.048 0 0 1 1.788 5.455c-.373 3.755-4.244 6.965-9.451 6.965-3.756 0-6.798-.283-8.502-2.961a6.302 6.302 0 0 1-3.778-4.632 5.948 5.948 0 0 0 1.932 1.223c1.587 2.354 4.422 2.6 7.923 2.6 4.852 0 8.46-2.818 8.807-6.115a6.806 6.806 0 0 0-1.665-4.79c.13-.566.186-1.146.167-1.727a6.955 6.955 0 0 0-3.116-5.529Z"/>
  </g>
</svg>
