<svg xmlns="http://www.w3.org/2000/svg" xml:space="preserve" fill-rule="evenodd" stroke-linejoin="round" stroke-miterlimit="2" clip-rule="evenodd" viewBox="0 0 64 64">
  <g id="white">
    <path fill="#f4f4f4" d="M15.991 45.709h4.131L16.272 52h-5.446l5.165-6.291ZM20.028 52l2.817-6.291h4.132L25.474 52h-5.446Zm9.765-6.291h4.132L34.676 52H29.23l.563-6.291Zm6.949 0h4.131L43.972 52h-5.446l-1.784-6.291Zm10.986 0L53.174 52h-5.446l-4.038-6.291h4.038Z"/>
  </g>
  <g id="blue">
    <path fill="#9eb9e1" d="M54.475 8A1.524 1.524 0 0 1 56 9.525v6.472h-2.001v-5.996h-5.996V8h6.472ZM38.004 53.999h7.997V56h-7.997v-2.001Zm-10.007 0h8.006V56h-8.006v-2.001Zm-9.998 0h8.005V56h-8.005v-2.001ZM8 38.004h2.001v7.997H8v-7.997ZM9.525 56A1.524 1.524 0 0 1 8 54.475v-6.472h2.001v5.996h6.005V56H9.525Zm44.474-28.003H56v7.997h-2.001v-7.997ZM8 27.997h2.001v7.997H8v-7.997Zm48 19.997v6.473a1.525 1.525 0 0 1-1.525 1.525h-6.472V53.99h5.996v-5.996H56Zm-2.001-29.995H56v7.997h-2.001v-7.997Zm0 20.005H56v7.997h-2.001v-7.997ZM10.001 10.001v5.996H8V9.525A1.524 1.524 0 0 1 9.525 8h6.472v2.001h-5.996ZM27.997 8h8.006v2.001h-8.006V8Zm-9.998 0h8.005v2.001h-8.005V8Zm20.005 0h7.997v2.001h-7.997V8ZM8 17.999h2.001v7.997H8v-7.997Z"/>
    <path fill="#c2f0ff" d="m28.801 40.95-4.609 5.82a1.59 1.59 0 0 1-2.145.295 1.432 1.432 0 0 1-.281-2.059l4.468-5.641c.01-.063.024-.125.042-.187l1.888-6.575a1.088 1.088 0 0 1-.051-.33v-5.479l-1.09 1.621c0 .034-.001.068-.004.103l-.258 3.304a1.315 1.315 0 0 1-1.39 1.195 1.293 1.293 0 0 1-1.188-1.381l.258-3.302c.009-.119.034-.233.073-.34-.01-.262.065-.521.212-.739l3.262-4.849c.122-.18.284-.322.466-.421.196-.186.462-.301.753-.301 1.209.619 4.415.62 5.551 0 .461 0 .856.286 1.017.691l7.012 7.715a1.206 1.206 0 0 1-.12 1.754 1.348 1.348 0 0 1-1.83-.126l-4.985-5.485v6.04c0 .039-.002.078-.006.116l3.503 4.933c.236.333.327.72.287 1.09l1.794 7.805a1.497 1.497 0 0 1-1.147 1.795 1.568 1.568 0 0 1-1.828-1.167l-1.747-7.602a1.853 1.853 0 0 1-.103-.131l-4.433-4.878-2.695 5.788c-.11.379-.349.708-.676.928Z"/>
    <path fill="#c2f0ff" d="M32.018 13.018A3.984 3.984 0 0 1 36 17a3.984 3.984 0 0 1-7.965 0 3.984 3.984 0 0 1 3.983-3.982Z"/>
  </g>
</svg>
