<?xml version="1.0" encoding="UTF-8" standalone="no"?>
<!-- Generator: Adobe Illustrator 27.5.0, SVG Export Plug-In . SVG Version: 6.00 Build 0)  -->

<svg
   version="1.1"
   x="0px"
   y="0px"
   viewBox="0 0 64 64"
   xml:space="preserve"
   id="svg35"
   sodipodi:docname="Forest Animal Spawner.svg"
   width="64"
   height="64"
   inkscape:version="1.3.2 (091e20e, 2023-11-25, custom)"
   xmlns:inkscape="http://www.inkscape.org/namespaces/inkscape"
   xmlns:sodipodi="http://sodipodi.sourceforge.net/DTD/sodipodi-0.dtd"
   xmlns="http://www.w3.org/2000/svg"
   xmlns:svg="http://www.w3.org/2000/svg"
   xmlns:rdf="http://www.w3.org/1999/02/22-rdf-syntax-ns#"
   xmlns:cc="http://creativecommons.org/ns#"
   xmlns:dc="http://purl.org/dc/elements/1.1/"><title
   id="title1">Forest Animal Spawner</title><defs
   id="defs35">
	

	
	

		
		
		
		
		
		
		
		
		
		
		
		
		
		
		
		
		
		
		
		
	</defs><sodipodi:namedview
   id="namedview35"
   pagecolor="#ffffff"
   bordercolor="#000000"
   borderopacity="0.25"
   inkscape:showpageshadow="2"
   inkscape:pageopacity="0.0"
   inkscape:pagecheckerboard="0"
   inkscape:deskcolor="#d1d1d1"
   inkscape:zoom="16"
   inkscape:cx="27.5625"
   inkscape:cy="39.65625"
   inkscape:window-width="2659"
   inkscape:window-height="1638"
   inkscape:window-x="113"
   inkscape:window-y="203"
   inkscape:window-maximized="0"
   inkscape:current-layer="svg35" />

<g
   inkscape:groupmode="layer"
   id="layer1"
   inkscape:label="signage layer"
   style="display:inline"
   transform="translate(-0.19517359,-0.04920669)"><g
     id="g56"><path
       d="M 32.681641,4.2929687 C 31.843301,4.2929535 31.475607,4.8974397 30.873047,5.5 l -1.806641,1.8066406 -1.808594,1.8085938 -1.808593,1.8066406 -7.230469,7.230469 -7.230469,7.230468 -1.8066404,1.808594 -1.8085937,1.806641 -1.8066407,1.808594 c -0.6025603,0.60256 -0.9472814,0.956444 -0.9472656,1.808593 1.52e-5,0.824531 0.3056193,1.165038 0.8886719,1.748047 l 1.7480469,1.75 1.75,1.748047 1.7480466,1.75 6.998047,6.996094 6.996094,6.996094 1.75,1.748046 1.748047,1.75 1.75,1.748047 c 0.583052,0.58301 0.923516,0.957047 1.748047,0.957032 0.852089,-1.5e-5 1.206076,-0.413108 1.808593,-1.015625 l 1.806641,-1.806641 1.808594,-1.808594 1.80664,-1.80664 7.230469,-7.230469 7.230469,-7.230469 1.80664,-1.806641 1.808594,-1.808593 1.806641,-1.806641 c 0.602518,-0.602517 0.91014,-0.956505 0.910156,-1.808594 1.5e-5,-0.82453 -0.268553,-1.164993 -0.851562,-1.748047 l -1.748047,-1.75 -1.75,-1.75 -1.748047,-1.748046 -6.996094,-6.996094 -6.996094,-6.998047 -1.75,-1.7480469 -1.748047,-1.75 -1.75,-1.7480469 C 33.846678,4.8583535 33.519981,4.292984 32.681641,4.2929687 Z"
       style="fill:#fffdf8;fill-opacity:1;stroke:none;stroke-width:0.249751"
       id="path56" /><path
       d="M 32.793612,0.37647838 C 31.839909,0.37646359 31.420646,1.1487382 30.734164,1.8351778 l -2.059447,2.0593188 -2.059446,2.059319 -2.059447,2.0593189 -8.237788,8.2372765 -8.2377883,8.237274 -2.059447,2.05932 -2.059447,2.059318 c 0,0 -1.3729647,1.372879 -2.0594469,2.059319 -0.6864824,0.68644 -1.19767362,1.088517 -1.19768862,2.059319 -1.458e-5,0.936605 0.46279982,1.324559 1.12507902,1.986838 0.6622792,0.662279 1.9868375,1.986838 1.9868375,1.986838 l 1.9868374,1.986837 1.9868375,1.986838 7.9473504,7.947349 7.947349,7.94735 1.986837,1.986838 1.986838,1.986837 c 0,0 1.324558,1.324559 1.986837,1.986838 0.66228,0.662279 1.050234,1.194397 1.986838,1.194411 0.970803,1.5e-5 1.372965,-0.580453 2.059447,-1.266893 0.686482,-0.686439 2.059446,-2.059318 2.059446,-2.059318 l 2.059448,-2.059319 2.059447,-2.05932 8.237788,-8.237275 8.237788,-8.237275 2.059447,-2.05932 2.059446,-2.059319 c 0,0 1.372965,-1.372879 2.059447,-2.059318 0.686482,-0.68644 1.16255,-1.088517 1.162566,-2.059319 1.5e-5,-0.936605 -0.427677,-1.324559 -1.089956,-1.986838 -0.662279,-0.662279 -1.986838,-1.986837 -1.986838,-1.986837 L 58.622499,25.604746 56.635661,23.617908 48.688311,15.670559 40.740961,7.7232088 38.754123,5.7363714 36.767286,3.7495339 34.780449,1.7626963 C 34.11817,1.1004171 33.747315,0.37649317 32.793612,0.37647838 Z M 32.680919,4.2920145 c 0.838341,1.53e-5 1.166022,0.565487 1.749032,1.1485403 l 1.749032,1.7491597 1.749031,1.7491603 1.749032,1.7491592 6.996126,6.996638 6.996127,6.99664 1.749032,1.749159 1.749031,1.74916 c 0,0 1.166021,1.166106 1.749032,1.749159 0.58301,0.583054 0.852165,0.924629 0.85215,1.74916 -1.6e-5,0.852089 -0.308154,1.205036 -0.910673,1.807554 -0.602518,0.602518 -1.807555,1.807555 -1.807555,1.807555 l -1.807554,1.807554 -1.807555,1.807556 -7.230219,7.230218 -7.230218,7.230219 -1.807554,1.807555 -1.807555,1.807555 c 0,0 -1.205036,1.205036 -1.807555,1.807554 -0.602518,0.602518 -0.955465,1.015114 -1.807555,1.015129 -0.824531,1.5e-5 -1.166106,-0.373595 -1.749159,-0.956605 -0.583053,-0.583011 -1.74916,-1.749032 -1.74916,-1.749032 l -1.74916,-1.749032 -1.74916,-1.749031 -6.996638,-6.996127 -6.99664,-6.996127 -1.7491588,-1.749031 -1.7491601,-1.749032 c 0,0 -1.1661064,-1.166022 -1.7491596,-1.749032 -0.5830532,-0.58301 -0.887386,-0.9245 -0.8874012,-1.749031 -1.58e-5,-0.85215 0.3433633,-1.205122 0.9459243,-1.807683 0.6025609,-0.602561 1.8076828,-1.807682 1.8076828,-1.807682 l 1.8076824,-1.807684 1.8076832,-1.807682 7.230731,-7.23073 7.230731,-7.230732 1.807683,-1.8076825 1.807682,-1.8076832 1.807683,-1.8076826 c 0.602561,-0.6025609 0.969342,-1.2070785 1.807682,-1.2070632 z"
       style="fill:#f6c840;fill-opacity:1;stroke:#1d3244;stroke-width:0.249751;stroke-opacity:1"
       id="path55"
       sodipodi:nodetypes="zzcccccccssscccccccssscccccccsssccccccczzzzcccccccssscccccccssscccccccsssccccccczz"
       inkscape:label="holder" /></g></g><g
   id="g35"
   inkscape:label="bear"
   transform="matrix(0.11821478,0,0,0.13419147,0.57597387,-1.9790848)"><path
     style="fill:#725631;fill-opacity:1;stroke:#1d3244;stroke-width:4;stroke-miterlimit:10"
     d="m 136.97056,179.18169 c 10.704,-4.654 30.38644,-4.86169 30.38644,-4.86169 0,0 26.992,-17.684 44.366,-16.999 17.374,0.685 32.348,11.725 32.348,11.725 0,0 57.624,-18.925 95.475,-8.687 l -4.576,1.086 c 0,0 23.657,3.723 39.479,20.942 l -2.947,0.698 c 0,0 16.66237,9.31649 22.105,33.507 3.374,16.87 -6.77094,27.58511 -6.77094,27.58511 0,0 -45.66371,9.00099 -63.01613,23.12717 -10.83765,8.82268 -38.8576,4.16683 -55.31959,-3.12351 -12.02562,-5.32566 -26.62339,-34.70228 -38.96787,-22.66758 -11.61792,11.32637 -37.35295,20.02452 -51.91352,14.99153 -7.56573,-2.61516 -16.99428,-17.88398 -32.69889,-15.49549 -1.54686,0.23526 -3.30033,-0.006 -5.17839,-0.62458 -1.87806,-0.61858 -4.43045,5.39485 -6.47565,4.12079 -2.0452,-1.27405 -16.09008,2.94614 -18.13838,1.21497 -2.04829,-1.73117 -14.26183,0.87177 -16.9395,0.27863 -3.39916,-0.75297 -1.38903,-15.48784 0.007,-17.65471 2.56081,-3.97441 5.46258,-9.30382 7.00064,-11.62843 1.21003,-1.82883 4.24655,-9.65345 5.27795,-10.91691 4.41328,-5.40621 9.20203,-13.37204 11.4691,-15.65758 3.11074,-3.13608 1.01384,-8.62149 5.2847,-11.69491 4.29907,-3.09372 9.74289,0.73519 9.74289,0.73519 z"
     id="path1"
     sodipodi:nodetypes="ccscccccccsssssssssssssccc" /><g
     id="g2"
     style="fill:#725631;fill-opacity:1"
     transform="matrix(-1,0,0,1,500,0)">
			<path
   style="fill:#1d3244;fill-opacity:1"
   d="m 358.239,195.261 c -0.759,-2.367 -0.993,-4.908 -0.763,-7.457 0.236,-2.547 1.022,-5.111 2.475,-7.42 0.19,-0.284 0.369,-0.574 0.572,-0.852 l 0.675,-0.798 c 0.422,-0.554 1.01,-0.986 1.541,-1.459 0.256,-0.247 0.597,-0.412 0.898,-0.612 0.319,-0.181 0.608,-0.403 0.955,-0.542 0.69,-0.278 1.362,-0.605 2.115,-0.713 1.468,-0.385 2.998,-0.223 4.433,0.046 0.687,0.227 1.378,0.413 2.05,0.714 0.668,0.31 1.331,0.684 1.926,1.172 1.21,0.943 2.192,2.242 2.752,3.651 0.578,1.406 0.815,2.872 0.84,4.282 0.046,2.833 -0.728,5.466 -1.878,7.814 -1.152,2.358 -2.742,4.427 -4.554,6.215 -1.847,1.755 -3.928,3.254 -6.28,4.18 2.912,-4.056 5.345,-7.974 6.993,-12.117 0.806,-2.051 1.455,-4.143 1.591,-6.156 0.131,-2.007 -0.384,-3.872 -1.784,-4.949 -0.335,-0.284 -0.736,-0.508 -1.159,-0.707 -0.428,-0.193 -0.915,-0.313 -1.366,-0.484 -0.928,-0.145 -1.863,-0.259 -2.746,0.006 -1.794,0.363 -3.394,1.676 -4.675,3.334 -1.307,1.663 -2.245,3.718 -2.98,5.89 -0.74,2.185 -1.194,4.51 -1.631,6.962 z"
   id="path2" />
		</g><path
     style="fill:#725631;fill-opacity:1;stroke:#1d3244;stroke-width:4;stroke-miterlimit:10"
     d="m 305.186,271.337 c 2.637,26.59 25.13,42.144 25.13,42.144 l -0.543,9.23 c -9.463,4.343 -10.704,11.945 -10.704,11.945 h 34.981 l 7.289,-34.5 -11.01461,-12.56484 -11.97668,-8.99144 -14.588,-12.15253 z"
     id="path9"
     sodipodi:nodetypes="cccccccccc" /><path
     style="fill:#725631;fill-opacity:1;stroke:#1d3244;stroke-width:4;stroke-miterlimit:10"
     d="m 156.703,175.159 c -1.833,-9.759 -15.66,-8.695 -17.705,3.687"
     id="path3" /><path
     style="fill:none;fill-opacity:1;stroke:#1d3244;stroke-width:4;stroke-miterlimit:10"
     d="m 203.364,253.7 c -31.818,3.069 -40.428,-6.782 -46.943,-12.521 l -22.958,1.396 4.033,2.249 c 0,0 -9.152,2.559 -17.839,1.318 l -8.765,1.551 c 0,0 -7.446,3.801 -11.402,-0.62"
     id="path4" /><path
     style="fill:#725631;fill-opacity:1;stroke:#1d3244;stroke-width:4;stroke-miterlimit:10"
     d="m 113.528,241.023 -2.87,0.698 c 0,0 -6.981,5.895 -11.169,5.74 -4.188,-0.155 -9.152,-6.438 -9.152,-6.438 v -3.49 l 14.892,-18.848 0.31,-7.523 18.02,-23.789"
     id="path5" /><path
     style="fill:#725631;fill-opacity:1;stroke:#1d3244;stroke-width:4;stroke-miterlimit:10"
     d="m 256.089,231.25 c 0,0 5.585,15.202 12.565,28.388 0,0 -3.035,-1.551 -7.335,-5.119 0,0 5.628,11.634 7.335,19.08 l -3.296,-1.241 c 0,0 5.623,34.438 -7.097,62.36 h -29.474 c 0,0 -0.388,-6.205 7.407,-9.695 7.795,-3.49 4.77,-22.338 4.77,-22.338 0,0 -23.501,-28.776 -28.776,-41.496 v 7.601 c 0,0 -9.773,-10.083 -12.255,-28.698"
     id="path6" /><path
     style="fill:#725631;fill-opacity:1;stroke:#1d3244;stroke-width:4;stroke-miterlimit:10"
     d="m 165.994,248.609 c 0,0 -1.119,10.564 0.277,27.317 l -24.426,40.488 c 0,0 -12.599,2.138 -18.286,12.565 h 33.143 c 0,0 23.413,-10.122 43.231,-31.995 l -5.972,0.116 c 0,0 15.37651,-13.97112 15.56751,-33.02612 l -6.62305,-9.77606 -15.00677,-0.43027 -11.02106,-1.39233 c -3.62788,-1.28874 -7.25575,-2.57748 -10.88363,-3.86622 z"
     id="path7"
     sodipodi:nodetypes="cccccccccccc" /><path
     style="fill:#725631;fill-opacity:1;stroke:#1d3244;stroke-width:4;stroke-miterlimit:10"
     d="m 319.07,240.403 c 0,0 0.31,26.449 13.341,43.9 v -5.352 c 0,0 16.521,19.779 43.978,26.527 l 4.421,10.316 -0.62,6.205 c 0,0 -12.255,2.792 -15.668,12.72 h 36.143 l 8.997,-37.23 c 0,0 -7.213,-16.443 -22.959,-29.784 l 4.654,-2.792 -7.756,-4.033 c 0,0 11.324,-17.995 -0.31,-41.574"
     id="path8" /><path
     style="fill:#725631;fill-opacity:1"
     d="m 94.25,232.58 c 0,0 4.36,6.211 -0.474,11.981 l -3.439,-3.538 v -3.49 z"
     id="path12" /><g
     id="g13"
     style="fill:#725631;fill-opacity:1"
     transform="matrix(-1,0,0,1,500,0)">
			<path
   style="fill:#1d3244;fill-opacity:1"
   d="m 359.945,197.511 c 0.675,-0.272 1.362,-0.534 1.965,-0.871 0.295,-0.174 0.568,-0.364 0.746,-0.593 0.168,-0.239 0.286,-0.479 0.319,-0.796 0.104,-0.605 0.06,-1.326 0.029,-2.037 -0.038,-0.715 -0.053,-1.445 -0.068,-2.177 -0.048,-1.452 0.072,-3.049 0.603,-4.568 0.524,-1.492 1.65,-3.07 3.477,-3.645 0.896,-0.264 1.902,-0.228 2.767,0.14 0.438,0.18 0.823,0.432 1.189,0.728 0.172,0.172 0.353,0.335 0.505,0.527 0.137,0.206 0.28,0.413 0.386,0.633 0.427,0.914 0.398,1.862 0.255,2.661 -0.05,0.421 -0.189,0.786 -0.291,1.175 -0.148,0.358 -0.275,0.731 -0.444,1.072 -1.306,2.751 -3.174,5.011 -5.196,7.113 1.347,-2.577 2.828,-5.093 3.747,-7.692 0.213,-0.647 0.388,-1.299 0.448,-1.91 0.074,-0.615 0.015,-1.188 -0.218,-1.58 -0.2,-0.391 -0.628,-0.716 -1.105,-0.91 -0.472,-0.191 -0.995,-0.188 -1.478,-0.039 -0.994,0.269 -1.817,1.237 -2.285,2.413 -0.514,1.187 -0.676,2.511 -0.809,3.939 l -0.181,2.156 c -0.084,0.728 -0.123,1.47 -0.393,2.266 -0.12,0.393 -0.392,0.792 -0.713,1.076 -0.334,0.284 -0.708,0.446 -1.074,0.556 -0.728,0.22 -1.454,0.292 -2.181,0.363 z"
   id="path13" />
		</g></g>
<metadata
   id="metadata35"><rdf:RDF><cc:Work
       rdf:about=""><cc:license
         rdf:resource="http://artlibre.org/licence/lal" /><dc:creator><cc:Agent><dc:title>Tigon Trollhammer</dc:title></cc:Agent></dc:creator><dc:title>Forest Animal Spawner</dc:title></cc:Work><cc:License
       rdf:about="http://artlibre.org/licence/lal"><cc:permits
         rdf:resource="http://creativecommons.org/ns#Reproduction" /><cc:permits
         rdf:resource="http://creativecommons.org/ns#Distribution" /><cc:permits
         rdf:resource="http://creativecommons.org/ns#DerivativeWorks" /><cc:requires
         rdf:resource="http://creativecommons.org/ns#ShareAlike" /><cc:requires
         rdf:resource="http://creativecommons.org/ns#Notice" /><cc:requires
         rdf:resource="http://creativecommons.org/ns#Attribution" /></cc:License></rdf:RDF></metadata></svg>
