<svg xmlns="http://www.w3.org/2000/svg" xml:space="preserve" fill-rule="evenodd" clip-rule="evenodd" viewBox="0 0 64 64">
  <g id="blue">
    <path fill="#c2f0ff" d="M32.396 9.346c.685 0 .952.461 1.428.937l1.427 1.428 1.428 1.427 1.427 1.428 5.71 5.71 5.71 5.711 1.428 1.427 1.427 1.428 1.428 1.427c.476.476.695.755.695 1.428 0 .695-.251.983-.743 1.475l-2.95 2.951-1.476 1.475L37.533 49.4l-2.95 2.951-1.476 1.475c-.491.492-.779.828-1.475.828-.673 0-.952-.305-1.427-.78l-2.856-2.855-1.427-1.428-5.711-5.71-5.71-5.71-4.283-4.282c-.476-.476-.724-.755-.724-1.428 0-.695.28-.983.772-1.475l20.655-20.655c.492-.492.791-.985 1.475-.985Z"/>
  </g>
  <g id="brown">
    <path fill="#884c1e" d="M21.338 24.347c-.195-.791-.893-.8-1.338-.741-.312.441-.239 1.057 0 1.748l1.338-1.007Z"/>
    <path fill="#884c1e" d="M24 30.484c.156 1.808.478 3.122 1 3.831L26.298 36c-.056 2.235-.365 3.937-.298 4.585h3c1.18-.372.43.031 1-.951l-.64-2.102L27 30.563l-3-.079Z"/>
    <path fill="#884c1e" d="M42.499 38 44 34.636c.885.534 1.428 1.479 1.702 2.746.235 1.419.039 2.516-.702 3.203h-3l1-1.007c-.364-.46-.504-.995-.501-1.578Z"/>
    <path fill="#9d662e" d="m20 30.38 7 .183a30.558 30.558 0 0 0 1 3.066L26.298 36A4.714 4.714 0 0 0 25 37.382c-.181.66-.185 1.202 0 1.618.285.784.784 1.07 1.435 1 .728-.239 1.203-.732 1.565-1.337L30 37c1.208-.82 1.891-1.814 2-3 1.478.961 3.156 1.259 5 1-.123.979.069 1.769.556 2.382A7.36 7.36 0 0 0 37.51 39L37 40c-.486.059-.972.252-1.458.677.438.748 1.408.75 2.458.64L40.302 41 41 40c.49-.674.989-1.341 1.499-2 1.476-1.859 1.971-3.897 2.105-6-.273-3.069-1.5-5.248-3.604-6.609-1.333-1.115-2.667-1.496-4-1.391a8.673 8.673 0 0 0-4.295-.302A4.107 4.107 0 0 1 30.783 23c-.358-.629-.937-.981-1.783-1-1.008.167-1.938.569-2.702 1.469L23 24.247c-.667-.216-1.333-.196-2 .32l-1.338 1.053c-.696.397-1.059.861-1.145 1.38v.588c.752.93 1.22 1.861 1.483 2.792Z"/>
    <path fill="#c68564" d="M18.5 27.5c-.586.372-1.164.776-1.71 1.309.139.8.591 1.315 1.21 1.675.667.103 1.333.033 2-.104-.176-1.113-.644-2.088-1.5-2.88Z"/>
    <path fill="#c68564" d="M22.572 25.27c.391-.303.75-.369 1.058-.072.141.303.128.657-.141 1.096-.117-.497-.424-.838-.917-1.024Z"/>
    <path fill="#884c1e" d="m23.63 25.198.551.899c-.218.097-.225.251-.692.197.267-.37.29-.735.141-1.096Z"/>
    <ellipse cx="20.043" cy="26.923" fill="#49362f" rx="0.25" ry="0.287"/>
  </g>
  <g id="green">
    <path fill="#00580d" fill-rule="nonzero" stroke="#324565" stroke-width="0.2px" d="M32.488 6.15c-.778 0-1.12.63-1.68 1.191l-1.681 1.68-10.085 10.085-6.724 6.723-5.042 5.042c-.56.56-.978.888-.978 1.681 0 .764.378 1.081.919 1.621l4.864 4.865 6.487 6.486 8.108 8.108 1.621 1.622 1.622 1.621c.54.541.857.975 1.621.975.793 0 1.121-.474 1.681-1.034l1.681-1.681 1.681-1.68 18.489-18.489 1.681-1.68c.56-.56.949-.889.949-1.681 0-.764-.349-1.081-.89-1.622l-1.622-1.621-1.621-1.622-14.594-14.594-1.622-1.621-3.243-3.244c-.541-.54-.843-1.131-1.622-1.131Zm-.092 3.196c.685 0 .952.461 1.428.937l1.427 1.428 1.428 1.427 1.427 1.428 5.71 5.71 5.71 5.711 1.428 1.427 1.427 1.428 1.428 1.427c.476.476.695.755.695 1.428 0 .695-.251.983-.743 1.475l-2.95 2.951-1.476 1.475L37.533 49.4l-2.95 2.951-1.476 1.475c-.491.492-.779.828-1.475.828-.673 0-.952-.305-1.427-.78l-2.856-2.855-1.427-1.428-5.711-5.71-5.71-5.71-4.283-4.282c-.476-.476-.724-.755-.724-1.428 0-.695.28-.983.772-1.475l20.655-20.655c.492-.492.791-.985 1.475-.985Z"/>
  </g>
</svg>
