<svg xmlns="http://www.w3.org/2000/svg" xml:space="preserve" fill-rule="evenodd" clip-rule="evenodd" viewBox="0 0 64 64">
  <g id="blue">
    <path fill="#80afcb" d="M32.396 9.346c.685 0 .952.461 1.428.937l1.427 1.428 1.428 1.427 1.427 1.428 5.71 5.71 5.71 5.711 1.428 1.427 1.427 1.428 1.428 1.427c.476.476.695.755.695 1.428 0 .695-.251.983-.743 1.475l-2.95 2.951-1.476 1.475L37.533 49.4l-2.95 2.951-1.476 1.475c-.491.492-.779.828-1.475.828-.673 0-.952-.305-1.427-.78l-2.856-2.855-1.427-1.428-5.711-5.71-5.71-5.71-4.283-4.282c-.476-.476-.724-.755-.724-1.428 0-.695.28-.983.772-1.475l20.655-20.655c.492-.492.791-.985 1.475-.985Z"/>
  </g>
  <g id="green">
    <path fill="#14cf31" d="M13.83 37.5h35.603l-11.9 11.9-2.95 2.951-1.476 1.475c-.491.492-.779.828-1.475.828-.673 0-.952-.305-1.427-.78l-2.856-2.855-1.427-1.428-5.711-5.71L13.83 37.5Z"/>
    <path fill="#2fcf08" fill-rule="nonzero" stroke="#324565" stroke-width="0.2px" d="M32.488 6.15c-.778 0-1.12.63-1.68 1.191l-1.681 1.68-10.085 10.085-6.724 6.723-5.042 5.042c-.56.56-.978.888-.978 1.681 0 .764.378 1.081.919 1.621l4.864 4.865 6.487 6.486 8.108 8.108 1.621 1.622 1.622 1.621c.54.541.857.975 1.621.975.793 0 1.121-.474 1.681-1.034l1.681-1.681 1.681-1.68 18.489-18.489 1.681-1.68c.56-.56.949-.889.949-1.681 0-.764-.349-1.081-.89-1.622l-1.622-1.621-1.621-1.622-14.594-14.594-1.622-1.621-3.243-3.244c-.541-.54-.843-1.131-1.622-1.131Zm-.092 3.196c.685 0 .952.461 1.428.937l1.427 1.428 1.428 1.427 1.427 1.428 5.71 5.71 5.71 5.711 1.428 1.427 1.427 1.428 1.428 1.427c.476.476.695.755.695 1.428 0 .695-.251.983-.743 1.475l-2.95 2.951-1.476 1.475L37.533 49.4l-2.95 2.951-1.476 1.475c-.491.492-.779.828-1.475.828-.673 0-.952-.305-1.427-.78l-2.856-2.855-1.427-1.428-5.711-5.71-5.71-5.71-4.283-4.282c-.476-.476-.724-.755-.724-1.428 0-.695.28-.983.772-1.475l20.655-20.655c.492-.492.791-.985 1.475-.985Z"/>
  </g>
  <g id="white">
    <path fill="#ebebeb" d="M49.095 33.774c-.009.017-.019.024-.03.022l.03-.022Zm-15.109-7.763c.297-.359.613-.686.966-.952a5.833 5.833 0 0 1 2.016 0c.304.224.535.448.672.672.06.07.117.142.17.215.607-.344 1.374-.475 2.182-.551-.154.383-.384.592-.672.672-.545.161-.938.291-1.209.397.088.195.154.399.201.611.464-.593 1.011-.767 1.68-.336a6.333 6.333 0 0 0 2.016.672 35.686 35.686 0 0 1 3.36-.336c.38-.006.686.072.914.243.256.009.763.46 1.299 1.437.272.496.986.721 1.484 1.344.634 1.382.575 2.92.336 3.865-.043-.147-.219-.068-.306-.19.133-.23.076-2.204-.366-2.666-.107-.372-.355-.546-.639-.78.063.506.033.99-.084 1.452a23.404 23.404 0 0 1-.286 3.024c-.258.372-.376.703-.567.672a7.108 7.108 0 0 1-.441 2.352l-.84-.336c-.152-.37.018-.705.168-1.008.05-.581.051-1.032 0-1.344-.252-.504-.305-.941-.256-1.344-1.635.555-3.204.679-4.718.452.101.225.191.642.27 1.228-.21.199-.294.574-.336 1.008.142.353.127 1.024 0 1.344l-1.344-.336c.048-.495.153-1.286.336-1.68-.056-.299-.18-.643-.336-1.008v.336c.029.742.09 1.744-.15 2.352h-.186c-.271-.308-.603-.432-1.008-.336-.085-.267.05-.706.293-1.344.047-.124-.022-.528.043-.672a12.742 12.742 0 0 0-.29-1.68c-.241-.104-.48-.216-.718-.336-.45-.542-.69-1.171-.775-1.863-.11-.525-.31-.895-.569-1.162-.289.13-.619.341-1.008.672.057-.629.009-1.285-.336-2.016-.162-.268-.406-.303-.769 0-.287-.201-.591-.202-.912 0l.337-.672c-.328-.273-.278-.84 0-1.584.117-.16.237-.316.36-.466a1.2 1.2 0 0 0-.508-.231l-.737-.174c-.357-.076-.409-.322-.46-.569.203.097.437.188.808.251.233-.084.467-.045.701.174.071.191.143.364.214.527Z"/>
  </g>
  <g id="grey">
    <path fill="#d4d4d4" d="M44.448 34.132a14.4 14.4 0 0 1-.76 2.352c-.07.33-.064.544 0 .672l1.008.336c.217-.452.321-.812.336-1.096a6.923 6.923 0 0 1 .549-2.534l-1.133.27Z"/>
    <path fill="#ababab" d="M37.304 23.715c1.121.261 1.532.982 1.176 2.016a2.24 2.24 0 0 0-.672.216l-.243-.291c.486-.665.36-1.311-.261-1.941Zm-2.666 1.68-.627.672c-.521-.896-.298-1.742.457-2.167-.184.392-.182.867.17 1.495Z"/>
    <path fill="#707070" fill-rule="nonzero" d="M34.44 19.958s.046-1.246.069-1.351c.024-.103-.559 1.013-.559 1.013l-.14-1.013-.955 1.428c-1.701.442-5.172 3.582-5.172 3.582-1.281 1.583-4.217 1.012-4.217 1.012-2.447-1.065-5.102-.025-5.102-.025-3.588 1.011-2.702 5.19-2.702 5.19.442.909.233 3.142.233 3.142 1.56-1.403.815-4.984.815-4.984.14-1.792.816-2.155.816-2.155s.093 0 0 .13c-.937 1.305.186 3.556.186 3.556.513 2.128-.466 2.958-.466 2.958-1.002 1.195-.76 3.048-.76 3.048-.233.57-.187 1.556-.187 1.556.21.26.164.702.164.702-.373.96.187 1.038.187 1.038h.931c.513-.182-.371-.986-.371-.986-.164-.234-.07-.545-.07-.545.115-.519.34-2.632.34-2.632.442-.468 1.141-2.103 1.141-2.103.303-.052.115.311.115.311-.349.883.15 2.71.15 2.71-.023 1.61.443 1.687.443 1.687.349.287.209.597.209.597-.279.468.093.65.093.65h1.119c.442 0-.024-.493-.024-.493-.372-.183-.745-.806-1.024-1.557-.28-.754.13-3.281.13-3.281.536-1.142 1.165-3.375 1.165-3.375.349-.467 1.235-.025 1.235-.025 1.35 1.297 5.008.779 5.008.779 1.072.233.233 4.49.233 4.49-.349 1.143-.209 2.206-.209 2.206.186.077.139.467.139.467-.303.52-.139.806-.139.806h1.141c.512-.027-.139-.701-.139-.701-.304-.182-.443-1.143-.443-1.143 0-1.064.395-2.102.395-2.102.28-.311.21.96.21.96-.07 1.22.14 1.947.14 1.947.326.26.256.727.256.727-.139.7.489.571.489.571.768 0 .839-.104.839-.104.093-.312-.629-.753-.629-.753-.722-.415-.442-3.116-.442-3.116.28-1.427.559-4.204.559-4.204 1.282-1.039 1.025-3.271 1.025-3.271 1.096-.753 2.003-4.18 2.003-4.18.281-.389.63-.052.63-.052.297.379.706.654 1.168.788.466.883 1.301.407 1.301.407.723-.701-.466-2.388-.466-2.388-.209-.284-.861-1.919-.861-1.919Z"/>
  </g>
  <g id="orange">
    <path fill="#e9b994" d="M43.688 34.282c.399-.073.746-.124 1.071-.224.33-.057.842-.177 1.138-.301-.123.56-.039.982.153 1.447l-.376.178-.093.43h-.328l-.205-.336-.174.336h-.264l-.151-.336-.571-.336c-.182-.27-.254-.555-.2-.858Zm-5.664-7.783 1.968-1.104c.181.231-.019.807-.444 1.14-.469-.098-.808.093-1.236.54l-.288-.576Zm-4.013-.432c-.168.126-.303.345-.403.672-.456-.263-.732-.646-.885-1.111.447.152.774.084 1.288.439Zm-.74 2.688c.257-.293.622-.377.912 0 .334-.283.692-.357.892.066.158.346.406.697.43.942.135.438-.084.773-.217 1.008-.408.377-.87.398-1.344.337-.491-.3-.72-.642-.807-1.009a3.492 3.492 0 0 1 .134-1.344Z"/>
  </g>
  <g id="black">
    <path d="M39.165 31.319c-.35.549-.523.866-.879.229-.553.076-.577-.209-.332-.678.156-.733.518-1.212 1.598-.81.498.167.563.529.221 1.074.979-.543 1.466-.219 1.563.791.291.561-.534 1.162-1.008.725-.518-.479-1.432-.86-1.163-1.331l.025-.039-.025.039Zm6.602 5.971.945.538c.101.224.05.5-.147.672h-1.533c.099-.517.334-.928.735-1.21Zm-2.079-.134 1.008.336c.078.255.09.484 0 .672h-1.68c.063-.321.239-.653.672-1.008Zm-4.032.336 1.344.336c-.008.259-.126.48-.336.672h-1.605c.101-.434.261-.809.597-1.008Zm-1.344-.336c.407-.102.735.035 1.008.336l-.334.672H37.64c-.004-.457.171-.819.672-1.008Zm10.753-3.36c.487-.099.654.468.672 1.344-.197.314-.207.799 0 1.482-.546-.428-1.002-.885-1.008-1.482-.027-.745.127-1.104.336-1.344Zm-15.256-4.859c.112 0 .202.087.202.195 0 .108-.09.195-.202.195h-.003a.2.2 0 0 1-.198-.195c0-.108.09-.195.201-.195Zm.941 0c.112 0 .202.087.202.195 0 .108-.09.195-.202.195h-.004a.2.2 0 0 1-.198-.195c0-.108.09-.195.202-.195Zm1.008-1.766c.112 0 .202.088.202.195 0 .108-.09.196-.202.196h-.003a.2.2 0 0 1-.199-.196c0-.107.09-.195.202-.195Zm-2.008.045c.079 0 .142.088.142.195 0 .108-.063.196-.142.196-.079 0-.142-.088-.142-.196 0-.107.063-.195.142-.195Zm11.282-.045c.639.133 1.073.527 1.25 1.248.082.93-.325 1.553-1.25 1.853-.914.206-1.537-.085-1.905-.845-.326.607-.835.821-1.455.797-.539-.231-.804-.635-.672-1.287.29-.649.771-1.087 1.86-.854-.001-.376.199-.637.492-.846a5.704 5.704 0 0 1 1.68-.066Zm1.344 4.187c-.057-.434.109-.447.387-.25-.145-.396-.067-.651.123-.836.668-.898.755-.424.498.862.519.461.244.976-.498 1.521-.225-.642-.553-.611-.989.133-.51-.265-.607-.661.479-1.43Zm-4.534 1.069.068.049c-.466.66-.839 1.241-.802 1.769l-.083.006c-.038-.543.338-1.143.817-1.824Zm-2.144 1.433-.084.006a1.478 1.478 0 0 0-.318-.829c-.619-.195-1.004-.641-1.244-1.242l.077-.031c.232.581.603 1.012 1.203 1.198a.038.038 0 0 1 .021.014c.24.31.324.601.345.884Zm-1.345-5.606-.001.001c-.091.453-.251.829-.535 1.061a.056.056 0 0 1-.017.009c-.683.164-1.135.453-1.475.803l-.059-.057c.347-.359.809-.656 1.507-.826.265-.222.412-.58.498-1.007l.001-.003c.088-.32.096-.698-.001-1.151l.081-.018c.1.468.091.857.001 1.188Zm7.544 5.503-.03.077a2.568 2.568 0 0 1-1.206-.961v-.001a3.71 3.71 0 0 1-.313-.713c-.072-.24-.104-.487-.025-.657l.075.035c-.072.155-.037.38.029.598.102.337.283.657.304.693.284.437.725.755 1.166.929Z"/>
    <path d="M32.832 20.041c-1.041.33-2.07.74-3.065 1.349-.877.589-1.67 1.215-2.29 1.92l-.806 1.057c-.115.363-.095.607-.022.806.374-.413.763-.783 1.185-1.057.255-.446.561-.741.909-.908.526-.393.977-.303 1.363-.137-.044-.441-.022-.77.097-.933.171.037.316.236.441.553.199-.329.294-.657.284-.985.213-.194.426.044.638.593l.262-.995c.318-.13.34.206.402.54l.602-.946v-.857Zm-15.255 4.867c-.506.17-.971.413-1.22 1.026-.327.327-.57.795-.664 1.518-.221.518-.242 1.076-.115 1.663.021.473.118.812.232 1.122.07.401.11.922.134 1.51l-.049 1.189c.258-.218.508-.597.698-1.094a4.213 4.213 0 0 0 .295-1.948 3.516 3.516 0 0 0-.133-1.688 2.981 2.981 0 0 1 .038-.909c.124-.506.272-.9.443-1.197.108-.117.216-.217.324-.288l.017-.904Zm-.367 12.891-.794.077c-.209.446-.033.856.175.909h1.246c.091-.02-.178-.842-.627-.986Zm2.328.025c-.209.204-.181.465.086.68l1.333-.026c.003-.314-.185-.511-.455-.658l-.964.004Zm7.841-.096c-.2.245-.241.469-.155.761h1.432c-.031-.44-.28-.628-.444-.74l-.833-.021Zm1.445.229c-.073.447-.042.785.229.828l1.191-.064c-.064-.317-.264-.596-.686-.806l-.734.042Zm5.685-19.356c-.13.359-.288.789-.313 1.207.095-.028.178.014.244.15l.069-1.357Zm-.699.006a7.174 7.174 0 0 0-.428 1.266c.132-.134.283-.206.474-.147a38.043 38.043 0 0 1-.046-1.119Zm-.006 2.09c-.093.035-.145.125-.115.2.028.077.126.109.219.075.091-.035.143-.125.115-.201-.029-.075-.127-.109-.219-.074Zm.784.01c-.033.038-.024.101.02.141.046.04.109.043.144.005.033-.038.024-.102-.02-.142-.046-.04-.109-.042-.144-.004Z"/>
  </g>
  <g id="brown">
    <path fill="#a2886b" d="M9.795 31.5h44.702c.005.062.007.127.007.197 0 .61-.194.907-.574 1.303H9.568a1.729 1.729 0 0 1-.074-.539c0-.427.105-.7.301-.961Zm1.638 3.604H51.83l-1.5 1.5H12.934l-1.501-1.5Z"/>
    <path fill="#884c1e" d="M18.62 29.5v10h-1.5v-10h1.5Zm21.452 0v10h-1.5v-10h1.5Zm-14.644 0v10h-1.5v-10h1.5Zm21.452 0v10h-1.5v-10h1.5Zm-13.91 0v10h-1.5v-10h1.5Z"/>
  </g>
</svg>
