<svg xmlns="http://www.w3.org/2000/svg" xml:space="preserve" fill-rule="evenodd" clip-rule="evenodd" viewBox="0 0 64 64">
  <g id="blue">
    <path fill="#4a6168" d="M32.396 9.346c.685 0 .952.461 1.428.937l1.427 1.428 1.428 1.427 1.427 1.428 5.71 5.71 5.71 5.711 1.428 1.427 1.427 1.428 1.428 1.427c.476.476.695.755.695 1.428 0 .695-.251.983-.743 1.475l-2.95 2.951-1.476 1.475L37.533 49.4l-2.95 2.951-1.476 1.475c-.491.492-.779.828-1.475.828-.673 0-.952-.305-1.427-.78l-2.856-2.855-1.427-1.428-5.711-5.71-5.71-5.71-4.283-4.282c-.476-.476-.724-.755-.724-1.428 0-.695.28-.983.772-1.475l20.655-20.655c.492-.492.791-.985 1.475-.985Z"/>
  </g>
  <g id="yellow">
    <path fill="#d5d89e" fill-rule="nonzero" stroke="#324565" stroke-width="0.2px" d="M32.488 6.15c-.778 0-1.12.63-1.68 1.191l-1.681 1.68-10.085 10.085-6.724 6.723-5.042 5.042c-.56.56-.978.888-.978 1.681 0 .764.378 1.081.919 1.621l4.864 4.865 6.487 6.486 8.108 8.108 1.621 1.622 1.622 1.621c.54.541.857.975 1.621.975.793 0 1.121-.474 1.681-1.034l1.681-1.681 1.681-1.68 18.489-18.489 1.681-1.68c.56-.56.949-.889.949-1.681 0-.764-.349-1.081-.89-1.622l-1.622-1.621-1.621-1.622-14.594-14.594-1.622-1.621-3.243-3.244c-.541-.54-.843-1.131-1.622-1.131Zm-.092 3.196c.685 0 .952.461 1.428.937l1.427 1.428 1.428 1.427 1.427 1.428 5.71 5.71 5.71 5.711 1.428 1.427 1.427 1.428 1.428 1.427c.476.476.695.755.695 1.428 0 .695-.251.983-.743 1.475l-2.95 2.951-1.476 1.475L37.533 49.4l-2.95 2.951-1.476 1.475c-.491.492-.779.828-1.475.828-.673 0-.952-.305-1.427-.78l-2.856-2.855-1.427-1.428-5.711-5.71-5.71-5.71-4.283-4.282c-.476-.476-.724-.755-.724-1.428 0-.695.28-.983.772-1.475l20.655-20.655c.492-.492.791-.985 1.475-.985Z"/>
    <path fill="#f5f5d1" d="M21.888 26.507c.209-.648.371-1.042.371-1.042s-.198-2.111 2.715-2.191c1.559-.144 2.986.835 3.194 2.19 0 0 0 2.279 1.408 3.539 1.407 1.259 4.221 1.498 4.221 1.498s3.638.035 5.165-.79c1.526-.825.576-1.71 1.589-2.595 1.014-.885 1.675-3.323 2.449-.943.774 2.38 1.984 7.715 0 10.545-1.627 2.322-4.773 3.723-8.276 4.152-.778.094-1.56.141-2.343.14-1.175 0-2.238-.11-3.22-.337a10.716 10.716 0 0 1-1.486-.457c-2.009-.783-3.702-2.161-5.416-4.217-1.493-1.79-1.446-4.536-1.051-6.775.349.155.727.26 1.114.26 1.52 0 2.502-1.872 2.502-1.872s-.735-1.21-1.886-1.312c-.291-.026-.661.062-1.05.207Z"/>
  </g>
  <g id="red">
    <path fill="#c23501" d="m23.451 23.585-.021-.007s-.195-1.944.37-2.401c.565-.455 1.525.575 1.525.575s1.008-1.252 1.396-1.252c.39 0 .53 1.252.53 1.252s1.973-1.354 1.973-.575c0 .563-1.027 2.233-1.599 3.12-.597-.702-1.594-1.12-2.651-1.023-.651.018-1.145.137-1.523.311Z"/>
  </g>
  <g id="orange">
    <path fill="#ea912b" d="m34.724 40.87.499 2.433s2.064 1.182.905 1.573-4.903.394-5.54 0c-.637-.393 2.709-1.573 2.709-1.573V41.01l.139-.028c.433-.023.863-.061 1.288-.112Zm-5.563-.197.379 1.848s2.064 1.182.906 1.573c-1.16.391-4.904.393-5.541 0-.637-.393 2.709-1.573 2.709-1.573v-2.293l.061-.012c.484.188.98.341 1.486.457ZM22.938 26.3c1.151.102 1.886 1.312 1.886 1.312s-.982 1.872-2.502 1.872c-1.521 0-2.912-1.611-2.912-1.611s2.377-1.675 3.528-1.573Z"/>
  </g>
  <g id="black">
    <ellipse cx="25.897" cy="26.295" rx="0.449" ry="0.782"/>
  </g>
</svg>
