<svg xmlns="http://www.w3.org/2000/svg" xml:space="preserve" fill-rule="evenodd" clip-rule="evenodd" viewBox="0 0 64 64">
  <g id="blue">
    <path fill="#73d2fd" d="M32.396 9.346c.685 0 .952.461 1.428.937l1.427 1.428 1.428 1.427 1.427 1.428 5.71 5.71 5.71 5.711 1.428 1.427 1.427 1.428 1.428 1.427c.476.476.695.755.695 1.428 0 .695-.251.983-.743 1.475l-2.95 2.951-1.476 1.475L37.533 49.4l-2.95 2.951-1.476 1.475c-.491.492-.779.828-1.475.828-.673 0-.952-.305-1.427-.78l-2.856-2.855-1.427-1.428-5.711-5.71-5.71-5.71-4.283-4.282c-.476-.476-.724-.755-.724-1.428 0-.695.28-.983.772-1.475l20.655-20.655c.492-.492.791-.985 1.475-.985Z"/>
    <path fill="#146bd5" d="M14.33 38c8.14-.917 17.76-.353 27.17 0l6-.5h1.933l-4.051 4.051L17.83 41.5l-3.5-3.5Z"/>
  </g>
  <g id="white">
    <path fill="#fafafa" d="M36.497 21.493c.159.094.339.096.535.028.688-.188 1.233-.856 1.2-1.078a2.001 2.001 0 0 0-.878-.012c-.552.197-.809.568-.857 1.062Z"/>
    <path fill="#ebebeb" d="M27.5 18.309c.944-.869 2.639-2.002 4.11-2.178.324-.039 1.007-.1 1.007-.1l.622.451c.803.902 1.688 1.648 2.554 2.599.339-.179.518-.231.954-.196.353.033.678.145.966.359.214.161.357.406.497.564.964-.278 2.16-.059 3.075-.116.132.101.348.251.348.251l.411.436c.88.933 1.361 2.024 1.522 3.241.083.569-.264.461-1.092-.406l-1.684-1.947-3.047.266a1.07 1.07 0 0 1-.531.604c-.424.215-.705-.002-1.33-.171-.389-.194-.618-.308-.875-.768-.094-.167-.192-.549-.294-.746-.487-.075-1.646-1.498-2.776-2.834-2.32 1.065-3.805 1.302-4.437.691Z"/>
    <path fill="#fefffe" d="M37.407 19.351c.595.251 1.229 1.25.584 1.097-.495-.118-1.061.218-1.428.899-.263.49-.945-1.051-.645-1.555.327-.552.831-.72 1.489-.441Z"/>
    <path fill="#ebebeb" d="M17.211 26.005c.472-.93 1.442-2.273 2.513-2.823.236-.121.739-.361.739-.361l.601.168c.867.46 1.752.777 2.681 1.256.207-.232.329-.323.67-.418.279-.076.559-.082.838 0 .209.061.387.207.539.289.655-.486 1.628-.657 2.309-.96.128.041.335.093.335.093l.437.216c.934.462 1.609 1.156 2.076 2.037.224.411-.071.426-.946 0l-1.834-1.005-2.246 1.063a.872.872 0 0 1-.232.612c-.262.284-.538.197-1.061.245-.352-.037-.559-.059-.885-.337-.118-.101-.301-.363-.435-.485-.392.081-1.677-.675-2.916-1.372-1.465 1.467-2.529 2.068-3.183 1.782Z"/>
    <path fill="#fefffe" d="M25.051 23.994c.524.023 1.29.605.755.67-.411.051-.747.467-.833 1.089-.062.448-1.018-.532-.932-1.002.094-.512.43-.783 1.01-.757Z"/>
    <path fill="#fafafa" d="M24.964 25.883c.147.027.285-.023.415-.13.47-.337.697-1.001.609-1.16-.216.022-.44.099-.672.239-.365.306-.456.661-.352 1.051Z"/>
    <path fill="#ebebeb" d="M27.925 28.838c.153-.77.723-.758 1.722.056.265 1.455.32 2.91.254 4.365.012.594.101 1.166.63 1.613 1.485.093 2.69.607 3.66 1.473 1.281.754 2.497 1.043 3.704 1.279 1.591-.262 1.411.087-.201.929a21.397 21.397 0 0 0-1.477-.015c-1.765 1.008-11.386.49-8.836-1.899-.057-.526.003-1.019.204-1.472.275-.546.571-1.188.883-1.917.067-1.082.056-2.154-.172-3.199l-.371-1.213Z"/>
  </g>
  <g id="black">
    <path d="M24.397 24.636c.083 0 .15.076.15.168 0 .092-.067.168-.15.168-.082 0-.149-.076-.149-.168 0-.092.067-.168.149-.168Zm1.191-.307h.013a.168.168 0 0 1 0 .336l-.013-.001a.169.169 0 0 1-.155-.167c0-.088.068-.161.155-.168Z"/>
    <path d="M36.379 19.812c.094.035.14.151.1.258-.039.106-.15.164-.244.129-.096-.036-.141-.152-.102-.258.04-.107.15-.165.246-.129Zm1.505.156a.206.206 0 0 1-.073.399.206.206 0 1 1 0-.412.2.2 0 0 1 .073.013Z"/>
    <ellipse cx="28.888" cy="28.919" rx="0.209" ry="0.21"/>
  </g>
  <g id="orange">
    <path fill="#f38d33" d="m25.141 24.702.258.461.061 1.049-.189-.747-.329-.556.199-.207Z"/>
    <path fill="#c56d2b" d="m24.85 25.125.092-.216.329.556.189.747-.356-.653-.254-.434Z"/>
    <path fill="#c56d2b" d="m25.519 26.212.172.324h.251l.168.251-.336-.102.095.343-.262-.324-.062.418-.106-.272.098-.231-.265-.283c.042-.129.121-.18.247-.124Z"/>
    <path fill="#c56d2b" d="m23.845 26.117-.306.243-.335.259.31-.091-.02.259.196-.168.074.336.078-.336-.109-.167.246-.24c.026-.127-.009-.17-.134-.095Z"/>
    <path fill="#f38d33" d="m37.208 20.206.1.643-.38 1.235.102-.941-.14-.783.318-.154Z"/>
    <path fill="#c56d2b" d="m36.691 20.569.199-.209.14.783-.102.941-.13-.905-.107-.61Z"/>
    <path fill="#c56d2b" d="m36.997 22.11.059.447.29.108.086.362-.343-.262-.038.437-.164-.486-.251.456-.005-.359.212-.225-.184-.441c.104-.131.216-.155.338-.037Z"/>
    <path fill="#c56d2b" d="m35.106 21.284-.457.148-.498.156.397.027-.134.291.298-.11-.059.419.234-.353-.055-.241.389-.171c.084-.134.061-.2-.115-.166Z"/>
    <path fill="#fca303" d="M27.879 28.894c.161.06.348.064.545.05l.097.747-.067.36a2.894 2.894 0 0 0-1.118.107c-.26.056-.343-.007-.241-.192.239-.297.582-.629.784-1.072Z"/>
  </g>
  <g id="grey">
    <path fill="#bdbdbd" d="M23.843 26.119a1.178 1.178 0 0 1-.098-.114l.212.077c-.023-.007-.06.003-.112.035l-.002.002Zm.116-.036.289.106c.389.176 1.103 0 1.544-.149a.732.732 0 0 1-.248.218l-.025-.046c-.126-.056-.205-.005-.247.124l.025.026a1.258 1.258 0 0 1-.355.055c-.472.05-.769-.036-.977-.191l.014-.014c.015-.072.01-.117-.02-.129Z"/>
    <path fill="#909090" d="M17.575 25.369c-.153.18-.278.388-.364.636.079.126.297.162.895-.047.576-.168 1.177-.617 1.786-1.154.204-.168.365-.39.502-.642.31.433.895.684 1.508.915.744.502 1.317.638 1.676.319l-1.716-.967a11.805 11.805 0 0 1-1.507-.81l-1.206 1.045a4.209 4.209 0 0 1-1.574.705Z"/>
    <path fill="#909090" d="M25.923 25.56a.87.87 0 0 0 .097-.488l2.18-1.078 1.912 1.057.731.26c.112.058.167.183.178.358.013.134-.051.202-.239.168a2.465 2.465 0 0 1-1.005-.503c-.586-.186-1.097-.486-1.582-.823-.677.467-1.578.884-2.272 1.049Z"/>
    <path fill="#bdbdbd" d="M35.103 21.284a1.493 1.493 0 0 1-.064-.173l.212.18c-.024-.018-.071-.022-.145-.007h-.003Zm.15.009.286.246c.375.37 1.274.473 1.846.49a.854.854 0 0 1-.379.145l-.009-.064c-.122-.118-.234-.094-.338.037l.017.041a1.523 1.523 0 0 1-.433-.088c-.566-.144-.871-.372-1.046-.64l.024-.01c.047-.076.061-.13.032-.157Z"/>
    <path fill="#909090" d="M28.192 17.732a2.464 2.464 0 0 0-.692.577c.037.18.273.315 1.053.331.736.053 1.622-.209 2.555-.566.307-.107.589-.294.856-.526.171.633.738 1.173 1.346 1.703.643.898 1.246 1.3 1.797 1.087l-1.565-1.852a14.417 14.417 0 0 1-1.392-1.581l-1.839.689a5.174 5.174 0 0 1-2.119.138Z"/>
    <path fill="#909090" d="M37.743 21.533c.165-.163.278-.337.321-.522l2.977-.31 1.753 2.038.731.615c.105.114.114.282.052.489-.042.16-.145.211-.347.091a3.006 3.006 0 0 1-.944-1.011c-.597-.467-1.057-1.031-1.473-1.628-.981.249-2.199.344-3.07.238Z"/>
  </g>
  <g id="yellow" fill="#f5f5d1">
    <path d="M45.382 41.551 37.533 49.4l-2.95 2.951-1.476 1.475c-.491.492-.779.828-1.475.828-.673 0-.952-.305-1.427-.78l-2.856-2.855-1.427-1.428-5.711-5.71-2.33-2.33h27.501Z"/>
    <path fill-rule="nonzero" stroke="#324565" stroke-width="0.2px" d="M32.488 6.15c-.778 0-1.12.63-1.68 1.191l-1.681 1.68-10.085 10.085-6.724 6.723-5.042 5.042c-.56.56-.978.888-.978 1.681 0 .764.378 1.081.919 1.621l4.864 4.865 6.487 6.486 8.108 8.108 1.621 1.622 1.622 1.621c.54.541.857.975 1.621.975.793 0 1.121-.474 1.681-1.034l1.681-1.681 1.681-1.68 18.489-18.489 1.681-1.68c.56-.56.949-.889.949-1.681 0-.764-.349-1.081-.89-1.622l-1.622-1.621-1.621-1.622-14.594-14.594-1.622-1.621-3.243-3.244c-.541-.54-.843-1.131-1.622-1.131Zm-.092 3.196c.685 0 .952.461 1.428.937l1.427 1.428 1.428 1.427 1.427 1.428 5.71 5.71 5.71 5.711 1.428 1.427 1.427 1.428 1.428 1.427c.476.476.695.755.695 1.428 0 .695-.251.983-.743 1.475l-2.95 2.951-1.476 1.475L37.533 49.4l-2.95 2.951-1.476 1.475c-.491.492-.779.828-1.475.828-.673 0-.952-.305-1.427-.78l-2.856-2.855-1.427-1.428-5.711-5.71-5.71-5.71-4.283-4.282c-.476-.476-.724-.755-.724-1.428 0-.695.28-.983.772-1.475l20.655-20.655c.492-.492.791-.985 1.475-.985Z"/>
  </g>
</svg>
