<svg xmlns="http://www.w3.org/2000/svg" xml:space="preserve" fill-rule="evenodd" clip-rule="evenodd" viewBox="0 0 64 64">
  <g id="blue">
    <path fill="#80afcb" d="M32.396 9.346c.685 0 .952.461 1.428.937l1.427 1.428 1.428 1.427 1.427 1.428 5.71 5.71 5.71 5.711 1.428 1.427 1.427 1.428 1.428 1.427c.476.476.695.755.695 1.428 0 .695-.251.983-.743 1.475l-2.95 2.951-1.476 1.475L37.533 49.4l-2.95 2.951-1.476 1.475c-.491.492-.779.828-1.475.828-.673 0-.952-.305-1.427-.78l-2.856-2.855-1.427-1.428-5.711-5.71-5.71-5.71-4.283-4.282c-.476-.476-.724-.755-.724-1.428 0-.695.28-.983.772-1.475l20.655-20.655c.492-.492.791-.985 1.475-.985Z"/>
  </g>
  <g id="white">
    <path fill="#ebebeb" d="M44.046 35.968c-.014.025-.029.036-.046.032 0 0 .018-.014.046-.032ZM21.563 24.417c.442-.535.913-1.021 1.437-1.417 1-.167 2-.183 3 0 .453.333.797.667 1 1 .09.104.175.211.254.32.903-.512 2.044-.707 3.246-.82-.229.569-.571.881-1 1-.811.239-1.396.433-1.799.591.131.29.23.593.299.909.69-.883 1.505-1.142 2.5-.5.874.475 1.87.813 3 1 1.5-.233 3.18-.395 5-.5.565-.01 1.021.107 1.359.361.382.014 1.136.685 1.934 2.139.404.737 1.466 1.073 2.207 2 .944 2.056.857 4.345.5 5.75-.063-.218-.325-.101-.454-.282.197-.342.113-3.28-.546-3.968-.158-.553-.527-.811-.95-1.16a5.821 5.821 0 0 1-.125 2.16A35.153 35.153 0 0 1 42 37.5c-.384.554-.56 1.046-.844 1A10.619 10.619 0 0 1 40.5 42l-1.25-.5c-.227-.551.027-1.049.25-1.5.074-.864.076-1.536 0-2-.376-.75-.455-1.4-.381-2-2.434.826-4.768 1.011-7.021.673.151.335.285.956.402 1.827-.313.296-.437.854-.5 1.5.211.526.189 1.524 0 2l-2-.5c.072-.737.228-1.913.5-2.5-.083-.444-.267-.956-.5-1.5v.5c.043 1.105.134 2.595-.223 3.5H29.5c-.403-.458-.897-.642-1.5-.5-.126-.397.075-1.051.436-2 .07-.184-.033-.785.064-1a18.586 18.586 0 0 0-.432-2.5A19.187 19.187 0 0 1 27 35c-.67-.806-1.027-1.742-1.153-2.772-.163-.781-.461-1.331-.847-1.728-.43.193-.92.507-1.5 1 .086-.937.014-1.913-.5-3-.241-.399-.604-.451-1.144 0-.427-.299-.879-.301-1.356 0l.5-1c-.487-.407-.413-1.25 0-2.357.175-.238.354-.47.537-.694a1.802 1.802 0 0 0-.756-.344l-1.097-.258c-.531-.114-.608-.48-.684-.847.38.183.784.309 1.201.373.348-.124.696-.067 1.044.259.106.284.212.542.318.785Z"/>
  </g>
  <g id="grey">
    <path fill="#d4d4d4" d="M37.131 36.5c-.262 1.071-.568 2.179-1.131 3.5-.105.491-.095.809 0 1l1.5.5c.322-.673.478-1.208.5-1.631.061-1.649.405-2.772.816-3.77l-1.685.401Z"/>
    <path fill="#ababab" d="M26.5 21c1.669.389 2.28 1.461 1.75 3a3.352 3.352 0 0 0-1 .321l-.362-.433c.724-.989.537-1.95-.388-2.888Zm-3.967 2.5-.933 1c-.775-1.333-.443-2.592.681-3.225-.275.584-.272 1.291.252 2.225Z"/>
  </g>
  <g id="orange">
    <path fill="#e9b994" d="M36 36.723c.594-.108 1.11-.184 1.594-.333.491-.085 1.252-.263 1.693-.448-.183.834-.059 1.462.227 2.153l-.559.265-.139.64h-.488l-.305-.5-.258.5h-.394l-.224-.5-.85-.5c-.27-.401-.377-.825-.297-1.277Zm-8.429-11.58L30.5 23.5c.27.344-.028 1.2-.66 1.696-.699-.146-1.203.138-1.84.804l-.429-.857ZM21.6 24.5c-.249.187-.451.513-.6 1-.678-.391-1.088-.962-1.316-1.653.665.226 1.151.124 1.916.653Zm-1.1 4c.381-.437.925-.562 1.356 0 .497-.421 1.03-.532 1.327.097.235.515.605 1.038.64 1.403.202.651-.125 1.149-.323 1.5-.606.561-1.294.591-2 .5-.73-.445-1.07-.955-1.2-1.5a5.164 5.164 0 0 1 .2-2Z"/>
  </g>
  <g id="black">
    <path d="M29.269 32.315c-.521.817-.778 1.288-1.307.34-.823.114-.859-.31-.494-1.008.231-1.091.77-1.804 2.378-1.205.741.248.837.786.328 1.597 1.457-.808 2.182-.326 2.326 1.178.433.834-.794 1.729-1.5 1.078-.771-.712-2.131-1.28-1.731-1.98l.038-.059-.038.059Zm9.825 8.885 1.406.8a.863.863 0 0 1-.219 1H38c.147-.769.497-1.381 1.094-1.8ZM36 41l1.5.5c.116.38.134.72 0 1H35c.094-.478.356-.972 1-1.5Zm-6 .5 2 .5c-.012.385-.188.715-.5 1h-2.388c.15-.646.388-1.204.888-1.5Zm-2-.5c.606-.152 1.094.052 1.5.5l-.497 1H27c-.005-.68.255-1.219 1-1.5Zm16-5c.726-.147.974.697 1 2-.292.468-.308 1.189 0 2.206-.812-.638-1.49-1.318-1.5-2.206-.039-1.108.189-1.643.5-2Zm-22.7-7.23c.166 0 .3.13.3.29a.297.297 0 0 1-.295.291H21.3c-.166 0-.3-.13-.3-.291 0-.16.134-.29.3-.29Zm1.4 0c.166 0 .3.13.3.29a.297.297 0 0 1-.295.291H22.7c-.166 0-.3-.13-.3-.291 0-.16.134-.29.3-.29Zm1.5-2.628c.166 0 .3.131.3.291 0 .16-.134.291-.3.291a.298.298 0 0 1-.3-.291c0-.16.134-.291.3-.291Zm-2.988.067c.117 0 .211.131.211.291 0 .16-.094.291-.211.291-.117 0-.212-.131-.212-.291 0-.16.095-.291.212-.291ZM38 26.142c.95.199 1.596.785 1.859 1.858.123 1.383-.483 2.311-1.859 2.757-1.361.306-2.287-.126-2.835-1.257-.485.903-1.243 1.221-2.165 1.186-.802-.345-1.197-.946-1-1.916.431-.966 1.147-1.617 2.767-1.27-.001-.56.297-.949.733-1.259a8.521 8.521 0 0 1 2.5-.099Zm2 6.23c-.086-.645.161-.665.575-.372-.216-.588-.099-.968.184-1.243.993-1.336 1.123-.631.741 1.282.772.687.362 1.452-.741 2.264-.335-.956-.823-.909-1.472.197-.759-.394-.904-.983.713-2.128Zm-6.747 1.592.101.072c-.694.983-1.249 1.847-1.194 2.633l-.123.009c-.057-.809.503-1.702 1.216-2.714Zm-3.191 2.131-.124.009a2.197 2.197 0 0 0-.474-1.233c-.921-.29-1.493-.954-1.85-1.848l.114-.046c.345.864.897 1.506 1.79 1.782a.066.066 0 0 1 .031.021c.358.462.483.895.513 1.315Zm-2.001-8.341-.001.002c-.136.673-.373 1.233-.796 1.579a.058.058 0 0 1-.025.012c-1.017.245-1.69.675-2.195 1.196l-.088-.086c.516-.533 1.203-.975 2.242-1.228.395-.33.613-.863.742-1.499l.001-.004c.131-.477.142-1.039-.001-1.713l.12-.026c.149.695.135 1.275.001 1.767Zm11.226 8.188-.045.115c-.681-.268-1.357-.756-1.794-1.43l-.001-.002a5.618 5.618 0 0 1-.465-1.06c-.108-.357-.155-.725-.038-.978l.112.052c-.107.23-.055.565.044.89.151.501.421.978.452 1.031.422.651 1.078 1.124 1.735 1.382Z"/>
  </g>
  <g id="green">
    <path fill="#2fcf08" fill-rule="nonzero" stroke="#324565" stroke-width="0.2px" d="M32.488 6.15c-.778 0-1.12.63-1.68 1.191l-1.681 1.68-10.085 10.085-6.724 6.723-5.042 5.042c-.56.56-.978.888-.978 1.681 0 .764.378 1.081.919 1.621l4.864 4.865 6.487 6.486 8.108 8.108 1.621 1.622 1.622 1.621c.54.541.857.975 1.621.975.793 0 1.121-.474 1.681-1.034l1.681-1.681 1.681-1.68 18.489-18.489 1.681-1.68c.56-.56.949-.889.949-1.681 0-.764-.349-1.081-.89-1.622l-1.622-1.621-1.621-1.622-14.594-14.594-1.622-1.621-3.243-3.244c-.541-.54-.843-1.131-1.622-1.131Zm-.092 3.196c.685 0 .952.461 1.428.937l1.427 1.428 1.428 1.427 1.427 1.428 5.71 5.71 5.71 5.711 1.428 1.427 1.427 1.428 1.428 1.427c.476.476.695.755.695 1.428 0 .695-.251.983-.743 1.475l-2.95 2.951-1.476 1.475L37.533 49.4l-2.95 2.951-1.476 1.475c-.491.492-.779.828-1.475.828-.673 0-.952-.305-1.427-.78l-2.856-2.855-1.427-1.428-5.711-5.71-5.71-5.71-4.283-4.282c-.476-.476-.724-.755-.724-1.428 0-.695.28-.983.772-1.475l20.655-20.655c.492-.492.791-.985 1.475-.985Z"/>
  </g>
</svg>
