<svg xmlns="http://www.w3.org/2000/svg" xml:space="preserve" fill-rule="evenodd" clip-rule="evenodd" viewBox="0 0 64 64">
  <g id="blue">
    <path fill="#c2f0ff" d="M32.396 9.346c.685 0 .952.461 1.428.937l1.427 1.428 1.428 1.427 1.427 1.428 5.71 5.71 5.71 5.711 1.428 1.427 1.427 1.428 1.428 1.427c.476.476.695.755.695 1.428 0 .695-.251.983-.743 1.475l-2.95 2.951-1.476 1.475L37.533 49.4l-2.95 2.951-1.476 1.475c-.491.492-.779.828-1.475.828-.673 0-.952-.305-1.427-.78l-2.856-2.855-1.427-1.428-5.711-5.71-5.71-5.71-4.283-4.282c-.476-.476-.724-.755-.724-1.428 0-.695.28-.983.772-1.475l20.655-20.655c.492-.492.791-.985 1.475-.985Z"/>
  </g>
  <g id="brown">
    <path fill="#462e11" d="M26.834 25.899c.059.208 1.539 2.872 1.823 3.211.235-.04.699-.093.884-.107 1.129.014 1.283.345 2.431.321 1.492.024 4.484-1.024 7.349-1.017 2.009-.007 4.033 1.298 4.696 2.141.191.205.534.569.552 1.552-.018.333.059 1.777-1.16 1.606-.27.773-1.076 2.265-1.989 2.836-.226.148-.569.79-.552 1.178-.017 1.142.834 1.056.828 1.873.006.67-.591.863-.884.909-.353-.002-.955.446-1.105.803-.159.348-.81 1.279-1.215 1.606-.368.336-1.02 1.567-1.105 1.766-.028.13.006.098-.111.107-.108.057-.152.041-.221.161-.052.073-.14.18-.221.214-.063.073-.107.121-.055.16.003.068.08.592 0 .749-.041.046-1.107.661-1.215.696-.013-.051-.221-.214-.221-.214l-.387.214s-.106-.538.331-1.07c.086-.094.175-.141.166-.268.009-.292.926-1.631 1.216-1.873.349-.282.811-.916.884-1.445-.158.054-2.085 1.177-2.155 1.231-.096.053-.217.154-.221.268-.03.197-.058.495-.442.428-.244-.039-.539.042-.774.374-.062.098-.082.116-.055.214.01.036.452.893.497.964.01.024.071.099 0 .16-.146.245-.434.351-.607.75a1.678 1.678 0 0 0-.332.856c.022.12 0 .531-.276.535-.298-.004-.337-.116-.387-.16-.028.028-.105.071-.221.053-.083.018-.292-.057-.276-.321-.016-.26.1-.399.166-.482.033-.131.193-.714.165-1.284.028-.596-.191-2.924-1.547-4.763-.517.042-2.138-.151-2.983-.91-.504-.41-2.653-1.54-3.205-1.713-.304-.045-.863-.359-.884-.91.021-.418.244-.661.442-.749.241-.112 1.964-.897 2.542-1.017.026-.438-.377-.935-.884-1.124-.18-.096-.396-.133-.497-.535-.125-.346-.139-.945-1.271-2.248-.534-.629-.797-1.646-.774-2.087-.304.081-.784.011-1.16-.214-.288-.193-.47-.287-.718-.267-.115.024-.667.088-.884.053-.202.014-.368.014-.608-.16-.224-.19-.568-.751-.608-.857-.024-.082-.024-.103-.055-.16-.08-.05-.113-.168-.11-.268-.003-.114.108-.306.276-.375.959-.295 1.181-.38 1.934-1.07.251-.202.682-.509 1.16-.589a3.699 3.699 0 0 0 1.05-.374c.085-.067.161-.113.198-.203l.244-.054c1.29-.409 2.033.058 2.541.899Zm5.967 15.039c.077.124.541 1.771.663 2.141.11-.156 2.153-1.365 2.763-1.66 1.383-.585 2.37-1.31 2.873-1.873.216-.26.018-.453-.221-.535-1.063-.443-1.718-1.197-1.768-2.569-.036-.472-.611-.355-.719-.267-.327.142-1.97.725-3.978.749-.507-.024-.419.447-.386.589.055.115.376 1.762.386 1.873.155.018.332.06.498.16.209.114.485.232.497.482.01.221-.133.156-.111.375 0 .188.177.06.166.321-.011.231-.542.198-.663.214Zm-1.934-1.552c-.109-.59-.635-1.463-1.215-2.195-.212-.212-.859-.497-1.381-.267a3.841 3.841 0 0 1-1.824.428c-.275-.009-.371.069-.331.161-.01.136.038.133.166.214.751.336 2.189 1.022 3.038 1.338.356.11.761.039.829 0 .042.032.278.253.332.374.049 0 .386-.053.386-.053Z"/>
    <path fill="#877563" d="M24.049 25.054a.369.369 0 0 0 .023-.118c-.006-.166-.072-.198-.277-.268-.87-.259-1.234-.714-1.712-1.445-.071-.133-.115-.443.165-.428.228-.015.239.125.332.214.039.081.316.36.442.428-.148-.193-.171-.649-.166-.856-.005-.179.062-.307.221-.321.12.014.223.057.221.267.002.126-.034.874.442.964-.035-.097-.064-.411-.055-.589-.009-.15.153-1.077.442-1.071.27-.006.278.172.276.268.002.089-.168.453-.166.696-.002.763.776 1.198 1.161 1.177.28.021.965-.214.939-.374.026-.383-.813-.661-.829-1.659.016-1.569 1.171-2.503 1.326-2.516.295.013.258.191.276.268-.018.387-.857.672-.884 2.033.027.308.35.992.884 1.017 1.241-.025 3.416-2.599 3.426-5.994-.01-.524.222-.524.276-.535.233.011.377.001.387 1.231-.01 1.187-.221 2.034-.221 2.034.145.062 1.414.362 2.155.267.033-.194.22-1.167.221-1.284-.023-.14-.166-1.05.221-1.071.308.021.33.703.331 1.124-.001.62-.023.855 0 .964.662-.366.905-.911 1.105-.91.241-.001.264.149.276.267-.012.074-.829 1.229-1.436 1.552.01.105.01.512 0 .589 1.611-.013 2.407-1.917 2.762-1.927.197.01.384.095.387.322-.003.487-1.206 1.745-1.657 2.033-.263.156-.234.147-.498.161-.267.026-.482.108-.607.214-2.315 2.518-3.587 3.972-5.924 4.197-.555.145-1.053.131-1.48-.076-.108-.18-.334-.247-.334-.247.101-.186-.505.006-.596.172L25.5 25.5c.292 0 .316-.622 0-.622 0 0-.737-.027-1.207.122l-.244.054Zm8.807-4.453c-.254.04-1.093-.067-1.326-.107-.483-.149-.895.177-1.049.374-.508.894-1.712 2.246-3.371 3.425-.054.076-.084.075-.11.214.026.177.71.231 1.05.215 1.594.016 1.606-.687 1.823-1.713.156-.806 1.139-1.994 1.271-1.98.082-.014.203.016.221.16-.018.859-.794 1.426-.774 1.82-.02.199.112.435.387.428 1.142.007 1.889-2.796 1.878-2.836Zm-8.514 5.051c.19 0 .343.135.343.3 0 .166-.153.301-.343.301-.189 0-.342-.135-.342-.301 0-.165.153-.3.342-.3Z"/>
  </g>
  <g id="black">
    <path d="M35.453 45.326c.383.172.816.169 1.326-.107l.052.781-1.331.753-.157-.303-.387.214c-.08-.473.001-.928.497-1.338Z"/>
    <path d="M32.75 44.699c.392.197.853.203 1.25.016.043.262-.031.523-.308.785l-.552.336-.011-.336-.502.5.123-1.301Z"/>
    <path d="M32.627 46.5h1.1c-.363.342-.248.818-.227 1.288H33l-.184-.145-.316.145c-.177.057-.36 0-.36 0s-.061-.145-.02-.288c.097-.377.25-.719.507-1Z"/>
    <path d="m31.73 39.5.376.94c.336.501.68.642 1.208.439.217-.099.198-.269 0-.496.124-.238.131-.432 0-.575-.39-.551-.938-.588-1.584-.308Z"/>
  </g>
  <g id="green">
    <path fill="#00580d" fill-rule="nonzero" stroke="#324565" stroke-width="0.2px" d="M32.488 6.15c-.778 0-1.12.63-1.68 1.191l-1.681 1.68-10.085 10.085-6.724 6.723-5.042 5.042c-.56.56-.978.888-.978 1.681 0 .764.378 1.081.919 1.621l4.864 4.865 6.487 6.486 8.108 8.108 1.621 1.622 1.622 1.621c.54.541.857.975 1.621.975.793 0 1.121-.474 1.681-1.034l1.681-1.681 1.681-1.68 18.489-18.489 1.681-1.68c.56-.56.949-.889.949-1.681 0-.764-.349-1.081-.89-1.622l-1.622-1.621-1.621-1.622-14.594-14.594-1.622-1.621-3.243-3.244c-.541-.54-.843-1.131-1.622-1.131Zm-.092 3.196c.685 0 .952.461 1.428.937l1.427 1.428 1.428 1.427 1.427 1.428 5.71 5.71 5.71 5.711 1.428 1.427 1.427 1.428 1.428 1.427c.476.476.695.755.695 1.428 0 .695-.251.983-.743 1.475l-2.95 2.951-1.476 1.475L37.533 49.4l-2.95 2.951-1.476 1.475c-.491.492-.779.828-1.475.828-.673 0-.952-.305-1.427-.78l-2.856-2.855-1.427-1.428-5.711-5.71-5.71-5.71-4.283-4.282c-.476-.476-.724-.755-.724-1.428 0-.695.28-.983.772-1.475l20.655-20.655c.492-.492.791-.985 1.475-.985Z"/>
  </g>
</svg>
