<?xml version="1.0" encoding="UTF-8" standalone="no"?>
<!-- Generator: Adobe Illustrator 27.5.0, SVG Export Plug-In . SVG Version: 6.00 Build 0)  -->

<svg
   version="1.1"
   x="0px"
   y="0px"
   viewBox="0 0 64 64"
   xml:space="preserve"
   id="svg35"
   sodipodi:docname="Deer Spawner.svg"
   width="64"
   height="64"
   inkscape:version="1.3.2 (091e20e, 2023-11-25, custom)"
   xmlns:inkscape="http://www.inkscape.org/namespaces/inkscape"
   xmlns:sodipodi="http://sodipodi.sourceforge.net/DTD/sodipodi-0.dtd"
   xmlns="http://www.w3.org/2000/svg"
   xmlns:svg="http://www.w3.org/2000/svg"
   xmlns:rdf="http://www.w3.org/1999/02/22-rdf-syntax-ns#"
   xmlns:cc="http://creativecommons.org/ns#"
   xmlns:dc="http://purl.org/dc/elements/1.1/"><title
   id="title1">Deer Spawner</title><defs
   id="defs35" /><sodipodi:namedview
   id="namedview35"
   pagecolor="#ffffff"
   bordercolor="#000000"
   borderopacity="0.25"
   inkscape:showpageshadow="2"
   inkscape:pageopacity="0.0"
   inkscape:pagecheckerboard="true"
   inkscape:deskcolor="#d1d1d1"
   inkscape:zoom="16"
   inkscape:cx="25.03125"
   inkscape:cy="29.09375"
   inkscape:window-width="2659"
   inkscape:window-height="1638"
   inkscape:window-x="113"
   inkscape:window-y="203"
   inkscape:window-maximized="0"
   inkscape:current-layer="svg35"
   inkscape:clip-to-page="false" />

<g
   inkscape:groupmode="layer"
   id="layer1"
   inkscape:label="signage layer"
   style="display:inline"
   transform="translate(-0.19517359,-0.04920669)"><g
     id="g56"><path
       d="m 32.695049,4.2990822 c -0.838339,-1.53e-5 -1.206034,0.6044709 -1.808594,1.2070312 l -1.806641,1.8085938 -1.808593,1.8066408 -1.806641,1.808594 -7.232422,7.230468 -7.230469,7.230469 -1.80664,1.808594 -1.808594,1.80664 -1.806641,1.808594 c -0.60256,0.602561 -0.947281,0.954492 -0.947265,1.806641 1.5e-5,0.82453 0.305619,1.16699 0.888672,1.75 l 1.748047,1.748047 1.75,1.75 1.748046,1.748047 6.998047,6.996093 6.996094,6.996094 1.75,1.75 1.748047,1.748047 1.75,1.75 c 0.583052,0.583009 0.923517,0.957046 1.748047,0.957031 0.852089,-1.5e-5 1.206076,-0.413107 1.808593,-1.015625 l 1.806641,-1.808594 1.808594,-1.80664 1.80664,-1.806641 7.230469,-7.230469 7.230469,-7.230468 1.806641,-1.808594 1.808593,-1.806641 1.806641,-1.808593 c 0.602518,-0.602518 0.912093,-0.954553 0.912109,-1.806641 1.5e-5,-0.82453 -0.270506,-1.166947 -0.853515,-1.75 l -1.748047,-1.748047 -1.75,-1.75 -1.748047,-1.748047 -6.996094,-6.998047 -6.996094,-6.996093 -1.75,-1.748047 -1.748046,-1.7500003 -1.75,-1.75 C 33.860086,4.864467 33.533389,4.2990975 32.695049,4.2990822 Z"
       style="display:inline;fill:#ffffff;fill-opacity:1;stroke:none;stroke-width:0.249751"
       id="path76" /><path
       d="M 32.793612,0.37647838 C 31.839909,0.37646359 31.420646,1.1487382 30.734164,1.8351778 l -2.059447,2.0593188 -2.059446,2.059319 -2.059447,2.0593189 -8.237788,8.2372765 -8.2377883,8.237274 -2.059447,2.05932 -2.059447,2.059318 c 0,0 -1.3729647,1.372879 -2.0594469,2.059319 -0.6864824,0.68644 -1.19767362,1.088517 -1.19768862,2.059319 -1.458e-5,0.936605 0.46279982,1.324559 1.12507902,1.986838 0.6622792,0.662279 1.9868375,1.986838 1.9868375,1.986838 l 1.9868374,1.986837 1.9868375,1.986838 7.9473504,7.947349 7.947349,7.94735 1.986837,1.986838 1.986838,1.986837 c 0,0 1.324558,1.324559 1.986837,1.986838 0.66228,0.662279 1.050234,1.194397 1.986838,1.194411 0.970803,1.5e-5 1.372965,-0.580453 2.059447,-1.266893 0.686482,-0.686439 2.059446,-2.059318 2.059446,-2.059318 l 2.059448,-2.059319 2.059447,-2.05932 8.237788,-8.237275 8.237788,-8.237275 2.059447,-2.05932 2.059446,-2.059319 c 0,0 1.372965,-1.372879 2.059447,-2.059318 0.686482,-0.68644 1.16255,-1.088517 1.162566,-2.059319 1.5e-5,-0.936605 -0.427677,-1.324559 -1.089956,-1.986838 -0.662279,-0.662279 -1.986838,-1.986837 -1.986838,-1.986837 L 58.622499,25.604746 56.635661,23.617908 48.688311,15.670559 40.740961,7.7232088 38.754123,5.7363714 36.767286,3.7495339 34.780449,1.7626963 C 34.11817,1.1004171 33.747315,0.37649317 32.793612,0.37647838 Z M 32.680919,4.2920145 c 0.838341,1.53e-5 1.166022,0.565487 1.749032,1.1485403 l 1.749032,1.7491597 1.749031,1.7491603 1.749032,1.7491592 6.996126,6.996638 6.996127,6.99664 1.749032,1.749159 1.749031,1.74916 c 0,0 1.166021,1.166106 1.749032,1.749159 0.58301,0.583054 0.852165,0.924629 0.85215,1.74916 -1.6e-5,0.852089 -0.308154,1.205036 -0.910673,1.807554 -0.602518,0.602518 -1.807555,1.807555 -1.807555,1.807555 l -1.807554,1.807554 -1.807555,1.807556 -7.230219,7.230218 -7.230218,7.230219 -1.807554,1.807555 -1.807555,1.807555 c 0,0 -1.205036,1.205036 -1.807555,1.807554 -0.602518,0.602518 -0.955465,1.015114 -1.807555,1.015129 -0.824531,1.5e-5 -1.166106,-0.373595 -1.749159,-0.956605 -0.583053,-0.583011 -1.74916,-1.749032 -1.74916,-1.749032 l -1.74916,-1.749032 -1.74916,-1.749031 -6.996638,-6.996127 -6.99664,-6.996127 -1.7491588,-1.749031 -1.7491601,-1.749032 c 0,0 -1.1661064,-1.166022 -1.7491596,-1.749032 -0.5830532,-0.58301 -0.887386,-0.9245 -0.8874012,-1.749031 -1.58e-5,-0.85215 0.3433633,-1.205122 0.9459243,-1.807683 0.6025609,-0.602561 1.8076828,-1.807682 1.8076828,-1.807682 l 1.8076824,-1.807684 1.8076832,-1.807682 7.230731,-7.23073 7.230731,-7.230732 1.807683,-1.8076825 1.807682,-1.8076832 1.807683,-1.8076826 c 0.602561,-0.6025609 0.969342,-1.2070785 1.807682,-1.2070632 z"
       style="display:inline;fill:#f6c840;fill-opacity:1;stroke:#1d3244;stroke-width:0.249751;stroke-opacity:1"
       id="path55"
       sodipodi:nodetypes="zzcccccccssscccccccssscccccccsssccccccczzzzcccccccssscccccccssscccccccsssccccccczz"
       inkscape:label="holder" /></g></g>
<metadata
   id="metadata35"><rdf:RDF><cc:Work
       rdf:about=""><cc:license
         rdf:resource="http://artlibre.org/licence/lal" /><dc:creator><cc:Agent><dc:title>Tigon Trollhammer</dc:title></cc:Agent></dc:creator><dc:title>Deer Spawner</dc:title></cc:Work><cc:License
       rdf:about="http://artlibre.org/licence/lal"><cc:permits
         rdf:resource="http://creativecommons.org/ns#Reproduction" /><cc:permits
         rdf:resource="http://creativecommons.org/ns#Distribution" /><cc:permits
         rdf:resource="http://creativecommons.org/ns#DerivativeWorks" /><cc:requires
         rdf:resource="http://creativecommons.org/ns#ShareAlike" /><cc:requires
         rdf:resource="http://creativecommons.org/ns#Notice" /><cc:requires
         rdf:resource="http://creativecommons.org/ns#Attribution" /></cc:License></rdf:RDF></metadata><style
   type="text/css"
   id="style1">
	.st0{fill:#58565C;}
	.st1{fill:#949397;}
	.st2{fill:#4F4B4E;}
	.st3{fill:#616064;}
	.st4{fill:#939293;}
	.st5{fill:#A8A6A8;}
	.st6{fill:#A5A5A5;}
	.st7{fill:#A1A3AE;}
	.st8{fill:none;}
	.st9{fill:#4D4C50;}
	.st10{fill:#313033;}
	.st11{fill:#262528;}
	.st12{fill:#313034;}
	.st13{fill:#0D121B;}
	.st14{fill:#79767B;}
	.st15{fill:#5F5D61;}
	.st16{fill:#767677;}
</style><g
   id="g77"
   transform="matrix(-0.24502568,0,0,0.23735054,74.781622,-13.45987)"><path
     inkscape:connector-curvature="0"
     style="fill:#462e11;fill-rule:nonzero;stroke:none;fill-opacity:1"
     d="m 182.40387,104.14463 c -1.23123,0.0615 -1.98981,0.004 -2.0423,6.71048 0.0526,6.47066 1.16703,11.08748 1.16703,11.08748 -0.76441,0.34077 -7.47023,1.97347 -11.37865,1.4588 -0.17388,-1.05967 -1.16586,-6.36574 -1.16703,-7.00283 0.11904,-0.76243 0.87646,-5.72014 -1.16704,-5.83521 -1.63035,0.11507 -1.74706,3.82825 -1.75056,6.12697 0.004,3.37683 0.1202,4.66058 0,5.25227 -3.49529,-1.99214 -4.77787,-4.96623 -5.83521,-4.96051 -1.2744,-0.006 -1.39228,0.81168 -1.45879,1.45939 0.0666,0.40146 4.38223,6.69998 7.58577,8.46104 -0.0537,0.57185 -0.0537,2.7869 0,3.20937 -8.51008,-0.0724 -12.70908,-10.45319 -14.58802,-10.50337 -1.03633,0.0501 -2.02832,0.517 -2.04232,1.75056 0.014,2.65735 6.36971,9.51372 8.75281,11.08689 1.38644,0.84844 1.23356,0.80059 2.62582,0.87528 1.41447,0.14238 2.5465,0.58935 3.20938,1.16704 13.31244,14.95095 20.09178,23.01754 34.71947,23.04905 1.55684,-0.0315 3.54081,-0.32327 4.37641,-0.58352 -0.3116,1.13436 -8.12496,15.65585 -9.6281,17.50561 -1.23823,-0.21707 -3.68785,-0.50883 -4.66817,-0.58352 -5.95891,0.0747 -6.77467,1.88244 -12.83745,1.75056 -7.87519,0.13188 -23.67925,-5.58312 -38.80411,-5.54344 -10.6119,-0.0397 -21.29966,7.0746 -24.8002,11.67041 -1.01089,1.1192 -2.81957,3.102 -2.9176,8.46105 0.098,1.81358 -0.30998,9.68644 6.12753,8.75281 1.42496,4.21535 5.6835,12.34729 10.50338,15.46329 1.19504,0.80759 3.00396,4.30638 2.91759,6.41814 0.0864,6.22616 -4.40442,5.75935 -4.3764,10.21161 -0.028,3.654 3.12067,4.70434 4.66815,4.95992 1.86494,-0.0128 5.04279,2.42628 5.83521,4.3764 0.8391,1.89761 4.27954,6.97307 6.41873,8.75281 1.94429,1.83459 5.38473,8.54158 5.83521,9.62809 0.14704,0.70839 -0.0338,0.53451 0.58353,0.58352 0.5695,0.31277 0.80292,0.22407 1.16702,0.87528 0.27659,0.39796 0.74342,0.98148 1.16706,1.16704 0.33493,0.39796 0.56834,0.66055 0.29174,0.87528 -0.0151,0.36879 -0.42363,3.2257 0,4.08465 0.21708,0.24974 5.84454,3.60265 6.41875,3.79288 0.0677,-0.27776 1.16702,-1.16704 1.16702,-1.16704 l 2.04234,1.16704 c 0,0 0.56135,-2.93161 -1.75057,-5.8352 -0.45399,-0.51117 -0.92428,-0.77025 -0.87529,-1.45881 -0.049,-1.59534 -4.88988,-8.89402 -6.41871,-10.2116 -1.84275,-1.53583 -4.28304,-4.99377 -4.66816,-7.87753 0.8321,0.29176 11.0087,6.41639 11.37865,6.71048 0.50414,0.28943 1.14603,0.84144 1.16702,1.45881 0.15757,1.07717 0.3046,2.7017 2.33408,2.33408 1.28958,-0.2089 2.84758,0.23107 4.08467,2.04232 0.32676,0.5345 0.43646,0.63254 0.29175,1.16704 -0.0537,0.1949 -2.38661,4.86306 -2.62584,5.25168 -0.0526,0.13421 -0.37346,0.54151 0,0.87529 0.77142,1.33392 2.29206,1.91044 3.20937,4.08464 0.70372,1.06434 1.50081,2.32591 1.75056,4.66816 -0.11437,0.65355 0.002,2.89777 1.4588,2.9176 1.5755,-0.0199 1.77974,-0.63253 2.04232,-0.87528 0.14588,0.15522 0.55432,0.38863 1.16703,0.29176 0.43763,0.0969 1.54516,-0.31043 1.4588,-1.75056 0.0864,-1.41678 -0.52633,-2.17536 -0.87528,-2.62584 -0.17622,-0.7154 -1.02118,-3.89441 -0.87528,-7.00224 -0.1459,-3.24905 1.01066,-15.94178 8.16928,-25.96667 2.73438,0.22991 11.29462,-0.82159 15.75506,-4.95992 2.66085,-2.23255 14.0115,-8.39686 16.9221,-9.33633 1.60584,-0.24858 4.56196,-1.95946 4.66816,-4.95933 -0.1062,-2.2839 -1.28608,-3.60499 -2.33408,-4.08465 -1.27208,-0.61269 -10.36916,-4.88873 -13.42098,-5.54344 -0.13655,-2.3901 1.9898,-5.09997 4.66816,-6.12697 0.94997,-0.5275 2.09249,-0.72706 2.62585,-2.9176 0.65705,-1.88594 0.73407,-5.15249 6.71047,-12.25393 2.82191,-3.43344 4.20952,-8.97338 4.08466,-11.37866 1.60818,0.43765 4.14065,0.0572 6.12684,-1.16704 1.51948,-1.05383 2.48347,-1.565 3.79287,-1.4588 0.60454,0.13305 3.51979,0.48316 4.66816,0.29176 1.06784,0.0747 1.94313,0.0747 3.20936,-0.87528 1.18224,-1.03283 2.99931,-4.09164 3.20939,-4.66816 0.13069,-0.44698 0.13069,-0.56368 0.29176,-0.87528 0.42247,-0.27192 0.59636,-0.9138 0.58352,-1.4588 0.0128,-0.62087 -0.56953,-1.67004 -1.4588,-2.04233 -5.0638,-1.61168 -6.239,-2.07499 -10.21161,-5.8352 -1.3281,-1.09935 -3.60499,-2.77522 -6.12685,-3.20936 -2.45196,-0.56018 -3.50579,-0.99082 -5.54344,-2.04232 -0.6127,-0.49483 -1.13786,-0.78659 -1.16704,-1.75057 0.0291,-0.90329 0.37929,-1.07717 1.4588,-1.4588 4.59697,-1.41095 6.51909,-3.89091 9.04447,-7.87752 0.37226,-0.7224 0.60569,-2.41343 -0.8753,-2.33408 -1.20205,-0.0794 -1.26042,0.68039 -1.75042,1.16703 -0.2089,0.44465 -1.66654,1.9618 -2.33412,2.33409 0.78309,-1.05267 0.90096,-3.5408 0.87531,-4.66816 0.0257,-0.97331 -0.32446,-1.67237 -1.16705,-1.75056 -0.63487,0.0781 -1.17871,0.3116 -1.16703,1.4588 -0.0117,0.68389 0.18206,4.76269 -2.33408,5.25168 0.18439,-0.52867 0.33959,-2.23839 0.29176,-3.20936 0.0479,-0.81809 -0.80759,-5.87255 -2.33408,-5.8352 -1.42846,-0.0374 -1.46697,0.9348 -1.4588,1.4588 -0.008,0.48666 0.88578,2.47063 0.87528,3.79288 0.0105,4.15933 -4.09748,6.52959 -6.12697,6.41872 -1.48214,0.11087 -5.0988,-1.17054 -4.95992,-2.04232 -0.13888,-2.08434 4.29354,-3.59915 4.3764,-9.04456 -0.0829,-8.55091 -6.18531,-13.64388 -7.00224,-13.71273 -1.55567,0.0688 -1.36196,1.041 -1.4588,1.4588 0.0969,2.10884 4.52928,3.66451 4.66816,11.08689 -0.13888,1.6747 -1.84859,5.40573 -4.66816,5.54344 -6.55063,-0.13771 -18.03896,-14.17137 -18.08915,-32.67773 0.0502,-2.8561 -1.17288,-2.8561 -1.4588,-2.9176 z"
     id="path15" /><path
     inkscape:connector-curvature="0"
     style="fill:#ffffff;fill-rule:nonzero;stroke:none"
     d="m 171.60874,128.06954 c -0.0572,0.22058 3.88857,15.49948 9.91985,15.4633 1.4518,0.0361 2.15085,-1.24757 2.04232,-2.33409 0.10853,-2.14967 -3.99129,-5.23883 -4.08464,-9.91984 0.0934,-0.78542 0.73406,-0.94764 1.16704,-0.87528 0.69439,-0.0724 5.88422,6.40006 6.71048,10.79512 1.14603,5.59597 1.20671,9.4262 9.62809,9.33633 1.79258,0.0898 5.40689,-0.2019 5.54345,-1.16704 -0.13656,-0.75974 -0.29409,-0.75507 -0.58352,-1.16704 -8.75864,-6.42806 -15.11549,-13.79791 -17.79737,-18.67265 -0.81693,-1.07485 -2.98878,-2.85342 -5.54345,-2.04233 -1.2289,0.22057 -5.66014,0.8041 -7.00225,0.58352 z"
     id="path17" /><path
     inkscape:connector-curvature="0"
     style="fill:#ffffff;fill-rule:nonzero;stroke:none"
     d="m 171.90052,238.93843 c -0.64072,-0.084 -3.44043,0.0922 -3.50112,-1.16704 -0.056,-1.42379 0.87644,-0.72473 0.87527,-1.75056 0.11789,-1.18921 -0.63954,-0.8391 -0.5835,-2.04232 0.0607,-1.36311 1.51831,-2.00381 2.62584,-2.62584 0.87528,-0.54501 1.80775,-0.77842 2.62584,-0.87528 0.0572,-0.6022 1.7494,-9.58258 2.04232,-10.21161 0.17273,-0.77142 0.63838,-3.33774 -2.04232,-3.20937 -10.6014,-0.12837 -19.27835,-3.30622 -21.00673,-4.08464 -0.57069,-0.47499 -3.60265,-1.11686 -3.79289,1.4588 -0.26725,7.48073 -3.72753,11.58872 -9.33633,14.00449 -1.26275,0.44815 -2.31191,1.49848 -1.16705,2.91761 2.65386,3.06931 7.86587,7.01741 15.17154,10.2116 3.2187,1.60585 14.00683,8.19613 14.58802,9.04457 0.64304,-2.01548 3.09265,-10.99469 3.50111,-11.67041 z"
     id="path19" /><path
     inkscape:connector-curvature="0"
     style="fill:#ffffff;fill-rule:nonzero;stroke:none"
     d="m 182.11214,230.47739 c 0,0 1.78206,0.29176 2.0423,0.29176 0.28477,-0.66172 1.52764,-1.8661 1.75057,-2.04233 0.36061,0.21474 2.49865,0.60336 4.37642,0 4.48607,-1.72138 12.07884,-5.46058 16.04679,-7.294 0.6722,-0.43998 0.93013,-0.42247 0.87528,-1.16704 0.21122,-0.49833 -0.29409,-0.92663 -1.75056,-0.87528 -2.8791,0.0618 -6.20167,-0.54151 -9.62808,-2.33409 -2.75657,-1.25573 -6.176,0.29993 -7.29402,1.45881 -3.06348,3.98661 -5.83987,8.74813 -6.41872,11.96217 z"
     id="path21" /></g></svg>
