<?xml version="1.0" encoding="UTF-8" standalone="no"?>
<!-- Generator: Adobe Illustrator 27.5.0, SVG Export Plug-In . SVG Version: 6.00 Build 0)  -->

<svg
   version="1.1"
   x="0px"
   y="0px"
   viewBox="0 0 64 64"
   xml:space="preserve"
   id="svg35"
   sodipodi:docname="Dolphin Spawner.svg"
   width="64"
   height="64"
   inkscape:version="1.3.2 (091e20e, 2023-11-25, custom)"
   xmlns:inkscape="http://www.inkscape.org/namespaces/inkscape"
   xmlns:sodipodi="http://sodipodi.sourceforge.net/DTD/sodipodi-0.dtd"
   xmlns="http://www.w3.org/2000/svg"
   xmlns:svg="http://www.w3.org/2000/svg"
   xmlns:rdf="http://www.w3.org/1999/02/22-rdf-syntax-ns#"
   xmlns:cc="http://creativecommons.org/ns#"
   xmlns:dc="http://purl.org/dc/elements/1.1/"><title
   id="title1">Dolphin Spawner</title><defs
   id="defs35">
	

	
	

		
		
		
		
		
		
		
		
		
		
		
		
		
		
		
		
		
		
		
		
	<filter
   id="Adobe_OpacityMaskFilter"
   filterUnits="userSpaceOnUse"
   x="97.058"
   y="103.634"
   width="15.622"
   height="11.469">
					<feFlood
   style="flood-color:white;flood-opacity:1"
   result="back"
   id="feFlood13" />
					<feBlend
   in="SourceGraphic"
   in2="back"
   mode="normal"
   id="feBlend13" />
				</filter><filter
   id="Adobe_OpacityMaskFilter_00000149370544899693391390000016692353094475525055_"
   filterUnits="userSpaceOnUse"
   x="97.058"
   y="103.634"
   width="15.622"
   height="11.469">
							<feFlood
   style="flood-color:white;flood-opacity:1"
   result="back"
   id="feFlood14" />
							<feBlend
   in="SourceGraphic"
   in2="back"
   mode="normal"
   id="feBlend14" />
						</filter><filter
   id="Adobe_OpacityMaskFilter_00000106107291657713837300000006675987757938326455_"
   filterUnits="userSpaceOnUse"
   x="107.396"
   y="100.171"
   width="28.17"
   height="9.178">
					<feFlood
   style="flood-color:white;flood-opacity:1"
   result="back"
   id="feFlood31" />
					<feBlend
   in="SourceGraphic"
   in2="back"
   mode="normal"
   id="feBlend31" />
				</filter><filter
   id="Adobe_OpacityMaskFilter_00000151538881579225242740000006938153786635347888_"
   filterUnits="userSpaceOnUse"
   x="107.396"
   y="100.171"
   width="28.17"
   height="9.178">
							<feFlood
   style="flood-color:white;flood-opacity:1"
   result="back"
   id="feFlood32" />
							<feBlend
   in="SourceGraphic"
   in2="back"
   mode="normal"
   id="feBlend32" />
						</filter><filter
   id="Adobe_OpacityMaskFilter_00000101066910399177982860000007378421111053909137_"
   filterUnits="userSpaceOnUse"
   x="96.866"
   y="100.487"
   width="60.063"
   height="23.557">
						<feFlood
   style="flood-color:white;flood-opacity:1"
   result="back"
   id="feFlood50" />
						<feBlend
   in="SourceGraphic"
   in2="back"
   mode="normal"
   id="feBlend50" />
					</filter><filter
   id="Adobe_OpacityMaskFilter_00000145030146056514617820000005772146794162501765_"
   filterUnits="userSpaceOnUse"
   x="96.866"
   y="100.487"
   width="60.063"
   height="23.557">
								<feFlood
   style="flood-color:white;flood-opacity:1"
   result="back"
   id="feFlood51" />
								<feBlend
   in="SourceGraphic"
   in2="back"
   mode="normal"
   id="feBlend51" />
							</filter><filter
   id="Adobe_OpacityMaskFilter_00000016070308648928465410000003150515413964550577_"
   filterUnits="userSpaceOnUse"
   x="96.866"
   y="100.487"
   width="42.015"
   height="22.794">
						<feFlood
   style="flood-color:white;flood-opacity:1"
   result="back"
   id="feFlood68" />
						<feBlend
   in="SourceGraphic"
   in2="back"
   mode="normal"
   id="feBlend68" />
					</filter><filter
   id="Adobe_OpacityMaskFilter_00000181777329976999361680000016917856250708932023_"
   filterUnits="userSpaceOnUse"
   x="96.866"
   y="100.487"
   width="42.015"
   height="22.794">
								<feFlood
   style="flood-color:white;flood-opacity:1"
   result="back"
   id="feFlood69" />
								<feBlend
   in="SourceGraphic"
   in2="back"
   mode="normal"
   id="feBlend69" />
							</filter><filter
   id="Adobe_OpacityMaskFilter_00000062153602196186589720000017089737301901591172_"
   filterUnits="userSpaceOnUse"
   x="96.866"
   y="100.487"
   width="60.063"
   height="23.557">
						<feFlood
   style="flood-color:white;flood-opacity:1"
   result="back"
   id="feFlood86" />
						<feBlend
   in="SourceGraphic"
   in2="back"
   mode="normal"
   id="feBlend86" />
					</filter><filter
   id="Adobe_OpacityMaskFilter_00000170962291936353982460000004109012460342924204_"
   filterUnits="userSpaceOnUse"
   x="96.866"
   y="100.487"
   width="60.063"
   height="23.557">
								<feFlood
   style="flood-color:white;flood-opacity:1"
   result="back"
   id="feFlood87" />
								<feBlend
   in="SourceGraphic"
   in2="back"
   mode="normal"
   id="feBlend87" />
							</filter><filter
   id="Adobe_OpacityMaskFilter_00000053517062200695724660000005297092441354610344_"
   filterUnits="userSpaceOnUse"
   x="115.848"
   y="100.487"
   width="41.081"
   height="22.533">
						<feFlood
   style="flood-color:white;flood-opacity:1"
   result="back"
   id="feFlood104" />
						<feBlend
   in="SourceGraphic"
   in2="back"
   mode="normal"
   id="feBlend104" />
					</filter><filter
   id="Adobe_OpacityMaskFilter_00000140714824629038506450000014615063031990649762_"
   filterUnits="userSpaceOnUse"
   x="115.848"
   y="100.487"
   width="41.081"
   height="22.533">
								<feFlood
   style="flood-color:white;flood-opacity:1"
   result="back"
   id="feFlood105" />
								<feBlend
   in="SourceGraphic"
   in2="back"
   mode="normal"
   id="feBlend105" />
							</filter><filter
   id="Adobe_OpacityMaskFilter_00000152947346325055538930000005884925843889531780_"
   filterUnits="userSpaceOnUse"
   x="9.977"
   y="7.049"
   width="316.646"
   height="109.027">
					<feFlood
   style="flood-color:white;flood-opacity:1"
   result="back"
   id="feFlood126" />
					<feBlend
   in="SourceGraphic"
   in2="back"
   mode="normal"
   id="feBlend126" />
				</filter><filter
   id="Adobe_OpacityMaskFilter_00000028295071284563137190000015482029745280952748_"
   filterUnits="userSpaceOnUse"
   x="9.977"
   y="7.049"
   width="316.646"
   height="109.027">
							<feFlood
   style="flood-color:white;flood-opacity:1"
   result="back"
   id="feFlood127" />
							<feBlend
   in="SourceGraphic"
   in2="back"
   mode="normal"
   id="feBlend127" />
						</filter><filter
   id="Adobe_OpacityMaskFilter_00000128467137249528035150000002754830791135403401_"
   filterUnits="userSpaceOnUse"
   x="10.058"
   y="69.929"
   width="1.777"
   height="0.515">
					<feFlood
   style="flood-color:white;flood-opacity:1"
   result="back"
   id="feFlood144" />
					<feBlend
   in="SourceGraphic"
   in2="back"
   mode="normal"
   id="feBlend144" />
				</filter><filter
   id="Adobe_OpacityMaskFilter_00000163770894738067303820000010129748582420329880_"
   filterUnits="userSpaceOnUse"
   x="10.058"
   y="69.929"
   width="1.777"
   height="0.515">
							<feFlood
   style="flood-color:white;flood-opacity:1"
   result="back"
   id="feFlood145" />
							<feBlend
   in="SourceGraphic"
   in2="back"
   mode="normal"
   id="feBlend145" />
						</filter><filter
   id="Adobe_OpacityMaskFilter_00000067922601880514957050000001960009662824454531_"
   filterUnits="userSpaceOnUse"
   x="9.977"
   y="7.049"
   width="261.974"
   height="75.566">
					<feFlood
   style="flood-color:white;flood-opacity:1"
   result="back"
   id="feFlood162" />
					<feBlend
   in="SourceGraphic"
   in2="back"
   mode="normal"
   id="feBlend162" />
				</filter><filter
   id="Adobe_OpacityMaskFilter_00000055675261997008502120000000279267684749120180_"
   filterUnits="userSpaceOnUse"
   x="9.977"
   y="7.049"
   width="261.974"
   height="75.566">
							<feFlood
   style="flood-color:white;flood-opacity:1"
   result="back"
   id="feFlood163" />
							<feBlend
   in="SourceGraphic"
   in2="back"
   mode="normal"
   id="feBlend163" />
						</filter><filter
   id="Adobe_OpacityMaskFilter_00000114755550369457049690000006079377340164731824_"
   filterUnits="userSpaceOnUse"
   x="105.858"
   y="93.971"
   width="15.624"
   height="5.666">
					<feFlood
   style="flood-color:white;flood-opacity:1"
   result="back"
   id="feFlood166" />
					<feBlend
   in="SourceGraphic"
   in2="back"
   mode="normal"
   id="feBlend166" />
				</filter><filter
   id="Adobe_OpacityMaskFilter_00000005977014564442684860000010036000019492990364_"
   filterUnits="userSpaceOnUse"
   x="105.858"
   y="93.971"
   width="15.624"
   height="5.666">
							<feFlood
   style="flood-color:white;flood-opacity:1"
   result="back"
   id="feFlood167" />
							<feBlend
   in="SourceGraphic"
   in2="back"
   mode="normal"
   id="feBlend167" />
						</filter><filter
   id="Adobe_OpacityMaskFilter_00000133505748430935611770000006150074082443734913_"
   filterUnits="userSpaceOnUse"
   x="124.996"
   y="96.292"
   width="7.554"
   height="5.619">
					<feFlood
   style="flood-color:white;flood-opacity:1"
   result="back"
   id="feFlood184" />
					<feBlend
   in="SourceGraphic"
   in2="back"
   mode="normal"
   id="feBlend184" />
				</filter><filter
   id="Adobe_OpacityMaskFilter_00000167362887232091914240000006419328092665393286_"
   filterUnits="userSpaceOnUse"
   x="124.996"
   y="96.292"
   width="7.554"
   height="5.619">
							<feFlood
   style="flood-color:white;flood-opacity:1"
   result="back"
   id="feFlood185" />
							<feBlend
   in="SourceGraphic"
   in2="back"
   mode="normal"
   id="feBlend185" />
						</filter><filter
   id="Adobe_OpacityMaskFilter_00000116921767200386859480000011960623912812423842_"
   filterUnits="userSpaceOnUse"
   x="77.639"
   y="94.505"
   width="13.969"
   height="18.456">
					<feFlood
   style="flood-color:white;flood-opacity:1"
   result="back"
   id="feFlood202" />
					<feBlend
   in="SourceGraphic"
   in2="back"
   mode="normal"
   id="feBlend202" />
				</filter><filter
   id="Adobe_OpacityMaskFilter_00000031908216777633409700000014027787407599540875_"
   filterUnits="userSpaceOnUse"
   x="77.639"
   y="94.505"
   width="13.969"
   height="18.456">
							<feFlood
   style="flood-color:white;flood-opacity:1"
   result="back"
   id="feFlood203" />
							<feBlend
   in="SourceGraphic"
   in2="back"
   mode="normal"
   id="feBlend203" />
						</filter><filter
   id="Adobe_OpacityMaskFilter_00000073685612945211266330000015309297531153397905_"
   filterUnits="userSpaceOnUse"
   x="90.516"
   y="95.091"
   width="29.551"
   height="19.415">
					<feFlood
   style="flood-color:white;flood-opacity:1"
   result="back"
   id="feFlood220" />
					<feBlend
   in="SourceGraphic"
   in2="back"
   mode="normal"
   id="feBlend220" />
				</filter><filter
   id="Adobe_OpacityMaskFilter_00000060030205626766905870000000521871769183571356_"
   filterUnits="userSpaceOnUse"
   x="90.516"
   y="95.091"
   width="29.551"
   height="19.415">
							<feFlood
   style="flood-color:white;flood-opacity:1"
   result="back"
   id="feFlood221" />
							<feBlend
   in="SourceGraphic"
   in2="back"
   mode="normal"
   id="feBlend221" />
						</filter><filter
   id="Adobe_OpacityMaskFilter_00000122699209003967426330000003384366822432464035_"
   filterUnits="userSpaceOnUse"
   x="117.489"
   y="7.049"
   width="51.019"
   height="36.259">
					<feFlood
   style="flood-color:white;flood-opacity:1"
   result="back"
   id="feFlood244" />
					<feBlend
   in="SourceGraphic"
   in2="back"
   mode="normal"
   id="feBlend244" />
				</filter><filter
   id="Adobe_OpacityMaskFilter_00000178910849252990637770000008000851723389134211_"
   filterUnits="userSpaceOnUse"
   x="117.489"
   y="7.049"
   width="51.019"
   height="36.259">
							<feFlood
   style="flood-color:white;flood-opacity:1"
   result="back"
   id="feFlood245" />
							<feBlend
   in="SourceGraphic"
   in2="back"
   mode="normal"
   id="feBlend245" />
						</filter><filter
   id="Adobe_OpacityMaskFilter_00000139258801425234193260000017283982020072392631_"
   filterUnits="userSpaceOnUse"
   x="255.153"
   y="78.967"
   width="49.938"
   height="37.108">
					<feFlood
   style="flood-color:white;flood-opacity:1"
   result="back"
   id="feFlood262" />
					<feBlend
   in="SourceGraphic"
   in2="back"
   mode="normal"
   id="feBlend262" />
				</filter><filter
   id="Adobe_OpacityMaskFilter_00000120516857183574117200000008599918341250708612_"
   filterUnits="userSpaceOnUse"
   x="255.153"
   y="78.967"
   width="49.938"
   height="37.108">
							<feFlood
   style="flood-color:white;flood-opacity:1"
   result="back"
   id="feFlood263" />
							<feBlend
   in="SourceGraphic"
   in2="back"
   mode="normal"
   id="feBlend263" />
						</filter><filter
   id="Adobe_OpacityMaskFilter_00000052101130698492793990000010355883039578698394_"
   filterUnits="userSpaceOnUse"
   x="253.768"
   y="26.806"
   width="72.854"
   height="48.985">
					<feFlood
   style="flood-color:white;flood-opacity:1"
   result="back"
   id="feFlood280" />
					<feBlend
   in="SourceGraphic"
   in2="back"
   mode="normal"
   id="feBlend280" />
				</filter><filter
   id="Adobe_OpacityMaskFilter_00000039129287237365788330000007549821460852684209_"
   filterUnits="userSpaceOnUse"
   x="253.768"
   y="26.806"
   width="72.854"
   height="48.985">
							<feFlood
   style="flood-color:white;flood-opacity:1"
   result="back"
   id="feFlood281" />
							<feBlend
   in="SourceGraphic"
   in2="back"
   mode="normal"
   id="feBlend281" />
						</filter><filter
   id="Adobe_OpacityMaskFilter_00000070112550615471496650000016605952459665077947_"
   filterUnits="userSpaceOnUse"
   x="291.658"
   y="38.166"
   width="4.072"
   height="2.199">
					<feFlood
   style="flood-color:white;flood-opacity:1"
   result="back"
   id="feFlood298" />
					<feBlend
   in="SourceGraphic"
   in2="back"
   mode="normal"
   id="feBlend298" />
				</filter><filter
   id="Adobe_OpacityMaskFilter_00000164508017788945936110000006578396162285595555_"
   filterUnits="userSpaceOnUse"
   x="291.658"
   y="38.166"
   width="4.072"
   height="2.199">
							<feFlood
   style="flood-color:white;flood-opacity:1"
   result="back"
   id="feFlood299" />
							<feBlend
   in="SourceGraphic"
   in2="back"
   mode="normal"
   id="feBlend299" />
						</filter><filter
   id="Adobe_OpacityMaskFilter_00000065762032079780780730000009269371589862254510_"
   filterUnits="userSpaceOnUse"
   x="253.768"
   y="44.407"
   width="31.676"
   height="28.991">
					<feFlood
   style="flood-color:white;flood-opacity:1"
   result="back"
   id="feFlood316" />
					<feBlend
   in="SourceGraphic"
   in2="back"
   mode="normal"
   id="feBlend316" />
				</filter><filter
   id="Adobe_OpacityMaskFilter_00000080908280477734180460000016017068635941762199_"
   filterUnits="userSpaceOnUse"
   x="253.768"
   y="44.407"
   width="31.676"
   height="28.991">
							<feFlood
   style="flood-color:white;flood-opacity:1"
   result="back"
   id="feFlood317" />
							<feBlend
   in="SourceGraphic"
   in2="back"
   mode="normal"
   id="feBlend317" />
						</filter><filter
   id="Adobe_OpacityMaskFilter_00000021811343468226134770000011961699695776846507_"
   filterUnits="userSpaceOnUse"
   x="34.398"
   y="66.06"
   width="18.675"
   height="15.391">
					<feFlood
   style="flood-color:white;flood-opacity:1"
   result="back"
   id="feFlood334" />
					<feBlend
   in="SourceGraphic"
   in2="back"
   mode="normal"
   id="feBlend334" />
				</filter><filter
   id="Adobe_OpacityMaskFilter_00000027588065739327555350000009720595055958163894_"
   filterUnits="userSpaceOnUse"
   x="34.398"
   y="66.06"
   width="18.675"
   height="15.391">
							<feFlood
   style="flood-color:white;flood-opacity:1"
   result="back"
   id="feFlood335" />
							<feBlend
   in="SourceGraphic"
   in2="back"
   mode="normal"
   id="feBlend335" />
						</filter><path
   id="SVGID_00000076598796319586908130000005167430376105370289_"
   d="M41.414,70.818c-0.397,0.121-0.69,0.298-0.896,0.516       c-0.076,1.25,0.547,2.485,1.265,3.493c0.661,0.93,2.438,3.581,3.899,2.974c2.106-0.878,3.436-2.224,4.84-3.749       C47.636,72.449,44.731,70.813,41.414,70.818z" /><filter
   id="Adobe_OpacityMaskFilter_00000001645663709189951310000010959355307674602375_"
   filterUnits="userSpaceOnUse"
   x="179.377"
   y="87.291"
   width="23.236"
   height="12.486">
						<feFlood
   style="flood-color:white;flood-opacity:1"
   result="back"
   id="feFlood362" />
						<feBlend
   in="SourceGraphic"
   in2="back"
   mode="normal"
   id="feBlend362" />
					</filter><filter
   id="Adobe_OpacityMaskFilter_00000158019530846418195080000004655119734297348787_"
   filterUnits="userSpaceOnUse"
   x="179.377"
   y="87.291"
   width="23.236"
   height="12.486">
								<feFlood
   style="flood-color:white;flood-opacity:1"
   result="back"
   id="feFlood363" />
								<feBlend
   in="SourceGraphic"
   in2="back"
   mode="normal"
   id="feBlend363" />
							</filter><filter
   id="Adobe_OpacityMaskFilter_00000046325076324494167610000013871092276743025804_"
   filterUnits="userSpaceOnUse"
   x="181.167"
   y="87.782"
   width="21.446"
   height="11.995">
						<feFlood
   style="flood-color:white;flood-opacity:1"
   result="back"
   id="feFlood380" />
						<feBlend
   in="SourceGraphic"
   in2="back"
   mode="normal"
   id="feBlend380" />
					</filter><filter
   id="Adobe_OpacityMaskFilter_00000127736308124832484420000017549436446684762764_"
   filterUnits="userSpaceOnUse"
   x="181.167"
   y="87.782"
   width="21.446"
   height="11.995">
								<feFlood
   style="flood-color:white;flood-opacity:1"
   result="back"
   id="feFlood381" />
								<feBlend
   in="SourceGraphic"
   in2="back"
   mode="normal"
   id="feBlend381" />
							</filter><filter
   id="Adobe_OpacityMaskFilter_00000113332813460222153190000015665510405366652044_"
   filterUnits="userSpaceOnUse"
   x="180.78"
   y="89.323"
   width="19.213"
   height="9.497">
						<feFlood
   style="flood-color:white;flood-opacity:1"
   result="back"
   id="feFlood398" />
						<feBlend
   in="SourceGraphic"
   in2="back"
   mode="normal"
   id="feBlend398" />
					</filter><filter
   id="Adobe_OpacityMaskFilter_00000018947997924100086620000008143627428864295823_"
   filterUnits="userSpaceOnUse"
   x="180.78"
   y="89.323"
   width="19.213"
   height="9.497">
								<feFlood
   style="flood-color:white;flood-opacity:1"
   result="back"
   id="feFlood399" />
								<feBlend
   in="SourceGraphic"
   in2="back"
   mode="normal"
   id="feBlend399" />
							</filter><filter
   id="Adobe_OpacityMaskFilter_00000119797464858176473120000017480951229808221356_"
   filterUnits="userSpaceOnUse"
   x="77.531"
   y="93.236"
   width="62.823"
   height="42.28">
						<feFlood
   style="flood-color:white;flood-opacity:1"
   result="back"
   id="feFlood406" />
						<feBlend
   in="SourceGraphic"
   in2="back"
   mode="normal"
   id="feBlend406" />
					</filter><filter
   id="Adobe_OpacityMaskFilter_00000030459023687194231040000012974047765947418534_"
   filterUnits="userSpaceOnUse"
   x="77.531"
   y="93.236"
   width="62.823"
   height="42.28">
								<feFlood
   style="flood-color:white;flood-opacity:1"
   result="back"
   id="feFlood407" />
								<feBlend
   in="SourceGraphic"
   in2="back"
   mode="normal"
   id="feBlend407" />
							</filter><filter
   id="Adobe_OpacityMaskFilter_00000016063935057005424050000011701605392895375789_"
   filterUnits="userSpaceOnUse"
   x="77.531"
   y="93.236"
   width="62.823"
   height="42.28">
						<feFlood
   style="flood-color:white;flood-opacity:1"
   result="back"
   id="feFlood424" />
						<feBlend
   in="SourceGraphic"
   in2="back"
   mode="normal"
   id="feBlend424" />
					</filter><filter
   id="Adobe_OpacityMaskFilter_00000070800906986990734280000001078318320019952277_"
   filterUnits="userSpaceOnUse"
   x="77.531"
   y="93.236"
   width="62.823"
   height="42.28">
								<feFlood
   style="flood-color:white;flood-opacity:1"
   result="back"
   id="feFlood425" />
								<feBlend
   in="SourceGraphic"
   in2="back"
   mode="normal"
   id="feBlend425" />
							</filter><filter
   id="Adobe_OpacityMaskFilter_00000179612817915304048730000001182569842379913639_"
   filterUnits="userSpaceOnUse"
   x="99.973"
   y="99.022"
   width="40.382"
   height="36.493">
						<feFlood
   style="flood-color:white;flood-opacity:1"
   result="back"
   id="feFlood442" />
						<feBlend
   in="SourceGraphic"
   in2="back"
   mode="normal"
   id="feBlend442" />
					</filter><filter
   id="Adobe_OpacityMaskFilter_00000083804246149007932150000004408308841036097433_"
   filterUnits="userSpaceOnUse"
   x="99.973"
   y="99.022"
   width="40.382"
   height="36.493">
								<feFlood
   style="flood-color:white;flood-opacity:1"
   result="back"
   id="feFlood443" />
								<feBlend
   in="SourceGraphic"
   in2="back"
   mode="normal"
   id="feBlend443" />
							</filter><filter
   id="Adobe_OpacityMaskFilter_00000138534085466555495740000007011452501224040329_"
   filterUnits="userSpaceOnUse"
   x="86.138"
   y="97.889"
   width="34.616"
   height="30.839">
						<feFlood
   style="flood-color:white;flood-opacity:1"
   result="back"
   id="feFlood460" />
						<feBlend
   in="SourceGraphic"
   in2="back"
   mode="normal"
   id="feBlend460" />
					</filter><filter
   id="Adobe_OpacityMaskFilter_00000142140417564399495900000017215964357033098654_"
   filterUnits="userSpaceOnUse"
   x="86.138"
   y="97.889"
   width="34.616"
   height="30.839">
								<feFlood
   style="flood-color:white;flood-opacity:1"
   result="back"
   id="feFlood461" />
								<feBlend
   in="SourceGraphic"
   in2="back"
   mode="normal"
   id="feBlend461" />
							</filter><filter
   id="Adobe_OpacityMaskFilter_00000015340205885140511190000000219925801032702849_"
   filterUnits="userSpaceOnUse"
   x="256.592"
   y="79.28"
   width="42.542"
   height="34.862">
					<feFlood
   style="flood-color:white;flood-opacity:1"
   result="back"
   id="feFlood464" />
					<feBlend
   in="SourceGraphic"
   in2="back"
   mode="normal"
   id="feBlend464" />
				</filter><filter
   id="Adobe_OpacityMaskFilter_00000110447968814697417120000004047849997574223267_"
   filterUnits="userSpaceOnUse"
   x="256.592"
   y="79.28"
   width="42.542"
   height="34.862">
							<feFlood
   style="flood-color:white;flood-opacity:1"
   result="back"
   id="feFlood465" />
							<feBlend
   in="SourceGraphic"
   in2="back"
   mode="normal"
   id="feBlend465" />
						</filter><filter
   id="Adobe_OpacityMaskFilter_00000034800962585059604430000010936485175015942806_"
   filterUnits="userSpaceOnUse"
   x="15.172"
   y="41.196"
   width="200.906"
   height="32.923">
						<feFlood
   style="flood-color:white;flood-opacity:1"
   result="back"
   id="feFlood572" />
						<feBlend
   in="SourceGraphic"
   in2="back"
   mode="normal"
   id="feBlend572" />
					</filter><filter
   id="Adobe_OpacityMaskFilter_00000145750802810706443520000001087598542850897036_"
   filterUnits="userSpaceOnUse"
   x="15.172"
   y="41.196"
   width="200.906"
   height="32.923">
								<feFlood
   style="flood-color:white;flood-opacity:1"
   result="back"
   id="feFlood573" />
								<feBlend
   in="SourceGraphic"
   in2="back"
   mode="normal"
   id="feBlend573" />
							</filter><filter
   id="Adobe_OpacityMaskFilter_00000018917119181324191220000002698845619400569006_"
   filterUnits="userSpaceOnUse"
   x="125.401"
   y="8.92"
   width="38.934"
   height="29.754">
						<feFlood
   style="flood-color:white;flood-opacity:1"
   result="back"
   id="feFlood576" />
						<feBlend
   in="SourceGraphic"
   in2="back"
   mode="normal"
   id="feBlend576" />
					</filter><filter
   id="Adobe_OpacityMaskFilter_00000000185054326247367440000012133073238996213162_"
   filterUnits="userSpaceOnUse"
   x="125.401"
   y="8.92"
   width="38.934"
   height="29.754">
								<feFlood
   style="flood-color:white;flood-opacity:1"
   result="back"
   id="feFlood577" />
								<feBlend
   in="SourceGraphic"
   in2="back"
   mode="normal"
   id="feBlend577" />
							</filter><filter
   id="Adobe_OpacityMaskFilter_00000024717172716179813730000017113419728725885859_"
   filterUnits="userSpaceOnUse"
   x="269.686"
   y="33.745"
   width="41.511"
   height="35.438">
						<feFlood
   style="flood-color:white;flood-opacity:1"
   result="back"
   id="feFlood580" />
						<feBlend
   in="SourceGraphic"
   in2="back"
   mode="normal"
   id="feBlend580" />
					</filter><filter
   id="Adobe_OpacityMaskFilter_00000169540928648392974810000007535231940579753662_"
   filterUnits="userSpaceOnUse"
   x="269.686"
   y="33.745"
   width="41.511"
   height="35.438">
								<feFlood
   style="flood-color:white;flood-opacity:1"
   result="back"
   id="feFlood581" />
								<feBlend
   in="SourceGraphic"
   in2="back"
   mode="normal"
   id="feBlend581" />
							</filter></defs><sodipodi:namedview
   id="namedview35"
   pagecolor="#ffffff"
   bordercolor="#000000"
   borderopacity="0.25"
   inkscape:showpageshadow="2"
   inkscape:pageopacity="0.0"
   inkscape:pagecheckerboard="true"
   inkscape:deskcolor="#d1d1d1"
   inkscape:zoom="16"
   inkscape:cx="15.09375"
   inkscape:cy="28.28125"
   inkscape:window-width="2659"
   inkscape:window-height="1638"
   inkscape:window-x="113"
   inkscape:window-y="203"
   inkscape:window-maximized="0"
   inkscape:current-layer="svg35"
   inkscape:clip-to-page="false" />

<g
   inkscape:groupmode="layer"
   id="layer1"
   inkscape:label="signage layer"
   style="display:inline"
   transform="translate(-0.19517359,-0.04920669)"><g
     id="g56"><path
       d="M 32.681641,4.2929687 C 31.843301,4.2929535 31.475607,4.8974397 30.873047,5.5 l -1.806641,1.8066406 -1.808594,1.8085938 -1.808593,1.8066406 -7.230469,7.230469 -7.230469,7.230468 -1.8066404,1.808594 -1.8085937,1.806641 -1.8066407,1.808594 c -0.6025603,0.60256 -0.9472814,0.956444 -0.9472656,1.808593 1.52e-5,0.824531 0.3056193,1.165038 0.8886719,1.748047 l 1.7480469,1.75 1.75,1.748047 1.7480466,1.75 6.998047,6.996094 6.996094,6.996094 1.75,1.748046 1.748047,1.75 1.75,1.748047 c 0.583052,0.58301 0.923516,0.957047 1.748047,0.957032 0.852089,-1.5e-5 1.206076,-0.413108 1.808593,-1.015625 l 1.806641,-1.806641 1.808594,-1.808594 1.80664,-1.80664 7.230469,-7.230469 7.230469,-7.230469 1.80664,-1.806641 1.808594,-1.808593 1.806641,-1.806641 c 0.602518,-0.602517 0.91014,-0.956505 0.910156,-1.808594 1.5e-5,-0.82453 -0.268553,-1.164993 -0.851562,-1.748047 l -1.748047,-1.75 -1.75,-1.75 -1.748047,-1.748046 -6.996094,-6.996094 -6.996094,-6.998047 -1.75,-1.7480469 -1.748047,-1.75 -1.75,-1.7480469 C 33.846678,4.8583535 33.519981,4.292984 32.681641,4.2929687 Z"
       style="fill:#fffdf8;fill-opacity:1;stroke:none;stroke-width:0.249751"
       id="path56" /><path
       d="M 32.793612,0.37647838 C 31.839909,0.37646359 31.420646,1.1487382 30.734164,1.8351778 l -2.059447,2.0593188 -2.059446,2.059319 -2.059447,2.0593189 -8.237788,8.2372765 -8.2377883,8.237274 -2.059447,2.05932 -2.059447,2.059318 c 0,0 -1.3729647,1.372879 -2.0594469,2.059319 -0.6864824,0.68644 -1.19767362,1.088517 -1.19768862,2.059319 -1.458e-5,0.936605 0.46279982,1.324559 1.12507902,1.986838 0.6622792,0.662279 1.9868375,1.986838 1.9868375,1.986838 l 1.9868374,1.986837 1.9868375,1.986838 7.9473504,7.947349 7.947349,7.94735 1.986837,1.986838 1.986838,1.986837 c 0,0 1.324558,1.324559 1.986837,1.986838 0.66228,0.662279 1.050234,1.194397 1.986838,1.194411 0.970803,1.5e-5 1.372965,-0.580453 2.059447,-1.266893 0.686482,-0.686439 2.059446,-2.059318 2.059446,-2.059318 l 2.059448,-2.059319 2.059447,-2.05932 8.237788,-8.237275 8.237788,-8.237275 2.059447,-2.05932 2.059446,-2.059319 c 0,0 1.372965,-1.372879 2.059447,-2.059318 0.686482,-0.68644 1.16255,-1.088517 1.162566,-2.059319 1.5e-5,-0.936605 -0.427677,-1.324559 -1.089956,-1.986838 -0.662279,-0.662279 -1.986838,-1.986837 -1.986838,-1.986837 L 58.622499,25.604746 56.635661,23.617908 48.688311,15.670559 40.740961,7.7232088 38.754123,5.7363714 36.767286,3.7495339 34.780449,1.7626963 C 34.11817,1.1004171 33.747315,0.37649317 32.793612,0.37647838 Z M 32.680919,4.2920145 c 0.838341,1.53e-5 1.166022,0.565487 1.749032,1.1485403 l 1.749032,1.7491597 1.749031,1.7491603 1.749032,1.7491592 6.996126,6.996638 6.996127,6.99664 1.749032,1.749159 1.749031,1.74916 c 0,0 1.166021,1.166106 1.749032,1.749159 0.58301,0.583054 0.852165,0.924629 0.85215,1.74916 -1.6e-5,0.852089 -0.308154,1.205036 -0.910673,1.807554 -0.602518,0.602518 -1.807555,1.807555 -1.807555,1.807555 l -1.807554,1.807554 -1.807555,1.807556 -7.230219,7.230218 -7.230218,7.230219 -1.807554,1.807555 -1.807555,1.807555 c 0,0 -1.205036,1.205036 -1.807555,1.807554 -0.602518,0.602518 -0.955465,1.015114 -1.807555,1.015129 -0.824531,1.5e-5 -1.166106,-0.373595 -1.749159,-0.956605 -0.583053,-0.583011 -1.74916,-1.749032 -1.74916,-1.749032 l -1.74916,-1.749032 -1.74916,-1.749031 -6.996638,-6.996127 -6.99664,-6.996127 -1.7491588,-1.749031 -1.7491601,-1.749032 c 0,0 -1.1661064,-1.166022 -1.7491596,-1.749032 -0.5830532,-0.58301 -0.887386,-0.9245 -0.8874012,-1.749031 -1.58e-5,-0.85215 0.3433633,-1.205122 0.9459243,-1.807683 0.6025609,-0.602561 1.8076828,-1.807682 1.8076828,-1.807682 l 1.8076824,-1.807684 1.8076832,-1.807682 7.230731,-7.23073 7.230731,-7.230732 1.807683,-1.8076825 1.807682,-1.8076832 1.807683,-1.8076826 c 0.602561,-0.6025609 0.969342,-1.2070785 1.807682,-1.2070632 z"
       style="fill:#f6c840;fill-opacity:1;stroke:#1d3244;stroke-width:0.249751;stroke-opacity:1"
       id="path55"
       sodipodi:nodetypes="zzcccccccssscccccccssscccccccsssccccccczzzzcccccccssscccccccssscccccccsssccccccczz"
       inkscape:label="holder" /></g></g>
<metadata
   id="metadata35"><rdf:RDF><cc:Work
       rdf:about=""><cc:license
         rdf:resource="http://artlibre.org/licence/lal" /><dc:creator><cc:Agent><dc:title>Tigon Trollhammer</dc:title></cc:Agent></dc:creator><dc:title>Dolphin Spawner</dc:title></cc:Work><cc:License
       rdf:about="http://artlibre.org/licence/lal"><cc:permits
         rdf:resource="http://creativecommons.org/ns#Reproduction" /><cc:permits
         rdf:resource="http://creativecommons.org/ns#Distribution" /><cc:permits
         rdf:resource="http://creativecommons.org/ns#DerivativeWorks" /><cc:requires
         rdf:resource="http://creativecommons.org/ns#ShareAlike" /><cc:requires
         rdf:resource="http://creativecommons.org/ns#Notice" /><cc:requires
         rdf:resource="http://creativecommons.org/ns#Attribution" /></cc:License></rdf:RDF></metadata><style
   type="text/css"
   id="style1">
	.st0{fill:#58565C;}
	.st1{fill:#949397;}
	.st2{fill:#4F4B4E;}
	.st3{fill:#616064;}
	.st4{fill:#939293;}
	.st5{fill:#A8A6A8;}
	.st6{fill:#A5A5A5;}
	.st7{fill:#A1A3AE;}
	.st8{fill:none;}
	.st9{fill:#4D4C50;}
	.st10{fill:#313033;}
	.st11{fill:#262528;}
	.st12{fill:#313034;}
	.st13{fill:#0D121B;}
	.st14{fill:#79767B;}
	.st15{fill:#5F5D61;}
	.st16{fill:#767677;}
</style><g
   id="g73"
   transform="matrix(-0.03957989,0,0,0.04649866,49.041478,7.0700118)"><g
     id="レイヤー_9">
	<path
   class="st0"
   d="m 203.064,738.939 c -7.999,-9.33 -33.235,-11.264 -33.235,-11.264 0,0 -16.076,1.253 -17.948,-7.659 -1.872,-8.897 -9.949,-1.872 -10.707,0.975 -0.758,2.847 -4.456,9.036 -12.239,12.935 -25.313,6.499 -59.539,40.925 -70.153,52.112 -2.104,2.228 -3.28,3.528 -3.28,3.528 -11.125,-42.008 56.181,-115.72 64.536,-118.505 4.92,-1.64 11.976,-8.525 16.927,-13.864 3.45,-3.729 5.88,-6.715 5.88,-6.715 l 35.401,18.397 5.632,10.398 c 17.933,19.666 19.186,59.662 19.186,59.662 z"
   id="path1" />
	<path
   class="st1"
   d="m 150.07,658.373 c 0,0 -73.897,52.762 -91.289,127.665 -2.104,2.228 -3.28,3.528 -3.28,3.528 -11.125,-42.008 56.181,-115.72 64.536,-118.505 4.92,-1.64 11.976,-8.525 16.927,-13.864 4.72,-0.851 9.13,-0.557 13.106,1.176 z"
   id="path2" />
</g><path
     class="st2"
     d="m 362.033,350.623 163.558,-41.724 c 0,0 -19.471,-5.841 -25.591,-12.795 -6.12,-6.954 -59.526,-71.765 -150.763,-69.54 0,0 -26.703,2.782 0,16.133 18.915,14.743 50.069,62.586 12.796,107.926 z"
     id="path3" /><path
     class="st3"
     d="m 934.583,512.752 c -26.493,7.293 -39.976,4.327 -84.681,-9.597 -42.906,-13.364 -53.105,-16.93 -85.922,-7.059 -27.448,8.262 -99.396,36.144 -122.265,45.072 -40.492,3.28 -79.112,5.354 -83.583,5.137 -8.758,-0.418 -131.641,3.342 -148.12,-0.836 -20.238,0.217 -73.217,16.076 -85.115,31.719 0,0 -101.81,73.851 -129.754,82.608 0,0 -16.076,10.228 -19.619,20.439 -5.214,7.721 -22.528,36.314 -22.528,36.314 0,0 -13.771,-14.606 -16.277,-61.349 0,0 31.301,-254.092 290.406,-337.954 247.841,-56.336 428.918,35.046 466.47,148.538 0,0 0.155,0.077 0.433,0.232 9.833,5.615 23.907,18.74 33.717,23.135 18.906,8.449 9.552,22.853 6.838,23.601 z"
     id="path4" /><g
     id="レイヤー_4">
	<path
   class="st4"
   d="m 726.701,454.099 c 0,0 -155.477,-99.055 -369.675,35.883 0,0 -139.843,88.872 -162.549,128.51 l 11.508,4.172 -51.738,61.752 40.23,-26.042 c 0,0 241.859,-225.553 486.553,-167.557 l 36.491,-15.855 -12.517,-8.944 z"
   id="path5" />
</g><path
     class="st5"
     d="m 741.312,479.974 -99.598,41.157 -0.356,18.505 c -11.187,0.913 -22.126,1.717 -32.214,2.398 -25.375,1.733 -45.335,2.739 -50.147,2.739 0,0 0,0 -0.016,0 -0.325,0 -0.588,0 -0.774,-0.016 -0.495,-0.015 -1.331,-0.031 -2.476,-0.031 -4.286,0 -13.105,0.155 -24.261,0.356 -20.084,0.34 -47.609,0.836 -71.685,0.836 -27.681,0 -44.314,-0.665 -49.389,-1.95 l -0.201,-0.046 h -0.201 c -19.372,0.201 -73.48,15.859 -86.183,32.137 -4.858,3.528 -102.305,73.851 -129.135,82.268 l -0.201,0.046 c 0,0 203.852,-235.355 459.213,-179.653 l 27.34,0.387 z"
     id="path6" /><path
     class="st0"
     d="m 659.664,534.209 c 0,0 6.381,35.604 -17.95,62.308 0,0 -8.702,11.405 9.353,6.12 18.055,-5.285 61.448,-41.168 72.574,-75.66 z"
     id="path7" /><path
     class="st6"
     d="M 892.709,467.073 C 891.912,453.448 838.242,373.154 785.76,350.664 718.077,323.086 652.727,301.273 573.275,301.683 c -46.91,0.242 -95.968,5.744 -145.676,17.037 0,0 195.207,-54.882 368.362,46.09 32.962,19.568 46.731,38.803 51.738,50.069 5.007,11.266 8.762,25.452 20.862,34.214 7.302,9.179 11.266,12.1 11.266,12.1 0,0 -11.331,-19.988 -9.805,-27.955 2.4,-1.044 21.279,28.451 22.687,33.835 z"
     id="path8" /><path
     class="st5"
     d="m 928.045,530.292 c -14.427,7.146 -44.655,2.667 -76.636,-6.607 -20.238,-3.543 -88.405,-3.669 -116.364,5.522 -13.709,4.503 -54.386,8.804 -93.331,11.96 22.869,-8.928 94.816,-40.636 122.265,-48.898 15.898,-4.782 18.918,-7.772 30.384,-6.112 7.792,1.128 54.221,2.995 69.285,-4.135 -6.974,7.129 -21.29,9.332 -36.004,12.864 57.612,24.001 114.626,27.652 111.435,5.852 1.379,4.278 -0.24,20.655 -11.034,29.554 z"
     id="path9" /><path
     class="st7"
     d="m 291.38,404.587 c -3.338,2.225 -36.161,29.485 -36.161,29.485 l 38.386,-18.915 -75.66,76.216 15.021,-3.894 -20.584,28.929 10.014,-5.007 c 0,0 -77.885,110.43 -79.554,126.285 0,0 27.538,-118.496 75.381,-168.009 0,0 36.717,-51.46 63.142,-65.089 h 10.015 z"
     id="path10" /><g
     id="レイヤー_3">
</g><path
     class="st8"
     d="m 681.03,479.107 -59.895,14.637 -11.991,48.29 c -25.375,1.733 -45.335,2.739 -50.147,2.739 0,0 0,0 -0.016,0 -0.325,0 -0.588,0 -0.774,-0.016 -0.495,-0.015 -1.331,-0.031 -2.476,-0.031 -4.286,0 -13.105,0.155 -24.261,0.356 -20.084,0.34 -47.609,0.836 -71.685,0.836 -27.681,0 -44.314,-0.665 -49.389,-1.95 l -0.201,-0.046 h -0.201 c -19.372,0.201 -73.48,15.859 -86.183,32.137 -4.858,3.528 -102.305,73.851 -129.135,82.268 l -0.201,0.046 c 0,0 203.852,-235.355 459.213,-179.653 z"
     id="path11" /><path
     class="st3"
     d="m 702.506,512.93 c -7.52,5.849 -15.024,8.34 -15.024,8.34 -5.771,1.3 -11.063,5.539 -15.039,9.609 -4.332,4.487 -7.071,8.758 -7.071,8.758 -39.022,64.676 -131.44,88.875 -131.44,88.875 -7.504,0.65 -12.595,0.619 -16.03,0.217 -9.732,-1.13 -6.081,-5.23 -6.081,-5.23 17.53,-8.758 68.637,-79.901 76.358,-90.128 7.721,-10.212 20.857,-10.846 20.857,-10.846 l 29.905,-0.901 c 15.658,-8.348 32.883,-14.968 42.693,-3.679 z"
     id="path12" /><path
     class="st9"
     d="m 672.443,530.879 c -4.332,4.487 -7.071,8.758 -7.071,8.758 -39.022,64.676 -131.44,88.875 -131.44,88.875 -7.504,0.65 -12.595,0.619 -16.03,0.217 52.39,-10.413 79.669,-34.643 88.921,-39.858 9.268,-5.214 27.665,-17.113 44.36,-39.223 8.387,-11.111 15.891,-16.325 21.26,-18.769 z"
     id="path13" /><path
     class="st10"
     d="m 807.281,384.189 c -0.849,-1.611 -0.549,-2.825 -0.095,-3.588 l 0.252,-0.424 0.489,-0.059 c 0.179,-0.021 0.365,-0.032 0.558,-0.032 3.843,0 10.402,4.453 11.32,7.684 0.33,1.161 -0.041,2.172 -1.018,2.776 -2.551,1.342 -9.624,-2.786 -11.506,-6.357 z"
     id="path14" /><path
     class="st11"
     d="m 808.045,382.112 c -2.992,3.418 7.989,9.539 10.217,8.584 3.334,-1.792 -7.602,-10.244 -10.217,-8.584 z"
     id="path15" /><path
     class="st6"
     d="m 826.88,387.559 c 0,0 -13.67,9.722 -20.656,-6.053 -5.814,-5.73 -26.764,-20.022 -26.764,-20.022 0,0 25.281,17.595 28.045,18.067 2.764,0.472 3.236,-0.375 2.157,-2.109 -1.079,-1.734 -40.471,-30.028 -56.853,-34.545 0,0 48.375,37.19 50.381,40.024 2.444,4.567 15.461,15.868 28.63,9.518 3.191,-1.709 2.051,-5.857 -4.94,-4.88 z"
     id="path16" /><path
     class="st12"
     d="m 762.382,483.551 c 0,0 -16.899,0.482 -19.506,-9.242 -2.607,-9.724 3.146,-7.235 3.146,-7.235 0,0 6.731,7.627 15.82,5.781 6.293,2.316 9.304,7.415 0.54,10.696 z"
     id="path17" /><path
     class="st13"
     d="m 747.407,469.974 c 0,0 7.818,4.912 12.099,4.014 4.281,-0.898 4.661,1.365 1.753,3.653 -3.711,2.92 -9.902,0.744 -15.91,-5.528 -3.068,-3.55 2.058,-2.139 2.058,-2.139 z"
     id="path18" /><path
     class="st14"
     d="m 747.775,459.101 c 0,0 -14.429,7.82 -3.405,17.528 11.024,9.708 24.333,6.925 24.333,6.925 0,0 -18.193,3.524 -26.504,-6.386 -8.311,-9.91 -9.053,-12.876 5.576,-18.067 z"
     id="path19" /><path
     class="st15"
     d="m 768.703,463.685 c 0,0 12.163,7.918 0,19.869 0,0 57.736,-5.846 0,-19.869 z"
     id="path20" /><path
     class="st12"
     d="m 763.979,496.096 c 0,0 36.174,-14.276 69.535,1.028 66.89,28.517 99.722,23.326 105.325,7.945 -12.547,14.437 -41.121,14.995 -100.053,-9.293 -28.988,-9.843 -57.39,-7.854 -74.807,0.32 z"
     id="path21" /><path
     class="st12"
     d="m 892.709,463.193 c 0,0 4.234,21.488 -29.061,18.829 0,0 34.984,12.365 29.061,-18.829 z"
     id="path22" /><path
     class="st16"
     d="m 746.411,464.954 c 0,0 16.18,-1.079 22.292,9.348 l -2.157,-9.38 h 5.393 c 0,10e-4 -8.63,-12.732 -25.528,0.032 z"
     id="path23" /></g></svg>
