<svg xmlns="http://www.w3.org/2000/svg" xml:space="preserve" fill-rule="evenodd" clip-rule="evenodd" viewBox="0 0 64 64">
  <g id="blue">
    <path fill="#57e8f7" d="M32.396 9.346c.685 0 .952.461 1.428.937l1.427 1.428 1.428 1.427 1.427 1.428 5.71 5.71 5.71 5.711 1.428 1.427 1.427 1.428 1.428 1.427c.476.476.695.755.695 1.428 0 .695-.251.983-.743 1.475l-2.95 2.951-1.476 1.475L37.533 49.4l-2.95 2.951-1.476 1.475c-.491.492-.779.828-1.475.828-.673 0-.952-.305-1.427-.78l-2.856-2.855-1.427-1.428-5.711-5.71-5.71-5.71-4.283-4.282c-.476-.476-.724-.755-.724-1.428 0-.695.28-.983.772-1.475l20.655-20.655c.492-.492.791-.985 1.475-.985Z"/>
    <path fill="#1f70d9" fill-rule="nonzero" stroke="#324565" stroke-width="0.2px" d="M32.488 6.15c-.778 0-1.12.63-1.68 1.191l-1.681 1.68-10.085 10.085-6.724 6.723-5.042 5.042c-.56.56-.978.888-.978 1.681 0 .764.378 1.081.919 1.621l4.864 4.865 6.487 6.486 8.108 8.108 1.621 1.622 1.622 1.621c.54.541.857.975 1.621.975.793 0 1.121-.474 1.681-1.034l1.681-1.681 1.681-1.68 18.489-18.489 1.681-1.68c.56-.56.949-.889.949-1.681 0-.764-.349-1.081-.89-1.622l-1.622-1.621-1.621-1.622-14.594-14.594-1.622-1.621-3.243-3.244c-.541-.54-.843-1.131-1.622-1.131Zm-.092 3.196c.685 0 .952.461 1.428.937l1.427 1.428 1.428 1.427 1.427 1.428 5.71 5.71 5.71 5.711 1.428 1.427 1.427 1.428 1.428 1.427c.476.476.695.755.695 1.428 0 .695-.251.983-.743 1.475l-2.95 2.951-1.476 1.475L37.533 49.4l-2.95 2.951-1.476 1.475c-.491.492-.779.828-1.475.828-.673 0-.952-.305-1.427-.78l-2.856-2.855-1.427-1.428-5.711-5.71-5.71-5.71-4.283-4.282c-.476-.476-.724-.755-.724-1.428 0-.695.28-.983.772-1.475l20.655-20.655c.492-.492.791-.985 1.475-.985Z"/>
  </g>
  <g id="grey">
    <path fill="#58565c" d="M42.518 36.192c.68.682 2.061 2.276 2.465 4.321-.331-.411-1.399-1.673-2.189-1.911a.844.844 0 0 1-.382-.474c-.024-.104-.276-.362-.334-.036-.058.327-.56.281-.56.281s-.788.071-1.037.413c0 0 .039-1.466.598-2.187l.176-.382.469.357c.228.546.386 1.203.319 1.391 0 0 .349-.434.475-1.773Z"/>
    <path fill="#949397" fill-rule="nonzero" d="M42.134 35.832s2.306 1.935 2.849 4.681c.066.081.103.129.103.129.347-1.54-1.754-4.242-2.014-4.345-.154-.06-.374-.312-.529-.508a.602.602 0 0 0-.409.043Z"/>
    <path fill="#4f4b4e" d="M30.869 22.817c.132-.065.249-.156.346-.266.191-.255 1.857-2.631 4.704-2.549 0 0 .834.102 0 .591-.546.5-1.418 2.038-.626 3.581a13.062 13.062 0 0 0-1.804-.848 18.971 18.971 0 0 0-2.62-.509Z"/>
    <path fill="#616064" d="M25.746 31.06c-.95-.427-2.184-.97-2.769-1.177-1.024-.362-1.342-.231-2.681.259-1.395.51-1.816.619-2.643.352-.084-.028-.376-.556.214-.865.306-.162.745-.643 1.052-.849a.091.091 0 0 0 .013-.008c1.172-4.161 6.823-7.511 14.557-5.446 8.085 3.075 9.062 12.39 9.062 12.39-.078 1.714-.508 2.249-.508 2.249.067-.188-.091-.845-.319-1.391l.28.213-1.614-2.264.359-.153c-.709-1.453-5.073-4.711-5.073-4.711-6.684-4.947-11.536-1.315-11.536-1.315l.677.437-.39.327.325.166-1.068.018 2.444 1.187c.238.044.501.183.751.34l.933.033s.41.023.651.398c.241.375 1.836 2.983 2.383 3.304 0 0 .114.15-.19.192a2.322 2.322 0 0 1-.5-.008c-.166-.021-2.656-.817-3.946-2.978.01.469.113 1.199.582 1.805 0 0 .272.418-.291.224-.535-.184-1.782-1.378-2.204-2.58.433.09 1.068.176 1.746.25a2.487 2.487 0 0 0-.209-.301c-.028-.032-.057-.066-.088-.098Z"/>
    <path fill="#939293" d="m24.752 29.274-.325-.166.39-.327-.677-.437s4.852-3.632 11.536 1.315c0 0 4.364 3.258 5.073 4.711l-.359.153 1.614 2.264-1.255-.955s-6.362-8.628-14.33-6.586l-.853.014-.814.014Z"/>
    <path fill="#a8a6a8" d="m23.684 29.292 1.882-.032.853-.014c7.968-2.042 14.33 6.586 14.33 6.586l-.006-.001c-.838-.309-3.879-2.887-4.03-3.016-.397-.597-2.085-1.171-2.69-1.179h-.006l-.006.002c-.159.047-.678.072-1.541.072-.752 0-1.611-.018-2.237-.031-.348-.007-.624-.013-.757-.013l-.078.001-.024.001c-.086 0-.329-.012-.669-.035-.114-.181-.199-.317-.242-.383-.241-.375-.651-.398-.651-.398l-.933-.033c-.25-.157-.513-.296-.751-.34l-2.444-1.187Zm2.359 2.167c-.953-.104-1.823-.231-2.163-.362-.872-.337-3-.332-3.631-.202-.998.34-1.941.504-2.392.242-.336-.326-.387-.927-.344-1.084-.1.8 1.68.666 3.477-.214-.459-.13-.905-.21-1.123-.472.47.262 1.919.193 2.162.152.358-.061.452.049.948.224.571.202 1.76.786 2.7 1.25.057.052.11.109.157.165.106.129.181.253.209.301Z"/>
    <path fill="#313033" d="M18.96 28.677c-.003.022-.117.786.907.69 0 0-1.091.453-.907-.69Zm2.666-2.896c-.059.131-.28.282-.359.233-.031-.022-.042-.06-.032-.102.029-.119.233-.282.353-.282l.018.001.015.003.008.015c.014.028.023.073-.003.132Zm1.661 2.896h.01c.169 0 .308.138.31.307a.312.312 0 0 1-.311.307h-.008a.312.312 0 0 1-.311-.307.312.312 0 0 1 .31-.307Zm-.31 1.206s-1.129-.523-2.17.038c-2.087 1.045-3.112.855-3.286.291.391.529 1.283.55 3.122-.341.904-.36 1.791-.287 2.334.012Z"/>
  </g>
</svg>
