<?xml version="1.0" encoding="UTF-8" standalone="no"?>
<!-- Generator: Adobe Illustrator 27.5.0, SVG Export Plug-In . SVG Version: 6.00 Build 0)  -->

<svg
   version="1.1"
   x="0px"
   y="0px"
   viewBox="0 0 64 64"
   xml:space="preserve"
   id="svg35"
   sodipodi:docname="Eagle Spawner.svg"
   width="64"
   height="64"
   inkscape:version="1.3.2 (091e20e, 2023-11-25, custom)"
   xmlns:inkscape="http://www.inkscape.org/namespaces/inkscape"
   xmlns:sodipodi="http://sodipodi.sourceforge.net/DTD/sodipodi-0.dtd"
   xmlns="http://www.w3.org/2000/svg"
   xmlns:svg="http://www.w3.org/2000/svg"
   xmlns:rdf="http://www.w3.org/1999/02/22-rdf-syntax-ns#"
   xmlns:cc="http://creativecommons.org/ns#"
   xmlns:dc="http://purl.org/dc/elements/1.1/"><title
   id="title2">Eagle Spawner</title><defs
   id="defs35" /><sodipodi:namedview
   id="namedview35"
   pagecolor="#ffffff"
   bordercolor="#000000"
   borderopacity="0.25"
   inkscape:showpageshadow="2"
   inkscape:pageopacity="0.0"
   inkscape:pagecheckerboard="0"
   inkscape:deskcolor="#d1d1d1"
   inkscape:zoom="32"
   inkscape:cx="32.40625"
   inkscape:cy="30.03125"
   inkscape:window-width="2643"
   inkscape:window-height="1767"
   inkscape:window-x="461"
   inkscape:window-y="85"
   inkscape:window-maximized="0"
   inkscape:current-layer="layer1" />


<metadata
   id="metadata35"><rdf:RDF><cc:Work
       rdf:about=""><cc:license
         rdf:resource="http://artlibre.org/licence/lal" /><dc:creator><cc:Agent><dc:title>Tigon Trollhammer</dc:title></cc:Agent></dc:creator><dc:title>Eagle Spawner</dc:title></cc:Work><cc:License
       rdf:about="http://artlibre.org/licence/lal"><cc:permits
         rdf:resource="http://creativecommons.org/ns#Reproduction" /><cc:permits
         rdf:resource="http://creativecommons.org/ns#Distribution" /><cc:permits
         rdf:resource="http://creativecommons.org/ns#DerivativeWorks" /><cc:requires
         rdf:resource="http://creativecommons.org/ns#ShareAlike" /><cc:requires
         rdf:resource="http://creativecommons.org/ns#Notice" /><cc:requires
         rdf:resource="http://creativecommons.org/ns#Attribution" /></cc:License></rdf:RDF></metadata><g
   inkscape:groupmode="layer"
   id="layer1"
   inkscape:label="signage layer"
   style="display:inline"
   transform="translate(-0.19517359,-0.04920669)"><g
     id="g56"
     style="display:inline"><path
       d="M 32.681641,4.2929687 C 31.843301,4.2929535 31.475607,4.8974397 30.873047,5.5 l -1.806641,1.8066406 -1.808594,1.8085938 -1.808593,1.8066406 -7.230469,7.230469 -7.230469,7.230468 -1.8066404,1.808594 -1.8085937,1.806641 -1.8066407,1.808594 c -0.6025603,0.60256 -0.9472814,0.956444 -0.9472656,1.808593 1.52e-5,0.824531 0.3056193,1.165038 0.8886719,1.748047 l 1.7480469,1.75 1.75,1.748047 1.7480466,1.75 6.998047,6.996094 6.996094,6.996094 1.75,1.748046 1.748047,1.75 1.75,1.748047 c 0.583052,0.58301 0.923516,0.957047 1.748047,0.957032 0.852089,-1.5e-5 1.206076,-0.413108 1.808593,-1.015625 l 1.806641,-1.806641 1.808594,-1.808594 1.80664,-1.80664 7.230469,-7.230469 7.230469,-7.230469 1.80664,-1.806641 1.808594,-1.808593 1.806641,-1.806641 c 0.602518,-0.602517 0.91014,-0.956505 0.910156,-1.808594 1.5e-5,-0.82453 -0.268553,-1.164993 -0.851562,-1.748047 l -1.748047,-1.75 -1.75,-1.75 -1.748047,-1.748046 -6.996094,-6.996094 -6.996094,-6.998047 -1.75,-1.7480469 -1.748047,-1.75 -1.75,-1.7480469 C 33.846678,4.8583535 33.519981,4.292984 32.681641,4.2929687 Z"
       style="display:inline;fill:#fffdf8;fill-opacity:1;stroke:none;stroke-width:0.249751"
       id="path56" /><path
       d="M 32.793612,0.37647838 C 31.839909,0.37646359 31.420646,1.1487382 30.734164,1.8351778 l -2.059447,2.0593188 -2.059446,2.059319 -2.059447,2.0593189 -8.237788,8.2372765 -8.2377883,8.237274 -2.059447,2.05932 -2.059447,2.059318 c 0,0 -1.3729647,1.372879 -2.0594469,2.059319 -0.6864824,0.68644 -1.19767362,1.088517 -1.19768862,2.059319 -1.458e-5,0.936605 0.46279982,1.324559 1.12507902,1.986838 0.6622792,0.662279 1.9868375,1.986838 1.9868375,1.986838 l 1.9868374,1.986837 1.9868375,1.986838 7.9473504,7.947349 7.947349,7.94735 1.986837,1.986838 1.986838,1.986837 c 0,0 1.324558,1.324559 1.986837,1.986838 0.66228,0.662279 1.050234,1.194397 1.986838,1.194411 0.970803,1.5e-5 1.372965,-0.580453 2.059447,-1.266893 0.686482,-0.686439 2.059446,-2.059318 2.059446,-2.059318 l 2.059448,-2.059319 2.059447,-2.05932 8.237788,-8.237275 8.237788,-8.237275 2.059447,-2.05932 2.059446,-2.059319 c 0,0 1.372965,-1.372879 2.059447,-2.059318 0.686482,-0.68644 1.16255,-1.088517 1.162566,-2.059319 1.5e-5,-0.936605 -0.427677,-1.324559 -1.089956,-1.986838 -0.662279,-0.662279 -1.986838,-1.986837 -1.986838,-1.986837 L 58.622499,25.604746 56.635661,23.617908 48.688311,15.670559 40.740961,7.7232088 38.754123,5.7363714 36.767286,3.7495339 34.780449,1.7626963 C 34.11817,1.1004171 33.747315,0.37649317 32.793612,0.37647838 Z M 32.680919,4.2920145 c 0.838341,1.53e-5 1.166022,0.565487 1.749032,1.1485403 l 1.749032,1.7491597 1.749031,1.7491603 1.749032,1.7491592 6.996126,6.996638 6.996127,6.99664 1.749032,1.749159 1.749031,1.74916 c 0,0 1.166021,1.166106 1.749032,1.749159 0.58301,0.583054 0.852165,0.924629 0.85215,1.74916 -1.6e-5,0.852089 -0.308154,1.205036 -0.910673,1.807554 -0.602518,0.602518 -1.807555,1.807555 -1.807555,1.807555 l -1.807554,1.807554 -1.807555,1.807556 -7.230219,7.230218 -7.230218,7.230219 -1.807554,1.807555 -1.807555,1.807555 c 0,0 -1.205036,1.205036 -1.807555,1.807554 -0.602518,0.602518 -0.955465,1.015114 -1.807555,1.015129 -0.824531,1.5e-5 -1.166106,-0.373595 -1.749159,-0.956605 -0.583053,-0.583011 -1.74916,-1.749032 -1.74916,-1.749032 l -1.74916,-1.749032 -1.74916,-1.749031 -6.996638,-6.996127 -6.99664,-6.996127 -1.7491588,-1.749031 -1.7491601,-1.749032 c 0,0 -1.1661064,-1.166022 -1.7491596,-1.749032 -0.5830532,-0.58301 -0.887386,-0.9245 -0.8874012,-1.749031 -1.58e-5,-0.85215 0.3433633,-1.205122 0.9459243,-1.807683 0.6025609,-0.602561 1.8076828,-1.807682 1.8076828,-1.807682 l 1.8076824,-1.807684 1.8076832,-1.807682 7.230731,-7.23073 7.230731,-7.230732 1.807683,-1.8076825 1.807682,-1.8076832 1.807683,-1.8076826 c 0.602561,-0.6025609 0.969342,-1.2070785 1.807682,-1.2070632 z"
       style="fill:#f6c840;fill-opacity:1;stroke:#1d3244;stroke-width:0.249751;stroke-opacity:1"
       id="path55"
       sodipodi:nodetypes="zzcccccccssscccccccssscccccccsssccccccczzzzcccccccssscccccccssscccccccsssccccccczz"
       inkscape:label="holder" /></g></g><g
   id="g2"
   inkscape:label="Eagle"><path
     style="fill:#725631;fill-opacity:1;stroke:#1d3244;stroke-width:0.443689;stroke-opacity:1"
     d="m 56.609777,31.210668 c -0.01555,0.0088 -0.02071,0.01953 -0.02306,0.03987 -3.87e-4,0.0036 0.0014,0.0066 0.0024,0.01003 -0.0023,0.0055 -0.0056,0.01288 -0.0093,0.02114 -0.0023,-1.99e-4 -0.0043,-8.6e-4 -0.0068,-2.37e-4 -0.05918,0.01774 -0.09199,0.06492 -0.131332,0.118101 -0.04522,0.06119 -0.09009,0.122719 -0.136131,0.183147 -0.0935,0.122404 -0.188045,0.24364 -0.284872,0.36211 -0.191336,0.234068 -0.392035,0.457571 -0.601285,0.668698 -0.0841,0.08485 -0.170366,0.166834 -0.25698,0.24813 0.04508,-0.08139 0.08899,-0.163653 0.129471,-0.248101 0.244839,-0.508887 0.419413,-1.063167 0.528629,-1.637714 0.03019,-0.158753 0.0555,-0.319233 0.07437,-0.480792 0.0098,-0.08381 0.01758,-0.168005 0.02396,-0.252332 0.0032,-0.04314 0.0074,-0.08519 0.0059,-0.12669 0.0041,-0.0079 0.0076,-0.01651 0.01181,-0.02439 0.01439,-0.028 -0.0057,-0.06427 -0.02879,-0.06678 -7.48e-4,-0.0021 -9.35e-4,-0.0042 -0.0018,-0.0062 -0.01072,-0.02649 -0.04091,-0.02869 -0.05451,-0.0057 -0.02172,0.03653 -0.02969,0.07422 -0.03479,0.11512 -0.150646,0.227392 -0.239578,0.516423 -0.342336,0.775628 -0.12667,0.31979 -0.255374,0.637961 -0.399614,0.946614 -0.274378,0.58743 -0.594934,1.15859 -1.009967,1.616782 0.05918,-0.120816 0.113423,-0.245394 0.164703,-0.37215 0.18505,-0.458097 0.325818,-0.936196 0.423924,-1.432579 0.05444,-0.275711 0.114125,-0.56643 0.121339,-0.851681 4.44e-4,-0.01873 -0.01117,-0.03182 -0.02397,-0.03551 5.7e-4,-0.0052 0.0018,-0.0099 0.0024,-0.01503 0.004,-0.03557 -0.04356,-0.05785 -0.05771,-0.02457 -0.06991,0.164559 -0.111362,0.347869 -0.170087,0.51908 -0.05974,0.174538 -0.126077,0.34605 -0.195353,0.515061 -0.139259,0.339439 -0.294802,0.670989 -0.46686,0.987861 -0.174135,0.320552 -0.364166,0.633704 -0.573724,0.922211 -0.112827,0.155258 -0.235672,0.300834 -0.372978,0.425447 -0.129884,0.117893 -0.274002,0.208626 -0.418758,0.298057 -0.05283,0.03259 -0.105559,0.06512 -0.158397,0.09772 -0.06898,0.03325 -0.137272,0.0692 -0.207218,0.09858 -0.204768,0.08583 -0.418572,0.140834 -0.633854,0.17919 -0.442471,0.07885 -0.892162,0.116193 -1.340431,0.127587 -0.118411,0.003 -0.236156,-0.01916 -0.354799,-0.01785 -0.118946,0.0013 -0.238959,0.0081 -0.357572,0.01802 -0.234926,0.0198 -0.467155,0.0483 -0.703245,0.05369 -0.420625,0.0095 -0.845043,0.02549 -1.266732,0.0058 -0.006,-0.0056 -0.01351,-0.0099 -0.02274,-0.01119 -0.127616,-0.01744 -0.250725,-0.0392 -0.379218,-0.04151 -0.127709,-0.0023 -0.255082,0.005 -0.38265,0.008 -0.251634,0.006 -0.50347,0.0066 -0.755438,0.0017 -0.507901,-0.0099 -1.014991,-0.04001 -1.521662,-0.09458 -1.01158,-0.109037 -2.018318,-0.305858 -3.008575,-0.592385 -0.144229,-0.04173 -0.287842,-0.08727 -0.43183,-0.131046 -0.292787,-0.120515 -0.591812,-0.175762 -0.8995,-0.216664 -0.337926,-0.04493 -0.675805,-0.06565 -1.014787,-0.08451 -0.319758,-0.01766 -0.644501,-0.03757 -0.957497,-0.128001 -0.303326,-0.08781 -0.600177,-0.208373 -0.891144,-0.345154 -0.160229,-0.07534 -0.317912,-0.157872 -0.476589,-0.237653 -0.02695,-0.0136 -0.05371,-0.02787 -0.08044,-0.04215 0.0067,-0.02819 0.01213,-0.05708 0.0193,-0.08523 0.04209,-0.16553 0.0918,-0.32629 0.162454,-0.47727 0.07017,-0.15007 0.154201,-0.288952 0.250441,-0.416227 0.01741,-0.02319 0.03385,-0.04763 0.05097,-0.07131 0.02748,0.0057 0.05821,5.67e-4 0.08364,-0.0068 0.05099,-0.0148 0.102107,-0.02968 0.153217,-0.04457 0.04878,-0.01423 0.09838,-0.02807 0.145141,-0.04995 0.01114,-0.0051 0.02228,-0.01123 0.03335,-0.01783 0.01121,0.02223 0.02252,0.04421 0.03323,0.06657 0.02894,0.06086 0.05946,0.124014 0.103856,0.169857 4.34e-4,0.01391 0.0015,0.02751 0.005,0.04106 0.0056,0.02085 0.02809,0.03046 0.03958,0.01041 0.03995,-0.07035 0.02737,-0.194947 0.02248,-0.277235 -0.0064,-0.110162 -0.0164,-0.218675 -0.045,-0.324636 -0.05618,-0.207936 -0.167136,-0.374833 -0.308388,-0.512291 -0.148002,-0.143943 -0.335301,-0.241237 -0.52152,-0.281812 -0.01586,-0.0035 -0.03182,-0.005 -0.04767,-0.0079 -0.134451,-0.214565 -0.426191,-0.249235 -0.632872,-0.265929 -0.280792,-0.02278 -0.565271,0.0056 -0.810954,0.17372 -0.265127,0.181399 -0.508104,0.416578 -0.751619,0.635438 -0.241094,0.216829 -0.481349,0.435367 -0.729607,0.640738 -0.03542,0.013 -0.07088,0.02589 -0.105985,0.03891 -0.145466,0.05373 -0.290957,0.108997 -0.429938,0.182942 -0.03773,0.02 -0.07515,0.04004 -0.112886,0.05936 -0.01122,1.16e-4 -0.02244,-4.86e-4 -0.03376,-1.16e-4 -0.184157,0.0042 -0.368213,0.01437 -0.551763,0.03094 -0.182345,0.01649 -0.364152,0.04296 -0.543858,0.08133 -0.01577,0.0033 -0.03125,0.0079 -0.04708,0.01139 -0.213726,-9.74e-4 -0.427654,-0.01217 -0.640973,-0.03355 -0.476449,-0.04773 -0.94986,-0.137141 -1.421828,-0.232798 -1.018764,-0.206476 -2.037415,-0.398762 -3.063757,-0.532862 -0.293604,-0.03847 -0.587528,-0.07315 -0.881609,-0.104348 -0.124957,-0.01316 -0.250441,-0.02297 -0.375877,-0.02886 -0.01377,-0.0031 -0.02756,-0.0058 -0.0412,-0.0089 -0.302097,-0.06818 -0.604265,-0.136491 -0.906434,-0.204811 -0.29676,-0.06711 -0.593856,-0.141886 -0.8926,-0.193383 -0.06669,-0.01153 -0.13236,-0.0042 -0.199481,-0.0067 -0.07374,-0.0028 -0.147905,-0.0026 -0.22168,-0.002 -0.135683,0.0011 -0.281849,0.02262 -0.416125,-0.01274 -0.06507,-0.01712 -0.126713,-0.03863 -0.192928,-0.05139 -0.07522,-0.01435 -0.1503,-0.03066 -0.225229,-0.04632 -0.151938,-0.03179 -0.303884,-0.06358 -0.455758,-0.09523 -0.303886,-0.06358 -0.607702,-0.127019 -0.911587,-0.190602 -0.576778,-0.12065 -1.156305,-0.22535 -1.731997,-0.354249 -0.29199,-0.06529 -0.58162,-0.147023 -0.864867,-0.257889 -0.193526,-0.07577 -0.379026,-0.173549 -0.565257,-0.269317 -0.19596,-0.15336 -0.386479,-0.317192 -0.568066,-0.493861 -0.613419,-0.596705 -1.108687,-1.353222 -1.535667,-2.142506 -0.234304,-0.433337 -0.450424,-0.885053 -0.700024,-1.306477 -0.0099,-0.03062 -0.01919,-0.06148 -0.03023,-0.09151 -0.02023,-0.05534 -0.08698,-0.02568 -0.08048,0.02979 0.02278,0.1933 0.0857,0.3865 0.142847,0.569744 0.05647,0.18126 0.119767,0.359939 0.185846,0.536727 0.133431,0.3574 0.287887,0.701617 0.472406,1.026317 0.380262,0.669171 0.853801,1.242753 1.413299,1.698506 0.05194,0.04241 0.105216,0.08294 0.158086,0.123933 -0.02761,-0.01254 -0.05525,-0.02492 -0.08284,-0.03752 -0.210485,-0.09691 -0.420013,-0.196165 -0.626211,-0.306693 -0.411843,-0.220882 -0.81385,-0.467048 -1.19981,-0.748914 -0.77075,-0.562845 -1.491378,-1.247679 -2.122008,-2.022109 -0.355915,-0.437134 -0.660495,-0.926103 -0.967555,-1.410944 -0.0048,-0.0086 -0.0092,-0.01744 -0.01399,-0.02596 -0.02423,-0.04285 -0.06984,0.0036 -0.05796,0.0443 0.07449,0.253866 0.198744,0.493589 0.316192,0.722915 0.118548,0.231209 0.245362,0.454349 0.384732,0.668759 0.281436,0.433179 0.59949,0.831676 0.945004,1.192707 0.665036,0.694687 1.439466,1.236625 2.242177,1.664118 0.06745,0.03595 0.135953,0.06952 0.204048,0.103924 -0.22673,-0.05755 -0.452525,-0.120572 -0.675725,-0.197003 -0.446543,-0.152868 -0.875025,-0.375379 -1.295422,-0.612782 -0.828197,-0.467798 -1.635698,-1.023654 -2.35861,-1.702049 -0.202053,-0.189589 -0.398208,-0.388073 -0.586279,-0.597316 -0.09604,-0.106637 -0.190055,-0.216155 -0.282424,-0.327357 -0.07461,-0.08987 -0.148093,-0.183123 -0.227239,-0.267644 -0.01258,-0.01906 -0.02498,-0.03839 -0.03778,-0.05729 -0.02866,-0.04227 -0.08631,0.002 -0.06596,0.05055 0.102469,0.243467 0.242218,0.468509 0.38324,0.682544 0.146089,0.221855 0.301808,0.437341 0.466413,0.640209 0.327056,0.403261 0.683507,0.763795 1.069467,1.083407 0.774017,0.640985 1.627047,1.14934 2.535914,1.431732 0.0936,0.02907 0.187824,0.05432 0.281932,0.07965 -0.06408,0.02992 -0.117416,0.08501 -0.169247,0.141858 C 15.24203,29.781918 14.891761,29.701642 14.54482,29.590754 14.185036,29.475835 13.827159,29.351175 13.472402,29.214809 13.118596,29.078736 12.768385,28.929136 12.422421,28.76538 12.075647,28.601242 11.72984,28.434935 11.396373,28.232632 11.207376,28.117908 11.02198,27.994341 10.837912,27.868751 10.65327,27.742609 10.476478,27.600798 10.292868,27.47264 c -0.0217,-0.0151 -0.04145,-0.0018 -0.04852,0.01825 -0.02085,0.01072 -0.03436,0.03862 -0.01394,0.06507 0.130052,0.169114 0.29603,0.303454 0.450749,0.437941 0.159829,0.138896 0.319988,0.276258 0.484758,0.406533 0.329216,0.260209 0.67094,0.50252 1.025431,0.708723 0.71981,0.418379 1.473962,0.732461 2.247922,0.960768 0.02324,0.0069 0.04673,0.01327 0.07009,0.02009 -0.06494,-0.0026 -0.129972,-0.0037 -0.194905,-0.0072 -0.368779,-0.02007 -0.736433,-0.05846 -1.103643,-0.107677 -0.736433,-0.09877 -1.463484,-0.25066 -2.185516,-0.460794 -0.201785,-0.05871 -0.402512,-0.124144 -0.602511,-0.19158 -0.168402,-0.05683 -0.337901,-0.131122 -0.5095671,-0.17559 -0.02288,-0.0095 -0.04566,-0.0196 -0.0686,-0.02844 -0.03397,-0.01294 -0.0619,0.04549 -0.02827,0.06881 0.144341,0.100081 0.3010821,0.176463 0.4544081,0.253875 0.157957,0.07989 0.316852,0.157278 0.476337,0.23238 0.318608,0.150074 0.644445,0.278144 0.970351,0.402221 0.651327,0.248111 1.317937,0.428178 1.986338,0.588433 0.148534,0.03561 0.29746,0.07171 0.446707,0.10402 1.84e-4,6.3e-5 3.72e-4,1.24e-4 6.26e-4,3.26e-4 0.0066,0.003 0.02305,0.01338 0.03541,0.02283 0.01373,0.01019 0.02776,0.01958 0.0413,0.03008 0.0075,0.0058 0.01463,0.01203 0.02177,0.0184 0.0022,0.0019 0.0023,0.0018 0.0029,0.0023 5.9e-4,5.68e-4 1.39e-4,2.84e-4 0.001,0.0011 0.0064,0.0075 0.01184,0.01596 0.01811,0.02333 0.0012,0.0014 0.0011,0.0011 0.0019,0.0019 9.1e-5,5.01e-4 -2.32e-4,1.59e-4 8e-6,9.64e-4 0.0018,0.0056 0.0047,0.01316 0.0074,0.01844 6.38e-4,0.0013 6.55e-4,7.06e-4 10e-4,0.0011 7.3e-5,0.0013 -8e-6,0.0015 3.21e-4,0.0041 9.35e-4,0.0067 0.0019,0.01321 0.003,0.01974 -0.0029,-0.02073 -2.2e-5,-3.61e-4 -1.49e-4,0.0053 -1.2e-4,0.0044 -6.18e-4,0.0095 -9.35e-4,0.01173 -3.85e-4,0.0014 -8.43e-4,0.0029 -0.0012,0.0042 -9.35e-4,6.3e-5 -0.0062,0.01044 -0.0023,0.0067 5.13e-4,-5.37e-4 1.17e-4,-8.1e-5 4.66e-4,-3.18e-4 0,0 -4.7e-5,2.2e-4 -4.7e-5,2.2e-4 -0.0025,0.0029 -0.01065,0.01154 -0.01174,0.01251 -0.0056,0.0056 -0.01227,0.01078 -0.01858,0.016 -0.2775,0.02353 -0.555208,0.04447 -0.833302,0.05891 -0.599542,0.03106 -1.200009,0.0206 -1.800385,-0.0087 -0.164524,-0.008 -0.328984,-0.02096 -0.493352,-0.0334 -0.136184,-0.0104 -0.27439,-0.0262 -0.411179,-0.02736 -0.02902,-0.006 -0.05815,-0.01092 -0.08713,-0.01395 -0.02731,-0.0028 -0.04323,0.03763 -0.02724,0.06172 0.0025,0.01292 0.008,0.02517 0.01942,0.02922 0.01266,0.0044 0.02559,0.0076 0.03832,0.01166 0.08417,0.04883 0.173976,0.08534 0.261097,0.123684 0.106099,0.04665 0.21486,0.08699 0.322975,0.125697 0.219937,0.07865 0.442099,0.148839 0.667515,0.199353 0.456723,0.102274 0.916718,0.06187 1.370456,-0.01446 -0.09094,0.07467 -0.188069,0.139894 -0.289645,0.19191 -0.09327,0.04771 -0.190474,0.09376 -0.290448,0.118601 -0.05375,0.0133 -0.108085,0.02286 -0.162266,0.03306 -0.0064,0.0011 -0.01292,0.0022 -0.01938,0.0032 -0.02884,-0.005 -0.05764,-0.0051 -0.08679,0.0061 -0.01807,0.0069 -0.02065,0.02982 -0.01561,0.04837 -0.0028,0.0088 -0.0034,0.01961 2.85e-4,0.02721 0.01945,0.04066 0.06084,0.06111 0.107774,0.07162 0.01674,0.0081 0.03336,0.01576 0.04925,0.02323 0.06339,0.02953 0.128725,0.05323 0.193633,0.07759 0.133629,0.04988 0.268357,0.09696 0.403673,0.138563 0.132719,0.04075 0.265488,0.08032 0.397781,0.123045 0.06198,0.01998 0.131283,0.05017 0.200786,0.0684 -0.002,0.0023 -0.0037,0.0043 -0.0056,0.0064 -0.03677,0.04098 -0.09702,0.0816 -0.09947,0.149553 -0.0027,0.07507 0.05453,0.111974 0.100641,0.147439 0.05742,0.04428 0.114946,0.08852 0.173783,0.129965 0.221002,0.155259 0.449452,0.293863 0.679691,0.427468 -0.0069,0.04748 0.0084,0.09772 0.05346,0.115345 0.167501,0.06513 0.340067,0.110497 0.507843,0.176199 0.155864,0.06105 0.313618,0.153849 0.475573,0.184833 0.02041,0.0039 0.04083,0.0056 0.0612,0.006 0.06356,0.190327 0.28705,0.211548 0.434424,0.252076 0.193452,0.05311 0.387936,0.108338 0.583591,0.147558 0.04477,0.0089 0.08943,0.01483 0.133853,0.018 0.0053,0.07712 0.05387,0.152796 0.08978,0.213421 0.04285,0.07225 0.09325,0.138393 0.144094,0.202555 0.04565,0.05738 0.09376,0.126399 0.158136,0.153192 0.0755,0.03142 0.148876,-0.0055 0.198894,-0.07245 0.04681,-0.06265 0.0843,-0.136783 0.123169,-0.206439 0.04133,-0.07415 0.08339,-0.147819 0.123967,-0.22256 0.04062,-0.07472 0.07863,-0.151512 0.118194,-0.227079 0.0045,-0.0087 0.0076,-0.01776 0.01155,-0.02659 0.01511,0.03364 0.02904,0.0679 0.03823,0.105989 0.02139,0.08965 0.02631,0.182448 0.01391,0.273508 -0.01359,0.09973 -0.0631,0.190513 -0.09516,0.282954 -0.02934,0.08438 -0.04257,0.172808 -0.03963,0.265059 0.0059,0.187338 0.08685,0.351732 0.230911,0.435266 0.06247,0.03615 0.133304,0.04954 0.201625,0.0438 0.04365,-0.0038 0.08356,-0.01838 0.123193,-0.03483 0.006,0.05164 0.01823,0.100622 0.04471,0.15246 0.03906,0.07633 0.09269,0.141028 0.154133,0.191971 0.142047,0.118141 0.315811,0.141842 0.482802,0.145365 0.08337,0.0018 0.166937,5.67e-4 0.250056,0.01139 0.09052,0.01164 0.180546,0.02867 0.271395,0.01659 0.03541,-0.0048 0.07006,-0.01519 0.104056,-0.02858 0.02779,0.04531 0.07574,0.0782 0.109281,0.117533 0.02932,0.03449 0.05054,0.07339 0.08383,0.103303 0.02881,0.02585 0.06013,0.04694 0.09226,0.06602 0.07522,0.0446 0.158962,0.06833 0.241837,0.07802 0.07511,0.0087 0.142144,0.0026 0.212135,0.04528 0.05224,0.03185 0.106742,0.07496 0.165709,0.07988 0.07309,0.0062 0.137978,-0.03287 0.197206,-0.07938 0.02749,0.05737 0.06544,0.103795 0.117677,0.143549 0.06642,0.0504 0.141864,0.08448 0.220431,0.08281 0.07076,-0.0014 0.141819,-0.03042 0.212719,-0.02139 0.07871,0.01007 0.140938,0.07815 0.200034,0.136319 0.117337,0.115241 0.266734,0.163407 0.388123,0.04625 0.04028,0.06742 0.130988,0.09203 0.192679,0.106405 0.08155,0.01903 0.159185,0.01803 0.240434,0.0035 0.08269,-0.01477 0.134211,0.04443 0.20937,0.07927 0.07796,0.03613 0.161623,0.056 0.243555,0.07328 0.08014,0.01683 0.170698,0.03424 0.25058,0.01405 0.07421,-0.01878 0.129382,-0.07389 0.181671,-0.133932 0.0812,0.133451 0.253045,0.1992 0.375338,0.225633 0.0811,0.01747 0.166671,0.02064 0.248689,0.02097 0.07982,3.19e-4 0.176218,-0.0084 0.22661,0.0818 0.0186,0.03316 0.0698,0.03662 0.09195,0.0095 0.04992,-0.0614 0.09184,-0.130873 0.134099,-0.199986 10e-5,0.01923 4.16e-4,0.03764 -5.9e-4,0.05109 -0.0052,0.07526 -0.02482,0.168788 0.0054,0.240251 0.03498,0.08284 0.110755,0.09325 0.178868,0.101343 0.0805,0.0096 0.159543,0.01592 0.240319,0.01783 0.08141,0.0019 0.159058,0.0048 0.214147,-0.07682 0.012,-0.01765 0.02297,-0.03649 0.03341,-0.0558 0.02295,0.03885 0.05097,0.07235 0.08684,0.09487 0.08595,0.05398 0.186757,0.07814 0.281579,0.09509 0.09194,0.01649 0.187202,0.0052 0.274157,-0.03073 0.005,-0.002 0.0097,-0.0056 0.01466,-0.0081 0.03407,0.09905 0.154232,0.144583 0.23052,0.180167 0.09886,0.04614 0.199899,0.08308 0.303737,0.107999 0.100708,0.02423 0.197616,0.0223 0.28785,-0.03893 0.01853,-0.01261 0.03684,-0.02657 0.05487,-0.04082 0.05264,0.09524 0.183388,0.112159 0.269934,0.121426 0.114355,0.01213 0.231334,-0.0059 0.344895,-0.01822 0.06473,-0.0071 0.126656,-0.02555 0.183701,-0.05685 0.07438,0.106542 0.21388,0.143589 0.32249,0.138984 0.0039,-1.83e-4 0.0075,-0.0013 0.01139,-0.0015 0.0218,0.07022 0.06967,0.135843 0.108933,0.189118 0.05119,0.06936 0.114755,0.12995 0.1814,0.176604 0.144306,0.101211 0.303579,0.13082 0.461046,0.06796 0.146044,-0.05826 0.264327,-0.1881 0.366313,-0.320453 0.003,0.03647 0.0062,0.07294 0.0093,0.109487 0.0022,0.02684 0.0072,0.05673 0.0083,0.08521 -0.01643,0.01904 -0.03981,0.03796 -0.05338,0.05493 -0.02243,0.02816 -0.04385,0.05763 -0.06274,0.08946 -0.03929,0.06597 -0.06917,0.142276 -0.09022,0.219494 -0.0057,0.02076 -0.01108,0.04208 -0.01619,0.06399 -0.134584,0.112425 -0.26991,0.22332 -0.409542,0.327334 -0.429958,0.320221 -0.879459,0.599265 -1.329691,0.877136 -0.444855,0.274584 -0.889131,0.552882 -1.311388,0.874236 -0.209133,0.159041 -0.412844,0.327883 -0.608587,0.509186 -0.139512,0.129316 -0.41285,0.358324 -0.224393,0.594348 0.09481,0.118743 0.25534,0.147127 0.380587,0.19164 0.136649,0.04877 0.274268,0.108711 0.413611,0.143632 0.08477,0.02119 0.165853,0.02213 0.247343,0.01062 -0.0626,0.0653 -0.124141,0.133108 -0.183036,0.202493 -0.140099,0.165209 -0.295098,0.411316 -0.263141,0.663334 0.01577,0.124458 0.0811,0.233414 0.179298,0.282999 0.0888,0.04492 0.188618,0.03914 0.282321,0.03827 0.02134,-2.09e-4 0.04277,-5.54e-4 0.06413,-6.64e-4 -0.0058,0.06518 0.001,0.133585 0.0069,0.197709 0.0085,0.09281 0.02014,0.184769 0.04347,0.274232 0.02437,0.09383 0.04768,0.197567 0.119877,0.256968 0.06525,0.05401 0.154245,0.0644 0.230137,0.07791 0.04448,0.008 0.08928,0.0104 0.133959,0.01474 -0.0076,0.192994 0.181071,0.330989 0.328858,0.328619 0.08537,-0.0014 0.171065,-0.01353 0.255719,-0.02588 0.04357,0.08864 0.149081,0.147711 0.229289,0.156407 0.117714,0.01266 0.231298,-0.05544 0.329763,-0.124902 0.0099,0.0455 0.03535,0.09161 0.05494,0.122586 0.04377,0.06897 0.103783,0.118648 0.16958,0.15217 0.136992,0.06976 0.289911,0.05788 0.431918,0.03165 0.07098,-0.013 0.143833,-0.02917 0.205035,-0.07513 0.04851,-0.03637 0.08778,-0.08811 0.121374,-0.143824 0.01708,0.02145 0.03577,0.04007 0.05454,0.05396 0.0417,0.03058 0.09057,0.05006 0.139233,0.05245 0.02595,0.0013 0.05166,-0.0027 0.07677,-0.0094 0.0059,0.02853 0.01813,0.05546 0.03491,0.07651 0.03841,0.04859 0.106481,0.0757 0.160606,0.06439 0.137305,-0.02886 0.241933,-0.223046 0.314224,-0.34848 0.02111,-0.0365 0.04145,-0.07399 0.06087,-0.11225 0.05073,0.03892 0.12143,0.04973 0.177943,0.06235 0.07298,0.01642 0.14582,0.0307 0.219327,0.04189 0.131375,0.02024 0.281147,0.0644 0.379367,-0.06833 0.02793,-0.03779 0.04738,-0.08309 0.06428,-0.129741 0.005,0.0047 0.01026,0.0095 0.01651,0.01264 0.188031,0.09248 0.385073,-0.03354 0.527644,-0.170563 0.108625,-0.104536 0.196957,-0.22924 0.274343,-0.364897 0.05424,0.02997 0.121318,0.03047 0.17938,0.03358 0.09514,0.0049 0.190292,0.0102 0.285442,0.0123 0.08538,0.0018 0.184015,0.02179 0.252308,-0.05059 0.0194,-0.02061 0.03432,-0.04665 0.0467,-0.07529 0.06992,0.02283 0.150397,0.01182 0.215629,-0.0091 0.119706,-0.03847 0.197946,-0.103556 0.21317,-0.258298 0.02945,-0.301698 0.07256,-0.600862 0.111756,-0.900739 0.07746,-0.590863 0.152881,-1.182402 0.207419,-1.77757 0.01521,-0.165253 0.0377,-0.33811 0.03596,-0.504977 -2.72e-4,-0.02404 -0.0015,-0.04816 -0.0022,-0.07217 0.0024,-1.24e-4 0.0045,4e-4 0.0073,-6.3e-5 0.08369,-0.0134 0.162367,-0.101356 0.230695,-0.156244 0.07639,-0.06125 0.152367,-0.123037 0.228048,-0.185427 0.122068,-0.100554 0.24489,-0.199884 0.367519,-0.299293 0.08169,0.122415 0.215116,0.186148 0.345347,0.204355 0.08653,0.01209 0.174291,0.0061 0.260745,5.57e-4 0.08797,-0.0056 0.180405,-0.0093 0.265615,-0.03579 0.07736,-0.0241 0.148834,-0.05922 0.199108,-0.136068 0.02373,-0.03622 0.04355,-0.0773 0.06185,-0.119466 0.01489,0.02139 0.03222,0.04041 0.05111,0.05423 0.05636,0.0409 0.119675,0.04868 0.183401,0.04718 0.0687,-0.0015 0.137068,-0.0093 0.205305,-0.01655 0.03132,-0.0033 0.06261,-0.006 0.09376,-0.01123 0.01232,-0.0021 0.02467,-0.0039 0.03692,-0.0061 0.01165,0.03 0.02853,0.057 0.05156,0.07926 0.03722,0.03609 0.08782,0.04854 0.134154,0.04746 0.09306,-0.0025 0.184857,-0.03229 0.276384,-0.04933 0.04484,-0.0083 0.08922,-0.01698 0.133673,-0.02675 0.0055,-0.0011 0.0095,-0.0031 0.01449,-0.0046 0.0123,0.02337 0.02604,0.04575 0.04297,0.06541 0.09374,0.109889 0.220581,0.127221 0.343948,0.114616 0.126196,-0.01286 0.247752,-0.05483 0.3677,-0.09945 0.03065,-0.0116 0.06176,-0.02325 0.09252,-0.03593 0.02756,0.08356 0.08466,0.153621 0.157833,0.176679 0.07751,0.02443 0.154051,0.0041 0.230518,-0.01042 0.04537,-0.0085 0.09069,-0.01177 0.134724,-0.02746 -0.01143,0.004 0.01612,-0.0048 0.01639,-0.0049 0.01026,-0.0025 0.02059,-0.0049 0.03086,-0.008 0.0149,-0.0045 0.02636,-0.0092 0.03707,-0.01597 0.0025,0.0086 0.0052,0.01728 0.0088,0.025 0.0532,0.120021 0.188363,0.10615 0.284187,0.112476 0.09181,0.006 0.18281,0.0066 0.274556,0.0065 0.04582,-2.8e-5 0.09967,0.0037 0.144411,-0.0083 0.01331,-0.0036 0.02652,-0.0092 0.03949,-0.01577 0.02569,0.03884 0.06225,0.06842 0.100316,0.08494 0.08441,0.03662 0.183331,0.04704 0.272023,0.05466 0.08997,0.0077 0.180398,0.0058 0.269933,-0.0029 0.02783,-0.0028 0.04996,-0.0077 0.07685,-0.01812 0.0021,-7.99e-4 0.0025,-0.0011 0.0032,-0.0014 0.0042,-0.0015 0.0085,-0.003 0.01287,-0.0045 0.012,-0.0043 0.02455,-0.0079 0.03636,-0.0133 0.01959,-0.0088 0.03241,-0.02168 0.04387,-0.03598 0.07494,0.06673 0.189799,0.02537 0.275428,0.01816 0.04169,-0.0034 0.07989,-0.01005 0.121447,9.14e-4 0.0525,0.01366 0.103495,0.04166 0.153141,0.06627 0.09386,0.04673 0.19002,0.07179 0.290513,0.08225 0.06208,0.0066 0.15236,0.01741 0.220347,-0.01026 0.057,0.01586 0.127532,0.0076 0.170547,0.0063 0.101878,-0.0029 0.200526,-0.01742 0.302923,-0.01068 0.09279,0.0061 0.187692,0.01535 0.280446,0.01288 0.05408,-0.0015 0.107667,-0.0075 0.158287,-0.03073 0.0059,-0.0027 0.0095,-0.0068 0.01424,-0.01024 0.01704,0.01956 0.03646,0.03545 0.06089,0.04061 0.06694,0.01397 0.134883,-0.03697 0.19401,-0.06687 0.02059,-0.01055 0.04041,-0.02184 0.05944,-0.03466 0.02126,0.02759 0.05723,0.03916 0.09107,0.0099 0.01823,-0.01576 0.03669,-0.03167 0.05525,-0.04732 -0.0119,0.06161 0.02899,0.141947 0.0849,0.139382 0.132852,-0.0059 0.263327,-0.04269 0.393426,-0.0704 0.05721,-0.01227 0.131152,-0.01415 0.177146,-0.06105 0.04082,-0.04161 0.05044,-0.102491 0.04928,-0.163852 -0.0016,-0.08511 8.2e-4,-0.170494 0.0025,-0.255705 0.01824,0.0214 0.03626,0.04293 0.05493,0.06363 0.0098,0.01097 0.02277,0.02805 0.03516,0.03786 -0.0056,0.02518 -0.0064,0.05638 -0.0098,0.08119 -0.0045,0.03388 -0.0075,0.0678 -0.0081,0.102176 -0.0013,0.06658 -0.0054,0.150838 0.03416,0.205456 0.04321,0.05997 0.101757,0.05016 0.158918,0.03907 0.0592,-0.01136 0.118726,-0.01921 0.178458,-0.02475 0.05871,-0.0054 0.117627,-0.0081 0.176588,-0.0083 0.05866,-9.3e-5 0.126612,-0.0069 0.183715,0.01168 0.0482,0.01564 0.08759,-0.0098 0.105221,-0.05821 0.06866,0.0295 0.144299,0.03173 0.216591,0.03154 0.05332,-2.4e-4 0.107165,3.13e-4 0.159758,-0.01002 0.03923,-0.0077 0.0833,-0.02367 0.122525,-0.01241 0.04939,0.01426 0.0925,0.04426 0.144922,0.03808 0.01259,-0.0015 0.02358,-0.0057 0.034,-0.01112 0.05884,0.02436 0.128152,0.02826 0.177815,0.02057 0.122976,-0.0191 0.253485,-0.08371 0.357178,-0.161213 0.191537,-0.143284 0.452604,-0.124942 0.672696,-0.144598 0.11105,-0.0098 0.212494,-0.01899 0.315259,-0.07334 0.125858,-0.06649 0.217612,-0.182638 0.320359,-0.287119 0.04321,-0.04401 0.08751,-0.107063 0.138892,-0.135651 0.04699,-0.02619 0.102417,-0.03064 0.153618,-0.03582 0.101207,-0.01029 0.215359,0.0027 0.312708,-0.03161 0.123164,-0.04345 0.210702,-0.161231 0.259763,-0.29826 0.06533,0.02653 0.136162,0.03539 0.203746,0.04686 0.08999,0.01537 0.179269,0.0083 0.269328,0.0022 0.181625,-0.01226 0.35669,-0.03188 0.536115,-0.06479 0.181472,-0.03318 0.332197,-0.137063 0.473997,-0.269625 0.059,-0.05524 0.130148,-0.117678 0.2064,-0.132597 0.03235,-0.0062 0.06418,-0.005 0.09677,-0.0022 0.04347,0.0063 0.08729,0.01045 0.132793,0.0095 0.107973,-0.0025 0.215677,-0.0093 0.322614,-0.02503 0.212675,-0.03131 0.420922,-0.09418 0.616702,-0.195493 0.04972,-0.02597 0.100836,-0.05003 0.150133,-0.07719 0.04981,-0.02766 0.09385,-0.06525 0.147808,-0.08256 0.0968,-0.03133 0.202261,-0.03926 0.302597,-0.0437 0.199094,-0.0089 0.38938,0.0073 0.570541,-0.105497 0.15043,-0.0937 0.297071,-0.259828 0.323694,-0.466454 0.209861,-0.05513 0.431404,-0.07277 0.644417,-0.09325 0.118641,-0.01146 0.237939,-0.01715 0.356714,-0.02739 0.120172,-0.01024 0.251977,-0.03987 0.372295,-0.02729 0.07719,0.0079 0.125624,-0.105021 0.07348,-0.17599 -0.06556,-0.08945 -0.145322,-0.166043 -0.225611,-0.240212 0.0386,-0.0052 0.07679,-0.0081 0.116499,-0.0079 l 0.26903,0.0013 c 0.183558,8.85e-4 0.367109,0.0078 0.550624,0.0079 0.17945,1.12e-4 0.358786,3.06e-4 0.538238,4.19e-4 0.180238,1.43e-4 0.377908,0.02635 0.552869,-0.02456 0.04557,-0.01318 0.06224,-0.10412 0.0066,-0.120568 -0.109913,-0.03224 -0.221845,-0.03023 -0.333887,-0.03002 -0.09919,-0.01794 -0.198232,-0.03879 -0.296646,-0.06212 -0.20935,-0.04943 -0.414984,-0.118851 -0.617753,-0.199235 -0.164158,-0.06497 -0.325616,-0.141548 -0.484203,-0.22496 -0.0031,-0.0027 -0.0063,-0.0048 -0.0094,-0.0078 -0.0028,-0.0024 -0.0053,-0.0052 -0.008,-0.0075 -0.0043,-0.0061 -0.0095,-0.01571 -0.01465,-0.0199 l 0.0064,0.01193 c -0.0032,-0.0069 -0.0073,-0.01349 -0.0111,-0.01985 -0.0012,-0.0031 -0.0025,-0.0061 -0.004,-0.0097 -1.66e-4,0.0013 -0.0022,-9.71e-4 -0.0032,-0.0069 -9.1e-5,-5.02e-4 -2.77e-4,-0.0012 -2.56e-4,-0.0017 -5.43e-4,-0.0011 -9.35e-4,-0.0026 -0.0014,-0.0036 7.6e-4,0.0012 8.37e-4,0.0017 0.0014,0.003 -4.24e-4,-0.0021 -7.54e-4,-0.0043 -0.0012,-0.0065 7.06e-4,-0.0056 5.38e-4,-0.01112 0.0024,-0.01682 0.01733,-0.06134 0.04102,-0.131566 0.07519,-0.181668 0.0091,-0.01322 0.02139,-0.02485 0.03421,-0.03573 0.197658,-0.0046 0.395028,-0.01291 0.591821,-0.03098 0.634097,-0.05787 1.267636,-0.173004 1.880929,-0.364678 0.345727,-0.108168 0.688643,-0.234126 1.011986,-0.413994 0.01844,-0.01024 0.0092,-0.04791 -0.01158,-0.04207 -0.610026,0.17424 -1.211573,0.371816 -1.833484,0.487863 -0.24395,0.04546 -0.489386,0.07712 -0.735484,0.101707 -0.132444,-0.01164 -0.267194,-0.007 -0.396888,-0.04892 -0.01786,-0.0057 -0.03428,-0.01292 -0.05015,-0.02407 -0.0054,-0.004 -0.03476,-0.0203 -0.02916,-0.01325 -0.01301,-0.01614 -0.01559,-0.06862 -0.01679,-0.09073 -0.002,-0.03413 -0.0025,-0.08294 0.02023,-0.10615 0.02402,-0.02422 0.08022,-0.02587 0.110983,-0.03439 0.28498,-0.07903 0.56734,-0.177674 0.846239,-0.281481 0.55792,-0.20769 1.105358,-0.452 1.630214,-0.756049 0.297836,-0.172647 0.582422,-0.36537 0.858612,-0.581893 0.02774,-0.02166 -0.0036,-0.07832 -0.03257,-0.05969 -0.5737,0.368274 -1.159562,0.715519 -1.768896,0.996137 -0.308209,0.141955 -0.62289,0.264677 -0.942217,0.368393 -0.157729,0.0512 -0.317065,0.09597 -0.477544,0.134589 -0.0062,0.0014 -0.01299,0.0027 -0.01943,0.0041 -0.0034,-0.0043 -0.0063,-0.0088 -0.01048,-0.01239 -0.0028,-0.0024 -0.0054,-0.005 -0.0081,-0.0074 -0.0041,-0.0049 -0.0076,-0.01024 -0.01105,-0.01575 -0.0048,-0.0098 -0.009,-0.02001 -0.0125,-0.03074 -0.0025,-0.01124 -0.0043,-0.02242 -0.0054,-0.03411 -1.47e-4,-0.01253 5.19e-4,-0.02495 0.0021,-0.03742 0.0026,-0.01289 0.0051,-0.02544 0.0091,-0.03794 0.0025,-0.0079 0.0052,-0.01613 0.0073,-0.02411 1.44e-4,-6.61e-4 2.47e-4,-0.0013 3.19e-4,-0.0019 0.08278,-0.03774 0.165772,-0.07506 0.248885,-0.112134 0.181655,-0.081 0.363612,-0.161079 0.545016,-0.243227 0.361119,-0.163316 0.718442,-0.345474 1.063301,-0.551813 0.63262,-0.378313 1.236571,-0.854474 1.683446,-1.516876 0.122746,-0.18193 0.23182,-0.37783 0.326602,-0.5826 0.04428,-0.09543 0.08491,-0.193546 0.121691,-0.293493 0.02391,-0.06506 0.0947,-0.197955 0.04404,-0.265248 -0.0098,-0.01361 -0.02535,-0.0184 -0.038,-0.01132 z"
     id="path3-2"
     inkscape:label="eagle" /><path
     style="fill:#fffdf8;stroke-width:0.3"
     d="m 33.013048,32.438524 c 0,0 0.176777,0.839689 1.325825,1.016466 1.149049,0.176776 2.048097,-0.29496 2.048097,-0.29496 0,0 0.157374,-0.817592 0.631892,-1.383194 -0.08613,-0.550446 -0.196457,-0.785785 -0.318167,-0.925397 -0.231234,-0.121094 -0.391867,-0.132673 -0.815026,-0.125765 -0.423159,0.0069 -0.979854,0.65418 -1.478934,1.083408 -0.22477,0.19331 -0.45991,0.370202 -0.75214,0.479235 -0.292229,0.109033 -0.641547,0.150207 -0.641547,0.150207 z"
     id="path1"
     sodipodi:nodetypes="csccczssc" /><path
     style="fill:#aa8800;stroke-width:0.3"
     d="m 36.796875,30.992188 c 0,0 0.08594,0.179687 0.125,0.316406 0.03906,0.136719 0.09375,0.453125 0.09375,0.453125 l 0.140625,0.01953 0.335938,-0.128906 c 0,0 -0.02734,-0.226563 -0.203125,-0.402344 -0.175782,-0.175781 -0.410157,-0.25 -0.320313,-0.207031 0.08984,0.04297 -0.171875,-0.05078 -0.171875,-0.05078 z"
     id="path2" /></g></svg>
