<svg xmlns="http://www.w3.org/2000/svg" xml:space="preserve" fill-rule="evenodd" clip-rule="evenodd" viewBox="0 0 64 64">
  <g id="blue">
    <path fill="#c2f0ff" d="M32.396 9.346c.685 0 .952.461 1.428.937l1.427 1.428 1.428 1.427 1.427 1.428 5.71 5.71 5.71 5.711 1.428 1.427 1.427 1.428 1.428 1.427c.476.476.695.755.695 1.428 0 .695-.251.983-.743 1.475l-2.95 2.951-1.476 1.475L37.533 49.4l-2.95 2.951-1.476 1.475c-.491.492-.779.828-1.475.828-.673 0-.952-.305-1.427-.78l-2.856-2.855-1.427-1.428-5.711-5.71-5.71-5.71-4.283-4.282c-.476-.476-.724-.755-.724-1.428 0-.695.28-.983.772-1.475l20.655-20.655c.492-.492.791-.985 1.475-.985Z"/>
  </g>
  <g id="brown">
    <path fill="#725631" d="M29.791 35.953c-1.393.935-2.601 1.793-3.291 2.44.089.341.384.506.921.464-.075.144-.142.269-.202.375-.061.11-.115.199-.16.268.008.347.146.448.441.251-.187.355-.133.541 0 .672a.8.8 0 0 0 .414.077l-.029.319c.15.154.313.154.495-.107-.016.253.11.323.318.288l.137-.248c-.012.206.065.356.309.402.244.031.406-.06.458-.318.053.293.216.311.398.282.253.055.373-.118.401-.448.062.287.241.298.495.137L31 40.5c.118.229.262.156.412 0 .177-.08.274-.228.228-.5.067.309.26.367.552.228l.216-.228c.041.178.148.118.272 0 .108-.918.194-1.81.187-2.596.07-.033.142-.06.217-.08L32.816 36l-1.071-.376c-.67-.072-1.333-.075-1.954.329Z"/>
    <path fill="#8f7148" d="M32.871 31.5c-.982.311-1.641.921-1.791 2-.029 1.148-.591 1.96-1.58 2.5.554-.039 1.554-.556 2 .241.165-.253.399-.212.66-.048.346-.092.566.047.72.307l.204.824 1.416-1.143c.668-.325 1.152-1.089 1.5-2.181.176-.42.175-.92 0-1.5l-.5-.337-.5.337-.362-1-.872.281.056-.514-.951.233Z"/>
    <path fill="#725631" d="M36.666 31.781 36 32.5l-.167 1.971A26.81 26.81 0 0 1 39 34.295c.898.138 1.727.38 2.5.705 2.394.561 4.731.233 7-1.143 1.118-.026 2.221-.459 3.154-.712-1.145.218-2.083.348-2.654.32 1.384-.335 2.333-.974 3-1.596-.814.353-1.645.781-2.5.99 1.492-.566 2.511-1.46 3-2.722-.851 1.015-1.801 1.769-3 1.863 1.642-.843 1.971-1.819 1.81-2.846-.224 1.103-.847 2.056-2.484 2.627.577-.76.519-1.521.174-2.281.152.76-.048 1.521-.736 2.281-.413.542-.831 1.005-1.264 1.219-2.263.139-4.613.271-7-.402-1.1-.578-2.214-.771-3.334-.817Z"/>
    <path fill="#877563" d="m29.641 35.982-.146.003c-.433.049-.388-.216-.64-.379-.201-.131-.58-.085-.805-.102-.913-.066-1.737-.416-2.631-.599-.533-.11-1.023-.062-1.554-.325-.431-.214-.977-.072-1.354-.471h-.002c-.431.057-1.076-.153-1.34-.445-.129-.144-.081-.524-.274-.51-.362.026-.511-.087-.667-.427l-.008-.002c-.551-.11-1.189-.363-1.685-.624-.275-.145-.702-.767-.92-.849-.244-.092-.586-.117-.797-.277-.104-.079-.075-.283-.192-.341-.371-.187-1.007-.105-1.337-.419-.168-.16-.192-.473.151-.408l.008.001c.923.02 1.879.171 2.795.101l.058-.005.199.091c2.022 1.271 4.015 1.932 6.905 1.988h.005c2.605-.506 4.952-.427 5.664 1.653-.068 1.066-.5 1.828-1.433 2.346Zm6.192-1.687c1.983-.437 3.895-.138 5.722.671l.005.001c1.791.375 4.229.243 6.861-1.07l.105-.053.09.077c.223.116 1.498.336 1.494.631-.004.312-.577.224-.654.226-.778.022-1.17.263-2.017.423-.274.762-1.723.479-2.25.819-.262.168-.213.207-.548.323-.236.081-.541-.098-.747.043-.435.299-1.029.588-1.554.683-.248.045-.722.218-.722.218-1.017.12-2.533.218-3.52-.078l-.043.003c-.718.06-1.381-.169-2.055-.21-.304-.018-.349.272-.68-.055l-.013.002c-.338.063-1.437.199-1.714.057l-.071-.036.847-.97c.567-.275 1.133-.863 1.464-1.705Z"/>
    <path fill="#725631" d="M31.068 33.722c.238-1.01.63-1.645.993-1.844.698-.396 1.293-.558 1.736-.378.501-.419.436-.68-.663-.652L31.495 31c-1.295-.456-3.208-.773-5.495-1.005-1.719-.219-3.41-.718-4.168-.841-1.959-2.023-2.395-2.943-2.832-3.864.085.865.186 1.745 1.5 3.71-1.353-1.426-2.358-2.686-3.104-3.824.264 1.053.75 2.163 2.393 3.569a11.805 11.805 0 0 1-3.897-3.078c.656 1.174 1.47 2.344 3.282 3.487-1.644-.435-3.126-1.175-4.482-2.154.604.833 1.301 1.667 3.808 2.5-1.15-.174-2.625-.666-3.808-1 .942.809 2.419 1.459 3.808 1.5.123.358.733.84 4 2 .907.101 1.84.137 2.811.078a3.191 3.191 0 0 1 1.189-.192c2.068-.075 3.912.6 4.568 1.836Z"/>
  </g>
  <g id="white">
    <path id="path1" fill="#fffdf8" fill-rule="nonzero" d="m33 30.82.851.18-.085.781.872-.281.362 1 .5-.337.5.337.666-.719c0-.143-.051-1.224.434-1.604.123-.475-.061-.724-.325-.899-.237-.118-.401-.129-.835-.123-.433.007-.929.428-1.44.845-.23.188-.544.568-.843.674-.214.07-.434.119-.657.146Z"/>
  </g>
  <g id="black">
    <ellipse cx="36" cy="29.724" rx="0.25" ry="0.271"/>
  </g>
  <g id="orange">
    <path id="path2" fill="#a80" fill-rule="nonzero" d="M37.69 31.781s-.219-.259-.401-.398a7.223 7.223 0 0 0-.623-.383l-.166-.5.603-.505s.323.149.485.604c.161.455.138.999.125.785-.013-.215-.023.397-.023.397Z"/>
    <path fill="#f5b54c" d="m30.638 36.03-.805 1.109-1.135.91.682-.194-.237.523.62-.592-.061.607.375-.595.005-.407.918-1.072c-.003-.265-.113-.378-.362-.289Z"/>
    <path fill="#f5b54c" d="m32.68 36.706-.717 1.103L31.581 39l-.111-.52-.401.434.299-.704-.558.374.41-.557.39-.229.632-1.15c.257-.145.414-.142.438.058Z"/>
  </g>
  <g id="green">
    <path fill="#00580d" fill-rule="nonzero" stroke="#324565" stroke-width="0.2px" d="M32.488 6.15c-.778 0-1.12.63-1.68 1.191l-1.681 1.68-10.085 10.085-6.724 6.723-5.042 5.042c-.56.56-.978.888-.978 1.681 0 .764.378 1.081.919 1.621l4.864 4.865 6.487 6.486 8.108 8.108 1.621 1.622 1.622 1.621c.54.541.857.975 1.621.975.793 0 1.121-.474 1.681-1.034l1.681-1.681 1.681-1.68 18.489-18.489 1.681-1.68c.56-.56.949-.889.949-1.681 0-.764-.349-1.081-.89-1.622l-1.622-1.621-1.621-1.622-14.594-14.594-1.622-1.621-3.243-3.244c-.541-.54-.843-1.131-1.622-1.131Zm-.092 3.196c.685 0 .952.461 1.428.937l1.427 1.428 1.428 1.427 1.427 1.428 5.71 5.71 5.71 5.711 1.428 1.427 1.427 1.428 1.428 1.427c.476.476.695.755.695 1.428 0 .695-.251.983-.743 1.475l-2.95 2.951-1.476 1.475L37.533 49.4l-2.95 2.951-1.476 1.475c-.491.492-.779.828-1.475.828-.673 0-.952-.305-1.427-.78l-2.856-2.855-1.427-1.428-5.711-5.71-5.71-5.71-4.283-4.282c-.476-.476-.724-.755-.724-1.428 0-.695.28-.983.772-1.475l20.655-20.655c.492-.492.791-.985 1.475-.985Z"/>
  </g>
</svg>
