<svg xmlns="http://www.w3.org/2000/svg" xml:space="preserve" fill-rule="evenodd" clip-rule="evenodd" viewBox="0 0 64 64">
  <g id="blue">
    <path fill="#c2f0ff" d="M32.396 9.346c.685 0 .952.461 1.428.937l1.427 1.428 1.428 1.427 1.427 1.428 5.71 5.71 5.71 5.711 1.428 1.427 1.427 1.428 1.428 1.427c.476.476.695.755.695 1.428 0 .695-.251.983-.743 1.475l-2.95 2.951-1.476 1.475L37.533 49.4l-2.95 2.951-1.476 1.475c-.491.492-.779.828-1.475.828-.673 0-.952-.305-1.427-.78l-2.856-2.855-1.427-1.428-5.711-5.71-5.71-5.71-4.283-4.282c-.476-.476-.724-.755-.724-1.428 0-.695.28-.983.772-1.475l20.655-20.655c.492-.492.791-.985 1.475-.985Z"/>
  </g>
  <g id="green">
    <path fill="#00580d" d="M14.33 38h34.603l-11.4 11.4-2.95 2.951-1.476 1.475c-.491.492-.779.828-1.475.828-.673 0-.952-.305-1.427-.78l-2.856-2.855-1.427-1.428-5.711-5.71L14.33 38Z"/>
    <path fill="#00580d" fill-rule="nonzero" stroke="#324565" stroke-width="0.2px" d="M32.488 6.15c-.778 0-1.12.63-1.68 1.191l-1.681 1.68-10.085 10.085-6.724 6.723-5.042 5.042c-.56.56-.978.888-.978 1.681 0 .764.378 1.081.919 1.621l4.864 4.865 6.487 6.486 8.108 8.108 1.621 1.622 1.622 1.621c.54.541.857.975 1.621.975.793 0 1.121-.474 1.681-1.034l1.681-1.681 1.681-1.68 18.489-18.489 1.681-1.68c.56-.56.949-.889.949-1.681 0-.764-.349-1.081-.89-1.622l-1.622-1.621-1.621-1.622-14.594-14.594-1.622-1.621-3.243-3.244c-.541-.54-.843-1.131-1.622-1.131Zm-.092 3.196c.685 0 .952.461 1.428.937l1.427 1.428 1.428 1.427 1.427 1.428 5.71 5.71 5.71 5.711 1.428 1.427 1.427 1.428 1.428 1.427c.476.476.695.755.695 1.428 0 .695-.251.983-.743 1.475l-2.95 2.951-1.476 1.475L37.533 49.4l-2.95 2.951-1.476 1.475c-.491.492-.779.828-1.475.828-.673 0-.952-.305-1.427-.78l-2.856-2.855-1.427-1.428-5.711-5.71-5.71-5.71-4.283-4.282c-.476-.476-.724-.755-.724-1.428 0-.695.28-.983.772-1.475l20.655-20.655c.492-.492.791-.985 1.475-.985Z"/>
    <path fill="#54b60b" d="M45.094 37.064c-1.13-.151-2.23-.48-3.258-.973-1.329-.636.227.031 1.275-1.693.147-.242.31-.519.481-.815-.43-.119-.852-.263-1.264-.432a9.794 9.794 0 0 0 1.509-1.797c.289-.414.611-.909.918-1.396a5.097 5.097 0 0 1-1.031-.516c.538-.694.995-1.45 1.361-2.252.41-.966.983-2.058 1.247-3.088.235 1.033.787 2.127 1.193 3.088.371.81.845 1.567 1.41 2.252-.37.241-.77.433-1.19.571.284.468.585.941.864 1.337.441.68.982 1.287 1.605 1.797-.464.192-.939.351-1.423.476l.402.775 1.484 1.693a10.82 10.82 0 0 1-4.189 1.053c-.311-.013-1.085-.04-1.394-.08Z"/>
    <path fill="#54b60b" d="M18.866 37.601a13.735 13.735 0 0 1-4.078-1.193c-1.663-.781.285.038 1.596-2.079.184-.296.388-.635.602-.999a14.192 14.192 0 0 1-1.582-.531 11.978 11.978 0 0 0 1.889-2.205c.361-.508.764-1.116 1.149-1.713a6.463 6.463 0 0 1-1.29-.634 13.961 13.961 0 0 0 1.702-2.763c.514-1.186 1.232-2.526 1.562-3.791.293 1.269.984 2.611 1.493 3.791a12.578 12.578 0 0 0 1.764 2.763 6.354 6.354 0 0 1-1.489.701c.356.574.732 1.155 1.082 1.642a9.685 9.685 0 0 0 2.008 2.205c-.58.235-1.175.43-1.781.584l.503.95 1.857 2.079a13.724 13.724 0 0 1-5.242 1.293c-.39-.017-1.358-.05-1.745-.1Z"/>
    <path fill="#54b60b" d="M39.219 40.908a13.736 13.736 0 0 1-4.078-1.194c-1.663-.781.285.039 1.596-2.078.184-.296.388-.636.602-1a13.985 13.985 0 0 1-1.582-.53 11.984 11.984 0 0 0 1.889-2.206c.361-.507.764-1.115 1.149-1.712a6.463 6.463 0 0 1-1.29-.634 13.969 13.969 0 0 0 1.702-2.764c.514-1.185 1.232-2.525 1.562-3.79.293 1.268.984 2.611 1.493 3.79a12.488 12.488 0 0 0 1.764 2.764 6.413 6.413 0 0 1-1.489.701c.356.574.732 1.154 1.082 1.641a9.646 9.646 0 0 0 2.008 2.206c-.58.235-1.175.43-1.781.584l.503.95 1.857 2.078a13.67 13.67 0 0 1-5.242 1.293c-.39-.016-1.358-.049-1.745-.099Z"/>
  </g>
  <g id="brown">
    <path fill="#29241e" d="M23.712 31.704c-.09-.406-.412-.411-.617-.38-.144.226-.11.542 0 .896l.617-.516Z"/>
    <path fill="#29241e" d="M24.941 34.851c.072.928.221 1.602.461 1.965l.6.864c-.026 1.147-.169 2.02-.138 2.352h1.385c.544-.191.198.016.461-.488l-.295-1.078-1.089-3.574-1.385-.041Z"/>
    <path fill="#29241e" d="m33.478 38.706.693-1.725c.409.274.659.758.786 1.408.108.728.018 1.291-.324 1.643h-1.385l.462-.516c-.168-.236-.233-.511-.232-.81Z"/>
    <path fill="#49362f" d="m23.095 34.798 3.231.094c.153.622.307 1.137.461 1.572l-.785 1.216a2.353 2.353 0 0 0-.6.709c-.083.339-.085.617 0 .83.132.402.362.549.663.513.336-.123.555-.375.722-.686l.923-.853c.558-.42.873-.93.923-1.538.682.493 1.457.645 2.308.513-.057.502.031.907.256 1.221a4.263 4.263 0 0 0-.021.83l-.235.513c-.225.03-.449.129-.673.347.202.384.65.385 1.134.329l1.063-.163.322-.513c.202-.311.432-.652.691-1.026.682-.953.91-1.998.972-3.077-.126-1.574-.692-2.692-1.663-3.39-.616-.572-1.231-.767-1.846-.713a3.614 3.614 0 0 0-1.983-.155 1.776 1.776 0 0 1-.887-.358c-.165-.323-.432-.503-.822-.513-.466.086-.895.292-1.247.753l-1.523.399c-.307-.11-.615-.1-.923.165l-.617.54c-.321.203-.489.441-.528.707v.302c.347.477.563.955.684 1.432Z"/>
    <path fill="#c68564" d="M22.403 33.321a4.73 4.73 0 0 0-.79.671c.065.411.273.675.559.859.308.053.615.017.923-.053-.081-.571-.297-1.071-.692-1.477Z"/>
    <path fill="#c68564" d="M24.282 32.177c.18-.155.346-.189.488-.037.065.156.059.337-.065.562a.692.692 0 0 0-.423-.525Z"/>
    <path fill="#29241e" d="m24.77 32.14.255.461c-.101.05-.104.129-.32.101a.596.596 0 0 0 .065-.562Z"/>
    <ellipse cx="23.115" cy="33.025" fill="#29241e" rx="0.115" ry="0.147"/>
    <path fill="#a1886c" d="m41.932 40.932.029 2.526a2.399 2.399 0 0 1-1.087.349c-.387-.026-1.339-.147-1.655-.349l-.03-2.542c.387.04 1.355.066 1.745.079.333-.011.666-.032.998-.063Z"/>
    <path fill="#a1886c" d="m47.191 37.013.024 2.059a1.895 1.895 0 0 1-.869.284c-.309-.021-1.07-.12-1.322-.284L45 37c.309.033 1.083.054 1.394.065.266-.009.532-.026.797-.052Z"/>
    <path fill="#a1886c" d="m21.579 37.625.029 2.526a2.399 2.399 0 0 1-1.087.349c-.387-.025-1.339-.147-1.655-.349l-.03-2.542c.387.04 1.355.066 1.745.079.333-.011.666-.032.998-.063Z"/>
    <path fill="#725631" d="m34.021 19.75-.266.287-.067.788c.421-.048.844-.071 1.267-.07.359.055.69.152.999.282.958.224 1.892.093 2.8-.457.447-.011.888-.184 1.261-.285-.458.087-.833.139-1.062.128a2.622 2.622 0 0 0 1.2-.638c-.325.141-.658.312-1 .396.597-.227 1.004-.584 1.2-1.089-.34.406-.72.708-1.2.745.657-.337.789-.727.724-1.138-.089.441-.339.822-.993 1.051.231-.304.207-.609.069-.912.061.303-.019.608-.294.912-.165.216-.332.402-.505.487-.905.056-1.845.108-2.799-.161-.44-.231-.886-.308-1.334-.326Z"/>
    <path fill="#725631" d="M31.272 21.418c-.557.374-1.04.717-1.316.976.036.136.154.202.369.185a4.333 4.333 0 0 1-.145.257c.003.139.058.179.176.101-.075.142-.053.216 0 .268a.307.307 0 0 0 .166.031l-.012.128c.06.061.125.061.198-.043-.006.101.044.129.127.115l.055-.099c-.005.082.026.142.124.161.097.012.162-.024.183-.127.021.117.086.124.159.112.101.022.149-.047.16-.179.025.115.097.119.198.055l.042-.123c.047.092.104.063.164 0 .071-.032.11-.091.092-.2.026.124.104.147.22.091l.087-.091c.016.071.059.047.108 0 .044-.367.078-.724.075-1.038a.533.533 0 0 1 .087-.032l-.107-.529-.428-.151c-.268-.028-.533-.03-.782.132Z"/>
    <path fill="#877563" d="m31.212 21.43-.058.001c-.173.019-.155-.087-.256-.152-.08-.052-.232-.034-.322-.041-.365-.026-.695-.166-1.052-.239-.213-.044-.409-.025-.621-.13-.173-.086-.391-.029-.542-.188h-.001c-.172.022-.43-.062-.535-.178-.052-.058-.033-.21-.11-.204-.145.01-.204-.035-.267-.171l-.003-.001a2.745 2.745 0 0 1-.674-.249c-.11-.058-.28-.307-.368-.34-.097-.037-.234-.047-.318-.111-.042-.031-.03-.113-.077-.136-.148-.075-.403-.042-.535-.168-.067-.064-.077-.189.061-.163l.003.001c.369.008.751.068 1.118.04l.023-.002.079.036c.809.509 1.606.773 2.761.795h.002c1.042-.202 1.981-.17 2.265.661-.027.427-.2.731-.573.939Zm2.476-.675c.793-.175 1.558-.055 2.288.268l.002.001c.717.15 1.691.097 2.744-.428l.042-.021.036.03c.089.047.599.135.597.253-.001.124-.23.089-.261.09-.311.009-.468.105-.807.169-.109.305-.689.192-.899.328-.105.067-.086.082-.22.129-.094.032-.216-.039-.298.017-.174.12-.412.235-.622.273a2.389 2.389 0 0 0-.288.087c-.407.048-1.013.088-1.408-.031l-.017.001c-.287.024-.552-.067-.822-.084-.121-.007-.139.109-.272-.022l-.005.001c-.135.025-.575.08-.685.023l-.029-.014.339-.388c.227-.11.453-.345.585-.682Z"/>
    <path fill="#725631" d="M31.783 20.526c.095-.404.252-.658.397-.738.279-.158.517-.223.694-.151.2-.167.175-.272-.265-.26l-.655.06c-.518-.182-1.283-.309-2.198-.402-.687-.087-1.363-.287-1.666-.336-.784-.809-.958-1.177-1.133-1.545.034.346.075.698.6 1.484-.541-.571-.943-1.074-1.241-1.53.105.422.3.865.957 1.428a4.742 4.742 0 0 1-1.559-1.231c.263.469.588.937 1.313 1.394a5.421 5.421 0 0 1-1.792-.861c.241.333.52.666 1.522 1-.46-.07-1.049-.267-1.522-.4.376.323.967.583 1.522.599.049.144.293.336 1.6.8.362.041.736.055 1.124.031.13-.048.281-.079.475-.076.827-.03 1.565.24 1.827.734Z"/>
    <path fill="#8f7148" d="M32.504 19.637c-.393.125-.656.369-.716.8-.012.459-.237.784-.632 1 .221-.016.621-.223.8.096.066-.101.159-.085.264-.019.138-.037.226.019.287.123l.082.329.566-.457c.267-.13.461-.435.6-.872.07-.168.07-.368 0-.6l-.2-.135-.2.135-.145-.4-.348.113.022-.206-.38.093Z"/>
  </g>
  <g id="white">
    <path id="path1" fill="#fffdf8" fill-rule="nonzero" d="m32.555 19.365.341.072-.034.313.348-.113.145.4.2-.135.2.135.266-.287c0-.058-.02-.49.174-.642.049-.19-.024-.289-.13-.359-.095-.047-.16-.052-.334-.049-.173.002-.371.171-.576.337-.092.076-.217.228-.337.27-.119.042-.263.058-.263.058Z"/>
  </g>
  <g id="black">
    <ellipse cx="33.755" cy="18.927" rx="0.1" ry="0.108"/>
  </g>
  <g id="orange">
    <path id="path2" fill="#a80" fill-rule="nonzero" d="M34.431 19.75s-.088-.104-.16-.16c-.073-.055-.25-.153-.25-.153l-.066-.2.241-.202s.129.06.194.242c.064.182.055.399.05.314-.005-.086-.009.159-.009.159Z"/>
    <path fill="#f5b54c" d="m31.611 21.449-.322.443-.454.364.273-.078-.095.21.248-.237-.024.243.15-.238.002-.163.367-.429c-.001-.106-.045-.151-.145-.115Z"/>
    <path fill="#f5b54c" d="m32.427 21.719-.286.441-.153.476-.044-.208-.161.174.12-.282-.223.15.164-.223.156-.091.252-.46c.103-.058.166-.057.175.023Z"/>
  </g>
</svg>
