<svg xmlns="http://www.w3.org/2000/svg" xml:space="preserve" fill-rule="evenodd" clip-rule="evenodd" viewBox="0 0 64 64">
  <g id="blue">
    <path fill="#73d2fd" d="M32.396 9.346c.685 0 .952.461 1.428.937l1.427 1.428 1.428 1.427 1.427 1.428 5.71 5.71 5.71 5.711 1.428 1.427 1.427 1.428 1.428 1.427c.476.476.695.755.695 1.428 0 .695-.251.983-.743 1.475l-2.95 2.951-1.476 1.475L37.533 49.4l-2.95 2.951-1.476 1.475c-.491.492-.779.828-1.475.828-.673 0-.952-.305-1.427-.78l-2.856-2.855-1.427-1.428-5.711-5.71-5.71-5.71-4.283-4.282c-.476-.476-.724-.755-.724-1.428 0-.695.28-.983.772-1.475l20.655-20.655c.492-.492.791-.985 1.475-.985Z"/>
  </g>
  <g id="white">
    <path fill="#ebebeb" d="M26.842 19.259c.259-1.307 1.227-1.286 2.922.095.45 2.469.544 4.939.431 7.409.021 1.008.171 1.979 1.069 2.737 2.521.158 4.566 1.03 6.212 2.5 2.175 1.28 4.239 1.77 6.288 2.171 2.7-.445 2.394.147-.342 1.576a36.108 36.108 0 0 0-2.506-.024c-1.026.51-1.689 1.705-2.152 3.277-.644.595-1.418 1.092-2.312 1.5-1.048.384-1.996.467-2.795.102-.691-.201-1.313-.401-1.755-.602-.738-.178-1.337-.375-1.638-.615-.935-.9-1.401-1.672-1.648-2.385-2.687-1.386-2.953-2.926-2.697-4.5-.098-.894.005-1.731.345-2.5.468-.926.969-2.015 1.5-3.253.113-1.836.095-3.656-.293-5.43l-.629-2.058Z"/>
  </g>
  <g id="orange" fill="#fca303">
    <path d="M35.32 39.829c.17-.489.449-.58.823-.327.139 1.183.457 2.173.929 2.998.309.468.253.804-.36.939-.522.932-1.222 1.473-2.128 1.561-.26-.734-1.075-1.124-1.873-1.32l.773-.367 2.26-.253c.195-1.322-.055-2.32-.424-3.231Z"/>
    <path d="M30.764 39.545c.184.226.504.317.922.308-.266 1.444-.149 2.637.327 3.466-.206.666-.505.919-.865.894-.82-.169-1.925.002-2.822.14.096-.466-.39-.562-1.062-.541.798-.55 1.871-.774 3.104-.812.215-.057.36-1.044.396-3.455Z"/>
    <path d="M26.764 19.354c.272.101.59.109.924.084l.165 1.269-.113.61a4.93 4.93 0 0 0-1.898.183c-.442.095-.582-.012-.409-.327.405-.503.988-1.067 1.331-1.819Z"/>
  </g>
  <g id="black">
    <ellipse cx="28.476" cy="19.396" rx="0.355" ry="0.357"/>
  </g>
  <g id="yellow">
    <path fill="#f5f5d1" fill-rule="nonzero" stroke="#324565" stroke-width="0.2px" d="M32.488 6.15c-.778 0-1.12.63-1.68 1.191l-1.681 1.68-10.085 10.085-6.724 6.723-5.042 5.042c-.56.56-.978.888-.978 1.681 0 .764.378 1.081.919 1.621l4.864 4.865 6.487 6.486 8.108 8.108 1.621 1.622 1.622 1.621c.54.541.857.975 1.621.975.793 0 1.121-.474 1.681-1.034l1.681-1.681 1.681-1.68 18.489-18.489 1.681-1.68c.56-.56.949-.889.949-1.681 0-.764-.349-1.081-.89-1.622l-1.622-1.621-1.621-1.622-14.594-14.594-1.622-1.621-3.243-3.244c-.541-.54-.843-1.131-1.622-1.131Zm-.092 3.196c.685 0 .952.461 1.428.937l1.427 1.428 1.428 1.427 1.427 1.428 5.71 5.71 5.71 5.711 1.428 1.427 1.427 1.428 1.428 1.427c.476.476.695.755.695 1.428 0 .695-.251.983-.743 1.475l-2.95 2.951-1.476 1.475L37.533 49.4l-2.95 2.951-1.476 1.475c-.491.492-.779.828-1.475.828-.673 0-.952-.305-1.427-.78l-2.856-2.855-1.427-1.428-5.711-5.71-5.71-5.71-4.283-4.282c-.476-.476-.724-.755-.724-1.428 0-.695.28-.983.772-1.475l20.655-20.655c.492-.492.791-.985 1.475-.985Z"/>
  </g>
</svg>
