<?xml version="1.0" encoding="UTF-8" standalone="no"?>
<!-- Generator: Adobe Illustrator 27.5.0, SVG Export Plug-In . SVG Version: 6.00 Build 0)  -->

<svg
   version="1.1"
   x="0px"
   y="0px"
   viewBox="0 0 64 64"
   xml:space="preserve"
   id="svg35"
   sodipodi:docname="Horse Spawner.svg"
   width="64"
   height="64"
   inkscape:version="1.3.2 (091e20e, 2023-11-25, custom)"
   xmlns:inkscape="http://www.inkscape.org/namespaces/inkscape"
   xmlns:sodipodi="http://sodipodi.sourceforge.net/DTD/sodipodi-0.dtd"
   xmlns="http://www.w3.org/2000/svg"
   xmlns:svg="http://www.w3.org/2000/svg"
   xmlns:rdf="http://www.w3.org/1999/02/22-rdf-syntax-ns#"
   xmlns:cc="http://creativecommons.org/ns#"
   xmlns:dc="http://purl.org/dc/elements/1.1/"><title
   id="title1">Horse Spawner</title><defs
   id="defs35">
	

	
	

		
		
		
		
		
		
		
		
		
		
		
		
		
		
		
		
		
		
		
		
	</defs><sodipodi:namedview
   id="namedview35"
   pagecolor="#ffffff"
   bordercolor="#000000"
   borderopacity="0.25"
   inkscape:showpageshadow="2"
   inkscape:pageopacity="0.0"
   inkscape:pagecheckerboard="0"
   inkscape:deskcolor="#d1d1d1"
   inkscape:zoom="16"
   inkscape:cx="27.59375"
   inkscape:cy="39.65625"
   inkscape:window-width="2659"
   inkscape:window-height="1638"
   inkscape:window-x="113"
   inkscape:window-y="203"
   inkscape:window-maximized="0"
   inkscape:current-layer="svg35" />

<g
   inkscape:groupmode="layer"
   id="layer1"
   inkscape:label="signage layer"
   style="display:inline"
   transform="translate(-0.19517359,-0.04920669)"><g
     id="g56"><path
       d="M 32.681641,4.2929687 C 31.843301,4.2929535 31.475607,4.8974397 30.873047,5.5 l -1.806641,1.8066406 -1.808594,1.8085938 -1.808593,1.8066406 -7.230469,7.230469 -7.230469,7.230468 -1.8066404,1.808594 -1.8085937,1.806641 -1.8066407,1.808594 c -0.6025603,0.60256 -0.9472814,0.956444 -0.9472656,1.808593 1.52e-5,0.824531 0.3056193,1.165038 0.8886719,1.748047 l 1.7480469,1.75 1.75,1.748047 1.7480466,1.75 6.998047,6.996094 6.996094,6.996094 1.75,1.748046 1.748047,1.75 1.75,1.748047 c 0.583052,0.58301 0.923516,0.957047 1.748047,0.957032 0.852089,-1.5e-5 1.206076,-0.413108 1.808593,-1.015625 l 1.806641,-1.806641 1.808594,-1.808594 1.80664,-1.80664 7.230469,-7.230469 7.230469,-7.230469 1.80664,-1.806641 1.808594,-1.808593 1.806641,-1.806641 c 0.602518,-0.602517 0.91014,-0.956505 0.910156,-1.808594 1.5e-5,-0.82453 -0.268553,-1.164993 -0.851562,-1.748047 l -1.748047,-1.75 -1.75,-1.75 -1.748047,-1.748046 -6.996094,-6.996094 -6.996094,-6.998047 -1.75,-1.7480469 -1.748047,-1.75 -1.75,-1.7480469 C 33.846678,4.8583535 33.519981,4.292984 32.681641,4.2929687 Z"
       style="fill:#fffdf8;fill-opacity:1;stroke:none;stroke-width:0.249751"
       id="path56" /><path
       d="M 32.793612,0.37647838 C 31.839909,0.37646359 31.420646,1.1487382 30.734164,1.8351778 l -2.059447,2.0593188 -2.059446,2.059319 -2.059447,2.0593189 -8.237788,8.2372765 -8.2377883,8.237274 -2.059447,2.05932 -2.059447,2.059318 c 0,0 -1.3729647,1.372879 -2.0594469,2.059319 -0.6864824,0.68644 -1.19767362,1.088517 -1.19768862,2.059319 -1.458e-5,0.936605 0.46279982,1.324559 1.12507902,1.986838 0.6622792,0.662279 1.9868375,1.986838 1.9868375,1.986838 l 1.9868374,1.986837 1.9868375,1.986838 7.9473504,7.947349 7.947349,7.94735 1.986837,1.986838 1.986838,1.986837 c 0,0 1.324558,1.324559 1.986837,1.986838 0.66228,0.662279 1.050234,1.194397 1.986838,1.194411 0.970803,1.5e-5 1.372965,-0.580453 2.059447,-1.266893 0.686482,-0.686439 2.059446,-2.059318 2.059446,-2.059318 l 2.059448,-2.059319 2.059447,-2.05932 8.237788,-8.237275 8.237788,-8.237275 2.059447,-2.05932 2.059446,-2.059319 c 0,0 1.372965,-1.372879 2.059447,-2.059318 0.686482,-0.68644 1.16255,-1.088517 1.162566,-2.059319 1.5e-5,-0.936605 -0.427677,-1.324559 -1.089956,-1.986838 -0.662279,-0.662279 -1.986838,-1.986837 -1.986838,-1.986837 L 58.622499,25.604746 56.635661,23.617908 48.688311,15.670559 40.740961,7.7232088 38.754123,5.7363714 36.767286,3.7495339 34.780449,1.7626963 C 34.11817,1.1004171 33.747315,0.37649317 32.793612,0.37647838 Z M 32.680919,4.2920145 c 0.838341,1.53e-5 1.166022,0.565487 1.749032,1.1485403 l 1.749032,1.7491597 1.749031,1.7491603 1.749032,1.7491592 6.996126,6.996638 6.996127,6.99664 1.749032,1.749159 1.749031,1.74916 c 0,0 1.166021,1.166106 1.749032,1.749159 0.58301,0.583054 0.852165,0.924629 0.85215,1.74916 -1.6e-5,0.852089 -0.308154,1.205036 -0.910673,1.807554 -0.602518,0.602518 -1.807555,1.807555 -1.807555,1.807555 l -1.807554,1.807554 -1.807555,1.807556 -7.230219,7.230218 -7.230218,7.230219 -1.807554,1.807555 -1.807555,1.807555 c 0,0 -1.205036,1.205036 -1.807555,1.807554 -0.602518,0.602518 -0.955465,1.015114 -1.807555,1.015129 -0.824531,1.5e-5 -1.166106,-0.373595 -1.749159,-0.956605 -0.583053,-0.583011 -1.74916,-1.749032 -1.74916,-1.749032 l -1.74916,-1.749032 -1.74916,-1.749031 -6.996638,-6.996127 -6.99664,-6.996127 -1.7491588,-1.749031 -1.7491601,-1.749032 c 0,0 -1.1661064,-1.166022 -1.7491596,-1.749032 -0.5830532,-0.58301 -0.887386,-0.9245 -0.8874012,-1.749031 -1.58e-5,-0.85215 0.3433633,-1.205122 0.9459243,-1.807683 0.6025609,-0.602561 1.8076828,-1.807682 1.8076828,-1.807682 l 1.8076824,-1.807684 1.8076832,-1.807682 7.230731,-7.23073 7.230731,-7.230732 1.807683,-1.8076825 1.807682,-1.8076832 1.807683,-1.8076826 c 0.602561,-0.6025609 0.969342,-1.2070785 1.807682,-1.2070632 z"
       style="fill:#f6c840;fill-opacity:1;stroke:#1d3244;stroke-width:0.249751;stroke-opacity:1"
       id="path55"
       sodipodi:nodetypes="zzcccccccssscccccccssscccccccsssccccccczzzzcccccccssscccccccssscccccccsssccccccczz"
       inkscape:label="holder" /></g></g>
<metadata
   id="metadata35"><rdf:RDF><cc:Work
       rdf:about=""><cc:license
         rdf:resource="http://artlibre.org/licence/lal" /><dc:creator><cc:Agent><dc:title>Tigon Trollhammer</dc:title></cc:Agent></dc:creator><dc:title>Horse Spawner</dc:title></cc:Work><cc:License
       rdf:about="http://artlibre.org/licence/lal"><cc:permits
         rdf:resource="http://creativecommons.org/ns#Reproduction" /><cc:permits
         rdf:resource="http://creativecommons.org/ns#Distribution" /><cc:permits
         rdf:resource="http://creativecommons.org/ns#DerivativeWorks" /><cc:requires
         rdf:resource="http://creativecommons.org/ns#ShareAlike" /><cc:requires
         rdf:resource="http://creativecommons.org/ns#Notice" /><cc:requires
         rdf:resource="http://creativecommons.org/ns#Attribution" /></cc:License></rdf:RDF></metadata><g
   style="fill:#000000"
   id="g3"
   transform="matrix(0.1437455,0,0,0.1437455,16.062538,17.781191)"
   inkscape:label="Horse"><g
     id="g1"
     style="fill:#725631;fill-opacity:1;stroke:#1d3244;stroke-width:2.7827;stroke-opacity:1"
     transform="matrix(0.99900661,0,0,1.113008,3.1437793,-8.6753999)">
	<path
   d="m 15.404,22.017 c 0,0 -0.455,-11.041 -0.686,-11.96 -0.23,-0.922 5.515,8.969 5.515,8.969 l 1.383,-8.969 9.434,12.648 c 16.792,3.91 51.063,31.741 51.063,31.741 12.649,14.029 41.629,8.97 41.629,8.97 24.151,-9.437 50.371,-0.23 50.371,-0.23 35.424,8.963 26.676,45.997 26.676,45.997 -4.368,8.051 -2.299,27.834 -2.299,27.834 -15.41,-12.424 -8.051,-44.162 -8.051,-44.162 -1.383,-15.871 -8.057,-19.089 -8.057,-19.089 0,0 -0.916,0 0,1.149 9.25,11.567 -1.838,31.508 -1.838,31.508 -5.06,18.855 4.599,26.22 4.599,26.22 9.895,10.58 6.903,29.896 6.903,29.896 2.3,5.06 1.845,13.796 1.845,13.796 -2.075,2.299 -1.614,6.213 -1.614,6.213 3.677,8.505 -1.844,9.202 -1.844,9.202 h -9.203 c -5.06,-1.613 3.677,-8.741 3.677,-8.741 1.613,-2.069 0.691,-4.83 0.691,-4.83 -1.147,-4.598 -2.761,-26.22 -2.761,-26.22 -4.368,-4.144 -11.266,-18.637 -11.266,-18.637 -2.991,-0.455 -1.141,2.767 -1.141,2.767 3.445,7.82 -2.081,26.911 -2.081,26.911 0.23,14.257 -4.368,14.948 -4.368,14.948 -3.445,2.53 -2.068,5.291 -2.068,5.291 2.76,4.143 -0.916,5.751 -0.916,5.751 h -11.042 c -4.368,0 0.231,-4.368 0.231,-4.368 3.676,-1.619 7.364,-7.141 10.119,-13.796 2.76,-6.679 -0.686,-31.972 -0.686,-31.972 -5.291,-10.119 -11.497,-29.896 -11.497,-29.896 -3.452,-4.144 -12.194,-0.23 -12.194,-0.23 -13.34,11.496 -49.449,6.904 -49.449,6.904 -10.581,2.068 -2.299,39.791 -2.299,39.791 3.452,10.119 2.068,19.541 2.068,19.541 -1.838,0.691 -1.377,4.144 -1.377,4.144 2.991,4.604 1.377,7.134 1.377,7.134 H 74.985 c -5.06,-0.23 1.377,-6.206 1.377,-6.206 2.991,-1.613 4.368,-10.125 4.368,-10.125 0,-9.428 -3.907,-18.631 -3.907,-18.631 -2.76,-2.761 -2.069,8.506 -2.069,8.506 0.686,10.811 -1.383,17.253 -1.383,17.253 -3.221,2.3 -2.53,6.438 -2.53,6.438 1.383,6.206 -4.829,5.06 -4.829,5.06 -7.583,0 -8.281,-0.917 -8.281,-0.917 -0.917,-2.76 6.212,-6.673 6.212,-6.673 7.128,-3.677 4.368,-27.609 4.368,-27.609 C 65.551,140.69 62.79,116.083 62.79,116.083 50.135,106.874 52.67,87.096 52.67,87.096 41.854,80.426 32.893,50.065 32.893,50.065 30.127,46.616 26.681,49.604 26.681,49.604 23.459,56.504 13.34,56.274 13.34,56.274 8.743,64.093 2.3,60.183 2.3,60.183 -4.834,53.974 6.904,39.025 6.904,39.025 c 2.063,-2.518 8.5,-17.008 8.5,-17.008 z"
   id="path1-3"
   style="fill:#725631;fill-opacity:1;stroke:#1d3244;stroke-width:2.7827;stroke-opacity:1" />
</g></g></svg>
