<svg xmlns="http://www.w3.org/2000/svg" xml:space="preserve" fill-rule="evenodd" clip-rule="evenodd" viewBox="0 0 64 64">
  <g id="blue">
    <path fill="#80afcb" d="M32.396 9.346c.685 0 .952.461 1.428.937l1.427 1.428 1.428 1.427 1.427 1.428 5.71 5.71 5.71 5.711 1.428 1.427 1.427 1.428 1.428 1.427c.476.476.695.755.695 1.428 0 .695-.251.983-.743 1.475l-2.95 2.951-1.476 1.475L37.533 49.4l-2.95 2.951-1.476 1.475c-.491.492-.779.828-1.475.828-.673 0-.952-.305-1.427-.78l-2.856-2.855-1.427-1.428-5.711-5.71-5.71-5.71-4.283-4.282c-.476-.476-.724-.755-.724-1.428 0-.695.28-.983.772-1.475l20.655-20.655c.492-.492.791-.985 1.475-.985Z"/>
  </g>
  <g id="brown">
    <path fill="#725631" fill-rule="nonzero" d="M22.731 21.924s-.05-1.371-.076-1.486c-.026-.114.615 1.114.615 1.114l.154-1.114 1.051 1.571c1.872.486 5.691 3.941 5.691 3.941 1.41 1.742 4.64 1.114 4.64 1.114 2.692-1.172 5.614-.028 5.614-.028 3.948 1.113 2.973 5.711 2.973 5.711-.486 1-.256 3.457-.256 3.457-1.717-1.543-.897-5.484-.897-5.484-.154-1.971-.898-2.371-.898-2.371s-.102 0 0 .143c1.031 1.436-.205 3.913-.205 3.913-.564 2.341.513 3.255.513 3.255 1.102 1.314.836 3.353.836 3.353.257.628.206 1.713.206 1.713-.231.286-.18.772-.18.772.41 1.056-.206 1.142-.206 1.142h-1.025c-.564-.2.409-1.085.409-1.085.18-.257.077-.6.077-.6-.127-.571-.374-2.896-.374-2.896-.487-.515-1.256-2.314-1.256-2.314-.333-.057-.127.343-.127.343.384.971-.165 2.982-.165 2.982.026 1.771-.487 1.856-.487 1.856-.384.315-.23.657-.23.657.307.515-.102.715-.102.715h-1.231c-.487 0 .026-.543.026-.543.409-.201.82-.887 1.127-1.713.308-.829-.143-3.61-.143-3.61-.59-1.257-1.282-3.713-1.282-3.713-.384-.514-1.359-.028-1.359-.028-1.486 1.427-5.511.857-5.511.857-1.179.257-.256 4.941-.256 4.941.384 1.257.23 2.427.23 2.427-.205.085-.153.514-.153.514.333.572.153.886.153.886h-1.255c-.564-.029.153-.771.153-.771.334-.2.487-1.257.487-1.257 0-1.171-.435-2.313-.435-2.313-.308-.343-.231 1.056-.231 1.056.077 1.342-.154 2.142-.154 2.142-.359.286-.282.8-.282.8.154.77-.538.628-.538.628-.845 0-.923-.114-.923-.114-.102-.343.692-.828.692-.828.795-.457.487-3.429.487-3.429-.308-1.57-.615-4.626-.615-4.626-1.411-1.143-1.128-3.599-1.128-3.599-1.206-.829-2.204-4.599-2.204-4.599-.309-.428-.693-.057-.693-.057-.327.416-.777.72-1.285.867-.513.971-1.432.447-1.432.447-.795-.771.513-2.627.513-2.627.23-.313.947-2.112.947-2.112Z"/>
  </g>
  <g id="black">
    <path d="M24.5 22.016c1.146.363 2.278.814 3.373 1.484.965.648 1.837 1.337 2.52 2.113l.887 1.163c.126.399.104.668.024.887-.412-.455-.84-.862-1.304-1.163-.281-.491-.617-.816-1-1-.579-.432-1.075-.333-1.5-.15.048-.486.024-.848-.107-1.027-.188.041-.347.26-.485.608-.219-.361-.324-.722-.312-1.083-.235-.214-.469.048-.703.652l-.288-1.095c-.35-.143-.374.227-.442.595l-.663-1.041v-.943Zm16.786 5.355c.557.187 1.068.454 1.342 1.129.36.36.627.875.731 1.67.243.57.266 1.184.126 1.83-.023.52-.129.893-.255 1.234-.077.442-.121 1.015-.147 1.662l.054 1.308c-.284-.24-.56-.657-.768-1.204a4.618 4.618 0 0 1-.325-2.143A3.85 3.85 0 0 1 42.19 31a3.258 3.258 0 0 0-.042-1c-.136-.557-.299-.991-.487-1.317a1.992 1.992 0 0 0-.357-.317l-.018-.995Zm.404 14.184.873.085c.23.491.036.942-.192 1H41c-.101-.022.196-.926.69-1.085Zm-2.562.028c.23.224.199.511-.095.748l-1.466-.029c-.004-.345.203-.562.5-.724l1.061.005Zm-8.628-.106c.22.269.266.516.171.837h-1.576c.035-.484.309-.691.489-.814l.916-.023Zm-1.59.252c.081.492.047.864-.252.911l-1.31-.07c.071-.349.291-.656.755-.887l.807.046Zm-6.255-21.298c.143.395.317.868.345 1.328-.105-.031-.196.016-.269.165l-.076-1.493Zm.769.007c.219.511.382.981.471 1.393-.145-.148-.311-.227-.521-.162.027-.485.039-.861.05-1.231Zm.007 2.3c.102.038.159.137.127.22-.031.084-.139.12-.241.082-.101-.038-.158-.137-.127-.221.032-.083.14-.12.241-.081Zm-.863.01c.037.042.027.112-.022.156-.05.044-.12.047-.158.005-.037-.042-.027-.112.022-.156.05-.044.12-.046.158-.005Z"/>
  </g>
  <g id="green">
    <path fill="#2fcf08" fill-rule="nonzero" stroke="#324565" stroke-width="0.2px" d="M32.488 6.15c-.778 0-1.12.63-1.68 1.191l-1.681 1.68-10.085 10.085-6.724 6.723-5.042 5.042c-.56.56-.978.888-.978 1.681 0 .764.378 1.081.919 1.621l4.864 4.865 6.487 6.486 8.108 8.108 1.621 1.622 1.622 1.621c.54.541.857.975 1.621.975.793 0 1.121-.474 1.681-1.034l1.681-1.681 1.681-1.68 18.489-18.489 1.681-1.68c.56-.56.949-.889.949-1.681 0-.764-.349-1.081-.89-1.622l-1.622-1.621-1.621-1.622-14.594-14.594-1.622-1.621-3.243-3.244c-.541-.54-.843-1.131-1.622-1.131Zm-.092 3.196c.685 0 .952.461 1.428.937l1.427 1.428 1.428 1.427 1.427 1.428 5.71 5.71 5.71 5.711 1.428 1.427 1.427 1.428 1.428 1.427c.476.476.695.755.695 1.428 0 .695-.251.983-.743 1.475l-2.95 2.951-1.476 1.475L37.533 49.4l-2.95 2.951-1.476 1.475c-.491.492-.779.828-1.475.828-.673 0-.952-.305-1.427-.78l-2.856-2.855-1.427-1.428-5.711-5.71-5.71-5.71-4.283-4.282c-.476-.476-.724-.755-.724-1.428 0-.695.28-.983.772-1.475l20.655-20.655c.492-.492.791-.985 1.475-.985Z"/>
  </g>
</svg>
