<svg xmlns="http://www.w3.org/2000/svg" xml:space="preserve" fill-rule="evenodd" clip-rule="evenodd" viewBox="0 0 64 64">
  <g id="blue">
    <path fill="#c2f0ff" d="M32.396 9.346c.685 0 .952.461 1.428.937l1.427 1.428 1.428 1.427 1.427 1.428 5.71 5.71 5.71 5.711 1.428 1.427 1.427 1.428 1.428 1.427c.476.476.695.755.695 1.428 0 .695-.251.983-.743 1.475l-2.95 2.951-1.476 1.475L37.533 49.4l-2.95 2.951-1.476 1.475c-.491.492-.779.828-1.475.828-.673 0-.952-.305-1.427-.78l-2.856-2.855-1.427-1.428-5.711-5.71-5.71-5.71-4.283-4.282c-.476-.476-.724-.755-.724-1.428 0-.695.28-.983.772-1.475l20.655-20.655c.492-.492.791-.985 1.475-.985Z"/>
  </g>
  <g id="brown">
    <path fill="#401c15" fill-rule="nonzero" d="M27.144 34.103c-.093.752-.264 1.481-.641 2.145-.338.787-.742 1.537-1.102 2.308-.381 1.154-.822 2.321-1.502 3.33-.419.534-.991.938-1.344 1.517.502.227 1.126.065 1.664.025.364-.251.825-.257.794-.775-.129-1.183.594-2.244 1.153-3.229.463-.609 1.013-1.156 1.343-1.855.699-.889 1.261-1.89 1.571-2.982.048 1.223-.344 2.404-.468 3.607.127.924 1.091 1.362 1.676 1.986.962.785 1.813 1.881 3.086 2.126.481.254 1.083.327 1.578.069-.423-.445-.682-1.111-1.206-1.417-.579.138.001-.475-.736-.194-.844.158-1.512-.573-2.084-1.087-.47-.467-1.094-1.065-.767-1.792.348-1.156 1.137-2.177 1.292-3.385-.069-.673.737-.596 1.184-.571a8.544 8.544 0 0 0 3.127-.408c.348-.019.971-.442 1.135.025.516 1.159 1.318 2.145 2.092 3.135.287.635-.342 1.202-.529 1.782-.648 1.279-1.323 2.56-2.153 3.726-.31.418-.894.704-1.012 1.225.594.132 1.272.154 1.839-.102.303-.325.568-.193.374-.877.147-1.212.955-2.202 1.513-3.253.593-.985 1.437-1.811 1.983-2.817.021-.385-.402-.646-.478-1.022.784.382.938.96 1.691 1.383.596.335.488 1.354.542 2.143.085 1.069-.157 1.759-.259 2.898-.868-.065-1.248.658-1.65 1.285-.272.445.388.365.693.362.432.103.631-.176.944-.209.311-.033.518-.864.949-1.102.29-1.02.112-1.673.238-3.895-.251-.815-.369-2.562-.743-3.319-.771-.52-1.205-1.363-1.271-2.46a19.133 19.133 0 0 1-.206-1.704c.448.474.689-.197.52-.584-.181-.64-.462-1.293-.841-1.842-1.006-1.175-2.645-1.295-4.083-1.401-1.335-.183-2.732-.043-4.02-.477-.875-.505-1.693-1.22-2.732-1.375-.994-.257-1.889.334-2.801.604l-1.995.092c.311-.373.616-.841-.092-.624-.646-.019-1.158.716-1.795.391-.095-.55.681-.619 1.055-.778 1.189-.255 2.498-.445 3.348-1.409.743-.766 1.276-1.724 1.71-2.688-.17-.399-.588.386-.885.42-.635.415-.331-.171-.172-.528-.318-.135-.648.389-.91.584-.193.247-.859.761-.839.136.285-.431-.031-.86-.352-.3-.451.527-.654 1.334-1.283 1.669-.265-.315.041-.839.113-1.211.083-.212.345-1.064-.099-.672-.615.87-1 1.91-1.615 2.78-.325.467-.958.82-1.483.433-.458-.237-.772-.757-1.289-.851-.134.248.487.962-.163.659-.27-.045-.789-.561-.903-.201.199.232.574.896-.044.608-.245-.237-.913-.335-.514.164.61.834 1.73 1.017 2.705 1.039.672.14.021.555-.284.713-.872.655-1.942 1.016-2.768 1.725-.488.601-.542 1.464-.312 2.182.428.068.796-.192 1.213-.019.516-.047.844-.742 1.405-.474.537-.017.755.337.899.8.311.499.564 1.282 1.224 1.348.17-.473.016-1.014.095-1.514.872.437 1.814.763 2.641 1.271.489.635.103 1.545.666 2.155.101.145.349.56.373.555"/>
    <path fill="#c8ab8a" fill-rule="nonzero" d="M23.61 25.483c-.095-.55.681-.619 1.055-.778 1.188-.255 2.498-.445 3.348-1.409.742-.766 1.275-1.724 1.709-2.688-.17-.399-.587.386-.884.42-.636.415-.331-.171-.173-.528-.318-.135-.647.389-.909.584-.194.247-.86.761-.839.136.285-.431-.031-.859-.352-.3-.451.527-.655 1.334-1.284 1.669-.265-.315.041-.839.114-1.211.083-.212.345-1.064-.099-.672-.615.87-1 1.91-1.615 2.78-.325.467-.959.82-1.484.433-.458-.237-.771-.757-1.288-.851-.134.248.487.962-.163.659-.27-.045-.79-.561-.903-.201.198.232.574.896-.044.608-.245-.237-.913-.335-.514.164.61.834 1.73 1.017 2.705 1.039"/>
    <ellipse cx="22.426" cy="26.75" fill="#c8ab8a" rx="0.234" ry="0.25"/>
  </g>
  <g id="green">
    <path fill="#00580d" fill-rule="nonzero" stroke="#324565" stroke-width="0.2px" d="M32.488 6.15c-.778 0-1.12.63-1.68 1.191l-1.681 1.68-10.085 10.085-6.724 6.723-5.042 5.042c-.56.56-.978.888-.978 1.681 0 .764.378 1.081.919 1.621l4.864 4.865 6.487 6.486 8.108 8.108 1.621 1.622 1.622 1.621c.54.541.857.975 1.621.975.793 0 1.121-.474 1.681-1.034l1.681-1.681 1.681-1.68 18.489-18.489 1.681-1.68c.56-.56.949-.889.949-1.681 0-.764-.349-1.081-.89-1.622l-1.622-1.621-1.621-1.622-14.594-14.594-1.622-1.621-3.243-3.244c-.541-.54-.843-1.131-1.622-1.131Zm-.092 3.196c.685 0 .952.461 1.428.937l1.427 1.428 1.428 1.427 1.427 1.428 5.71 5.71 5.71 5.711 1.428 1.427 1.427 1.428 1.428 1.427c.476.476.695.755.695 1.428 0 .695-.251.983-.743 1.475l-2.95 2.951-1.476 1.475L37.533 49.4l-2.95 2.951-1.476 1.475c-.491.492-.779.828-1.475.828-.673 0-.952-.305-1.427-.78l-2.856-2.855-1.427-1.428-5.711-5.71-5.71-5.71-4.283-4.282c-.476-.476-.724-.755-.724-1.428 0-.695.28-.983.772-1.475l20.655-20.655c.492-.492.791-.985 1.475-.985Z"/>
  </g>
  <g id="black">
    <path d="M23.806 42c.359.173.754.187 1.194 0 .085.279.075.559 0 .838-.148.312-.44.533-.781.59-.673.215-1.246.211-1.719-.014.065-.482.561-.932 1.306-1.414Zm9.694-1c.213-.256.367-.184.5 0 .404.437.708.898.952 1.375-.261.174-.522.264-.783.158-.757-.048-1-.244-.918-.533.193-.355.256-.685.249-1Zm2.71 1.306c.325.206.734.283 1.298.129.19.188.176.377.006.565-.108.164-.286.282-.514.366-.568.148-1.137.22-1.705.048-.007-.411.323-.777.915-1.108Zm6.29-.539c.185.274.47.421.936.336a3.178 3.178 0 0 1-.69.897c-.07.174-.33.32-.839.414h-1.211c.315-.773.763-1.68 1.804-1.647Z"/>
  </g>
</svg>
