<svg xmlns="http://www.w3.org/2000/svg" xml:space="preserve" fill-rule="evenodd" stroke-linecap="round" stroke-linejoin="round" stroke-miterlimit="1.5" clip-rule="evenodd" viewBox="0 0 64 64">
  <g id="blue">
    <path fill="#80afcb" d="M32.396 9.346c.685 0 .952.461 1.428.937l1.427 1.428 1.428 1.427 1.427 1.428 5.71 5.71 5.71 5.711 1.428 1.427 1.427 1.428 1.428 1.427c.476.476.695.755.695 1.428 0 .695-.251.983-.743 1.475l-2.95 2.951-1.476 1.475L37.533 49.4l-2.95 2.951-1.476 1.475c-.491.492-.779.828-1.475.828-.673 0-.952-.305-1.427-.78l-2.856-2.855-1.427-1.428-5.711-5.71-5.71-5.71-4.283-4.282c-.476-.476-.724-.755-.724-1.428 0-.695.28-.983.772-1.475l20.655-20.655c.492-.492.791-.985 1.475-.985Z"/>
  </g>
  <g id="red">
    <path fill="#ee8d84" d="M41.737 29.058c.152-.073.304-.147.416-.278.012-.014-.037-.008-.053-.017-.125-.066-.257-.121-.369-.206a3.426 3.426 0 0 1-.413-.386c-.127-.136-.125-.316-.105-.483.064-.554.266-1.285.893-1.427.166-.061.514.023.678.089.536.215.481.824.538 1.165.047.287-.205.545-.321.811.191-.018.419-.046.702-.073l.006-.001c.404-.086.655-.487.837-.814.146-.264.171-.69.571-.686.078 0 .123.123.117.179-.036.3-.108.476-.249.74-.254.478-.633.974-1.203 1.075-.339.06-.685.075-1.029.088-.147.488-.294.848-.435 1.081.651 1.193.895 2.708.682 4.585-.295 1.161-.815 1.963-1.5 2.5-.175.539.05 1.227.5 2-.054.787-.4 1.448-1 2l-1-.789c-.022-.663-.166-1.173-.5-1.445-.788-.251-1.446-.327-2-.266-2.04.793-4.038.769-6 0-.5.977-1.088 1.836-1.822 2.5L28.5 40c-.003-1.243-.185-2.038-.5-2.5l-1.5-1.176c-.378-.608-.591-1.216-.5-1.824-.262-.655-.582-1.048-1-1-.781-.127-1.266-.295-1.5-.5-1.368-.277-2.07-.832-2.5-1.5l1.5-1V29l-2.5-.5 1-1 1-2.5c-.789.215-1.445.739-2 1.5-.604-.712.23-2.908 1-3.5.63-.495 1.292-.708 2-.5.866-.019 1.524.504 2 1.5 1-.566 2-.418 3 .5.819-.587 1.417-.806 2-1 .899.021 1.382.542 1.5 1.5.31.546.425 1.484.5 2.5 2.045-1.341 4.221-1.424 6.5-.5 1.374.453 2.465 1.129 3.237 2.058Zm1.08-1.538c-.035-.218-.067-.436-.105-.653-.008-.046-.357-.166-.448-.133-.15.056-.163.028-.294.128-.308.237-.193.732-.213 1.047.075.077.152.154.235.222.055.045.382.219.427.225.102.013.128-.159.149-.211.081-.209.153-.422.249-.625Z"/>
    <path fill="#e98181" d="M33.795 39.054 33 40.5l-1.5-.5v-1.5c.689.261 1.45.45 2.295.554ZM36 38.838c.418-.208.925-.209 1.5-.338.168.744-.153 1.412-1 2l-1-.5.5-1.162Z"/>
    <path fill="#e0504f" d="m28.5 40 1.178 1c.06.161.06.339 0 .5h-1.44l.262-.5-1 .5c-.019-.629.187-1.189 1-1.5Zm4.543.414c-.069.251-.234.455-.543.586h-1.396l.572-.401-1.176.517c.033-.39.287-.766 1-1.116l1.543.414ZM35.5 40l1.022.38c.119.165.099.375-.022.62H35l.5-.36-1 .36c.014-.397.185-.763 1-1Zm4.5.211 1.092.701c-.137.317-.335.512-.592.588h-1.191l.416-.5-.89.5c.239-.559.445-1.051 1.165-1.289ZM20 28.5c.594-.28.953-.457 1 .2.654-.577 1.278-.373 1.854.3.199.698.247 1.192-.178 1.5-.247.544-.96.847-1.676 1-.7-.2-1.269-.597-1.5-1.5-.283-.65-.155-1.163.5-1.5Z"/>
  </g>
  <g id="black">
    <path fill="none" stroke="#131313" stroke-width="0.24px" d="M38 38.482c-.931-.274-1.538-.817-2-1.482-.592-.914-.635-1.743-.212-2.5"/>
    <path fill="none" stroke="#131313" stroke-width="0.24px" d="M31.5 38.482c.482-.573.642-1.804.5-2.689"/>
    <path fill="none" stroke="#131313" stroke-width="0.24px" d="M28.228 37.752c-.775-1.02-1.204-1.956-.729-2.898"/>
    <ellipse cx="22.601" cy="26.345" fill="#131313" rx="0.251" ry="0.345"/>
    <ellipse cx="25.538" cy="26.887" fill="#131313" rx="0.292" ry="0.387"/>
    <ellipse cx="20.201" cy="29.119" fill="#131313" rx="0.25" ry="0.27"/>
    <ellipse cx="22" cy="29.139" fill="#131313" rx="0.262" ry="0.25"/>
    <path fill="none" stroke="#131313" stroke-width="0.24px" d="M24.5 32.822c1.763.094 3.369.686 4.802-1.822.182-.336.519-1.664.698-2.762"/>
  </g>
  <g id="grey" fill="#444">
    <path d="M29 26.105c.198-.582.482-1.077 1-1.38.442.024.798.306 1 1.05l.772 1.725c-.322.128-.661-.053-1.022-.645-.089-.506-.342-.869-.75-1.095l-1 .345Z"/>
    <path d="M20.201 26.24c.175-.448.362-.876.592-1.24.111-.18.241-.347.387-.5.518-.598 1.008-.662 1.487-.5l.833.5-1.5.5a7.972 7.972 0 0 0-1.799 1.24Z"/>
  </g>
  <g id="green">
    <path fill="#2fcf08" fill-rule="nonzero" stroke="#324565" stroke-linecap="butt" stroke-linejoin="miter" stroke-miterlimit="4" stroke-width="0.2px" d="M32.488 6.15c-.778 0-1.12.63-1.68 1.191l-1.681 1.68-10.085 10.085-6.724 6.723-5.042 5.042c-.56.56-.978.888-.978 1.681 0 .764.378 1.081.919 1.621l4.864 4.865 6.487 6.486 8.108 8.108 1.621 1.622 1.622 1.621c.54.541.857.975 1.621.975.793 0 1.121-.474 1.681-1.034l1.681-1.681 1.681-1.68 18.489-18.489 1.681-1.68c.56-.56.949-.889.949-1.681 0-.764-.349-1.081-.89-1.622l-1.622-1.621-1.621-1.622-14.594-14.594-1.622-1.621-3.243-3.244c-.541-.54-.843-1.131-1.622-1.131Zm-.092 3.196c.685 0 .952.461 1.428.937l1.427 1.428 1.428 1.427 1.427 1.428 5.71 5.71 5.71 5.711 1.428 1.427 1.427 1.428 1.428 1.427c.476.476.695.755.695 1.428 0 .695-.251.983-.743 1.475l-2.95 2.951-1.476 1.475L37.533 49.4l-2.95 2.951-1.476 1.475c-.491.492-.779.828-1.475.828-.673 0-.952-.305-1.427-.78l-2.856-2.855-1.427-1.428-5.711-5.71-5.71-5.71-4.283-4.282c-.476-.476-.724-.755-.724-1.428 0-.695.28-.983.772-1.475l20.655-20.655c.492-.492.791-.985 1.475-.985Z"/>
  </g>
</svg>
