<?xml version="1.0" encoding="UTF-8" standalone="no"?>
<!-- Generator: Adobe Illustrator 27.5.0, SVG Export Plug-In . SVG Version: 6.00 Build 0)  -->

<svg
   version="1.1"
   x="0px"
   y="0px"
   viewBox="0 0 64 64"
   xml:space="preserve"
   id="ttPigSpawner"
   width="64"
   height="64"
   inkscape:version="1.3.2 (091e20e, 2023-11-25, custom)"
   inkscape:export-filename="..\pngs\Poultry Spawner.png"
   inkscape:export-xdpi="96"
   inkscape:export-ydpi="96"
   sodipodi:docname="Pig Spawner.svg"
   xmlns:inkscape="http://www.inkscape.org/namespaces/inkscape"
   xmlns:sodipodi="http://sodipodi.sourceforge.net/DTD/sodipodi-0.dtd"
   xmlns="http://www.w3.org/2000/svg"
   xmlns:svg="http://www.w3.org/2000/svg"
   xmlns:rdf="http://www.w3.org/1999/02/22-rdf-syntax-ns#"
   xmlns:cc="http://creativecommons.org/ns#"
   xmlns:dc="http://purl.org/dc/elements/1.1/"><sodipodi:namedview
     inkscape:zoom="14.203125"
     inkscape:cx="44.567657"
     inkscape:cy="32.211221"
     inkscape:window-width="1920"
     inkscape:window-height="1137"
     inkscape:window-x="1912"
     inkscape:window-y="-8"
     inkscape:window-maximized="1"
     inkscape:current-layer="ttPigSpawner"
     id="namedview1"
     pagecolor="#ffffff"
     bordercolor="#000000"
     borderopacity="0.25"
     inkscape:showpageshadow="2"
     inkscape:pageopacity="0.0"
     inkscape:pagecheckerboard="0"
     inkscape:deskcolor="#d1d1d1" /><title
     id="title44">Pig Spawner</title><defs
     id="defs35" /><metadata
     id="metadata35"><rdf:RDF><cc:Work
         rdf:about=""><cc:license
           rdf:resource="http://artlibre.org/licence/lal" /><dc:creator><cc:Agent><dc:title>Tigon Trollhammer</dc:title></cc:Agent></dc:creator><dc:title>Pig Spawner</dc:title></cc:Work></rdf:RDF></metadata><g
     inkscape:groupmode="layer"
     id="layer1"
     inkscape:label="signage layer"
     style="display:inline"><g
       id="g56"><path
         d="M 32.681641,4.2929687 C 31.843301,4.2929535 31.475607,4.8974397 30.873047,5.5 l -1.806641,1.8066406 -1.808594,1.8085938 -1.808593,1.8066406 -7.230469,7.230469 -7.230469,7.230468 -1.8066404,1.808594 -1.8085937,1.806641 -1.8066407,1.808594 c -0.6025603,0.60256 -0.9472814,0.956444 -0.9472656,1.808593 1.52e-5,0.824531 0.3056193,1.165038 0.8886719,1.748047 l 1.7480469,1.75 1.75,1.748047 1.7480466,1.75 6.998047,6.996094 6.996094,6.996094 1.75,1.748046 1.748047,1.75 1.75,1.748047 c 0.583052,0.58301 0.923516,0.957047 1.748047,0.957032 0.852089,-1.5e-5 1.206076,-0.413108 1.808593,-1.015625 l 1.806641,-1.806641 1.808594,-1.808594 1.80664,-1.80664 7.230469,-7.230469 7.230469,-7.230469 1.80664,-1.806641 1.808594,-1.808593 1.806641,-1.806641 c 0.602518,-0.602517 0.91014,-0.956505 0.910156,-1.808594 1.5e-5,-0.82453 -0.268553,-1.164993 -0.851562,-1.748047 l -1.748047,-1.75 -1.75,-1.75 -1.748047,-1.748046 -6.996094,-6.996094 -6.996094,-6.998047 -1.75,-1.7480469 -1.748047,-1.75 -1.75,-1.7480469 C 33.846678,4.8583535 33.519981,4.292984 32.681641,4.2929687 Z"
         style="fill:#fffdf8;stroke:none;stroke-width:0.249751;fill-opacity:1"
         id="path56" /><path
         d="M 32.793612,0.37647838 C 31.839909,0.37646359 31.420646,1.1487382 30.734164,1.8351778 l -2.059447,2.0593188 -2.059446,2.059319 -2.059447,2.0593189 -8.237788,8.2372765 -8.2377883,8.237274 -2.059447,2.05932 -2.059447,2.059318 c 0,0 -1.3729647,1.372879 -2.0594469,2.059319 -0.6864824,0.68644 -1.19767362,1.088517 -1.19768862,2.059319 -1.458e-5,0.936605 0.46279982,1.324559 1.12507902,1.986838 0.6622792,0.662279 1.9868375,1.986838 1.9868375,1.986838 l 1.9868374,1.986837 1.9868375,1.986838 7.9473504,7.947349 7.947349,7.94735 1.986837,1.986838 1.986838,1.986837 c 0,0 1.324558,1.324559 1.986837,1.986838 0.66228,0.662279 1.050234,1.194397 1.986838,1.194411 0.970803,1.5e-5 1.372965,-0.580453 2.059447,-1.266893 0.686482,-0.686439 2.059446,-2.059318 2.059446,-2.059318 l 2.059448,-2.059319 2.059447,-2.05932 8.237788,-8.237275 8.237788,-8.237275 2.059447,-2.05932 2.059446,-2.059319 c 0,0 1.372965,-1.372879 2.059447,-2.059318 0.686482,-0.68644 1.16255,-1.088517 1.162566,-2.059319 1.5e-5,-0.936605 -0.427677,-1.324559 -1.089956,-1.986838 -0.662279,-0.662279 -1.986838,-1.986837 -1.986838,-1.986837 L 58.622499,25.604746 56.635661,23.617908 48.688311,15.670559 40.740961,7.7232088 38.754123,5.7363714 36.767286,3.7495339 34.780449,1.7626963 C 34.11817,1.1004171 33.747315,0.37649317 32.793612,0.37647838 Z M 32.680919,4.2920145 c 0.838341,1.53e-5 1.166022,0.565487 1.749032,1.1485403 l 1.749032,1.7491597 1.749031,1.7491603 1.749032,1.7491592 6.996126,6.996638 6.996127,6.99664 1.749032,1.749159 1.749031,1.74916 c 0,0 1.166021,1.166106 1.749032,1.749159 0.58301,0.583054 0.852165,0.924629 0.85215,1.74916 -1.6e-5,0.852089 -0.308154,1.205036 -0.910673,1.807554 -0.602518,0.602518 -1.807555,1.807555 -1.807555,1.807555 l -1.807554,1.807554 -1.807555,1.807556 -7.230219,7.230218 -7.230218,7.230219 -1.807554,1.807555 -1.807555,1.807555 c 0,0 -1.205036,1.205036 -1.807555,1.807554 -0.602518,0.602518 -0.955465,1.015114 -1.807555,1.015129 -0.824531,1.5e-5 -1.166106,-0.373595 -1.749159,-0.956605 -0.583053,-0.583011 -1.74916,-1.749032 -1.74916,-1.749032 l -1.74916,-1.749032 -1.74916,-1.749031 -6.996638,-6.996127 -6.99664,-6.996127 -1.7491588,-1.749031 -1.7491601,-1.749032 c 0,0 -1.1661064,-1.166022 -1.7491596,-1.749032 -0.5830532,-0.58301 -0.887386,-0.9245 -0.8874012,-1.749031 -1.58e-5,-0.85215 0.3433633,-1.205122 0.9459243,-1.807683 0.6025609,-0.602561 1.8076828,-1.807682 1.8076828,-1.807682 l 1.8076824,-1.807684 1.8076832,-1.807682 7.230731,-7.23073 7.230731,-7.230732 1.807683,-1.8076825 1.807682,-1.8076832 1.807683,-1.8076826 c 0.602561,-0.6025609 0.969342,-1.2070785 1.807682,-1.2070632 z"
         style="fill:#f6c840;fill-opacity:1;stroke:#1d3244;stroke-width:0.249751;stroke-opacity:1"
         id="path55"
         inkscape:label="holder" /></g></g><g
     id="g57"
     transform="matrix(-1,0,0,1,80.011431,-44.103186)"
     style="display:inline;fill:#f06a70;fill-opacity:1;stroke:#1d3244;stroke-opacity:1"
     inkscape:label="pig"><path
       d="M 63.549208,71.880763 C 63.1739,71.215918 62.798593,70.66188 62.385755,70.163246 c 0.300246,-0.44323 0.562961,-0.886461 0.675553,-1.108076 0.262715,-0.720249 0.07506,-2.825593 -0.225184,-3.158016 -0.187654,-0.221615 -0.412839,0.110808 -0.788146,0.554038 0,-0.387826 -0.03753,-0.775653 -0.187654,-1.108075 -0.187654,-0.443231 -1.125923,1.108075 -1.876538,2.548574 -0.525431,-0.332423 -1.050861,-0.554038 -1.576292,-0.664846 -1.688884,-0.332423 -9.682935,-2.770189 -17.114025,-2.770189 -3.415299,0 -5.44196,0.664845 -7.39356,2.936401 -0.150123,0.166211 -0.300246,0.387826 -0.450369,0.720249 -0.375307,0.609441 -1.200984,1.717517 -2.064191,1.551306 -0.562962,-0.110808 -1.727005,0.45647 -2.421766,0.978738 -0.785179,2.011294 -1.461336,2.262071 -0.439619,3.504761 2.121006,0.123612 2.184651,-0.966674 2.950115,-1.84735 0.192898,-1.308315 -2.221592,1.372937 -2.521838,0.936668 0.405331,-0.642295 0.295887,-1.389611 1.530043,-2.067697 0.818694,-0.813702 1.466026,-0.0092 2.14158,-0.397045 -0.150123,0.775653 -0.262716,1.662114 -0.262716,2.603978 -0.225184,4.764726 1.726415,6.925474 0.788146,8.365972 -1.276046,1.883729 0.300246,2.770189 0.225185,4.487707 -0.07506,1.385094 -0.07506,1.994536 0.225184,1.939132 0.562962,-0.166211 0.562962,-0.166211 0.825677,0.997268 0.03753,0.387827 0.150123,0.831058 0.525431,0.831058 h 1.576291 c 0,-1.108077 -1.050861,-1.385096 -1.538761,-4.875534 -0.262715,-1.883729 0.638023,-3.545842 1.613823,-4.764726 0.07506,0.0554 0.187654,0.0554 0.262715,0.110808 -0.07506,0.720249 -0.187654,1.274287 0.412839,2.382363 0.412838,0.720249 0.450369,3.822861 0.52543,4.98634 0.03753,0.443231 0.600492,-0.221615 0.638023,0.332423 0.112592,0.941864 0.225185,1.772922 0.450369,1.772922 h 1.801476 c 0,-0.498635 -0.900738,-1.662114 -1.163453,-3.21342 -0.375308,-2.105344 -0.03753,-3.435035 0.450369,-4.709322 l -0.900738,-0.609442 c -0.07506,-0.0554 -0.03753,-0.277019 0.07506,-0.221615 l 1.050862,0.387827 c 0.300246,0.110807 0.600492,0.221615 0.938269,0.387826 h 0.03753 v 0 c 0.375308,0.166211 0.788146,0.332423 1.200985,0.554038 1.951599,0.941864 4.728875,0.664845 7.95652,-1.052672 0.150123,1.440498 0.337777,3.545842 0.300246,4.09988 -0.112592,0.831057 -0.52543,2.04994 0,2.936401 0.150123,0.221615 0.375308,-0.0554 0.450369,0.110807 0,0.221615 0.03753,0.387827 0.07506,0.554038 0.07506,0.44323 0.412838,0.775654 0.750615,0.775654 h 1.426169 c -0.450369,-1.329692 -0.788146,-1.329692 -0.900738,-2.548575 -0.187654,-1.772921 0.187653,-4.155284 0.825676,-5.872801 0.562962,2.326959 1.125923,5.152552 0.9758,5.651186 -0.187654,0.498634 0.03753,1.662113 0.4879,1.163479 0.150123,-0.166211 0.225184,0.277019 0.225184,0.775653 0,0.387827 0.262716,0.886462 0.4879,0.886462 h 1.726415 c -0.225184,-0.775654 -0.750615,-1.329692 -1.088392,-3.379632 -0.150123,-0.997268 -0.262715,-3.435035 0.07506,-5.651186 2.064191,0 2.889868,-1.883729 4.053322,-2.04994 0.713084,-0.110808 1.763945,-0.0554 2.47703,-0.277019 1.839007,-0.554038 3.152583,-0.831057 3.415299,-1.883729 0.112592,-0.498634 0.825676,-0.554038 0.713084,-0.554038 v -2.825593 c -1.313577,0 -2.064192,0.554038 -3.265176,-1.495902 z"
       id="path1"
       style="fill:#e9aeb1;fill-opacity:1;stroke:#1d3244;stroke-width:0.455998;stroke-opacity:1" /><ellipse
       style="fill:#20090a;fill-opacity:1;stroke:#364450;stroke-width:0.5;stroke-opacity:1"
       id="path57"
       cx="-53.94883"
       cy="71.883385"
       transform="scale(-1,1)"
       rx="2.1656604"
       ry="1.9914118" /><ellipse
       style="fill:#20090a;fill-opacity:1;stroke:#364450;stroke-width:0.9;stroke-opacity:1;font-variation-settings:normal;opacity:1;vector-effect:none;stroke-linecap:butt;stroke-linejoin:miter;stroke-miterlimit:4;stop-color:#000000;stop-opacity:1"
       id="path58"
       cx="-42.697353"
       cy="68.597549"
       transform="scale(-1,1)"
       rx="2.6635134"
       ry="2.3399088" /><ellipse
       style="font-variation-settings:normal;display:inline;opacity:1;fill:#20090a;fill-opacity:1;stroke:#364450;stroke-width:0.4;stroke-linecap:butt;stroke-linejoin:miter;stroke-miterlimit:4;stroke-opacity:1;stop-color:#000000;stop-opacity:1"
       id="path59"
       cx="-45.808933"
       cy="75.094536"
       transform="scale(-1,1)"
       rx="1.2446324"
       ry="1.1699544" /><ellipse
       style="fill:#20090a;fill-opacity:1;stroke:#364450;stroke-width:0.4;stroke-opacity:1;font-variation-settings:normal;opacity:1;stroke-linecap:butt;stroke-linejoin:miter;stroke-miterlimit:4;stop-color:#000000;stop-opacity:1"
       id="path60"
       cx="-36.772903"
       cy="71.509995"
       transform="scale(-1,1)"
       rx="1.0703839"
       ry="1.1699544" /><path
       d="m 49.368853,65.261389 c 1.14114,-9e-5 2.277552,0.232695 2.277627,0.823888 -7.7e-5,0.591193 -0.819656,1.158412 -2.277627,1.316737 -1.827608,-0.387148 -2.418365,-1.059978 -2.418441,-1.65117 7.5e-5,-0.591193 0.36201,-1.0352 2.418441,-0.489455 z"
       style="fill:#20090a;stroke:#1d3244;stroke-width:0.3;stroke-opacity:1"
       id="path62"
       sodipodi:nodetypes="ccccc" /></g></svg>
