<svg xmlns="http://www.w3.org/2000/svg" xml:space="preserve" fill-rule="evenodd" clip-rule="evenodd" viewBox="0 0 64 64">
  <g id="blue">
    <path fill="#4a6168" d="M32.396 9.346c.685 0 .952.461 1.428.937l1.427 1.428 1.428 1.427 1.427 1.428 5.71 5.71 5.71 5.711 1.428 1.427 1.427 1.428 1.428 1.427c.476.476.695.755.695 1.428 0 .695-.251.983-.743 1.475l-2.95 2.951-1.476 1.475L37.533 49.4l-2.95 2.951-1.476 1.475c-.491.492-.779.828-1.475.828-.673 0-.952-.305-1.427-.78l-2.856-2.855-1.427-1.428-5.711-5.71-5.71-5.71-4.283-4.282c-.476-.476-.724-.755-.724-1.428 0-.695.28-.983.772-1.475l20.655-20.655c.492-.492.791-.985 1.475-.985Z"/>
  </g>
  <g id="yellow">
    <path fill="#d5d89e" d="M14.33 38h34.603l-11.4 11.4-2.95 2.951-1.476 1.475c-.491.492-.779.828-1.475.828-.673 0-.952-.305-1.427-.78l-2.856-2.855-1.427-1.428-5.711-5.71L14.33 38Z"/>
    <path fill="#d5d89e" fill-rule="nonzero" stroke="#324565" stroke-width="0.2px" d="M32.488 6.15c-.778 0-1.12.63-1.68 1.191l-1.681 1.68-10.085 10.085-6.724 6.723-5.042 5.042c-.56.56-.978.888-.978 1.681 0 .764.378 1.081.919 1.621l4.864 4.865 6.487 6.486 8.108 8.108 1.621 1.622 1.622 1.621c.54.541.857.975 1.621.975.793 0 1.121-.474 1.681-1.034l1.681-1.681 1.681-1.68 18.489-18.489 1.681-1.68c.56-.56.949-.889.949-1.681 0-.764-.349-1.081-.89-1.622l-1.622-1.621-1.621-1.622-14.594-14.594-1.622-1.621-3.243-3.244c-.541-.54-.843-1.131-1.622-1.131Zm-.092 3.196c.685 0 .952.461 1.428.937l1.427 1.428 1.428 1.427 1.427 1.428 5.71 5.71 5.71 5.711 1.428 1.427 1.427 1.428 1.428 1.427c.476.476.695.755.695 1.428 0 .695-.251.983-.743 1.475l-2.95 2.951-1.476 1.475L37.533 49.4l-2.95 2.951-1.476 1.475c-.491.492-.779.828-1.475.828-.673 0-.952-.305-1.427-.78l-2.856-2.855-1.427-1.428-5.711-5.71-5.71-5.71-4.283-4.282c-.476-.476-.724-.755-.724-1.428 0-.695.28-.983.772-1.475l20.655-20.655c.492-.492.791-.985 1.475-.985Z"/>
    <path fill="#f5f5d1" d="M26.614 38.2c.094-.291.167-.468.167-.468s-.089-.949 1.22-.985c.701-.065 1.343.375 1.436.984 0 0 0 1.025.633 1.591.632.566 1.897.674 1.897.674s1.636.016 2.322-.355c.686-.371.259-.769.715-1.167.455-.398.753-1.494 1.1-.424.348 1.07.892 3.468 0 4.741-.731 1.043-2.145 1.673-3.72 1.866a8.818 8.818 0 0 1-1.053.063 6.464 6.464 0 0 1-1.448-.152 4.726 4.726 0 0 1-.668-.205c-.903-.352-1.664-.971-2.434-1.896-.671-.804-.65-2.039-.473-3.045.157.069.327.117.501.117.683 0 1.125-.842 1.125-.842s-.331-.544-.848-.59c-.131-.011-.297.028-.472.093Z"/>
  </g>
  <g id="red">
    <path fill="#e0504f" d="M23.922 29.834a1.69 1.69 0 0 0-.658-.134c-.457-.042-.889.139-1.147.442-.247-.383-.691-1.106-.691-1.349 0-.337.853.249.853.249s.06-.542.229-.542c.168 0 .604.542.604.542s.416-.446.659-.249c.245.197.161 1.038.161 1.038l-.01.003Zm15.491 1.665-.009-.003s-.085-.841.16-1.038c.244-.197.659.248.659.248s.436-.541.604-.541c.169 0 .229.541.229.541s.853-.585.853-.248c0 .243-.444.965-.691 1.349-.258-.304-.689-.484-1.147-.442a1.655 1.655 0 0 0-.658.134Z"/>
    <path fill="#c23501" d="m27.317 36.887-.01-.003s-.088-.874.166-1.08c.254-.204.686.259.686.259s.453-.563.628-.563.238.563.238.563.887-.609.887-.259c0 .253-.462 1.004-.719 1.403-.268-.316-.717-.504-1.192-.46-.235 0-.468.048-.684.14Z"/>
  </g>
  <g id="brown">
    <path fill="#d6b6a4" d="M24.598 31.098c-.168-.063-.328-.101-.454-.089-.497.044-.815.567-.815.567s.424.81 1.082.81c.167 0 .331-.046.482-.113.171.969.191 2.156-.455 2.931-.741.889-1.474 1.485-2.343 1.824a4.622 4.622 0 0 1-.642.197c-.457.101-.925.15-1.393.146a8.36 8.36 0 0 1-1.013-.061c-1.515-.185-2.876-.791-3.58-1.795-.858-1.224-.335-3.532 0-4.561.335-1.03.621.025 1.059.408.439.382.028.765.688 1.122.66.357 2.234.342 2.234.342s1.217-.104 1.825-.648c.609-.545.609-1.531.609-1.531.09-.586.707-1.009 1.382-.947 1.26.034 1.174.947 1.174.947s.07.171.16.451Zm14.139 1.665c.09-.28.16-.451.16-.451s-.086-.913 1.174-.947c.675-.063 1.292.361 1.382.947 0 0 0 .986.609 1.531.608.544 1.826.647 1.826.647s1.573.016 2.233-.341c.66-.357.25-.74.688-1.123.438-.382.724-1.437 1.059-.408.335 1.03.858 3.337 0 4.561-.704 1.005-2.064 1.611-3.58 1.796a8.36 8.36 0 0 1-1.013.061c-.508 0-.968-.048-1.393-.146a4.494 4.494 0 0 1-.642-.198c-.869-.338-1.602-.934-2.343-1.824-.646-.774-.626-1.961-.454-2.93.151.067.314.113.481.113.658 0 1.083-.81 1.083-.81s-.319-.523-.816-.568c-.126-.011-.286.027-.454.09Z"/>
  </g>
  <g id="orange">
    <path fill="#ea912b" d="M19.047 37.31c.183.022.369.039.557.049l.06.012v.992s1.447.51 1.172.68c-.276.17-1.895.169-2.397 0-.501-.169.392-.68.392-.68l.216-1.053Zm2.406-.085c.219-.05.433-.116.642-.197l.027.005v.991s1.447.511 1.172.681c-.276.17-1.895.169-2.397 0-.501-.169.392-.681.392-.681l.164-.799Zm2.691-6.216c.499-.045 1.526.68 1.526.68s-.601.697-1.259.697c-.658 0-1.082-.81-1.082-.81s.318-.523.815-.567Zm20.144 7.966.216 1.053s.893.511.392.68c-.502.169-2.121.17-2.396 0-.276-.17 1.171-.68 1.171-.68v-.992l.06-.012c.188-.01.374-.027.557-.049Zm-2.406-.085.164.799s.893.512.392.681c-.502.169-2.121.17-2.396 0-.276-.17 1.171-.681 1.171-.681v-.991l.027-.006c.209.082.424.148.642.198Zm-2.691-6.217c.497.045.816.568.816.568s-.425.81-1.083.81c-.657 0-1.259-.697-1.259-.697s1.028-.725 1.526-.681Zm-6.807 11.984.224 1.094s.928.531.407.707c-.521.176-2.204.177-2.49 0-.286-.177 1.218-.707 1.218-.707V44.72l.062-.013a8.58 8.58 0 0 0 .579-.05Zm-2.501-.089.171.831s.928.532.407.707c-.521.176-2.204.177-2.491 0-.286-.176 1.218-.707 1.218-.707v-1.031l.027-.005c.218.085.441.153.668.205Zm-2.797-6.461c.517.046.848.59.848.59s-.442.842-1.125.842c-.684 0-1.309-.725-1.309-.725s1.069-.753 1.586-.707Z"/>
  </g>
  <g id="black">
    <path d="M22.864 30.668c.108 0 .195.152.195.338 0 .187-.087.339-.195.339-.107 0-.194-.152-.194-.339 0-.186.087-.338.194-.338Zm17.607 1.665c.107 0 .194.152.194.338 0 .187-.087.338-.194.338-.108 0-.195-.151-.195-.338 0-.186.087-.338.195-.338Zm-12.055 5.421c.112 0 .202.157.202.351 0 .194-.09.352-.202.352-.111 0-.202-.158-.202-.352 0-.194.091-.351.202-.351Z"/>
  </g>
</svg>
