<?xml version="1.0" encoding="UTF-8" standalone="no"?>
<!-- Generator: Adobe Illustrator 27.5.0, SVG Export Plug-In . SVG Version: 6.00 Build 0)  -->

<svg
   version="1.1"
   x="0px"
   y="0px"
   viewBox="0 0 64 64"
   xml:space="preserve"
   id="svg35"
   sodipodi:docname="Poultry Spawner.svg"
   width="64"
   height="64"
   inkscape:version="1.3.2 (091e20e, 2023-11-25, custom)"
   xmlns:inkscape="http://www.inkscape.org/namespaces/inkscape"
   xmlns:sodipodi="http://sodipodi.sourceforge.net/DTD/sodipodi-0.dtd"
   xmlns="http://www.w3.org/2000/svg"
   xmlns:svg="http://www.w3.org/2000/svg"
   xmlns:rdf="http://www.w3.org/1999/02/22-rdf-syntax-ns#"
   xmlns:cc="http://creativecommons.org/ns#"
   xmlns:dc="http://purl.org/dc/elements/1.1/"><title
   id="title44">Poultry Spawner</title><defs
   id="defs35">
	

	
	

		
		
		
		
		
		
		
		
		
		
		
		
		
		
		
		
		
		
		
		
	</defs><sodipodi:namedview
   id="namedview35"
   pagecolor="#ffffff"
   bordercolor="#000000"
   borderopacity="0.25"
   inkscape:showpageshadow="2"
   inkscape:pageopacity="0.0"
   inkscape:pagecheckerboard="0"
   inkscape:deskcolor="#d1d1d1"
   inkscape:zoom="14.203125"
   inkscape:cx="35.907591"
   inkscape:cy="48.968097"
   inkscape:window-width="3840"
   inkscape:window-height="2054"
   inkscape:window-x="-11"
   inkscape:window-y="-11"
   inkscape:window-maximized="1"
   inkscape:current-layer="svg35" />


<metadata
   id="metadata35"><rdf:RDF><cc:Work
       rdf:about=""><cc:license
         rdf:resource="http://artlibre.org/licence/lal" /><dc:creator><cc:Agent><dc:title>Tigon Trollhammer</dc:title></cc:Agent></dc:creator><dc:title>Poultry Spawner</dc:title></cc:Work><cc:License
       rdf:about="http://artlibre.org/licence/lal"><cc:permits
         rdf:resource="http://creativecommons.org/ns#Reproduction" /><cc:permits
         rdf:resource="http://creativecommons.org/ns#Distribution" /><cc:permits
         rdf:resource="http://creativecommons.org/ns#DerivativeWorks" /><cc:requires
         rdf:resource="http://creativecommons.org/ns#ShareAlike" /><cc:requires
         rdf:resource="http://creativecommons.org/ns#Notice" /><cc:requires
         rdf:resource="http://creativecommons.org/ns#Attribution" /></cc:License></rdf:RDF></metadata><g
   inkscape:groupmode="layer"
   id="layer1"
   inkscape:label="signage layer"
   style="display:inline"><g
     id="g56"><path
       d="M 32.681641,4.2929687 C 31.843301,4.2929535 31.475607,4.8974397 30.873047,5.5 l -1.806641,1.8066406 -1.808594,1.8085938 -1.808593,1.8066406 -7.230469,7.230469 -7.230469,7.230468 -1.8066404,1.808594 -1.8085937,1.806641 -1.8066407,1.808594 c -0.6025603,0.60256 -0.9472814,0.956444 -0.9472656,1.808593 1.52e-5,0.824531 0.3056193,1.165038 0.8886719,1.748047 l 1.7480469,1.75 1.75,1.748047 1.7480466,1.75 6.998047,6.996094 6.996094,6.996094 1.75,1.748046 1.748047,1.75 1.75,1.748047 c 0.583052,0.58301 0.923516,0.957047 1.748047,0.957032 0.852089,-1.5e-5 1.206076,-0.413108 1.808593,-1.015625 l 1.806641,-1.806641 1.808594,-1.808594 1.80664,-1.80664 7.230469,-7.230469 7.230469,-7.230469 1.80664,-1.806641 1.808594,-1.808593 1.806641,-1.806641 c 0.602518,-0.602517 0.91014,-0.956505 0.910156,-1.808594 1.5e-5,-0.82453 -0.268553,-1.164993 -0.851562,-1.748047 l -1.748047,-1.75 -1.75,-1.75 -1.748047,-1.748046 -6.996094,-6.996094 -6.996094,-6.998047 -1.75,-1.7480469 -1.748047,-1.75 -1.75,-1.7480469 C 33.846678,4.8583535 33.519981,4.292984 32.681641,4.2929687 Z"
       style="fill:#fffdf8;stroke:none;stroke-width:0.249751;fill-opacity:1"
       id="path56" /><path
       d="M 32.793612,0.37647838 C 31.839909,0.37646359 31.420646,1.1487382 30.734164,1.8351778 l -2.059447,2.0593188 -2.059446,2.059319 -2.059447,2.0593189 -8.237788,8.2372765 -8.2377883,8.237274 -2.059447,2.05932 -2.059447,2.059318 c 0,0 -1.3729647,1.372879 -2.0594469,2.059319 -0.6864824,0.68644 -1.19767362,1.088517 -1.19768862,2.059319 -1.458e-5,0.936605 0.46279982,1.324559 1.12507902,1.986838 0.6622792,0.662279 1.9868375,1.986838 1.9868375,1.986838 l 1.9868374,1.986837 1.9868375,1.986838 7.9473504,7.947349 7.947349,7.94735 1.986837,1.986838 1.986838,1.986837 c 0,0 1.324558,1.324559 1.986837,1.986838 0.66228,0.662279 1.050234,1.194397 1.986838,1.194411 0.970803,1.5e-5 1.372965,-0.580453 2.059447,-1.266893 0.686482,-0.686439 2.059446,-2.059318 2.059446,-2.059318 l 2.059448,-2.059319 2.059447,-2.05932 8.237788,-8.237275 8.237788,-8.237275 2.059447,-2.05932 2.059446,-2.059319 c 0,0 1.372965,-1.372879 2.059447,-2.059318 0.686482,-0.68644 1.16255,-1.088517 1.162566,-2.059319 1.5e-5,-0.936605 -0.427677,-1.324559 -1.089956,-1.986838 -0.662279,-0.662279 -1.986838,-1.986837 -1.986838,-1.986837 L 58.622499,25.604746 56.635661,23.617908 48.688311,15.670559 40.740961,7.7232088 38.754123,5.7363714 36.767286,3.7495339 34.780449,1.7626963 C 34.11817,1.1004171 33.747315,0.37649317 32.793612,0.37647838 Z M 32.680919,4.2920145 c 0.838341,1.53e-5 1.166022,0.565487 1.749032,1.1485403 l 1.749032,1.7491597 1.749031,1.7491603 1.749032,1.7491592 6.996126,6.996638 6.996127,6.99664 1.749032,1.749159 1.749031,1.74916 c 0,0 1.166021,1.166106 1.749032,1.749159 0.58301,0.583054 0.852165,0.924629 0.85215,1.74916 -1.6e-5,0.852089 -0.308154,1.205036 -0.910673,1.807554 -0.602518,0.602518 -1.807555,1.807555 -1.807555,1.807555 l -1.807554,1.807554 -1.807555,1.807556 -7.230219,7.230218 -7.230218,7.230219 -1.807554,1.807555 -1.807555,1.807555 c 0,0 -1.205036,1.205036 -1.807555,1.807554 -0.602518,0.602518 -0.955465,1.015114 -1.807555,1.015129 -0.824531,1.5e-5 -1.166106,-0.373595 -1.749159,-0.956605 -0.583053,-0.583011 -1.74916,-1.749032 -1.74916,-1.749032 l -1.74916,-1.749032 -1.74916,-1.749031 -6.996638,-6.996127 -6.99664,-6.996127 -1.7491588,-1.749031 -1.7491601,-1.749032 c 0,0 -1.1661064,-1.166022 -1.7491596,-1.749032 -0.5830532,-0.58301 -0.887386,-0.9245 -0.8874012,-1.749031 -1.58e-5,-0.85215 0.3433633,-1.205122 0.9459243,-1.807683 0.6025609,-0.602561 1.8076828,-1.807682 1.8076828,-1.807682 l 1.8076824,-1.807684 1.8076832,-1.807682 7.230731,-7.23073 7.230731,-7.230732 1.807683,-1.8076825 1.807682,-1.8076832 1.807683,-1.8076826 c 0.602561,-0.6025609 0.969342,-1.2070785 1.807682,-1.2070632 z"
       style="fill:#f6c840;fill-opacity:1;stroke:#1d3244;stroke-width:0.249751;stroke-opacity:1"
       id="path55"
       sodipodi:nodetypes="zzcccccccssscccccccssscccccccsssccccccczzzzcccccccssscccccccssscccccccsssccccccczz"
       inkscape:label="holder" /></g></g><g
   id="g45"
   style="display:inline;fill:#1d3244;fill-opacity:1;stroke:none;stroke-opacity:1"
   inkscape:label="poultry"
   transform="matrix(0.72502507,0,0,0.72502507,8.8180279,12.432597)"><path
     style="fill:#8c4f31;fill-opacity:1;stroke:none;stroke-width:0.3;stroke-opacity:1"
     d="m 12.375,11.28125 9.53125,8.34375 4.53125,4.5 5.59375,1.25 7.5,-1.4375 c 0,0 0.59375,1.03125 3.40625,1.4375 2.8125,0.40625 4.59375,0.03125 4.59375,0.03125 0,0 1.03125,4.34375 1.0625,5.625 0.03125,1.28125 -0.84375,5.4375 -0.84375,5.4375 0,0 -4.4375,5.375 -5.53125,5.78125 -1.09375,0.40625 -7.75,1.90625 -7.75,1.90625 l -10.25,0.625 L 21.4375,43.125 16.125,35.1875 c 0,0 -2.09375,-2.96875 -2.75,-4.8125 -0.65625,-1.84375 1.25,-5.0625 1.25,-5.0625 L 14,22.46875 c 0,0 -1.375,-3.0625 -1.75,-4.96875 -0.375,-1.90625 -0.5,-3.96875 -0.5,-3.96875 z"
     id="path52" /><path
     style="display:inline;fill:#1d3244;fill-opacity:1;stroke:none;stroke-opacity:1"
     d="m 36.102431,54.437288 c -1.080596,-0.116405 -2.336802,-0.146128 -3.260574,-0.531093 -0.488408,-0.174472 -0.944119,-0.295979 -1.463373,-0.494042 -0.897057,-0.270441 -3.065685,0.449406 -3.259369,-0.309069 1.396057,-0.204968 2.689722,-0.730776 1.716039,-2.263226 -0.271198,-0.410589 -0.434815,-1.011842 -0.66955,-1.38063 -0.394081,-0.587917 -0.413706,-1.582418 -1.353365,-1.461615 -0.906515,-0.204583 -1.702322,-0.476277 -2.397712,-1.156978 -0.571784,-0.341678 -2.051747,-1.620942 -2.671805,-0.855728 0.353277,0.732108 0.971969,2.097149 -0.344638,1.047039 -0.92361,-0.812964 -1.748428,-1.218383 -2.048176,-1.021592 -0.633666,-0.724507 -1.320369,-1.99951 -1.759993,-1.51538 -0.79185,-1.241754 -1.378623,-2.184077 -1.972681,-3.466641 -0.413004,-0.564113 -0.621095,-1.198722 -0.748321,-1.862621 -0.47837,-0.997502 0.339567,-2.106356 0.294889,-2.773768 -0.115234,-0.441492 -0.520761,-1.110823 -0.781159,-1.524884 -0.710551,-1.333817 -1.592829,-2.610213 -2.201114,-4.034238 -0.295644,-0.917239 -0.368363,-2.352082 -0.120286,-3.180279 0.05927,-1.025786 1.0315,-1.505131 1.163622,-2.547379 -0.09517,-1.021231 -0.465836,-1.689839 -0.746253,-2.605228 -0.110144,-0.630801 -0.528985,-1.180065 -0.615134,-1.919345 -0.595879,-1.441589 -1.181747,-3.081284 -1.373658,-4.750027 -0.305898,-1.430005 -0.138377,-3.051458 0.222166,-4.310426 0.55274,-1.8027612 2.514042,-0.947674 2.99314,0.294795 0.969788,1.589379 2.393744,3.086134 3.844986,4.395192 1.324942,1.289696 2.862128,2.47505 4.167484,3.604271 1.630664,1.131456 2.704809,2.982967 4.450902,3.909593 1.921537,0.856106 4.106258,0.90227 6.230126,0.65535 1.161303,-0.297285 2.327191,-0.626198 3.31553,-1.400505 1.03843,-0.640599 1.73614,-1.754697 1.933503,-2.827011 0.242492,-1.089193 0.728136,-2.113355 1.001006,-3.14178 0.321706,-0.812078 0.61316,-1.310161 1.159682,-2.136141 0.65498,-1.315559 1.880812,-1.612346 2.399903,-2.36289 1.276665,-0.913953 3.675322,-0.532612 3.854814,-2.6110633 1.3823,-0.4443933 2.536082,1.9873183 3.469267,3.0269953 0.107211,0.888314 2.679005,2.728493 1.412097,3.151786 -1.22781,-0.634172 -1.842559,0.74092 -1.811656,1.641548 -0.330337,1.050158 -1.866016,0.73711 -2.158573,1.473008 -0.698556,1.463239 -0.522617,3.403206 -0.136984,4.918396 0.118639,1.312147 0.475995,2.568764 0.595066,3.853651 0.173986,1.69545 0.520863,3.400275 0.30697,5.129975 -0.102152,1.184436 -0.330854,2.386504 -0.599249,3.424981 -0.395111,0.905343 -0.61283,1.621495 -1.306421,2.41922 -0.971875,1.316822 -2.325913,2.520762 -3.845265,3.267214 -1.211437,0.544491 -2.494281,1.038133 -3.766654,1.408871 -0.97124,0.226414 -1.977371,0.527394 -2.896871,0.674403 -1.044439,0.420302 -2.609299,0.03026 -3.099108,1.223274 -0.973026,1.227227 -2.707751,1.807353 -3.713131,2.751022 0.327038,0.892482 0.623162,1.604125 1.065701,2.440561 0.175787,0.325811 0.765995,1.519563 1.749763,1.727053 -1.409072,0.632548 2.361435,0.214353 2.86661,1.046685 0.292972,0.05415 1.65047,1.169886 0.907807,0.958696 z M 25.832435,44.272609 c 1.223998,-0.235565 2.560387,-0.292309 3.798812,-0.506909 0.930575,-0.274199 2.136856,-0.4576 3.005002,-0.920528 0.933484,-0.241186 2.069238,-0.85642 2.734455,-1.288188 0.526462,-0.286677 1.320703,-0.60727 1.6425,-0.998638 1.175939,-0.81365 2.204179,-1.876847 3.187234,-3.047027 0.736277,-1.325563 0.992764,-0.681624 0.200098,0.155819 -0.721271,1.157155 -1.897593,2.456225 -3.090828,3.361134 -1.458459,0.541013 -2.698869,2.774975 -0.28569,2.345485 1.02216,-0.149952 2.165123,-0.375408 3.072278,-0.714369 0.826324,-0.127821 2.916119,-1.282874 0.623767,-0.762196 -1.00778,0.07712 0.750124,-0.571359 1.07605,-0.966263 1.280748,-0.954983 2.450944,-2.200352 3.147864,-3.627951 0.697575,-1.130782 1.061243,-2.40595 1.353467,-3.67627 0.398519,-1.918311 0.349844,-4.029763 0.09229,-5.981862 -0.379667,-1.1999 0.08059,-1.220928 0.31029,-0.145254 0.328697,0.872476 0.542808,2.044987 0.70758,3.110932 0.331527,1.815525 0.254617,3.801382 -0.175399,5.516183 -0.221204,1.121643 0.509155,0.07966 0.426595,-0.530744 0.36138,-0.978063 0.386055,-2.100069 0.497335,-3.216357 -0.01746,-1.922052 -0.197499,-3.794801 -0.55017,-5.609045 -0.201206,-1.385657 -0.554878,-2.820006 -0.620013,-4.252591 -0.300857,-1.331791 -0.101239,-2.766975 -0.656077,-4.018348 -0.265177,-0.96178 -1.319556,0.548522 -1.642113,-0.926003 -0.343721,-0.719074 -0.234976,-2.654028 0.217173,-0.807231 0.734642,1.802702 1.080267,-0.361101 2.266688,-0.245682 1.420938,-0.296109 -1.9011,1.336031 0.226012,1.327715 1.215188,0.02998 1.927918,-1.394267 1.769139,-2.540786 0.662602,-0.147817 3.919522,0.01081 1.594868,-0.900972 -1.160496,0.32188 -0.657645,-0.752671 -1.292894,-1.292854 -0.914534,-1.139363 -2.503125,-1.227443 -3.833541,-0.927794 -0.510863,0.291536 -1.576677,0.205882 -1.804268,0.721681 -1.048275,0.466245 -2.238421,1.874706 -2.733694,2.711466 -0.789691,1.191203 -1.186315,2.652008 -1.602713,3.890669 -0.302035,1.150977 -0.49229,2.549469 -1.603558,3.359342 -2.607041,1.665477 1.403389,0.639062 2.20836,1.250565 -1.083917,-0.07836 -2.19386,0.281721 -3.145937,0.468016 -0.989639,0.352485 -2.095205,0.790412 -3.103137,1.165539 -1.178115,0.721253 -2.621819,1.037388 -3.508323,1.865574 -0.846401,0.320888 -1.46911,0.957111 -2.334064,1.277701 -0.798297,0.582865 -1.382107,0.684917 -2.469599,1.371166 -0.893888,0.340094 -1.830573,0.812544 -2.848948,0.991464 -1.643936,0.204005 -3.325116,0.193317 -4.567603,-0.902965 -0.708764,-0.651858 -1.788872,-2.306521 -1.476618,-0.214093 0.201434,1.014627 0.333712,1.816009 0.69557,2.798363 0.609816,1.416113 1.81895,2.612592 3.467383,2.926483 1.095252,0.239655 1.420564,0.498935 -0.122473,0.31311 -2.141429,-0.888658 -1.979465,2.124894 -1.219872,3.295372 0.778263,1.035898 1.808243,1.453134 2.984482,1.79772 1.703708,0.612647 -1.470312,-0.167414 -0.900825,0.845129 0.305551,0.780805 1.12955,1.431091 1.832134,1.763521 0.661121,0.345081 1.618496,0.590196 2.450928,0.390771 z m -2.567262,-2.723061 c 0.56569,-0.06179 -0.186003,0.172582 0,0 z m 4.900082,-0.0068 c -1.773053,-0.0466 0.440096,-0.531677 0.955166,-0.688564 0.96206,-0.384268 2.058348,-0.614009 2.820056,-1.159187 1.575181,-0.567874 2.959423,-1.546354 4.308899,-2.605714 1.482732,-1.262154 2.890149,-2.750458 3.826211,-4.435901 0.785422,-1.101694 1.309476,-2.285947 1.92536,-3.509579 0.560253,0.374345 -0.522106,2.398191 -0.736901,3.221176 -0.172419,0.498644 -0.386071,0.851721 -0.645673,1.302641 -0.581711,1.071507 -1.258015,2.036617 -2.092276,2.972252 -0.825596,0.985217 -1.935071,1.955375 -3.187515,2.741706 -0.979844,0.684157 -1.062906,0.443466 -1.702936,1.007646 -0.760181,0.175765 -1.346828,0.54936 -2.01923,0.667525 -1.042804,0.236238 -2.290534,0.550715 -3.451161,0.485999 z m -1.174795,-0.0912 c 0.565691,-0.06179 -0.186002,0.172581 0,0 z m 14.155225,-5.222402 c 0.484647,-0.531823 -0.234986,0.574256 0,0 z m -14.46127,-0.544007 c -0.234299,-0.508964 2.281038,-0.319358 2.844219,-0.773529 0.702297,-0.04847 1.418037,-0.40238 1.891727,-0.518229 1.075827,-0.421427 2.154845,-0.966821 3.160839,-1.522705 1.314173,-0.912022 2.630524,-2.052383 3.553555,-3.313794 1.14441,-0.916373 -0.730687,2.555832 -1.511194,2.427315 0.42418,0.521 -1.245503,0.957027 -0.747216,1.019765 -1.051753,0.835207 -2.229599,1.626635 -3.532334,1.974721 -1.677989,0.654299 -3.77946,0.935206 -5.65959,0.706479 z m 5.199569,-1.186256 c -0.483659,-0.167318 -0.06991,0.201794 0,0 z m 4.634143,-2.059053 c -0.191872,-0.284458 -0.438586,0.16836 0,0 z m -10.587806,3.135526 c -0.813182,-0.428389 0.992738,0.304196 0,0 z m 18.479532,-19.93778 c 0.300966,-0.32657 -0.0043,0.329636 0,0 z m 2.206775,-0.949372 c -0.685726,-0.525762 1.155936,-0.619872 0.376627,-1.055659 -1.020052,0.15947 0.710758,-1.196327 0.928647,0.11966 -0.957314,0.255148 0.06702,1.656317 -1.305274,0.935999 z M 38.536591,39.87705 c -0.424226,-0.06544 -0.310572,0.719001 0,0 z M 16.65364,34.35699 c 0.29798,-1.179819 -0.349232,-2.246513 -0.51481,-3.369884 -0.214796,-1.101818 -0.17437,-3.754866 0.345178,-4.076882 0.684135,1.408418 1.554733,2.737769 2.965236,3.453189 0.853624,0.300768 1.982088,0.517903 3.001011,0.24932 0.725133,-0.160297 1.451837,-0.439744 2.196995,-0.67714 0.63789,-0.281031 1.123171,-0.693949 1.842604,-0.905829 0.586008,-0.410843 1.42759,-0.827596 2.223643,-1.231629 0.588081,-0.491182 1.336655,-0.749402 1.714179,-1.497015 C 29.765662,25.036978 28.166103,24.854208 26.945525,24.611663 25.848717,24.19778 24.739603,24.13358 23.606923,23.908454 22.586507,23.78409 22.672,23.455874 23.375514,23.23145 24.938317,22.550362 22.949915,20.850739 22.107097,20.189322 21.47394,19.369544 20.387914,18.882764 19.62746,18.22316 c -0.557509,-0.371586 -2.2815,-0.775589 -2.003499,0.733502 0.152928,0.743708 0.560781,1.228685 0.698273,1.749831 1.008046,1.362118 -1.338811,-0.117775 -1.659916,-0.915729 -0.907017,-0.957254 -1.566863,-2.186122 -1.9585,-3.351116 -0.402987,-0.669409 -0.453411,-1.254143 -0.770896,-1.924432 -0.183739,-0.493842 -0.308198,-1.17165 -0.595141,-1.665845 0.02573,-0.674845 -0.794163,-1.845694 -1.097842,-0.793236 -0.334007,1.148162 -0.263272,2.514549 -0.105044,3.746125 0.04726,0.949131 0.378319,1.895414 0.645464,2.678232 0.175336,0.61501 0.475601,1.190467 0.630952,1.917485 0.425292,0.604839 0.429007,1.760444 0.939532,2.371504 -0.0042,1.518545 2.559852,0.58048 0.972827,2.07506 -0.378571,0.819816 -1.200773,1.631604 -1.393184,2.430201 -0.463269,0.664085 -0.463713,1.825015 -0.328872,2.716148 0.329744,0.616529 0.428195,1.332728 0.987023,2.018264 0.334688,0.698941 0.892371,1.924174 1.609892,2.410885 0.100328,0.228294 0.339247,0.403163 0.455111,-0.06305 z m 10.700914,-5.367908 c -0.693631,0.238441 0.03847,0.184319 0,0 z M 50.374731,12.937384 c -0.314111,-0.386045 0.107271,0.486061 0,0 z M 15.146743,12.657999 c -0.485221,-0.424741 -0.200625,0.214022 0,0 z m 21.701153,40.968229 c -1.121003,-0.392858 -2.700437,-1.007973 -3.711938,-1.230204 1.331144,-0.02297 3.077837,-0.02424 3.836938,1.205141 l -0.02773,0.165634 -0.09727,-0.140564 z m 3.147291,-0.838935 c -1.114827,-0.08419 -2.350197,-0.189649 -3.335829,-0.538788 -0.794531,-0.618932 -1.993522,-0.146346 -2.984212,-0.347946 -2.454779,-0.462824 2.128433,-0.0092 1.044113,-1.513206 -0.214515,-0.749272 -0.619757,-1.415814 -0.893886,-2.191302 0.0408,-1.547508 -2.815145,-0.446124 -0.945767,-1.54815 0.326403,-0.904107 2.347615,-2.142585 2.40247,-1.262959 -1.089277,1.157971 -1.526284,2.737473 -0.153128,3.994823 -0.259734,1.104753 2.070255,1.741096 1.765528,1.793189 -1.71905,0.242703 1.923391,0.204892 2.314708,0.865244 0.322549,-0.0097 1.339689,0.826608 0.786003,0.749095 z m 0.614092,-0.681153 c -1.0959,-0.249937 -1.862713,-0.806154 -2.939256,-1.011951 1.105221,-0.255498 1.8157,0.07043 2.728111,0.581017 0.261516,-0.177396 0.617056,1.100408 0.211145,0.430934 z"
     id="path47"
     sodipodi:nodetypes="ccccccccccccccccccccccccccccccccccccccccccccccccccccsccccccccccccccccccccccccccccccccccccccccccccccccccsscccccccccccccccccccsccccccccscccccccccccccccccccccccccccccccccccccccccccccccccccsccccsccccccccccccccc" /><path
     d="m 36.08381,54.413508 c -1.080596,-0.116405 -2.336802,-0.146128 -3.260574,-0.531093 -0.488408,-0.174472 -0.944119,-0.295979 -1.463373,-0.494042 -0.897057,-0.270441 -3.065685,0.449406 -3.259369,-0.309069 1.396057,-0.204968 2.689722,-0.730776 1.716039,-2.263226 -0.271198,-0.410589 -0.434815,-1.011842 -0.66955,-1.38063 -0.394081,-0.587917 1.352326,-2.138604 0.346946,-1.194935 0.327038,0.892482 0.623162,1.604125 1.065701,2.440561 0.175787,0.325811 0.765995,1.519563 1.749763,1.727053 -1.409072,0.632548 2.361435,0.214353 2.86661,1.046685 0.292972,0.05415 1.65047,1.169886 0.907807,0.958696 z m 0.745465,-0.81106 c -1.121003,-0.392858 -2.700437,-1.007973 -3.711938,-1.230204 1.331144,-0.02297 3.077837,-0.02424 3.836938,1.205141 l -0.02773,0.165634 -0.09727,-0.140564 z m 3.147291,-0.838935 c -1.114827,-0.08419 -2.350197,-0.189649 -3.335829,-0.538788 -0.794531,-0.618932 -1.993522,-0.146346 -2.984212,-0.347946 -2.454779,-0.462824 2.128433,-0.0092 1.044113,-1.513206 -0.214515,-0.749272 -0.619757,-1.415814 -0.893886,-2.191302 0.0408,-1.547508 -2.815145,-0.446124 -0.945767,-1.54815 0.326403,-0.904107 2.347615,-2.142585 2.40247,-1.262959 -1.089277,1.157971 -1.526284,2.737473 -0.153128,3.994823 -0.259734,1.104753 2.070255,1.741096 1.765528,1.793189 -1.71905,0.242703 1.923391,0.204892 2.314708,0.865244 0.322549,-0.0097 1.339689,0.826608 0.786003,0.749095 z m 0.614092,-0.681153 c -1.0959,-0.249937 -1.862713,-0.806154 -2.939256,-1.011951 1.105221,-0.255498 1.8157,0.07043 2.728111,0.581017 0.261516,-0.177396 0.617056,1.100408 0.211145,0.430934 z"
     style="display:inline;fill:#f6a540;fill-opacity:1;stroke:none;stroke-opacity:1"
     id="path1-8" /><path
     style="fill:#f6a540;fill-opacity:1;stroke:none;stroke-width:0.3;stroke-opacity:1"
     d="m 50.125,14.3125 c 0,0 -1.15625,1.0625 -1,1.0625 0.15625,0 2.53125,-0.28125 2.53125,-0.28125 l -0.4375,-0.6875 z"
     id="path53" /></g></svg>
