<?xml version="1.0" encoding="UTF-8" standalone="no"?>
<!-- Generator: Adobe Illustrator 27.5.0, SVG Export Plug-In . SVG Version: 6.00 Build 0)  -->

<svg
   version="1.1"
   x="0px"
   y="0px"
   viewBox="0 0 64 64"
   xml:space="preserve"
   id="svg35"
   sodipodi:docname="Sea Animal Spawner.svg"
   width="64"
   height="64"
   inkscape:version="1.3.2 (091e20e, 2023-11-25, custom)"
   xmlns:inkscape="http://www.inkscape.org/namespaces/inkscape"
   xmlns:sodipodi="http://sodipodi.sourceforge.net/DTD/sodipodi-0.dtd"
   xmlns="http://www.w3.org/2000/svg"
   xmlns:svg="http://www.w3.org/2000/svg"
   xmlns:rdf="http://www.w3.org/1999/02/22-rdf-syntax-ns#"
   xmlns:cc="http://creativecommons.org/ns#"
   xmlns:dc="http://purl.org/dc/elements/1.1/">
   <title id="title1">Sea Animal Spawner</title>
<sodipodi:namedview
   id="namedview35"
   pagecolor="#ffffff"
   bordercolor="#000000"
   borderopacity="0.25"
   inkscape:showpageshadow="2"
   inkscape:pageopacity="0.0"
   inkscape:pagecheckerboard="true"
   inkscape:deskcolor="#d1d1d1"
   inkscape:zoom="32"
   inkscape:cx="36.65625"
   inkscape:cy="27"
   inkscape:window-width="1920"
   inkscape:window-height="1200"
   inkscape:window-x="0"
   inkscape:window-y="0"
   inkscape:window-maximized="0"
   inkscape:current-layer="g73"
   inkscape:clip-to-page="false" />
<g
   inkscape:groupmode="layer"
   id="layer1"
   inkscape:label="signage layer"
   style="display:inline"
   transform="translate(-0.19517359,-0.04920669)"><g
     id="g56"><path
       d="M 32.681641,4.2929687 C 31.843301,4.2929535 31.475607,4.8974397 30.873047,5.5 l -1.806641,1.8066406 -1.808594,1.8085938 -1.808593,1.8066406 -7.230469,7.230469 -7.230469,7.230468 -1.8066404,1.808594 -1.8085937,1.806641 -1.8066407,1.808594 c -0.6025603,0.60256 -0.9472814,0.956444 -0.9472656,1.808593 1.52e-5,0.824531 0.3056193,1.165038 0.8886719,1.748047 l 1.7480469,1.75 1.75,1.748047 1.7480466,1.75 6.998047,6.996094 6.996094,6.996094 1.75,1.748046 1.748047,1.75 1.75,1.748047 c 0.583052,0.58301 0.923516,0.957047 1.748047,0.957032 0.852089,-1.5e-5 1.206076,-0.413108 1.808593,-1.015625 l 1.806641,-1.806641 1.808594,-1.808594 1.80664,-1.80664 7.230469,-7.230469 7.230469,-7.230469 1.80664,-1.806641 1.808594,-1.808593 1.806641,-1.806641 c 0.602518,-0.602517 0.91014,-0.956505 0.910156,-1.808594 1.5e-5,-0.82453 -0.268553,-1.164993 -0.851562,-1.748047 l -1.748047,-1.75 -1.75,-1.75 -1.748047,-1.748046 -6.996094,-6.996094 -6.996094,-6.998047 -1.75,-1.7480469 -1.748047,-1.75 -1.75,-1.7480469 C 33.846678,4.8583535 33.519981,4.292984 32.681641,4.2929687 Z"
       style="fill:#fffdf8;fill-opacity:1;stroke:none;stroke-width:0.249751"
       id="path56"
       inkscape:label="body" /><path
       d="M 32.793612,0.37647838 C 31.839909,0.37646359 31.420646,1.1487382 30.734164,1.8351778 l -2.059447,2.0593188 -2.059446,2.059319 -2.059447,2.0593189 -8.237788,8.2372765 -8.2377883,8.237274 -2.059447,2.05932 -2.059447,2.059318 c 0,0 -1.3729647,1.372879 -2.0594469,2.059319 -0.6864824,0.68644 -1.19767362,1.088517 -1.19768862,2.059319 -1.458e-5,0.936605 0.46279982,1.324559 1.12507902,1.986838 0.6622792,0.662279 1.9868375,1.986838 1.9868375,1.986838 l 1.9868374,1.986837 1.9868375,1.986838 7.9473504,7.947349 7.947349,7.94735 1.986837,1.986838 1.986838,1.986837 c 0,0 1.324558,1.324559 1.986837,1.986838 0.66228,0.662279 1.050234,1.194397 1.986838,1.194411 0.970803,1.5e-5 1.372965,-0.580453 2.059447,-1.266893 0.686482,-0.686439 2.059446,-2.059318 2.059446,-2.059318 l 2.059448,-2.059319 2.059447,-2.05932 8.237788,-8.237275 8.237788,-8.237275 2.059447,-2.05932 2.059446,-2.059319 c 0,0 1.372965,-1.372879 2.059447,-2.059318 0.686482,-0.68644 1.16255,-1.088517 1.162566,-2.059319 1.5e-5,-0.936605 -0.427677,-1.324559 -1.089956,-1.986838 -0.662279,-0.662279 -1.986838,-1.986837 -1.986838,-1.986837 L 58.622499,25.604746 56.635661,23.617908 48.688311,15.670559 40.740961,7.7232088 38.754123,5.7363714 36.767286,3.7495339 34.780449,1.7626963 C 34.11817,1.1004171 33.747315,0.37649317 32.793612,0.37647838 Z M 32.680919,4.2920145 c 0.838341,1.53e-5 1.166022,0.565487 1.749032,1.1485403 l 1.749032,1.7491597 1.749031,1.7491603 1.749032,1.7491592 6.996126,6.996638 6.996127,6.99664 1.749032,1.749159 1.749031,1.74916 c 0,0 1.166021,1.166106 1.749032,1.749159 0.58301,0.583054 0.852165,0.924629 0.85215,1.74916 -1.6e-5,0.852089 -0.308154,1.205036 -0.910673,1.807554 -0.602518,0.602518 -1.807555,1.807555 -1.807555,1.807555 l -1.807554,1.807554 -1.807555,1.807556 -7.230219,7.230218 -7.230218,7.230219 -1.807554,1.807555 -1.807555,1.807555 c 0,0 -1.205036,1.205036 -1.807555,1.807554 -0.602518,0.602518 -0.955465,1.015114 -1.807555,1.015129 -0.824531,1.5e-5 -1.166106,-0.373595 -1.749159,-0.956605 -0.583053,-0.583011 -1.74916,-1.749032 -1.74916,-1.749032 l -1.74916,-1.749032 -1.74916,-1.749031 -6.996638,-6.996127 -6.99664,-6.996127 -1.7491588,-1.749031 -1.7491601,-1.749032 c 0,0 -1.1661064,-1.166022 -1.7491596,-1.749032 -0.5830532,-0.58301 -0.887386,-0.9245 -0.8874012,-1.749031 -1.58e-5,-0.85215 0.3433633,-1.205122 0.9459243,-1.807683 0.6025609,-0.602561 1.8076828,-1.807682 1.8076828,-1.807682 l 1.8076824,-1.807684 1.8076832,-1.807682 7.230731,-7.23073 7.230731,-7.230732 1.807683,-1.8076825 1.807682,-1.8076832 1.807683,-1.8076826 c 0.602561,-0.6025609 0.969342,-1.2070785 1.807682,-1.2070632 z"
       style="fill:#f6c840;fill-opacity:1;stroke:#1d3244;stroke-width:0.249751;stroke-opacity:1"
       id="path55"
       inkscape:label="holder" /></g></g><metadata
   id="metadata35"><rdf:RDF><cc:Work
       rdf:about=""><cc:license
         rdf:resource="http://artlibre.org/licence/lal" /><dc:creator><cc:Agent><dc:title>Tigon Trollhammer</dc:title></cc:Agent></dc:creator><dc:title>Sea Animal Spawner</dc:title></cc:Work><cc:License
       rdf:about="http://artlibre.org/licence/lal"><cc:permits
         rdf:resource="http://creativecommons.org/ns#Reproduction" /><cc:permits
         rdf:resource="http://creativecommons.org/ns#Distribution" /><cc:permits
         rdf:resource="http://creativecommons.org/ns#DerivativeWorks" /><cc:requires
         rdf:resource="http://creativecommons.org/ns#ShareAlike" /><cc:requires
         rdf:resource="http://creativecommons.org/ns#Notice" /><cc:requires
         rdf:resource="http://creativecommons.org/ns#Attribution" /></cc:License></rdf:RDF></metadata><g
   id="g587"
   transform="matrix(-0.10777848,0,0,0.10777848,48.236263,31.643092)"
   style="display:inline;fill:#000000"
   inkscape:label="shark"><path
     style="display:inline;fill:#cccccc"
     d="m 145.122,116.284 c -2.315,-1.003 -4.596,-2.112 -6.465,-3.861 -1.658,-1.553 -3.123,-3.281 -4.57,-5.032 -0.134,-0.164 -0.022,-0.442 0.145,-0.601 -0.133,-0.271 -0.258,-0.551 -0.364,-0.844 -0.612,-1.692 -0.659,-4.323 -2.212,-5.436 -2.366,-0.119 -4.728,0.231 -7.112,0.595 -3.408,0.521 -6.834,0.725 -10.286,0.669 -3.774,-0.06 -7.552,-0.589 -11.326,-0.376 -1.426,0.08 -2.965,0.156 -4.317,0.644 -0.535,0.192 -1.767,0.677 -1.747,1.306 3.268,0.997 6.37,2.074 8.945,4.513 1.746,1.654 3.082,3.632 4.523,5.521 2.657,2.099 5.399,3.913 8.543,5.473 4.325,2.146 9.219,3.417 13.938,4.291 1.532,0.284 3.064,0.559 4.605,0.788 2.798,0.185 5.597,0.147 8.351,-0.178 3.477,-0.412 6.909,-1.249 10.253,-2.275 0.288,-0.087 0.592,-0.179 0.905,-0.271 -1.5,-0.647 -2.985,-1.319 -4.478,-1.98 -2.415,-1.067 -4.913,-1.9 -7.331,-2.946 z"
     id="path50" /><path
     style="display:inline;fill:#1c2b32;fill-opacity:1"
     d="m 145.122,116.284 c -2.315,-1.003 -4.596,-2.112 -6.465,-3.861 -1.658,-1.553 -3.123,-3.281 -4.57,-5.032 -0.134,-0.164 -0.022,-0.442 0.145,-0.601 -0.133,-0.271 -0.258,-0.551 -0.364,-0.844 -0.612,-1.692 -0.659,-4.323 -2.212,-5.436 -2.366,-0.119 -4.728,0.231 -7.112,0.595 -3.408,0.521 -6.834,0.725 -10.286,0.669 -3.774,-0.06 -7.552,-0.589 -11.326,-0.376 -1.426,0.08 -2.965,0.156 -4.317,0.644 -0.535,0.192 -1.767,0.677 -1.747,1.306 3.268,0.997 6.37,2.074 8.945,4.513 1.746,1.654 3.082,3.632 4.523,5.521 2.657,2.099 5.399,3.913 8.543,5.473 4.325,2.146 9.219,3.417 13.938,4.291 1.532,0.284 3.064,0.559 4.605,0.788 2.798,0.185 5.597,0.147 8.351,-0.178 3.477,-0.412 6.909,-1.249 10.253,-2.275 0.288,-0.087 0.592,-0.179 0.905,-0.271 -1.5,-0.647 -2.985,-1.319 -4.478,-1.98 -2.415,-1.067 -4.913,-1.9 -7.331,-2.946 z"
     id="path68" /><path
     style="display:inline;fill:#cccccc"
     d="m 324.354,27.529 c -3.915,1.252 -7.837,2.482 -11.726,3.81 -7.608,2.596 -15.198,5.513 -22.098,9.691 -3.611,2.187 -7.063,4.657 -10.155,7.538 -3.201,2.986 -5.894,6.382 -8.733,9.697 -2.396,2.799 -4.978,5.922 -8.153,7.875 -0.729,0.448 -1.548,0.878 -2.401,1.192 -0.337,0.249 -0.68,0.488 -1.032,0.718 -0.419,0.051 -0.849,0.084 -1.294,0.092 -2.118,0.041 -4.202,-0.168 -6.282,-0.46 -0.059,0.021 -0.118,0.03 -0.174,0.023 -4.11,-0.45 -8.149,-1.303 -12.187,-2.173 -2.727,-0.588 -5.958,-0.797 -8.526,-1.935 -1.827,-0.808 -3.326,-2.406 -2.886,-4.553 0.477,-2.325 2.133,-4.183 2.709,-6.454 -3.311,0.401 -6.155,1.766 -9.125,3.188 -0.215,0.104 -0.447,0.219 -0.693,0.339 -1.205,0.755 -2.412,1.472 -3.666,2.048 -2.32,-0.699 -4.631,-1.438 -6.962,-2.172 -2.618,-0.825 -5.2,-1.893 -7.798,-2.807 -2.789,-0.98 -5.628,-1.831 -8.373,-2.935 -2.573,-1.032 -5.296,-1.594 -7.893,-2.542 -2.667,-0.973 -5.37,-1.731 -8.175,-2.176 -2.984,-0.474 -6.085,-0.997 -9.181,-1.349 -0.731,-0.576 -1.43,-1.199 -2.08,-1.892 -1.849,-1.967 -2.696,-5.383 -3.017,-8 -0.371,-3.041 -0.171,-6.227 0.319,-9.25 0.244,-1.504 -0.165,-3.092 1.157,-4.262 0.354,-0.312 0.729,-0.578 1.077,-0.869 0.031,-0.101 0.059,-0.206 0.078,-0.31 0.224,-1.205 -0.632,-1.852 -0.981,-2.849 -0.199,-0.575 0.549,-1.648 0.682,-2.102 0.371,-1.267 0.761,-2.563 0.917,-3.879 0.127,-1.075 0.127,-2.109 0.016,-3.127 -0.465,-0.401 -0.977,-0.5 -1.506,-0.418 -1.072,-0.36 -2.601,-0.104 -3.591,0.097 -6.662,1.351 -12.883,4.407 -18.58,8.034 -2.865,1.823 -5.665,3.808 -8.132,6.146 -2.692,2.553 -5.137,5.41 -7.641,8.145 -2.439,2.667 -4.876,5.424 -7.631,7.771 -0.62,0.532 -1.297,1.015 -1.993,1.472 -0.58,0.01 -1.162,0.006 -1.745,-0.029 -3.004,-0.187 -5.744,-0.029 -8.716,0.457 -3.022,0.493 -6.067,0.661 -9.112,0.954 -3.323,0.32 -6.622,0.919 -9.927,1.393 -12.271,1.762 -24.409,4.568 -36.196,8.438 -5.752,1.889 -11.441,4.174 -17.125,6.285 -2.899,1.075 -5.801,2.17 -8.727,3.173 -2.953,1.013 -5.594,2.895 -8.469,4.102 -2.56,1.075 -7.189,2.783 -8.652,5.667 0.179,1.283 0.265,2.613 1.11,3.692 2.059,2.625 5.088,4.467 7.892,6.205 5.054,3.135 11.546,5.521 15.292,10.353 0.767,0.988 1.159,2.137 1.853,3.162 0.899,1.335 2.199,2.167 3.577,2.953 2.834,1.617 5.799,2.979 8.807,4.239 0.225,0.095 0.453,0.187 0.681,0.281 0.582,0.185 1.165,0.366 1.75,0.545 3.288,1.01 6.466,2.349 9.757,3.362 8.93,2.748 18.548,4.982 28.045,5.059 2.507,3.726 5.215,7.073 8.598,10.248 4.215,3.955 9.4,7.121 14.526,9.774 1.663,0.862 3.332,1.713 5.023,2.516 3.162,1.195 6.402,2.141 9.691,2.744 4.155,0.76 8.414,1.021 12.636,1.037 0.363,0.003 0.746,0.008 1.141,0.012 -1.495,-1.26 -2.965,-2.547 -4.45,-3.821 -2.399,-2.059 -4.979,-3.88 -7.392,-5.92 -2.309,-1.953 -4.538,-4.012 -6.065,-6.652 -1.355,-2.344 -2.423,-4.818 -3.462,-7.312 -0.137,-0.33 0.379,-0.756 0.684,-0.684 0.621,0.146 1.211,0.369 1.8,0.603 3.794,0.229 7.67,0.096 11.36,-0.392 5.566,-0.735 11.001,-1.334 16.494,-2.584 5.507,-1.252 11.047,-2.433 16.465,-4.03 4.339,-1.279 8.483,-2.902 12.698,-4.523 2.481,-0.953 4.921,-1.982 7.387,-2.977 2.499,-1.005 5.175,-1.579 7.705,-2.515 5.276,-1.95 10.604,-3.456 16.086,-4.71 2.117,-0.484 4.362,-0.855 6.536,-0.92 2.205,-0.064 4.569,1.334 6.578,2.107 2.373,0.912 4.781,1.761 7.275,2.283 1.223,0.256 4.526,1.74 5.48,0.53 1.099,-1.393 -1.648,-4.249 -2.229,-5.444 -0.599,-1.236 -1.228,-2.41 -1.911,-3.539 0.319,-0.089 0.632,-0.18 0.93,-0.261 2.784,-0.751 5.649,-0.728 8.493,-1.067 2.764,-0.33 5.313,-1.266 8.128,-1.392 3.099,-0.139 6.23,-0.191 9.227,0.725 2.698,0.826 4.938,2.666 6.977,4.544 2.351,2.166 3.854,4.975 5.999,7.327 4.216,4.629 8.393,8.937 13.628,12.435 1.741,1.165 3.532,2.203 5.352,3.181 0.74,0.342 1.488,0.668 2.244,0.976 4.089,1.663 8.356,3.405 12.72,4.592 -1.204,-2.028 -2.142,-4.26 -2.951,-6.17 -0.18,-0.426 -0.35,-0.88 -0.527,-1.34 -0.09,-0.213 -0.186,-0.424 -0.274,-0.639 -0.142,-0.347 -0.288,-0.677 -0.44,-0.995 -0.225,-0.436 -0.476,-0.847 -0.782,-1.203 -0.63,-0.731 -1.342,-1.399 -1.951,-2.146 -0.352,-0.434 -0.597,-0.79 -0.743,-1.139 -0.15,-0.12 -0.295,-0.241 -0.456,-0.359 0.103,-0.307 0.225,-0.611 0.337,-0.919 0.037,-0.214 0.086,-0.439 0.168,-0.699 0.75,-2.424 -0.721,-5.957 -1.508,-8.29 -0.871,-2.585 -1.831,-5.14 -2.679,-7.731 -0.45,-1.383 -0.928,-2.754 -1.161,-4.08 -0.221,-0.479 -0.429,-0.965 -0.611,-1.462 0.14,-1.05 0.432,-2.081 0.936,-3.111 1.163,-2.378 2.537,-4.72 4.014,-6.966 0.985,-1.754 1.982,-3.5 3.031,-5.204 1.322,-2.154 2.722,-4.26 4.089,-6.386 0.629,-0.979 1.757,-2.239 1.973,-3.41 0.197,-1.058 -0.239,-1.893 -0.654,-2.812 -0.125,-0.272 0.24,-0.586 0.456,-0.659 0.305,-0.104 0.614,-0.192 0.912,-0.291 1.065,-0.648 1.73,-1.722 1.391,-3.345 -0.026,-0.104 -0.062,-0.206 -0.097,-0.307 0.79,-0.099 1.479,-0.311 2.198,-0.717 1.206,-0.681 2.058,-2.119 2.461,-3.404 1.233,-3.938 6.209,-5.413 9.063,-8.055 1.969,-1.821 5.152,-4.5 5.339,-7.431 -0.763,0.257 -1.529,0.489 -2.271,0.726 z"
     id="path123" /><path
     style="display:inline;fill:#1c2b32;opacity:1;fill-opacity:1"
     d="m 324.354,27.529 c -19.03298,5.78845 -39.47995,12.629439 -51.65294,29.490037 -5.05148,7.066577 -12.71475,13.67537 -21.93312,10.499076 C 242.33301,65.684778 221.91082,65.930229 231.416,52.59 219.2234,60.668054 207.27555,55.421473 194.799,50.251 184.35514,43.828796 163.22758,49.58296 164.27742,31.988875 163.30579,23.263549 170.1645,14.121581 166.212,7.226 150.00059,8.217048 136.47013,19.595309 126.43412,31.657312 118.79644,43.381525 103.3354,37.665603 91.622094,41.293375 64.097948,44.98877 37.45502,54.272993 12.680467,66.55399 c -7.4245283,6.890908 12.648259,4.320418 16.628158,8.63251 12.477178,5.319015 25.850344,8.12563 38.435299,13.011754 8.237378,4.014393 21.686939,10.151243 29.210076,6.024746 7.39291,-4.888488 20.59821,-2.530129 29.55247,0.409457 10.24477,1.375283 21.07278,1.036188 30.0709,-1.279582 10.7242,-1.028156 20.39198,-2.513803 32.19263,-3.740875 11.54323,2.060647 22.316,-3.127318 33.5737,-5.521812 9.41115,-1.930992 18.17398,-6.763538 28.30103,-4.362685 13.86715,0.906939 18.76373,15.964834 28.62839,23.347317 5.92644,5.69091 21.09575,13.3743 24.96161,11.44915 -5.23512,-8.89724 -7.6031,-16.164706 -9.61986,-26.21122 -7.63325,-11.442085 3.8052,-21.399217 8.96713,-31.07675 1.80547,-8.550673 6.79309,-14.004276 13.90632,-20.328652 2.56809,-0.808726 13.45106,-11.228613 6.86568,-9.378348 z"
     id="path144"
     sodipodi:nodetypes="cccccccccccccccccccccccc" /><path
     style="display:inline;fill:#1c2b32;opacity:1;fill-opacity:1"
     d="m 91.585,112.687 c -2.818,-3.727 -3.91,-8.223 -6.033,-12.332 -0.725,-1.403 -1.926,-2.912 -3.291,-3.721 -0.845,-0.499 -1.424,-0.959 -2.363,-1.259 -0.76,-0.243 -1.534,-0.46 -2.224,-0.868 -0.017,-0.011 -0.047,0.026 -0.029,0.041 1.128,0.913 2.589,1.238 3.661,2.244 1.663,1.564 2.992,3.14 3.975,5.24 0.921,1.97 2.003,3.88 2.947,5.841 0.873,1.808 1.749,3.581 3.133,5.056 0.111,0.119 0.317,-0.117 0.224,-0.242 z"
     id="path220" /><path
     style="display:inline;opacity:1;fill:#1c2b32;fill-opacity:1;stroke-width:0.94179"
     d="m 44.6,69.868753 c -0.12,-0.01951 -0.096,-0.140141 -0.036,-0.204003 1.193,-1.265703 2.794,-1.664839 4.505,-1.792562 0.699,-0.15788 1.394,-0.259881 2.049,-0.30423 -1.06,-0.691835 -2.253,-1.172571 -3.509,-1.506958 -2.651,0.05233 -4.78,1.3544 -6.934,2.663564 -1.724,1.047509 -4.142,2.485284 -6.276,2.0418 0.24,0.626199 0.597,1.222241 1.065,1.718943 0.662,0.703366 1.548,1.240868 2.576,0.682079 0.522,-0.28383 0.995,-0.628861 1.485,-0.953491 0.088,-0.05588 0.249,-0.09402 0.266,0.03991 0.277,2.192584 2.192,4.32042 4.649,4.830426 0.092,0.01951 0.11,0.102001 0.064,0.168524 -0.523,0.776097 -0.724,1.604525 -0.802,2.459562 1.738,-1.829815 3.549,-3.4166 5.904,-4.70359 1.149,-0.629747 2.295,-1.252399 3.466,-1.839571 -2.396,-1.754423 -5.456,-2.769114 -8.472,-3.300407 z"
     id="path352" /><path
     style="display:inline;fill:#030400"
     d="m 48.522,71.851 c 0.816,2.685 0.24,5.234 -1.282,5.698 -1.527,0.466 -3.426,-1.334 -4.24,-4.018 -0.816,-2.684 -0.242,-5.234 1.282,-5.698 1.524,-0.465 3.424,1.334 4.24,4.018 z"
     id="path356" /><path
     style="display:inline;fill:#343533"
     d="m 47.819,72.205 c 0.567,1.867 0.167,3.639 -0.893,3.963 -1.064,0.323 -2.382,-0.93 -2.951,-2.795 -0.565,-1.867 -0.165,-3.642 0.896,-3.963 1.061,-0.323 2.381,0.928 2.948,2.795 z"
     id="path357" /><path
     style="display:inline;fill:#ffffff"
     d="m 44.511,72.476 c 0.157,0.513 0.047,1.003 -0.246,1.093 -0.293,0.091 -0.657,-0.256 -0.814,-0.771 -0.156,-0.513 -0.046,-1.004 0.247,-1.094 0.293,-0.088 0.655,0.256 0.813,0.772 z"
     id="path358" /><g
     id="g406"
     style="display:inline;fill:#000000"
     inkscape:label="mouth"><path
       style="display:inline;fill:#ffffff"
       d="m 56.778,92.283 c -3.331,-1.118 -6.609,-2.419 -10.013,-3.298 -2.744,-0.708 -5.529,-1.244 -8.242,-2.061 -2.655,-0.142 -5.455,-0.258 -7.996,-0.92 1.403,1.048 2.685,2.214 3.744,3.578 0.166,0.214 0.312,0.436 0.447,0.66 1.057,0.382 2.07,0.812 3.253,0.873 1.857,0.096 3.751,0.011 5.599,0.24 3.31,0.415 6.543,1.221 9.783,2.002 0.189,0.044 0.381,0.091 0.573,0.138 2.616,0.082 5.239,0.651 7.814,0.42 -1.686,-0.327 -3.354,-0.966 -4.962,-1.632 z"
       id="path403" /><path
       style="display:inline;fill:#8d8d8d"
       d="m 63.009,91.457 c -0.45,0.283 -0.897,0.71 -1.276,1.082 -0.447,0.438 -0.846,0.728 -1.424,0.851 -0.589,-0.099 -1.208,-0.323 -1.746,-0.506 -1.544,-0.526 -3.073,-1.097 -4.613,-1.63 -2.928,-1.012 -5.73,-2.118 -8.767,-2.813 -3.11,-0.712 -6.128,-1.521 -9.285,-2.047 -2.797,-0.465 -5.678,-0.822 -8.1,-2.432 -0.037,-0.026 -0.104,0.041 -0.067,0.075 2.027,1.81 4.675,2.501 7.32,2.794 4.492,0.494 8.816,1.665 13.174,2.813 3.657,0.963 7.192,2.639 10.769,3.869 0.225,0.078 0.44,0.149 0.646,0.214 -0.029,0.06 -0.04,0.118 -0.03,0.172 -1.659,-0.096 -3.617,-0.652 -4.598,-0.824 -2.249,-0.394 -4.483,-0.848 -6.73,-1.259 -2.472,-0.45 -5.013,-0.625 -7.509,-0.892 -0.969,-0.104 -1.915,-0.143 -2.892,-0.166 -1.42,-0.035 -2.399,0.265 -3.438,-0.983 -0.036,-0.042 -0.12,0.04 -0.093,0.084 1.233,2.091 3.361,1.312 5.504,1.519 3.177,0.306 6.401,0.592 9.532,1.226 2.861,0.579 5.733,1.005 8.611,1.482 1.066,0.176 3.048,0.662 4.019,-0.177 0.498,-0.248 0.825,-0.821 0.954,-1.906 0.003,-0.019 -0.002,-0.029 -0.002,-0.046 0.046,-0.142 0.095,-0.289 0.141,-0.438 0.023,-0.074 -0.044,-0.098 -0.1,-0.062 z"
       id="path405" /></g><path
     style="display:inline;fill:#394145;opacity:1;fill-opacity:1"
     d="m 128.513,125.774 c -2.309,-1.953 -4.538,-4.012 -6.065,-6.652 -1.355,-2.344 -2.423,-4.818 -3.462,-7.312 -0.096,-0.231 0.131,-0.508 0.379,-0.629 -0.054,-0.354 -0.097,-0.715 -0.114,-1.085 -0.1,-2.133 0.791,-5.128 -0.601,-6.937 -2.684,-0.968 -5.532,-1.404 -8.41,-1.833 -4.116,-0.612 -8.139,-1.589 -12.098,-2.871 -4.329,-1.398 -8.494,-3.329 -12.92,-4.419 -1.672,-0.411 -3.475,-0.868 -5.208,-0.793 -0.687,0.029 -2.279,0.144 -2.482,0.861 3.408,2.283 6.6,4.597 8.691,8.266 1.419,2.49 2.251,5.202 3.233,7.85 2.309,3.314 4.816,6.337 7.882,9.212 4.215,3.955 9.4,7.121 14.526,9.774 1.663,0.862 3.332,1.713 5.023,2.516 3.162,1.195 6.402,2.141 9.691,2.744 4.155,0.76 8.414,1.021 12.636,1.037 0.363,0.003 0.746,0.008 1.141,0.012 -1.495,-1.26 -2.965,-2.547 -4.45,-3.821 -2.4,-2.058 -4.98,-3.88 -7.392,-5.92 z"
     id="path424" /><g
     id="g1"
     inkscape:label="gills"
     style="display:inline"><path
       style="display:inline;opacity:1;fill:#cccccc"
       d="m 75.542,90.931 c -0.754,-2.44 0.057,-4.896 0.354,-7.357 0.242,-2.004 0.621,-4.078 1.048,-6.077 -0.567,1.322 -1.089,2.662 -1.483,4.039 -0.198,0.945 -0.349,1.892 -0.426,2.816 -0.163,1.997 -0.538,3.916 -0.002,5.797 0.157,0.267 0.328,0.527 0.509,0.782 z"
       id="path483" /><path
       style="display:inline;opacity:1;fill:#cccccc"
       d="m 81.781,88.9 c -0.134,-0.975 -0.124,-1.963 -0.085,-2.946 0.004,-0.129 0.01,-0.259 0.017,-0.387 0.013,-0.254 0.023,-0.509 0.036,-0.762 0.046,-1.012 0.035,-1.964 -0.046,-2.931 -0.281,1.61 -0.635,3.211 -0.749,4.84 -0.098,1.393 -0.225,2.651 0.302,3.729 0.486,0.436 0.993,0.848 1.51,1.25 0.006,-0.007 0.01,-0.015 0.016,-0.023 -0.46,-0.874 -0.866,-1.784 -1.001,-2.77 z"
       id="path484" /><path
       style="display:inline;opacity:1;fill:#cccccc"
       d="m 87.104,87.969 c -0.031,-0.516 -0.037,-1.038 -0.031,-1.567 -0.029,-2.068 -0.089,-4.126 -0.213,-6.19 -0.328,1.96 -0.616,4.049 -0.606,6.008 0.011,2.034 -0.137,4.43 1.553,5.861 0.044,0.037 0.099,0.039 0.15,0.021 -0.531,-1.301 -0.802,-2.672 -0.853,-4.133 z"
       id="path485" /><path
       style="display:inline;opacity:1;fill:#cccccc"
       d="m 94.228,91.52 c -1.312,-2.268 -1.261,-5.519 -1.195,-8.212 -0.024,-0.106 -0.049,-0.213 -0.074,-0.318 -0.345,2.716 -0.981,6.755 0.932,8.829 0.138,0.15 0.428,-0.14 0.337,-0.299 z"
       id="path486" /><path
       style="display:inline;opacity:1;fill:#cccccc"
       d="m 98.678,90.916 c 0.071,-0.143 0.137,-0.29 0.194,-0.44 -0.066,-1.345 -0.496,-2.767 -0.738,-4.067 -0.34,-1.834 -0.482,-3.531 -0.456,-5.396 0,-0.065 -0.078,-0.025 -0.087,0.018 -0.532,2.727 -0.54,5.76 0.235,8.507 0.26,0.475 0.546,0.934 0.852,1.378 z"
       id="path487" /></g></g><style
   type="text/css"
   id="style1">.st0 { fill:#58565C; }
.st1 { fill:#949397; }
.st2 { fill:#4F4B4E; }
.st3 { fill:#616064; }
.st4 { fill:#939293; }
.st5 { fill:#A8A6A8; }
.st6 { fill:#A5A5A5; }
.st7 { fill:#A1A3AE; }
.st8 { fill:none; }
.st9 { fill:#4D4C50; }
.st10 { fill:#313033; }
.st11 { fill:#262528; }
.st12 { fill:#313034; }
.st13 { fill:#0D121B; }
.st14 { fill:#79767B; }
.st15 { fill:#5F5D61; }
.st16 { fill:#767677; }
</style><g
   id="g73"
   transform="matrix(-0.03696759,0,0,0.04128161,53.649726,5.3142149)"><path
     d="m 203.064,738.939 c -7.999,-9.33 -33.235,-11.264 -33.235,-11.264 0,0 -16.076,1.253 -17.948,-7.659 -1.872,-8.897 -9.949,-1.872 -10.707,0.975 -0.758,2.847 -4.456,9.036 -12.239,12.935 -25.313,6.499 -59.539,40.925 -70.153,52.112 -2.104,2.228 -3.28,3.528 -3.28,3.528 -11.125,-42.008 56.181,-115.72 64.536,-118.505 4.92,-1.64 11.976,-8.525 16.927,-13.864 3.45,-3.729 5.88,-6.715 5.88,-6.715 l 35.401,18.397 5.632,10.398 c 17.933,19.666 19.186,59.662 19.186,59.662 z"
     id="path1"
     style="display:inline"
     class="st0  st1  st16" /><path
     d="m 150.07,658.373 c 0,0 -73.897,52.762 -91.289,127.665 -2.104,2.228 -3.28,3.528 -3.28,3.528 -11.125,-42.008 56.181,-115.72 64.536,-118.505 4.92,-1.64 11.976,-8.525 16.927,-13.864 4.72,-0.851 9.13,-0.557 13.106,1.176 z"
     id="path2"
     style="display:inline"
     class="st1" /><path
     d="m 362.033,350.623 163.558,-41.724 c 0,0 -19.471,-5.841 -25.591,-12.795 -6.12,-6.954 -59.526,-71.765 -150.763,-69.54 0,0 -26.703,2.782 0,16.133 18.915,14.743 50.069,62.586 12.796,107.926 z"
     id="path3"
     class="st2" /><path
     d="m 934.583,512.752 c -26.493,7.293 -39.976,4.327 -84.681,-9.597 -42.906,-13.364 -53.105,-16.93 -85.922,-7.059 -27.448,8.262 -99.396,36.144 -122.265,45.072 -40.492,3.28 -79.112,5.354 -83.583,5.137 -8.758,-0.418 -131.641,3.342 -148.12,-0.836 -20.238,0.217 -73.217,16.076 -85.115,31.719 0,0 -101.81,73.851 -129.754,82.608 0,0 -16.076,10.228 -19.619,20.439 -5.214,7.721 -22.528,36.314 -22.528,36.314 0,0 -13.771,-14.606 -16.277,-61.349 0,0 31.301,-254.092 290.406,-337.954 247.841,-56.336 428.918,35.046 466.47,148.538 0,0 0.155,0.077 0.433,0.232 9.833,5.615 23.907,18.74 33.717,23.135 18.906,8.449 9.552,22.853 6.838,23.601 z"
     id="path4"
     class="st3" /><path
     d="m 726.701,454.099 c 0,0 -155.477,-99.055 -369.675,35.883 0,0 -139.843,88.872 -162.549,128.51 l 11.508,4.172 -51.738,61.752 40.23,-26.042 c 0,0 241.859,-225.553 486.553,-167.557 l 36.491,-15.855 -12.517,-8.944 z"
     id="path5"
     class="st4" /><path
     class="st5"
     d="m 741.312,479.974 -99.598,41.157 -0.356,18.505 c -11.187,0.913 -22.126,1.717 -32.214,2.398 -25.375,1.733 -45.335,2.739 -50.147,2.739 0,0 0,0 -0.016,0 -0.325,0 -0.588,0 -0.774,-0.016 -0.495,-0.015 -1.331,-0.031 -2.476,-0.031 -4.286,0 -13.105,0.155 -24.261,0.356 -20.084,0.34 -47.609,0.836 -71.685,0.836 -27.681,0 -44.314,-0.665 -49.389,-1.95 l -0.201,-0.046 h -0.201 c -19.372,0.201 -73.48,15.859 -86.183,32.137 -4.858,3.528 -102.305,73.851 -129.135,82.268 l -0.201,0.046 c 0,0 203.852,-235.355 459.213,-179.653 l 27.34,0.387 z"
     id="path6" /><path
     class="st0"
     d="m 659.664,534.209 c 0,0 6.381,35.604 -17.95,62.308 0,0 -8.702,11.405 9.353,6.12 18.055,-5.285 61.448,-41.168 72.574,-75.66 z"
     id="path7" /><path
     class="st6"
     d="M 892.709,467.073 C 891.912,453.448 838.242,373.154 785.76,350.664 718.077,323.086 652.727,301.273 573.275,301.683 c -46.91,0.242 -95.968,5.744 -145.676,17.037 0,0 195.207,-54.882 368.362,46.09 32.962,19.568 46.731,38.803 51.738,50.069 5.007,11.266 8.762,25.452 20.862,34.214 7.302,9.179 11.266,12.1 11.266,12.1 0,0 -11.331,-19.988 -9.805,-27.955 2.4,-1.044 21.279,28.451 22.687,33.835 z"
     id="path8" /><path
     class="st5"
     d="m 928.045,530.292 c -14.427,7.146 -44.655,2.667 -76.636,-6.607 -20.238,-3.543 -88.405,-3.669 -116.364,5.522 -13.709,4.503 -54.386,8.804 -93.331,11.96 22.869,-8.928 94.816,-40.636 122.265,-48.898 15.898,-4.782 18.918,-7.772 30.384,-6.112 7.792,1.128 54.221,2.995 69.285,-4.135 -6.974,7.129 -21.29,9.332 -36.004,12.864 57.612,24.001 114.626,27.652 111.435,5.852 1.379,4.278 -0.24,20.655 -11.034,29.554 z"
     id="path9" /><path
     class="st8"
     d="m 681.03,479.107 -59.895,14.637 -11.991,48.29 c -25.375,1.733 -45.335,2.739 -50.147,2.739 0,0 0,0 -0.016,0 -0.325,0 -0.588,0 -0.774,-0.016 -0.495,-0.015 -1.331,-0.031 -2.476,-0.031 -4.286,0 -13.105,0.155 -24.261,0.356 -20.084,0.34 -47.609,0.836 -71.685,0.836 -27.681,0 -44.314,-0.665 -49.389,-1.95 l -0.201,-0.046 h -0.201 c -19.372,0.201 -73.48,15.859 -86.183,32.137 -4.858,3.528 -102.305,73.851 -129.135,82.268 l -0.201,0.046 c 0,0 203.852,-235.355 459.213,-179.653 z"
     id="path11" /><path
     class="st3"
     d="m 702.506,512.93 c -7.52,5.849 -15.024,8.34 -15.024,8.34 -5.771,1.3 -11.063,5.539 -15.039,9.609 -4.332,4.487 -7.071,8.758 -7.071,8.758 -39.022,64.676 -131.44,88.875 -131.44,88.875 -7.504,0.65 -12.595,0.619 -16.03,0.217 -9.732,-1.13 -6.081,-5.23 -6.081,-5.23 17.53,-8.758 68.637,-79.901 76.358,-90.128 7.721,-10.212 20.857,-10.846 20.857,-10.846 l 29.905,-0.901 c 15.658,-8.348 32.883,-14.968 42.693,-3.679 z"
     id="path12" /><path
     class="st9"
     d="m 672.443,530.879 c -4.332,4.487 -7.071,8.758 -7.071,8.758 -39.022,64.676 -131.44,88.875 -131.44,88.875 -7.504,0.65 -12.595,0.619 -16.03,0.217 52.39,-10.413 79.669,-34.643 88.921,-39.858 9.268,-5.214 27.665,-17.113 44.36,-39.223 8.387,-11.111 15.891,-16.325 21.26,-18.769 z"
     id="path13" /><path
     class="st10"
     d="m 807.281,384.189 c -0.849,-1.611 -0.549,-2.825 -0.095,-3.588 l 0.252,-0.424 0.489,-0.059 c 0.179,-0.021 0.365,-0.032 0.558,-0.032 3.843,0 10.402,4.453 11.32,7.684 0.33,1.161 -0.041,2.172 -1.018,2.776 -2.551,1.342 -9.624,-2.786 -11.506,-6.357 z"
     id="path14" /><path
     class="st6"
     d="m 826.88,387.559 c 0,0 -13.67,9.722 -20.656,-6.053 -5.814,-5.73 -26.764,-20.022 -26.764,-20.022 0,0 25.281,17.595 28.045,18.067 2.764,0.472 3.236,-0.375 2.157,-2.109 -1.079,-1.734 -40.471,-30.028 -56.853,-34.545 0,0 48.375,37.19 50.381,40.024 2.444,4.567 15.461,15.868 28.63,9.518 3.191,-1.709 2.051,-5.857 -4.94,-4.88 z"
     id="path16"
     style="display:inline" /><path
     class="st12"
     d="m 762.382,483.551 c 0,0 -16.899,0.482 -19.506,-9.242 -2.607,-9.724 3.146,-7.235 3.146,-7.235 0,0 6.731,7.627 15.82,5.781 6.293,2.316 9.304,7.415 0.54,10.696 z"
     id="path17" /><path
     class="st13"
     d="m 747.407,469.974 c 0,0 7.818,4.912 12.099,4.014 4.281,-0.898 4.661,1.365 1.753,3.653 -3.711,2.92 -9.902,0.744 -15.91,-5.528 -3.068,-3.55 2.058,-2.139 2.058,-2.139 z"
     id="path18" /><path
     class="st14"
     d="m 747.775,459.101 c 0,0 -14.429,7.82 -3.405,17.528 11.024,9.708 24.333,6.925 24.333,6.925 0,0 -18.193,3.524 -26.504,-6.386 -8.311,-9.91 -9.053,-12.876 5.576,-18.067 z"
     id="path19" /><path
     class="st12"
     d="m 763.979,496.096 c 0,0 36.174,-14.276 69.535,1.028 66.89,28.517 99.722,23.326 105.325,7.945 -12.547,14.437 -41.121,14.995 -100.053,-9.293 -28.988,-9.843 -57.39,-7.854 -74.807,0.32 z"
     id="path21" /><path
     class="st12"
     d="m 892.709,463.193 c 0,0 4.234,21.488 -29.061,18.829 0,0 34.984,12.365 29.061,-18.829 z"
     id="path22"
     style="display:inline" /><path
     class="st16"
     d="m 746.411,464.954 c 0,0 16.18,-1.079 22.292,9.348 l -2.157,-9.38 h 5.393 c 0,10e-4 -8.63,-12.732 -25.528,0.032 z"
     id="path23"
     style="display:inline" /></g></svg>
