<svg xmlns="http://www.w3.org/2000/svg" xml:space="preserve" fill-rule="evenodd" clip-rule="evenodd" viewBox="0 0 64 64">
  <g id="blue">
    <path fill="#57e8f7" d="M32.396 9.346c.685 0 .952.461 1.428.937l1.427 1.428 1.428 1.427 1.427 1.428 5.71 5.71 5.71 5.711 1.428 1.427 1.427 1.428 1.428 1.427c.476.476.695.755.695 1.428 0 .695-.251.983-.743 1.475l-2.95 2.951-1.476 1.475L37.533 49.4l-2.95 2.951-1.476 1.475c-.491.492-.779.828-1.475.828-.673 0-.952-.305-1.427-.78l-2.856-2.855-1.427-1.428-5.711-5.71-5.71-5.71-4.283-4.282c-.476-.476-.724-.755-.724-1.428 0-.695.28-.983.772-1.475l20.655-20.655c.492-.492.791-.985 1.475-.985Z"/>
    <path fill="#1f70d9" d="M9.5 35c2.275.166 4.661.086 7.5-1 .877.674 1.997 1.203 4 1 1.669.747 3.144.252 4.5-1 1.025.601 2.224 1.087 4 1.188 1.287.215 2.495-.278 3.657-1.188 1.263 1.082 3.08 1.543 5.343 1.5 2.361.031 4.207.3 5.5-1.5 1.054-.04 2.071.29 3 1.5 1.282.179 2.455-.001 4.5-1.5l3 .5L30.981 56 9.5 35Z"/>
    <path fill="#1f70d9" fill-rule="nonzero" stroke="#324565" stroke-width="0.2px" d="M32.488 6.15c-.778 0-1.12.63-1.68 1.191l-1.681 1.68-10.085 10.085-6.724 6.723-5.042 5.042c-.56.56-.978.888-.978 1.681 0 .764.378 1.081.919 1.621l4.864 4.865 6.487 6.486 8.108 8.108 1.621 1.622 1.622 1.621c.54.541.857.975 1.621.975.793 0 1.121-.474 1.681-1.034l1.681-1.681 1.681-1.68 18.489-18.489 1.681-1.68c.56-.56.949-.889.949-1.681 0-.764-.349-1.081-.89-1.622l-1.622-1.621-1.621-1.622-14.594-14.594-1.622-1.621-3.243-3.244c-.541-.54-.843-1.131-1.622-1.131Zm-.092 3.196c.685 0 .952.461 1.428.937l1.427 1.428 1.428 1.427 1.427 1.428 5.71 5.71 5.71 5.711 1.428 1.427 1.427 1.428 1.428 1.427c.476.476.695.755.695 1.428 0 .695-.251.983-.743 1.475l-2.95 2.951-1.476 1.475L37.533 49.4l-2.95 2.951-1.476 1.475c-.491.492-.779.828-1.475.828-.673 0-.952-.305-1.427-.78l-2.856-2.855-1.427-1.428-5.711-5.71-5.71-5.71-4.283-4.282c-.476-.476-.724-.755-.724-1.428 0-.695.28-.983.772-1.475l20.655-20.655c.492-.492.791-.985 1.475-.985Z"/>
  </g>
  <g id="white">
    <path fill="#ebebeb" d="M28.215 16.072c.58-.634 1.646-1.486 2.617-1.686.214-.044.666-.124.666-.124l.44.265c.587.556 1.22 1.003 1.851 1.589.216-.139.333-.184.625-.185.238.002.461.058.665.184.152.095.261.25.364.349.626-.241 1.437-.163 2.044-.253.093.06.246.148.246.148l.299.267a3.803 3.803 0 0 1 1.199 2.075c.087.375-.15.323-.751-.209l-1.234-1.202-2.017.35a.721.721 0 0 1-.32.434c-.27.167-.47.038-.896-.04-.271-.107-.43-.17-.628-.462-.072-.106-.159-.355-.238-.481-.329-.022-1.183-.906-2.012-1.732-1.487.842-2.464 1.084-2.92.713Z"/>
    <path fill="#fefffe" d="M34.882 16.204c.41.134.89.764.451.698-.337-.05-.696.206-.901.681-.148.342-.691-.647-.519-1.001.187-.386.513-.526.969-.378Z"/>
    <path fill="#fafafa" d="M34.396 17.684c.111.054.231.045.358-.011.448-.165.774-.641.739-.788a1.366 1.366 0 0 0-.586.042c-.357.163-.508.425-.511.757Z"/>
  </g>
  <g id="black">
    <path d="M34.221 16.57c.066.018.102.092.082.166-.021.073-.09.118-.156.1-.065-.018-.102-.093-.082-.166.021-.074.09-.118.156-.1Zm1.013.018a.14.14 0 0 1 .096.17.138.138 0 1 1-.096-.17Z"/>
  </g>
  <g id="orange">
    <path fill="#f38d33" d="m34.797 16.786.103.423-.183.845.015-.634-.139-.513.204-.121Z"/>
    <path fill="#c56d2b" d="m34.473 17.057.12-.15.139.513-.015.634-.138-.596-.106-.401Z"/>
    <path fill="#c56d2b" d="m34.764 18.067.065.295.2.056.077.236-.243-.155-.001.294-.137-.315-.141.318-.024-.239.128-.162-.147-.284c.062-.093.135-.115.223-.044Z"/>
    <path fill="#c56d2b" d="m33.456 17.623-.296.126-.323.132.266-.005-.073.202.193-.09-.016.282.136-.249-.05-.157.249-.136c.049-.094.03-.137-.086-.105Z"/>
  </g>
  <g id="grey">
    <path fill="#58565c" d="M40.48 28.942c.628.302 1.955 1.058 2.723 2.357-.325-.201-1.358-.805-1.955-.778a.6.6 0 0 1-.375-.232c-.041-.065-.275-.181-.237.056.039.237-.315.327-.315.327s-.52.237-.608.531c0 0-.326-1.011-.118-1.637l.028-.303.406.131c.287.318.554.728.553.873 0 0 .134-.381-.102-1.325Z"/>
    <path fill="#949397" fill-rule="nonzero" d="M40.131 28.788s2.04.766 3.072 2.511l.101.064c-.134-1.136-2.218-2.476-2.421-2.483-.119-.004-.33-.123-.483-.219a.441.441 0 0 0-.269.127Z"/>
    <path fill="#4f4b4e" d="M29.307 22.612a.802.802 0 0 0 .172-.265c.069-.22.635-2.244 2.599-2.873 0 0 .594-.131.142.404-.252.473-.478 1.733.434 2.596a9.343 9.343 0 0 0-1.436-.145c-.674.053-1.312.149-1.911.283Z"/>
    <path fill="#616064" d="M27.792 29.473c-.752-.063-1.724-.137-2.174-.137-.786-.001-.972.165-1.769.821-.829.685-1.09.86-1.719.876-.065.002-.391-.288-.063-.642.17-.183.355-.618.515-.832l.007-.009c-.201-3.123 2.851-6.77 8.629-7.221 6.261.154 9.17 6.28 9.17 6.28.359 1.189.194 1.658.194 1.658.001-.145-.266-.555-.553-.873l.243.078-1.647-1.158.208-.191c-.833-.821-4.597-1.996-4.597-1.996-5.755-1.77-8.194 1.877-8.194 1.877l.567.136-.187.318.261.035-.724.269 1.954.222c.173-.027.386.005.595.052l.645-.202s.285-.083.54.115c.255.198 1.971 1.595 2.422 1.683 0 0 .114.075-.083.176-.07.036-.178.075-.344.115 0 0-2.01.081-3.411-1.084.12.318.366.792.832 1.092 0 0 .286.221-.145.224-.409.003-1.548-.512-2.126-1.232.318-.042.772-.137 1.253-.249a1.762 1.762 0 0 0-.156-.117l-.06-.038a1.344 1.344 0 0 0-.083-.046Z"/>
    <path fill="#939293" d="m26.683 28.493-.261-.035.187-.318-.567-.136s2.439-3.647 8.194-1.877c0 0 3.764 1.175 4.597 1.996l-.208.191 1.647 1.158-1.087-.35s-6.42-4.361-11.37-1.05l-.579.215-.553.206Z"/>
    <path fill="#a8a6a8" d="m25.959 28.762 1.277-.475.579-.215c4.95-3.311 11.37 1.05 11.37 1.05h-.005c-.646-.009-3.342-1.038-3.477-1.09-.414-.312-1.705-.298-2.12-.157l-.004.001-.004.003c-.097.07-.446.212-1.035.42-.513.18-1.104.375-1.535.517-.24.079-.429.141-.52.173-.025.009-.043.015-.053.02-.159.052-.32.099-.482.143a25.455 25.455 0 0 0-.257-.203c-.255-.198-.54-.115-.54-.115l-.645.202c-.209-.047-.422-.079-.595-.052l-1.954-.222Zm2.132.912c-.676.158-1.301.281-1.564.273-.677-.02-2.129.495-2.529.736-.599.472-1.204.811-1.574.74-.309-.141-.488-.539-.496-.657.124.57 1.307.051 2.323-.983-.345.022-.669.075-.881-.051.384.065 1.357-.33 1.513-.417.23-.128.32-.076.701-.075.439 0 1.391.113 2.145.204.051.021.101.048.146.075.104.063.185.129.216.155Z"/>
    <path fill="#313033" d="M22.585 29.479c.003.015.109.565.785.253 0 0-.636.572-.785-.253Zm1.123-2.62c-.008.104-.123.26-.189.246-.026-.008-.043-.031-.046-.062-.009-.088.092-.249.173-.277l.013-.004.011-.002.009.009c.016.015.033.044.029.09Zm1.835 1.577a.224.224 0 0 1 .289.134.226.226 0 0 1-.141.285.224.224 0 0 1-.289-.134.226.226 0 0 1 .141-.285Zm.075.9s-.897-.086-1.473.547c-1.173 1.216-1.919 1.333-2.174.99.395.267 1.009.067 2.05-.984.531-.464 1.154-.627 1.597-.553Z"/>
    <path fill="#909090" d="M28.644 15.648a1.617 1.617 0 0 0-.429.424c.035.118.2.195.721.161.494-.007 1.07-.231 1.672-.523.199-.089.375-.229.54-.399.151.412.559.74.995 1.059.48.562.905.797 1.26.622l-1.149-1.145a9.578 9.578 0 0 1-1.018-.976l-1.187.564c-.449.167-.927.24-1.405.213Z"/>
    <path fill="#909090" d="M35.229 17.64a.733.733 0 0 0 .184-.367l1.968-.375 1.285 1.26.523.368c.076.071.092.182.062.324-.019.108-.085.149-.227.08a2.036 2.036 0 0 1-.687-.621c-.424-.277-.763-.627-1.074-1.002-.641.221-1.447.354-2.034.333Z"/>
    <path fill="#bdbdbd" d="M33.454 17.624a.946.946 0 0 1-.052-.112l.151.109c-.017-.011-.048-.011-.097.002l-.002.001Zm.101-.002.205.148c.271.225.876.242 1.259.221a.6.6 0 0 1-.246.119l-.009-.043c-.088-.071-.161-.049-.223.044l.014.027a1.043 1.043 0 0 1-.294-.035c-.386-.064-.602-.198-.734-.367l.015-.008c.027-.053.033-.09.013-.106Z"/>
  </g>
</svg>
