<?xml version="1.0" encoding="UTF-8" standalone="no"?>
<!-- Generator: Adobe Illustrator 27.5.0, SVG Export Plug-In . SVG Version: 6.00 Build 0)  -->

<svg
   version="1.1"
   x="0px"
   y="0px"
   viewBox="0 0 64 64"
   xml:space="preserve"
   id="svg35"
   sodipodi:docname="Coast Animal Spawner.svg"
   width="64"
   height="64"
   inkscape:version="1.3.2 (091e20e, 2023-11-25, custom)"
   xmlns:inkscape="http://www.inkscape.org/namespaces/inkscape"
   xmlns:sodipodi="http://sodipodi.sourceforge.net/DTD/sodipodi-0.dtd"
   xmlns="http://www.w3.org/2000/svg"
   xmlns:svg="http://www.w3.org/2000/svg"
   xmlns:rdf="http://www.w3.org/1999/02/22-rdf-syntax-ns#"
   xmlns:cc="http://creativecommons.org/ns#"
   xmlns:dc="http://purl.org/dc/elements/1.1/"><title
   id="title44">Coast Animal Spawner Icon</title><defs
   id="defs35" /><sodipodi:namedview
   id="namedview35"
   pagecolor="#ffffff"
   bordercolor="#000000"
   borderopacity="0.25"
   inkscape:showpageshadow="2"
   inkscape:pageopacity="0.0"
   inkscape:pagecheckerboard="0"
   inkscape:deskcolor="#d1d1d1"
   inkscape:zoom="16"
   inkscape:cx="36.5625"
   inkscape:cy="26.34375"
   inkscape:window-width="3840"
   inkscape:window-height="2054"
   inkscape:window-x="-11"
   inkscape:window-y="-11"
   inkscape:window-maximized="1"
   inkscape:current-layer="layer1-7" />


<metadata
   id="metadata35"><rdf:RDF><cc:Work
       rdf:about=""><cc:license
         rdf:resource="http://artlibre.org/licence/lal" /><dc:creator><cc:Agent><dc:title>Tigon Trollhammer</dc:title></cc:Agent></dc:creator><dc:title>Coast Animal Spawner Icon</dc:title></cc:Work><cc:License
       rdf:about="http://artlibre.org/licence/lal"><cc:permits
         rdf:resource="http://creativecommons.org/ns#Reproduction" /><cc:permits
         rdf:resource="http://creativecommons.org/ns#Distribution" /><cc:permits
         rdf:resource="http://creativecommons.org/ns#DerivativeWorks" /><cc:requires
         rdf:resource="http://creativecommons.org/ns#ShareAlike" /><cc:requires
         rdf:resource="http://creativecommons.org/ns#Notice" /><cc:requires
         rdf:resource="http://creativecommons.org/ns#Attribution" /></cc:License></rdf:RDF></metadata><g
   inkscape:groupmode="layer"
   id="layer1-7"
   inkscape:label="signage layer"
   style="display:inline"
   transform="translate(-0.19517359,-0.04920669)"><g
     id="g56"><path
       d="M 32.681641,4.2929687 C 31.843301,4.2929535 31.475607,4.8974397 30.873047,5.5 l -1.806641,1.8066406 -1.808594,1.8085938 -1.808593,1.8066406 -7.230469,7.230469 -7.230469,7.230468 -1.8066404,1.808594 -1.8085937,1.806641 -1.8066407,1.808594 c -0.6025603,0.60256 -0.9472814,0.956444 -0.9472656,1.808593 1.52e-5,0.824531 0.3056193,1.165038 0.8886719,1.748047 l 1.7480469,1.75 1.75,1.748047 1.7480466,1.75 6.998047,6.996094 6.996094,6.996094 1.75,1.748046 1.748047,1.75 1.75,1.748047 c 0.583052,0.58301 0.923516,0.957047 1.748047,0.957032 0.852089,-1.5e-5 1.206076,-0.413108 1.808593,-1.015625 l 1.806641,-1.806641 1.808594,-1.808594 1.80664,-1.80664 7.230469,-7.230469 7.230469,-7.230469 1.80664,-1.806641 1.808594,-1.808593 1.806641,-1.806641 c 0.602518,-0.602517 0.91014,-0.956505 0.910156,-1.808594 1.5e-5,-0.82453 -0.268553,-1.164993 -0.851562,-1.748047 l -1.748047,-1.75 -1.75,-1.75 -1.748047,-1.748046 -6.996094,-6.996094 -6.996094,-6.998047 -1.75,-1.7480469 -1.748047,-1.75 -1.75,-1.7480469 C 33.846678,4.8583535 33.519981,4.292984 32.681641,4.2929687 Z"
       style="fill:#fffdf8;fill-opacity:1;stroke:none;stroke-width:0.249751"
       id="path56" /><path
       d="M 32.793612,0.37647838 C 31.839909,0.37646359 31.420646,1.1487382 30.734164,1.8351778 l -2.059447,2.0593188 -2.059446,2.059319 -2.059447,2.0593189 -8.237788,8.2372765 -8.2377883,8.237274 -2.059447,2.05932 -2.059447,2.059318 c 0,0 -1.3729647,1.372879 -2.0594469,2.059319 -0.6864824,0.68644 -1.19767362,1.088517 -1.19768862,2.059319 -1.458e-5,0.936605 0.46279982,1.324559 1.12507902,1.986838 0.6622792,0.662279 1.9868375,1.986838 1.9868375,1.986838 l 1.9868374,1.986837 1.9868375,1.986838 7.9473504,7.947349 7.947349,7.94735 1.986837,1.986838 1.986838,1.986837 c 0,0 1.324558,1.324559 1.986837,1.986838 0.66228,0.662279 1.050234,1.194397 1.986838,1.194411 0.970803,1.5e-5 1.372965,-0.580453 2.059447,-1.266893 0.686482,-0.686439 2.059446,-2.059318 2.059446,-2.059318 l 2.059448,-2.059319 2.059447,-2.05932 8.237788,-8.237275 8.237788,-8.237275 2.059447,-2.05932 2.059446,-2.059319 c 0,0 1.372965,-1.372879 2.059447,-2.059318 0.686482,-0.68644 1.16255,-1.088517 1.162566,-2.059319 1.5e-5,-0.936605 -0.427677,-1.324559 -1.089956,-1.986838 -0.662279,-0.662279 -1.986838,-1.986837 -1.986838,-1.986837 L 58.622499,25.604746 56.635661,23.617908 48.688311,15.670559 40.740961,7.7232088 38.754123,5.7363714 36.767286,3.7495339 34.780449,1.7626963 C 34.11817,1.1004171 33.747315,0.37649317 32.793612,0.37647838 Z M 32.680919,4.2920145 c 0.838341,1.53e-5 1.166022,0.565487 1.749032,1.1485403 l 1.749032,1.7491597 1.749031,1.7491603 1.749032,1.7491592 6.996126,6.996638 6.996127,6.99664 1.749032,1.749159 1.749031,1.74916 c 0,0 1.166021,1.166106 1.749032,1.749159 0.58301,0.583054 0.852165,0.924629 0.85215,1.74916 -1.6e-5,0.852089 -0.308154,1.205036 -0.910673,1.807554 -0.602518,0.602518 -1.807555,1.807555 -1.807555,1.807555 l -1.807554,1.807554 -1.807555,1.807556 -7.230219,7.230218 -7.230218,7.230219 -1.807554,1.807555 -1.807555,1.807555 c 0,0 -1.205036,1.205036 -1.807555,1.807554 -0.602518,0.602518 -0.955465,1.015114 -1.807555,1.015129 -0.824531,1.5e-5 -1.166106,-0.373595 -1.749159,-0.956605 -0.583053,-0.583011 -1.74916,-1.749032 -1.74916,-1.749032 l -1.74916,-1.749032 -1.74916,-1.749031 -6.996638,-6.996127 -6.99664,-6.996127 -1.7491588,-1.749031 -1.7491601,-1.749032 c 0,0 -1.1661064,-1.166022 -1.7491596,-1.749032 -0.5830532,-0.58301 -0.887386,-0.9245 -0.8874012,-1.749031 -1.58e-5,-0.85215 0.3433633,-1.205122 0.9459243,-1.807683 0.6025609,-0.602561 1.8076828,-1.807682 1.8076828,-1.807682 l 1.8076824,-1.807684 1.8076832,-1.807682 7.230731,-7.23073 7.230731,-7.230732 1.807683,-1.8076825 1.807682,-1.8076832 1.807683,-1.8076826 c 0.602561,-0.6025609 0.969342,-1.2070785 1.807682,-1.2070632 z"
       style="fill:#f6c840;fill-opacity:1;stroke:#1d3244;stroke-width:0.249751;stroke-opacity:1"
       id="path55"
       sodipodi:nodetypes="zzcccccccssscccccccssscccccccsssccccccczzzzcccccccssscccccccssscccccccsssccccccczz"
       inkscape:label="holder" /></g></g><g
   id="g36"
   style="display:inline"
   transform="matrix(0.58828205,0.43637325,-0.47340995,1.0534918,23.92375,-10.203733)"
   inkscape:label="seagull"><g
     id="g44"><path
       style="fill:#e6e6e6;fill-opacity:1;stroke:none;stroke-width:0.3;stroke-opacity:1"
       d="m 31.963436,26.571747 c 0.432877,0.349034 0.807823,0.77331 1.193239,1.171142 0.297452,0.395223 0.703496,0.717634 0.839671,1.215324 0.253406,0.414936 0.443913,0.858906 0.718148,1.259537 0.193851,0.397637 0.547498,0.672797 0.652607,1.106561 0.01271,0.273863 0.403199,0.514426 0.153949,0.572807 0.491907,-0.07186 0.432323,0.602853 0.563475,0.762353 0.257778,0.414185 0.319919,0.916858 0.552175,1.353533 0.228674,0.427718 0.359615,0.898988 0.55268,1.331257 0.07741,0.26816 0.940316,2.505704 1.180552,2.141104 0.325383,-0.289155 -0.157326,-2.521392 0.24473,-2.693555 0.211973,-0.145846 0.55739,-0.05454 0.852118,0.0056 0.372859,0.05217 0.751498,-0.06679 1.004042,-0.337028 0.297141,-0.177177 0.49588,-0.447628 0.763454,-0.684895 0.435147,-0.259551 2.367104,0.732077 2.849418,0.607538 0.50214,-0.111339 -1.660651,-1.573043 -1.734607,-1.856164 -0.373309,-0.521909 -0.417284,-0.432536 -0.905979,-1.115905 -0.361384,-0.437528 -0.843798,-1.244007 -1.160094,-1.690423 -0.24865,-0.422248 -0.561194,-0.880034 -0.735732,-1.330599 -0.390357,-0.55633 -0.620207,-1.198937 -0.974019,-1.776565 -0.315592,-0.477683 -0.657224,-0.92961 -0.972873,-1.40272 -0.278262,-0.248498 -0.525577,-0.780373 -0.598769,-1.025434 -0.581409,0.353407 -1.263381,0.527637 -1.786568,0.977306 -0.547368,0.319077 -1.155403,0.522218 -1.682675,0.878855 -0.467263,0.207829 -0.942107,0.393363 -1.425906,0.48423 -0.05023,0.02624 -0.08576,0.05495 -0.143036,0.04612 z"
       id="path44"
       sodipodi:nodetypes="ccccccccccccccccccccccccccc" /><path
       style="fill:#d0d0d0;fill-opacity:1"
       d="m 39.921654,33.154045 c -0.02654,-0.04294 -0.122399,-0.05946 -0.213022,-0.03672 -0.122438,0.03073 -0.194582,-0.0041 -0.280814,-0.135753 -0.06383,-0.09741 -0.375286,-0.39411 -0.692135,-0.659335 -0.31685,-0.265226 -0.558805,-0.510196 -0.537678,-0.544379 0.02113,-0.03418 -0.01222,-0.13444 -0.07411,-0.222793 -0.173985,-0.248398 -0.133915,-0.29309 0.104645,-0.116715 0.162755,0.12033 0.237823,0.139895 0.299626,0.07809 0.0618,-0.0618 0.02549,-0.147353 -0.14494,-0.341461 -0.125072,-0.14245 -0.227404,-0.289348 -0.227404,-0.326441 0,-0.138001 0.210689,0.02022 0.392237,0.294556 0.103175,0.155907 0.216152,0.283468 0.251061,0.283468 0.09206,0 0.151147,-0.19075 0.151147,-0.487941 v -0.25946 l 0.167154,0.157034 c 0.248814,0.233748 0.290404,0.195954 0.247013,-0.224466 -0.04095,-0.396816 -0.189199,-0.704444 -0.63404,-1.315723 -0.144533,-0.198611 -0.308564,-0.446317 -0.364513,-0.550457 -0.123865,-0.230557 -0.853274,-1.033179 -0.898151,-0.988303 -0.0315,0.0315 0.111682,0.822364 0.25244,1.394316 0.08078,0.328236 0.09717,0.758333 0.0289,0.758333 -0.07708,0 -0.544122,-0.295483 -1.046525,-0.662099 -0.785433,-0.573151 -0.826504,-0.45971 -0.237449,0.65586 0.222044,0.420515 0.457669,0.829573 0.523611,0.909017 0.115622,0.139297 0.114747,0.140449 -0.02455,0.03231 -0.07944,-0.06168 -0.712079,-0.597926 -1.405855,-1.191667 -2.949374,-2.524104 -4.992309,-4.928417 -5.993663,-7.05389 -0.557208,-1.182728 -0.90098,-2.456482 -1.053376,-3.903003 -0.02858,-0.271297 -0.07104,-0.399452 -0.121916,-0.368008 -0.05205,0.03217 -0.05636,0.01445 -0.01292,-0.05319 0.03583,-0.05579 0.07075,-0.247687 0.07761,-0.426437 0.02479,-0.646206 0.08656,-1.314405 0.125073,-1.352914 0.02164,-0.02164 0.07295,0.04906 0.114028,0.157101 0.09089,0.239074 0.221488,0.211076 0.314309,-0.06739 0.0604,-0.181189 0.04298,-0.230175 -0.139931,-0.393544 -0.184434,-0.164731 -0.203771,-0.220348 -0.165033,-0.474648 0.05338,-0.350399 0.197377,-0.716311 0.20432,-0.519189 0.0071,0.200835 0.21356,0.556136 0.323203,0.556136 0.142432,0 0.343968,-0.470925 0.317734,-0.742441 -0.01735,-0.179558 -0.06041,-0.237938 -0.188946,-0.256159 -0.09156,-0.01298 -0.219521,0.01952 -0.284355,0.07222 -0.101246,0.0823 -0.111494,0.07876 -0.07262,-0.02507 0.113047,-0.301973 0.443183,-0.729086 0.716684,-0.927209 0.164604,-0.119238 0.311501,-0.204575 0.32644,-0.189636 0.04862,0.04862 -0.203983,1.154586 -0.310958,1.361451 -0.08898,0.172074 -0.08932,0.201286 -0.0023,0.201286 0.106913,0 0.579767,-0.485326 0.640923,-0.657828 0.02753,-0.07765 0.0759,-0.06355 0.212694,0.06199 0.18437,0.169207 0.382181,0.210757 0.453557,0.09527 0.02285,-0.03698 0.0081,-0.08793 -0.03288,-0.113234 -0.106274,-0.06568 -0.334677,-0.536391 -0.394293,-0.81259 -0.04834,-0.22395 -0.04071,-0.234722 0.166201,-0.234722 0.126743,0 0.307271,0.07607 0.434417,0.183059 0.244072,0.205373 0.67354,0.862856 0.607049,0.929347 -0.02373,0.02373 -0.0052,0.04315 0.04111,0.04315 0.04634,0 0.0791,0.02437 0.07279,0.05417 -0.01414,0.06682 0.06749,0.294905 0.174469,0.4875 0.04413,0.07944 0.124194,0.231427 0.17792,0.337738 0.05373,0.106312 0.250873,0.283033 0.438103,0.392714 1.108875,0.649586 3.633253,4.03297 4.421163,5.925615 0.121217,0.291176 0.298365,0.911428 0.393663,1.378339 0.346145,1.695936 0.679682,2.860487 1.773837,6.193372 0.391213,1.191667 0.752527,2.369792 0.80292,2.618056 0.05039,0.248263 0.121601,0.451388 0.15824,0.451388 0.03664,0 0.02616,0.04875 -0.02329,0.108334 -0.04945,0.05958 -0.06854,0.108333 -0.04241,0.108333 0.02612,0 0.0069,0.07312 -0.04261,0.1625 -0.04956,0.08937 -0.0832,0.186875 -0.07476,0.216667 0.02368,0.0836 -0.114478,0.06403 -0.168828,-0.02391 z M 32.231307,15.88073 c -0.0026,-0.102949 -0.170868,-0.343055 -0.240387,-0.343055 -0.08001,0 -0.05012,0.256082 0.04046,0.346667 0.112252,0.112252 0.202831,0.110616 0.199925,-0.0036 z m -0.64581,-0.924369 c 0.124345,-0.232341 -0.03743,-0.646464 -0.252545,-0.646464 -0.284271,0 -0.314673,0.371898 -0.05461,0.668056 0.144072,0.164069 0.210285,0.159414 0.307157,-0.02159 z m 5.838895,16.488258 c -0.08984,-0.114548 -0.08728,-0.117103 0.02727,-0.02727 0.120305,0.09435 0.158563,0.153656 0.09912,0.153656 -0.015,0 -0.07187,-0.05687 -0.126388,-0.126389 z"
       id="path43"
       sodipodi:nodetypes="cscsssssssssscsssssssssssssssscssssscsssscssssssscsssssssssssssssscsccsssssssssssssss" /><path
       id="path42"
       style="display:inline;fill:#b9b9b9;fill-opacity:1"
       d="m 6.5281946,41.206657 c 0.046462,-0.278347 0.073259,0.328714 0,0 z M 6.672639,40.123323 c 0.046464,-0.278335 0.073257,0.328736 0,0 z m 3.3165205,-8.114719 c 0.1716825,-0.377562 0.098407,0.250233 0,0 z m 9.8944445,-2.776395 c 0.29598,-0.222221 0.285928,0.104777 0,0 z m 2.816667,-0.762494 c 0.171951,-0.377632 0.09817,0.250266 0,0 z m 0.469444,-0.220929 c -0.167238,-0.409574 0.444786,0.422683 0,0 z m 4.283681,-0.554891 c 0.403754,-0.06233 -0.124159,0.123793 0,0 z m 1.096875,-0.339463 c 0.29598,-0.222221 0.285928,0.104777 0,0 z M 13.686819,26.097166 c 2.127421,-3.139042 2.882124,-4.808512 5.366229,-5.97338 2.418877,-0.07618 4.875742,0.189411 7.2605,-0.25097 1.346692,0.273245 2.345643,-2.733779 2.291212,-0.459302 0.314001,2.614324 1.803487,4.856257 3.392203,6.865256 -1.163887,-0.29965 -2.823426,-1.09425 -4.093747,-1.687008 l -6.520301,-1.189694 c -2.806466,0.241049 -2.871808,0.263231 -5.119428,1.22633 -0.27489,0.614079 -0.03004,0.1162 -1.153461,0.774973 -0.473503,0.264267 -2.605715,2.771452 -1.423207,0.693789 z m 24.079224,-2.530787 c 0.09996,-0.229551 0.195603,0.191269 0,0 z m -0.278497,0.191538 c -0.963655,-2.067662 2.592437,-2.527874 3.390792,-3.763191 1.027362,-1.168986 2.190217,-2.104544 3.313871,-3.02889 0.677238,-0.443713 1.337598,-0.907177 1.878703,-1.316848 0.921347,-0.510574 2.460299,-0.828339 3.254457,-1.252298 1.92347,-0.265358 1.439272,0.386716 0.306484,0.429335 -1.20043,0.381746 -2.714047,0.92574 -3.428756,1.457528 -0.523184,0.428892 -1.375661,1.113109 -2.098123,1.504281 -1.127031,0.997085 -2.355489,1.909212 -3.280955,3.076225 -0.775553,0.972513 -2.182633,2.475767 -3.336473,2.893858 z m -0.108573,-1.152468 c -0.923954,-2.456582 -2.557158,-4.616449 -4.39978,-6.467472 2.452897,-0.08708 4.069418,-2.334226 5.340009,-4.179557 0.735513,-1.617584 1.819643,-3.2184372 3.808846,-3.1693605 1.878239,-0.1136709 3.874847,-0.4505687 5.669445,0.2476116 -0.84407,-0.1020818 -1.1517,0.053872 -1.214906,0.163087 0.38365,0.2926212 -0.740742,0.1595013 0.309644,0.4199053 1.056263,0.2668026 -1.29745,-0.063378 0.218748,0.3630265 0.308141,0.1196281 -2.294203,-0.2204895 -0.761683,0.2556931 -0.895215,0.12538 0.481882,0.406836 -0.357374,0.428505 0.260011,0.243445 -1.084377,-0.24752 -0.296029,0.329029 -1.420609,-0.09254 0.71726,0.59289 -0.94778,0.389024 -0.927342,-0.144357 0.979854,0.528817 -0.623635,0.342075 -0.377088,0.0731 0.144265,0.583904 -0.422561,0.274066 0.51963,1.252135 -0.930637,0.09594 -0.354446,1.261588 -0.605372,-1.103429 -0.946455,0.442803 -1.255346,0.108328 -0.359435,-0.394765 -0.680574,1.910203 -0.741822,2.091856 -0.105989,-1.189658 -0.09415,-0.560888 -0.380541,-0.129544 -0.473785,1.681776 -0.928887,1.416896 -1.55102,2.91763 -0.974782,1.313278 -1.697489,2.447846 -1.912539,4.341147 -0.05091,0.436616 2.8e-4,0.572396 -0.12723,0.01336 z m -8.389667,-6.171015 c 0.04647,-0.278324 0.07324,0.328734 0,0 z m 0.897076,-1.330092 c 0.538966,-0.525239 -0.369477,0.516554 0,0 z m 1.702924,-0.331019 c 0.04647,-0.278324 0.07324,0.328734 0,0 z m 19.923953,-0.199461 c -4.193931,0.692059 -0.973939,-0.587355 -0.280782,-0.810476 1.78428,-0.415326 5.28587,-0.346505 7.096398,-0.394128 1.212241,-0.492656 3.923733,0.398517 4.222003,-0.736403 -0.830245,-0.960205 3.201815,1.268863 0.741687,0.928558 -1.781555,-0.239099 -4.121913,0.200947 -5.932376,0.293808 -1.757808,0.201815 -2.820335,0.307206 -4.96662,0.625313 -0.853102,0.0709 -0.384708,0.06141 -0.88031,0.09333 z m -20.589527,0.04218 c -0.238751,-0.264796 0.81634,0.133787 0,0 z m 25.562997,-4.472152 c 0.403763,-0.06231 -0.124192,0.12378 0,0 z m -9.104514,-0.07072 c 0.397728,-0.1172219 0.07216,0.126411 0,0 z m 6.287847,-0.5792826 c 0.403762,-0.062349 -0.124179,0.1238205 0,0 z M 50.415548,8.9898435 c 0.397728,-0.1172166 0.07216,0.1264045 0,0 z M 48.357215,8.7712236 c 0.559394,-0.1123936 0.1074,0.1161681 0,0 z M 47.314507,8.69945 c 0.403762,-0.062341 -0.124186,0.1238138 0,0 z"
       sodipodi:nodetypes="cccccccccccccccccccccccccccccccccccccccscccccccccccccccccccsscccccccccccccccccccccccccccc" /><path
       style="display:none;fill:#a3a3a3;fill-opacity:1"
       d="m 6.6669373,41.654852 c 0.366705,-0.580845 0.2321551,0.0071 0,0 z m -0.133041,-0.189399 c 0.049877,-0.422482 0.04982,0.422783 0,0 z m 0.2109649,-1.558796 c 0.061405,-0.272224 0.057732,0.346543 0,0 z M 20.44784,29.138339 c 0.392204,-0.150305 -0.03256,0.165497 0,0 z m 7.169243,-1.581683 c 0.06142,-0.272194 0.0577,0.346573 0,0 z m 1.130595,-0.400165 c 0.395335,-0.279468 -0.135925,0.243596 0,0 z m 0.511273,-0.184819 c 0.392204,-0.150305 -0.03256,0.165497 0,0 z m 0.899639,-0.145157 c 0.580473,-0.187531 0.01568,0.166681 0,0 z M 13.688829,26.401434 c 0.524397,-0.402914 -0.275652,0.334803 0,0 z m 17.605886,-0.283203 c -0.387199,-0.404929 0.860569,0.507991 0,0 z M 14.105826,25.910407 c 0.366698,-0.580851 0.232163,0.0072 0,0 z m 16.611111,-0.04495 c -0.154742,-0.30256 0.555531,0.383837 0,0 z M 30.211382,25.64879 c -0.154742,-0.302559 0.555529,0.383837 0,0 z M 14.448756,25.46182 c 0.72545,-0.965623 -0.05447,0.345371 0,0 z m 1.823737,0.0064 c 0.208864,-0.436761 0.05182,0.397649 0,0 z m -1.073764,-0.288889 c 0.887628,-1.717439 0.117591,0.795718 0,0 z m 14.182097,0.141903 c -0.441791,-0.311057 1.070996,0.464821 0,0 z M 17.039896,25.14322 c 0.281643,-0.954753 -0.120332,0.739248 0,0 z m -1.125107,-0.05417 c 0.06326,-1.346962 0.86813,-0.678338 0,0 z m 0.454848,0.01494 c -0.08953,-0.496916 0.234549,0.388874 0,0 z m 0.348883,0.0031 c -0.08469,-0.800309 0.334917,-0.186814 0,0 z m 12.084528,-0.0025 c -0.441791,-0.311056 1.070998,0.46482 0,0 z m -13.686111,-0.182288 0.09294,-0.21621 z m 2.316813,-0.11009 c 0.06142,-0.272194 0.0577,0.346573 0,0 z m 0.428738,-0.156481 c 0.03527,-0.811131 0.132249,0.539871 0,0 z m -0.723329,-0.01806 c 0.174288,-0.283615 0.174288,0.283615 0,0 z m 0.346175,-0.166223 c 0.09101,-1.943725 0.434994,-0.393088 0,0 z m -0.738955,-0.05044 c 0.22352,-1.231804 0.42498,0.02478 0,0 z m -0.348854,-0.06643 c -0.04217,-0.440457 0.157397,0.382647 0,0 z m 11.101272,0.02634 c -0.328081,-0.321889 0.552917,0.376295 0,0 z m -10.397038,-0.07727 c 0.47634,-0.354366 -0.01952,0.392178 0,0 z m 0.782274,-0.36327 c 0.614616,-1.160853 -0.359395,1.334348 0,0 z m 4.060825,0.122511 c -1.390547,-1.094091 0.636,0.334891 0.12103,0.11665 l -0.07766,-0.07485 z m 4.655413,0.141454 c -1.558753,-1.556158 0.585639,-0.01874 0,0 z m -0.712312,-0.07638 c -1.723265,-1.870398 0.91683,0.541465 0,0 z m 1.249727,0.03629 c -0.328078,-0.321889 0.552911,0.376295 0,0 z m -10.67561,-0.01752 c -0.07168,-0.555596 0.289346,0.197996 0,0 z m 6.354765,-0.0553 c -1.08084,-0.63435 0.469539,0.128212 0,0 z m 2.515289,0.0069 c -0.957434,-0.993605 0.106127,-0.344468 0.06621,0.0422 z m -8.119642,-0.02035 c 0.08978,-0.866358 0.263534,0.28328 0,0 z m 1.061931,-0.140091 c -0.02548,-1.232196 0.225682,0.626687 0,0 z m 6.046713,0.09183 c -0.368428,-0.485973 0.546748,0.394886 0,0 z M 18.786563,23.80715 c 0.162028,-0.926242 0.22369,0.84389 0,0 z m 4.399917,0.06962 c -0.580475,-0.623957 -0.106711,-0.817239 0.362024,-0.275622 -1.483705,-0.864426 0.593839,0.899532 -0.362024,0.275622 z m 1.453162,0.0059 c -1.178282,-0.627762 0.42856,0.01222 0,0 z m 2.136932,0.06492 c -0.328078,-0.321889 0.55291,0.376293 0,0 z m -7.497937,-0.143253 c -0.234888,-0.53663 0.289294,0.298621 0,0 z m 0.368111,0.01494 c -0.242376,-0.826884 0.270031,0.320424 0,0 z m 1.402945,-0.282982 c -1.493559,-1.349507 1.148835,0.985331 0,0 z m 3.716327,0.198628 c -1.056728,-0.576502 0.449908,0.107173 0,0 z m -3.001356,-0.234739 c -0.40219,-0.678159 0.926251,0.46012 0.02462,-0.06512 l 0.236771,0.326341 z m 0.675967,0.108333 c -0.470687,-0.547736 0.567405,0.536903 0,0 z m -3.00888,-0.08587 c 0.289681,-0.850334 0.0181,0.46192 0,0 z m -0.63148,-0.144591 c 0.165376,-0.605284 0.198577,0.445478 0,0 z m 0.221742,0.05417 c -0.05171,-0.517438 0.331892,-0.08741 0,0 z m 1.03525,-0.03348 c -0.04096,-0.611746 0.707309,-0.600734 0,0 z m 2.135344,-0.09972 c -0.176353,-0.434946 0.430749,0.311468 0,0 z m -2.453448,-0.110281 c 0.195166,-0.286806 0.409539,0.3057 0,0 z m 17.766667,-0.0557 c 0.207077,-0.270213 0.175992,0.231612 0,0 z m 0.0057,-0.848611 c 0.06142,-0.272194 0.0577,0.346573 0,0 z m 0.07222,-0.361111 c 0.06142,-0.272194 0.0577,0.346573 0,0 z m 0.07222,-0.288889 c 0.06143,-0.272203 0.05772,0.346578 0,0 z m 0.862414,-1.873504 0.03556,-0.270324 z m 0.648551,-1.21719 c 0.366699,-0.580852 0.232163,0.0071 0,0 z m 0.26963,-0.342805 c 0.395335,-0.279468 -0.135925,0.243596 0,0 z m 0.513048,-0.80497 c 0.0015,-1.216268 0.193873,0.67334 0,0 z m 3.464892,0.186818 c 0.392215,-0.150292 -0.03258,0.165487 0,0 z m 0.446875,-0.379735 c 0.11201,-0.417573 0.151324,0.23781 0,0 z m -3.555805,-0.301315 c -0.08877,-1.237269 0.249387,0.603461 0,0 z m 0.755894,-1.219614 c 0.05783,-0.454035 0.05783,0.454035 0,0 z m 0.21399,-0.469444 c 0.0402,-0.406402 0.06252,0.458265 0,0 z m -0.14712,-0.03611 c 0.04988,-0.422606 0.04982,0.422907 0,0 z m -9.761404,-0.100607 c 0.173114,-0.264448 0.227721,0.12318 0,0 z m 10.047194,-0.04384 c -0.01082,-0.714792 0.305824,-0.317747 0,0 z M 41.194855,14.7011 c 0.06142,-0.272194 0.0577,0.346573 0,0 z m 8.21409,-0.151651 c 0.392204,-0.150305 -0.03256,0.165497 0,0 z m 0.866667,0 c 0.392204,-0.150305 -0.03256,0.165497 0,0 z m -8.725347,-0.379735 c 0.109364,-0.885536 0.08586,0.7207 0,0 z m 0.183639,-0.07149 c 0.05485,-0.498476 0.210525,0.31766 0,0 z m 0.763627,-0.125473 c -0.332301,-0.520504 0.205323,-0.240707 0,0 z M 53.59332,13.828735 c 0.452517,-0.180137 0.08186,0.166648 0,0 z m -11.742757,-0.24106 c 0.04988,-0.422606 0.04982,0.422907 0,0 z m 0.42193,-0.09028 c 0.272349,-0.437287 0.196264,0.339865 0,0 z m 14.575347,-0.03128 c 0.392204,-0.150305 -0.03256,0.165497 0,0 z m 0.938889,-0.07222 c 0.392215,-0.150292 -0.03258,0.165487 0,0 z M 42.434993,13.245823 c 0.226742,-0.682555 1.183426,-0.228942 0,0 z m 16.290625,0.0036 c 0.392216,-0.150303 -0.03258,0.165495 0,0 z M 43.289306,13.03999 c 0.06141,-0.2722 0.05771,0.346542 0,0 z m 18.10402,0.06652 c 0.452518,-0.18014 0.08186,0.16665 0,0 z M 43.217083,12.678879 c 0.06141,-0.2722 0.05771,0.346542 0,0 z m 0.341868,0.06501 c 0.392215,-0.150292 -0.03258,0.165487 0,0 z m 0.105622,-0.600664 c 0.08449,-0.52043 0.268917,0.207829 0.06027,0.158322 z m 0.341253,-0.108333 c -0.291663,-0.757058 0.587609,0.732092 0,0 z m 0.181284,-0.109511 c 0.519156,-0.215593 -0.01713,0.275139 0,0 z m 0.179827,-0.184332 c 0.614445,-0.463987 0.445383,0.155514 0,0 z m 0.203519,-0.335787 c 0.411254,-0.257534 0.157731,0.191837 0,0 z m 0.771481,-0.01666 c 0.849546,-0.211716 -0.677477,0.285222 0,0 z m 0.09028,-0.304317 c 0.452518,-0.18014 0.08186,0.16665 0,0 z m 0.348635,-0.105641 c -0.210126,-0.385918 0.860818,0.426063 0,0 z m -0.312524,-0.183248 c -0.318605,-0.410043 0.393376,0.06616 0,0 z m 0.326071,-0.0755 c 0.506747,-0.474564 0.117449,0.136511 0,0 z m 0.163453,-0.307222 0.293653,-0.110736 z m 0.539643,-0.147223 c 0.105286,-0.6721305 0.518365,0.404034 0,0 z M 46.19304,10.099416 c -4.3e-4,-0.4312722 0.174898,-0.08785 0,0 z m 1.423899,0.02835 c 0.357471,-0.1588202 0.343595,0.250526 0,0 z m -1.805555,-0.07898 c -0.207476,-0.2864569 0.569245,0.305222 0,0 z m 1.408333,0 c 0.283906,-0.324979 0.06758,0.25954 0,0 z m 0.03611,-0.2888889 c 0.174288,-0.2836212 0.174288,0.2836219 0,0 z M 46.425271,9.4710082 c -0.300884,-0.2538411 0.568475,0.2487467 0,0 z m 0.379616,-0.047981 c 0.08472,-0.396334 0.287642,0.2230163 0,0 z M 46.497493,9.1821193 c 0.02665,-0.4585738 0.981607,0.1299723 0,0 z m 0.578289,8.273e-4 c 0.123302,-0.1790129 0.24172,0.3383285 0,0 z m 0.559211,-0.1452334 c 0.577664,-0.1166376 0.436611,0.1527897 -0.01197,0.052559 z m 3.290625,0.022848 c 0.392211,-0.1503164 -0.03258,0.1655154 0,0 z M 47.531173,8.9161167 c 0.392213,-0.1503153 -0.03259,0.1655154 0,0 z m 2.094445,0 c 0.392224,-0.1503109 -0.0326,0.1655142 0,0 z m -0.762847,-0.072671 c 0.509616,-0.1785756 0.153155,0.141704 0,0 z m -1.936135,-0.10144 c 0.18116,-0.2718317 0.753042,0.2474231 0,0 z m 1.105579,0.031171 c 0.452517,-0.1801292 0.08187,0.1666393 0,0 z"
       id="path41" /><path
       id="path40"
       style="display:inline;fill:#8c8c8c;fill-opacity:1"
       d="m 6.594715,41.301924 c 0.5395102,-4.5979 3.084936,-8.640995 5.427806,-12.524579 0.334557,-0.752173 2.559069,-3.498674 1.252093,-1.484803 -2.598713,4.146325 -5.2981159,8.509772 -5.9540748,13.450689 -0.1625008,0.174468 -0.8643482,1.556758 -0.7258242,0.558693 z m 4.24384,-4.646443 c 0.649175,-1.072753 -0.553034,1.333966 0,0 z m 0.595049,-0.272852 c 0.488649,-0.569685 0.107318,0.07668 0,0 z m 0.657903,-0.913184 c 0.286382,-0.83372 0.865106,-1.168511 0.259268,-0.120129 -0.18249,0.214565 -0.650786,0.553729 -0.259268,0.120129 z m 2.848144,-3.103992 c 0.448358,-1.079881 -0.06808,0.547696 0,0 z m 2.582732,-2.285368 c -0.32374,-1.018335 0.793367,0.11518 0,0 z m 0.447055,-0.459077 c 0.688776,-1.490703 0.56888,0.746299 0,0 z m 0.686388,-0.144535 c 0.2347,-0.802738 1.32584,-0.724346 2.002242,-1.02401 1.20262,-0.07631 2.408791,-0.781175 3.447162,-0.80072 1.466177,-0.534538 3.278532,-0.356822 4.661528,-0.872705 0.431596,-0.398267 2.538845,-0.351165 2.347025,-0.107803 -1.016223,0.223234 -1.812847,0.286906 -2.388811,0.604278 -0.874902,0.06475 -1.89771,0.803952 -3.139562,0.602436 -1.295417,0.253405 -2.469899,0.494585 -3.423195,0.58262 -0.792188,0.235759 -2.179616,1.045354 -3.126972,0.778178 -0.02011,0.207156 -0.163205,0.397002 -0.379417,0.237726 z m 12.888056,-3.02905 c -1.858792,-0.88106 -3.92678,-1.305842 -5.771373,-2.168667 -1.36202,-1.16209 -0.491017,-0.520749 0.242064,-0.165919 -1.687842,-1.636737 1.960368,1.21043 0.277788,-0.419645 1.247925,0.752855 2.737993,1.606557 4.216978,2.081286 0.10552,-6.14e-4 2.077284,0.909775 1.034543,0.672945 z m -16.766228,-0.07642 c 0.07362,-0.666239 1.035639,-2.120171 0.366103,-0.660749 -0.120234,0.220039 -0.20462,0.465655 -0.366103,0.660749 z m 0.944401,-0.234772 c -0.0393,-0.867235 1.233547,-2.818152 0.396511,-0.924022 -0.03939,0.0526 -0.48656,1.498506 -0.396511,0.924022 z m -1.149233,-0.09023 c 0.587316,-1.382557 -1.047507,0.779505 0.01252,-0.641918 1.114509,-1.338926 0.262642,0.150799 -0.01252,0.641918 z m 2.277449,-0.212404 c 0.16854,-0.48839 0.07725,0.377212 0,0 z m -0.65,-0.07222 c 0.16854,-0.48839 0.07724,0.377212 0,0 z m 0.361111,-0.07222 c 0.168521,-0.488383 0.07726,0.377204 0,0 z m 1.136683,-0.618152 c 0.385439,-2.674315 -0.0039,1.948009 0,0 z m -0.775572,0.320738 c 0.110048,-0.277379 0.186001,0.36569 0,0 z m -1.372222,-0.140182 c 0.230509,-0.406765 0.02875,0.396105 0,0 z m 1.083333,0.03611 c 0.198308,-0.269595 0.06548,0.249099 0,0 z m 0.386033,-0.18367 c -0.07651,-0.48746 0.228834,0.394871 0,0 z m 0.336189,-0.105219 c 0.198308,-0.269595 0.06548,0.249099 0,0 z m 3.892113,-0.274066 c -0.658445,-0.698057 -0.733393,-0.399447 -0.787254,-0.40212 -0.513326,-0.256584 -1.04785,-0.414962 -0.515832,-1.072848 0.440032,0.470722 0.195603,-0.8684 0.789246,0.360464 -0.327853,-1.33371 2.045787,2.139939 0.224807,0.317381 -0.503886,0.05236 1.291795,1.605979 0.289033,0.797123 z m -5.358786,0.103645 c 0.12249,-0.775049 0.21589,0.274047 0,0 z m 1.199493,-0.178125 c 0.225275,-0.897915 -0.0013,0.588205 0,0 z m 0.324557,-0.153195 c 0.02803,-0.65965 0.210373,0.737063 0,0 z m 5.98481,-0.0038 c -0.806095,-0.304893 -1.431363,-1.743712 -0.206942,-0.6162 0.936748,0.589448 -0.481328,0.03279 0.573423,0.818959 l -0.366478,-0.202763 z m -6.72312,0.09028 c 0.278511,-0.417457 0.131705,0.238338 0,0 z m 1.937995,-0.126389 c 0.0017,-0.958244 0.461108,-1.202437 0,0 z m 5.387383,-0.180555 c -0.5672,-0.189689 -1.548574,-1.350948 -0.367411,-0.553839 -0.112072,-0.437609 2.060461,1.314877 0.420354,0.27143 -0.680721,-0.243762 1.053148,1.027978 -0.05294,0.282409 z m 1.165825,-0.0014 c -1.01917,-0.697513 -0.245291,-0.809571 0.329674,0.200394 l -0.329674,-0.20039 z M 22.2369,24.30246 c -0.05448,-0.299398 0.348176,0.40072 0,0 z m -3.973653,-0.04707 c 0.250787,-0.337638 -0.09036,0.316109 0,0 z m 0.683651,-0.01494 c -0.106422,-1.326852 0.309011,-0.212554 0.4747,-0.515785 0.5867,-0.865455 -0.12138,0.596659 -0.4747,0.515785 z m 2.886706,-0.117072 c -0.87023,-0.888067 0.860952,0.463068 5e-6,0 z m 0.250301,-0.330499 c -1.144592,-1.424134 1.366538,1.025462 0,0 z m 2.393954,0.09098 c -0.548176,-0.37757 0.762014,0.309676 0,0 z m 13.077319,-0.8098 c -0.04195,-1.556683 0.290595,-2.302041 0.860984,-3.376736 0.699535,-1.37667 1.833655,-3.701578 2.189076,-4.361855 0.242489,-0.801839 2.018487,-3.076217 3.416355,-4.162583 1.44305,-1.076658 1.931,-2.7239092 4.58142,-2.0919203 2.561428,0.6107689 -7.98061,8.1110233 -9.240922,9.9799623 -0.404944,1.126942 -1.286849,2.907877 -1.806913,4.013132 z M 30.56328,14.616842 c -0.23424,-0.33235 0.402974,0.37984 0,0 z M 53.386833,14.066443 C 44.836868,15.099728 52.257554,9.6244361 47.528846,9.1273776 45.580547,8.8052621 49.732649,8.9150118 50.39673,9.023706 c 4.033215,0.4989675 6.431516,0.6909589 10.101601,2.466521 1.836961,0.420629 3.837939,1.927008 3.004959,1.657923 z"
       sodipodi:nodetypes="cccccccccccccccccccccccccccccccccccccccccccccccccccccccccccccccccccccccccscccsccccsccsssccscccccccsssccccccccscccccccccc" /><path
       style="display:none;fill:#767676;fill-opacity:1"
       d="m 7.4059152,40.165453 c 0,-0.139028 0.014863,-0.195903 0.033029,-0.126389 0.018166,0.06951 0.018166,0.183264 0,0.252778 -0.018166,0.06951 -0.033029,0.01264 -0.033029,-0.126389 z M 8.4724928,39.99374 c 0,-0.015 0.056875,-0.07187 0.1263889,-0.126388 0.1145485,-0.08984 0.117103,-0.08728 0.027268,0.02727 -0.094349,0.120304 -0.1536568,0.158563 -0.1536568,0.09912 z M 7.4754613,39.623786 c 0.00147,-0.119167 0.017658,-0.159173 0.03597,-0.0889 0.018312,0.07027 0.017107,0.16777 -0.00268,0.216667 -0.019783,0.0489 -0.034765,-0.0086 -0.033294,-0.127764 z m 0.063844,-0.367129 c 0.00347,-0.08413 0.020579,-0.101249 0.043634,-0.04363 0.020863,0.05214 0.018297,0.114427 -0.0057,0.138426 -0.023999,0.024 -0.041068,-0.01866 -0.037933,-0.09479 z m 3.3216397,-2.738426 c 0,-0.03972 0.04645,-0.153473 0.103214,-0.252778 0.05677,-0.09931 0.103215,-0.148056 0.103215,-0.108334 0,0.03972 -0.04645,0.153473 -0.103215,0.252778 -0.05677,0.09931 -0.103214,0.148056 -0.103214,0.108334 z m 1.335636,-1.28506 c 0.02712,-0.07123 0.06751,-0.11131 0.08974,-0.08907 0.02224,0.02224 4.6e-5,0.08051 -0.04931,0.129504 -0.07133,0.0708 -0.07962,0.0625 -0.04043,-0.04043 z m 0.359552,-0.696061 c -0.02285,-0.03698 -0.0085,-0.08765 0.03185,-0.112596 0.04037,-0.02495 0.0734,0.0053 0.0734,0.06723 0,0.12686 -0.04334,0.145539 -0.105249,0.04536 z m 2.519819,-2.555539 c -0.02005,-0.05225 -0.0048,-0.174121 0.0338,-0.270833 0.0647,-0.161954 0.07061,-0.154453 0.07483,0.09499 0.0046,0.274108 -0.04197,0.349548 -0.10863,0.17584 z m 1.774319,-1.570381 c 0,-0.04207 0.0325,-0.0564 0.07222,-0.03185 0.03972,0.02455 0.07222,0.05897 0.07222,0.07648 0,0.01752 -0.0325,0.03185 -0.07222,0.03185 -0.03972,0 -0.07222,-0.03442 -0.07222,-0.07648 z m 0.54631,-0.450241 c 0.02712,-0.07123 0.06751,-0.11131 0.08974,-0.08907 0.02224,0.02224 4.6e-5,0.08051 -0.04931,0.129504 -0.07133,0.0708 -0.07962,0.0625 -0.04043,-0.04043 z m 0.284756,-0.194669 c -0.0253,-0.04094 0.0037,-0.05305 0.06796,-0.02838 0.125119,0.04801 0.148012,0.09978 0.04413,0.09978 -0.03738,0 -0.08782,-0.03213 -0.112085,-0.0714 z m -0.17996,-0.122954 c 6.08e-4,-0.03214 0.03261,-0.107179 0.07112,-0.166762 0.06033,-0.09336 0.07016,-0.09145 0.07112,0.01379 6.08e-4,0.06717 -0.03139,0.142213 -0.07112,0.166762 -0.03972,0.02455 -0.07173,0.01834 -0.07112,-0.01379 z m 0.576671,-0.415278 c 0,-0.05724 0.02947,-0.122283 0.06549,-0.144544 0.03602,-0.02226 0.04848,0.02457 0.02769,0.104071 -0.0441,0.168638 -0.09318,0.189955 -0.09318,0.04047 z m 0.65,-0.180553 c 0,-0.03738 0.03213,-0.08782 0.07139,-0.112085 0.04094,-0.0253 0.05305,0.0037 0.02838,0.06796 -0.04801,0.125119 -0.09978,0.148012 -0.09978,0.04413 z m 0.270834,-0.05209 c 0.04965,-0.02004 0.130902,-0.02004 0.180555,0 0.04965,0.02004 0.009,0.03643 -0.09028,0.03643 -0.0993,0 -0.13993,-0.01639 -0.09028,-0.03643 z m 0.493948,-0.230624 c -0.021,-0.03398 0.04208,-0.04645 0.140182,-0.02769 0.0981,0.01875 0.17837,0.04656 0.17837,0.06179 0,0.05588 -0.281569,0.02574 -0.318552,-0.0341 z m 2.393737,-0.669401 c 0.04899,-0.04936 0.107267,-0.07155 0.129504,-0.04931 0.02224,0.02224 -0.01785,0.06262 -0.08907,0.08974 -0.102931,0.03919 -0.111227,0.0309 -0.04043,-0.04043 z m 0.583495,-0.184823 c 0.05214,-0.02086 0.114427,-0.0183 0.138426,0.0057 0.024,0.024 -0.01866,0.04107 -0.09479,0.03793 -0.08413,-0.0035 -0.101249,-0.02058 -0.04364,-0.04363 z m 0.284375,0.0015 c 0.04965,-0.02004 0.09028,-0.08247 0.09028,-0.138743 0,-0.11579 0.11297,-0.124099 0.325,-0.02391 0.122342,0.05781 0.115206,0.06264 -0.04664,0.03155 -0.12852,-0.02469 -0.204627,-0.0014 -0.232455,0.07111 -0.02276,0.0593 -0.08302,0.105253 -0.133919,0.102117 -0.07249,-0.0045 -0.07298,-0.0136 -0.0023,-0.04213 z m 0.820878,-0.223002 c -0.0089,-0.172776 0.09329,-0.217928 0.179074,-0.07912 0.03064,0.04957 0.01994,0.06386 -0.02638,0.03523 -0.04285,-0.02648 -0.09286,0.0091 -0.111115,0.07912 -0.02526,0.09685 -0.0352,0.08843 -0.04158,-0.03523 z m 0.370789,0.0044 c 0.06951,-0.01817 0.126389,-0.0794 0.126389,-0.136067 0,-0.05667 0.04843,-0.103037 0.107626,-0.103037 0.09,0 0.08738,0.02365 -0.01605,0.144444 -0.06802,0.07944 -0.17333,0.140674 -0.234016,0.136067 -0.08222,-0.0062 -0.07813,-0.0168 0.01605,-0.04141 z m 0.920833,-0.313593 c 0,-0.03848 0.04875,-0.06996 0.108334,-0.06996 0.05958,0 0.108333,0.01277 0.108333,0.02838 0,0.01561 -0.04875,0.04709 -0.108333,0.06996 -0.05958,0.02286 -0.108334,0.01009 -0.108334,-0.02838 z m 0.848611,-0.0487 c 0.08938,-0.01722 0.1625,-0.05785 0.1625,-0.0903 0,-0.03245 0.09578,-0.07306 0.212853,-0.09024 0.117069,-0.01718 0.196401,-0.0046 0.176293,0.02791 -0.02011,0.03253 -0.09772,0.05915 -0.172479,0.05915 -0.07476,0 -0.156006,0.0325 -0.180556,0.07222 -0.02455,0.03972 -0.115842,0.0678 -0.202873,0.06239 -0.158186,-0.0098 -0.158185,-0.0098 0.0043,-0.04113 z m 2.220834,-0.29018 c 0.07944,-0.01953 0.193194,-0.07263 0.252777,-0.118011 0.09422,-0.07176 0.09542,-0.06604 0.0092,0.04388 -0.05452,0.06951 -0.168267,0.122618 -0.252778,0.118011 -0.145945,-0.008 -0.146408,-0.01016 -0.0092,-0.04388 z M 14.58123,26.804342 c 0.05358,-0.20114 0.08773,-0.255381 0.132575,-0.21054 0.01661,0.01661 -0.01725,0.111403 -0.07524,0.210648 l -0.105436,0.180447 z m 14.205137,-0.05005 c 0.07027,-0.01831 0.16777,-0.01711 0.216667,0.0027 0.0489,0.01978 -0.0086,0.03477 -0.127763,0.03329 -0.119167,-0.0015 -0.159174,-0.01766 -0.0889,-0.03597 z M 15.550271,26.66416 c 0,-0.03738 0.03213,-0.08782 0.07139,-0.112085 0.04094,-0.0253 0.05305,0.0037 0.02838,0.06796 -0.04801,0.125119 -0.09978,0.148011 -0.09978,0.04412 z m 13.920833,-0.124316 c 0.04965,-0.02004 0.130903,-0.02004 0.180555,0 0.04965,0.02004 0.009,0.03643 -0.09028,0.03643 -0.09931,0 -0.139931,-0.01639 -0.09028,-0.03643 z m -15.076389,-0.09235 c 0,-0.03738 0.03213,-0.08782 0.0714,-0.112085 0.04094,-0.0253 0.05305,0.0037 0.02838,0.06796 -0.04801,0.125119 -0.09978,0.148012 -0.09978,0.04413 z m 14.719792,0.01862 c 0.05213,-0.02086 0.114427,-0.0183 0.138426,0.0057 0.024,0.024 -0.01866,0.04107 -0.09479,0.03793 -0.08413,-0.0035 -0.101248,-0.02058 -0.04363,-0.04363 z m 1.444444,0 c 0.05214,-0.02086 0.114427,-0.0183 0.138426,0.0057 0.024,0.024 -0.01866,0.04107 -0.09479,0.03793 -0.08413,-0.0035 -0.101248,-0.02058 -0.04363,-0.04363 z m -14.936458,-0.09511 c 0,-0.03972 0.03442,-0.07222 0.07648,-0.07222 0.04207,0 0.0564,0.0325 0.03185,0.07222 -0.02455,0.03972 -0.05897,0.07222 -0.07648,0.07222 -0.01752,0 -0.03185,-0.0325 -0.03185,-0.07222 z m 0.800146,-0.04213 c 0.0035,-0.08413 0.02058,-0.101249 0.04363,-0.04364 0.02086,0.05214 0.0183,0.114427 -0.0057,0.138426 -0.024,0.024 -0.04107,-0.01866 -0.03793,-0.09479 z m 13.302617,0.0643 c 0.07027,-0.01831 0.16777,-0.01711 0.216667,0.0027 0.0489,0.01978 -0.0086,0.03477 -0.127764,0.03329 -0.119166,-0.0015 -0.159173,-0.01766 -0.0889,-0.03597 z m 0.46807,0.0022 c 0.04965,-0.02004 0.130903,-0.02004 0.180556,0 0.04965,0.02004 0.009,0.03643 -0.09028,0.03643 -0.09931,0 -0.139931,-0.01639 -0.09028,-0.03643 z M 16.778048,26.118231 c 0,-0.09931 0.02799,-0.180556 0.06221,-0.180556 0.03421,0 0.04668,0.08125 0.02769,0.180556 -0.01898,0.0993 -0.04698,0.180555 -0.06221,0.180555 -0.01523,0 -0.02769,-0.08125 -0.02769,-0.180555 z m -2.311111,0.03185 c 0,-0.04207 0.0325,-0.0564 0.07222,-0.03185 0.03972,0.02455 0.07222,0.05897 0.07222,0.07648 0,0.01752 -0.0325,0.03185 -0.07222,0.03185 -0.03972,0 -0.07222,-0.03442 -0.07222,-0.07648 z m -0.433333,-0.021 c 0,-0.01669 0.08525,-0.0862 0.189448,-0.154477 0.104196,-0.06827 0.167386,-0.08844 0.140422,-0.04481 -0.05153,0.08337 -0.32987,0.251527 -0.32987,0.199283 z m 1.694252,-0.05176 c -0.02618,-0.04237 -0.03212,-0.09252 -0.01318,-0.111448 0.01893,-0.01893 0.05367,0.01573 0.07719,0.07703 0.04884,0.127264 0.0072,0.149649 -0.064,0.03442 z m 0.400192,-0.02704 c 0,-0.05724 0.02947,-0.122284 0.06549,-0.144544 0.03602,-0.02226 0.04848,0.02457 0.02769,0.104071 -0.0441,0.168638 -0.09317,0.189955 -0.09317,0.04047 z m 0.366188,-0.05843 c -0.0028,-0.109236 0.02742,-0.198611 0.06715,-0.198611 0.08477,0 0.08477,0.05551 0,0.252777 -0.055,0.127996 -0.06265,0.121828 -0.06715,-0.05417 z m -1.921935,0.01325 c -0.02618,-0.04237 -0.03212,-0.09252 -0.01319,-0.111448 0.01893,-0.01893 0.05367,0.01573 0.07719,0.07703 0.04883,0.127264 0.0072,0.149649 -0.064,0.03442 z m 3.001298,-0.121584 c -6.09e-4,-0.08938 0.03139,-0.1625 0.07112,-0.1625 0.09049,0 0.09049,0.07664 0,0.216667 -0.05661,0.0876 -0.07022,0.07724 -0.07112,-0.05417 z m -0.690187,-0.167305 c -0.02618,-0.04237 -0.03212,-0.09252 -0.01319,-0.111448 0.01893,-0.01893 0.05367,0.01573 0.07719,0.07703 0.04884,0.127264 0.0072,0.149649 -0.064,0.03442 z m -0.65,-0.07222 c -0.02618,-0.04237 -0.03212,-0.09252 -0.01319,-0.111448 0.01893,-0.01893 0.05367,0.01573 0.07719,0.07703 0.04884,0.127263 0.0072,0.149649 -0.064,0.03442 z m -0.755364,-0.09927 c 0,-0.05724 0.02947,-0.122284 0.06549,-0.144544 0.03602,-0.02226 0.04848,0.02457 0.02769,0.104071 -0.0441,0.168638 -0.09318,0.189955 -0.09318,0.04047 z m 1.116475,0.02704 c -0.02618,-0.04237 -0.03212,-0.09252 -0.01318,-0.111448 0.01893,-0.01893 0.05366,0.01573 0.07719,0.07703 0.04884,0.127263 0.0072,0.149649 -0.064,0.03442 z m 1.064272,-0.392417 c 0.0015,-0.119167 0.01766,-0.159173 0.03597,-0.0889 0.01831,0.07027 0.01711,0.16777 -0.0027,0.216667 -0.01978,0.0489 -0.03476,-0.0086 -0.03329,-0.127763 z m 3.988231,-0.07794 C 21.414551,24.888959 21.4039,24.869059 21.587236,24.9897 c 0.21195,0.139467 0.446032,0.370201 0.375573,0.370201 -0.01811,0 -0.160211,-0.116323 -0.315787,-0.258496 z m -4.285498,-0.289189 c 0.0035,-0.08413 0.02058,-0.101248 0.04363,-0.04363 0.02086,0.05213 0.0183,0.114427 -0.0057,0.138426 -0.024,0.024 -0.04107,-0.01866 -0.03793,-0.09479 z m -0.691813,-0.102315 c -0.02455,-0.03972 -0.01022,-0.07222 0.03185,-0.07222 0.04207,0 0.07648,0.0325 0.07648,0.07222 0,0.03972 -0.01433,0.07222 -0.03185,0.07222 -0.01752,0 -0.05194,-0.0325 -0.07649,-0.07222 z m 4.580645,-0.126389 -0.175089,-0.198611 0.198611,0.17509 c 0.185632,0.163647 0.231731,0.222132 0.175089,0.222132 -0.01294,0 -0.102312,-0.08938 -0.198611,-0.198611 z m 0.508294,-0.01512 c -0.137528,-0.117552 -0.221696,-0.215052 -0.18704,-0.216667 0.03466,-0.0016 0.01841,-0.05981 -0.03611,-0.129324 -0.08943,-0.114034 -0.08699,-0.116887 0.02496,-0.02918 0.06824,0.05346 0.116994,0.125811 0.108333,0.160774 -0.0087,0.03496 0.08175,0.144428 0.20092,0.243254 0.119167,0.09883 0.199189,0.180853 0.177827,0.182281 -0.02136,0.0014 -0.151361,-0.09358 -0.288888,-0.211134 z m -0.762468,-0.02099 -0.137582,-0.1625 0.1625,0.137583 c 0.15271,0.129293 0.195378,0.187417 0.137582,0.187417 -0.0137,0 -0.08683,-0.07313 -0.1625,-0.1625 z m -0.394545,-0.04303 c -0.09055,-0.07332 -0.17296,-0.190049 -0.183138,-0.259396 -0.01018,-0.06935 0.0034,-0.104148 0.03024,-0.07734 0.02681,0.02681 0.04875,0.07488 0.04875,0.10681 0,0.03193 0.08125,0.125644 0.180555,0.208245 0.09931,0.0826 0.159781,0.151265 0.13439,0.152586 -0.02539,0.0013 -0.12025,-0.05759 -0.210797,-0.130908 z m 4.937818,-0.0074 c -0.06628,-0.07741 -0.155337,-0.120949 -0.197905,-0.09675 -0.04257,0.0242 -0.0533,0.0174 -0.02385,-0.01511 0.02945,-0.03251 0.02184,-0.0973 -0.01691,-0.143987 -0.04859,-0.05855 -0.03719,-0.08489 0.03674,-0.08489 0.05895,0 0.09048,0.01671 0.07006,0.03712 -0.02042,0.02042 0.05066,0.12875 0.157956,0.240741 0.107294,0.11199 0.172431,0.203618 0.144749,0.203618 -0.02768,0 -0.104559,-0.06334 -0.170839,-0.140745 z m -0.700895,-0.04239 c -0.061,-0.061 -0.128323,-0.109752 -0.149603,-0.108333 -0.02128,0.0014 -0.03552,-0.01671 -0.03164,-0.04028 0.0039,-0.02357 -0.07827,-0.131907 -0.182536,-0.240741 -0.136881,-0.142874 -0.158916,-0.197879 -0.07927,-0.197879 0.06067,0 0.09333,0.01698 0.07258,0.03774 -0.02076,0.02076 0.09976,0.177839 0.267815,0.349074 0.168054,0.171235 0.284858,0.311336 0.259564,0.311336 -0.02529,0 -0.0959,-0.04991 -0.156903,-0.110913 z m -1.49376,-0.159921 -0.175089,-0.198611 0.198611,0.17509 c 0.185632,0.163647 0.231732,0.222133 0.175089,0.222133 -0.01294,0 -0.102311,-0.08938 -0.198611,-0.198612 z m -5.108867,0.09443 c 0.02726,-0.03031 0.01994,-0.133024 -0.01627,-0.228246 -0.0362,-0.09522 -0.03792,-0.173129 -0.0038,-0.173129 0.09673,0 0.141426,0.359014 0.05111,0.410525 -0.04433,0.02528 -0.05829,0.02116 -0.03104,-0.0091 z m 1.109085,-0.25194 c -0.02285,-0.03698 -0.01394,-0.0843 0.01981,-0.105157 0.03375,-0.02086 0.06136,0.0094 0.06136,0.06723 0,0.121779 -0.02277,0.132419 -0.08117,0.03793 z m 1.82937,-0.05916 c -0.08984,-0.114549 -0.08728,-0.117103 0.02727,-0.02727 0.06951,0.05452 0.126389,0.111391 0.126389,0.126389 0,0.05944 -0.05931,0.02118 -0.153656,-0.09912 z m 1.309212,0.0662 c 0,-0.0331 0.04732,-0.06019 0.105156,-0.06019 0.05784,0 0.08842,0.02708 0.06796,0.06019 -0.02046,0.0331 -0.06778,0.06019 -0.105156,0.06019 -0.03738,0 -0.06796,-0.02708 -0.06796,-0.06019 z m 1.458889,-0.02648 c -0.110064,-0.110064 -0.111161,-0.202222 -0.0024,-0.202222 0.04634,0 0.06288,0.02138 0.03674,0.04752 -0.02614,0.02614 -0.01132,0.09114 0.03292,0.144445 0.09988,0.120345 0.05039,0.127893 -0.06725,0.01026 z m -5.575556,-0.13 c 0,-0.03972 0.03442,-0.07222 0.07649,-0.07222 0.04207,0 0.0564,0.0325 0.03185,0.07222 -0.02455,0.03972 -0.05897,0.07222 -0.07648,0.07222 -0.01752,0 -0.03185,-0.0325 -0.03185,-0.07222 z m 1.290788,-0.05417 c -0.08984,-0.114548 -0.08728,-0.117103 0.02727,-0.02727 0.06951,0.05452 0.126389,0.111392 0.126389,0.126389 0,0.05944 -0.05931,0.02118 -0.153657,-0.09912 z m 0.298101,0.05417 c -0.06509,-0.04207 -0.074,-0.07045 -0.02232,-0.07112 0.04731,-6.09e-4 0.106102,0.03139 0.130651,0.07112 0.05542,0.08967 0.03042,0.08967 -0.108333,0 z m 0.925347,-0.04934 c 0.05214,-0.02086 0.114427,-0.0183 0.138426,0.0057 0.024,0.024 -0.01866,0.04107 -0.09479,0.03793 -0.08413,-0.0035 -0.101249,-0.02058 -0.04363,-0.04363 z m 16.858076,-1.033997 c 0,-0.139028 0.01486,-0.195903 0.03303,-0.126389 0.01817,0.06951 0.01817,0.183264 0,0.252778 -0.01817,0.06951 -0.03303,0.01264 -0.03303,-0.126389 z m 0.994355,-2.740182 c 0,-0.03738 0.03213,-0.08782 0.0714,-0.112085 0.04094,-0.0253 0.05305,0.0037 0.02838,0.06796 -0.04801,0.125119 -0.09978,0.148011 -0.09978,0.04412 z m -0.05169,-0.318642 c 0.01519,-0.04556 0.07366,-0.08284 0.12993,-0.08284 0.05627,0 0.126192,-0.0325 0.155375,-0.07222 0.03537,-0.04815 0.05306,-0.04815 0.05306,0 0,0.120745 -0.09902,0.216086 -0.236051,0.227287 -0.07146,0.0058 -0.117502,-0.02666 -0.102315,-0.07222 z m 0.4128,-0.382002 c 0,-0.03875 0.05054,-0.133542 0.112318,-0.210648 0.105905,-0.132189 0.107408,-0.129885 0.02633,0.04036 -0.105287,0.221075 -0.138646,0.262047 -0.138646,0.170286 z m 2.455556,-0.197553 c 0,-0.015 0.05687,-0.07187 0.126388,-0.126389 0.114549,-0.08984 0.117103,-0.08728 0.02727,0.02727 -0.09435,0.120304 -0.153656,0.158562 -0.153656,0.09912 z m -2.166667,-0.361111 c 0,-0.015 0.05688,-0.07187 0.126389,-0.126389 0.114548,-0.08983 0.117103,-0.08728 0.02727,0.02727 -0.09435,0.120305 -0.153657,0.158563 -0.153657,0.09912 z m 0.288889,-0.362228 c 0,-0.01561 0.05044,-0.04774 0.112084,-0.07139 0.06427,-0.02466 0.09326,-0.01256 0.06796,0.02838 -0.04241,0.06863 -0.180044,0.101505 -0.180044,0.04301 z m 0.55687,-1.054877 c -0.02076,-0.0794 -0.01202,-0.160276 0.01943,-0.179714 0.03145,-0.01944 0.07264,0.04553 0.09154,0.144373 0.04075,0.213193 -0.05637,0.244125 -0.110967,0.03534 z m 0.384215,-0.264999 c -0.0012,-0.08613 -0.02192,-0.208001 -0.04603,-0.270833 -0.02411,-0.06283 -0.01165,-0.11424 0.02769,-0.11424 0.104503,0 0.164628,0.295356 0.0871,0.427882 -0.05525,0.09445 -0.06693,0.08717 -0.06876,-0.04281 z m 0.65,-1.336111 c -0.0012,-0.105987 -0.02192,-0.244112 -0.04603,-0.306944 -0.02411,-0.06283 -0.01165,-0.11424 0.02769,-0.11424 0.09926,0 0.161349,0.373599 0.08402,0.505555 -0.04787,0.08169 -0.06402,0.06094 -0.06568,-0.08437 z m 0.292394,-0.0998 c 0.0056,-0.282111 0.0065,-0.283003 0.08035,-0.08035 0.05297,0.145427 0.05132,0.228261 -0.0057,0.285278 -0.05898,0.05898 -0.07883,0.0045 -0.07465,-0.20493 z m 4.122369,0.03972 c 0,-0.09931 0.01639,-0.139931 0.03643,-0.09028 0.02004,0.04965 0.02004,0.130903 0,0.180556 -0.02004,0.04965 -0.03643,0.009 -0.03643,-0.09028 z m -3.969546,-0.541667 c 0.0015,-0.119167 0.01766,-0.159173 0.03597,-0.0889 0.01831,0.07027 0.01711,0.16777 -0.0027,0.216667 -0.01978,0.0489 -0.03477,-0.0086 -0.03329,-0.127764 z m -0.296787,0.07222 c 0.0075,-0.136805 0.127888,-0.367166 0.132081,-0.252777 0.0022,0.05958 -0.02754,0.157083 -0.06604,0.216666 -0.03851,0.05958 -0.06822,0.07583 -0.06604,0.03611 z m -11.63396,-0.24505 c 0,-0.03547 0.05335,-0.08497 0.118549,-0.109987 0.09912,-0.03804 0.103591,-0.02747 0.02727,0.0645 -0.104009,0.125323 -0.145817,0.138366 -0.145817,0.04549 z M 29.494861,14.98999 c 0.0035,-0.08413 0.02058,-0.101249 0.04363,-0.04364 0.02086,0.05214 0.0183,0.114428 -0.0057,0.138426 -0.024,0.024 -0.04107,-0.01866 -0.03793,-0.09479 z m 12.288832,-0.318982 c 0,-0.139028 0.01486,-0.195903 0.03303,-0.126389 0.01817,0.06951 0.01817,0.183264 0,0.252778 -0.01817,0.06951 -0.03303,0.01264 -0.03303,-0.126389 z m 0.770576,-0.144444 c -0.02277,-0.05958 -0.01524,-0.222084 0.01674,-0.361111 0.03198,-0.139028 0.0407,-0.309653 0.01939,-0.379167 -0.02131,-0.06951 -0.0077,-0.126389 0.0303,-0.126389 0.0776,0 0.189273,0.497706 0.125895,0.561084 -0.02242,0.02242 -0.04565,-0.02152 -0.05162,-0.09766 -0.006,-0.07613 -0.03075,0.0078 -0.05508,0.186574 -0.02433,0.17875 -0.06286,0.27625 -0.08563,0.216667 z m -0.484363,-0.469445 c 0.0015,-0.119166 0.01766,-0.159173 0.03597,-0.0889 0.01831,0.07027 0.01711,0.16777 -0.0027,0.216667 -0.01978,0.0489 -0.03476,-0.0086 -0.03329,-0.127764 z m 9.216823,0.13122 c 0.05213,-0.02086 0.114427,-0.0183 0.138426,0.0057 0.024,0.024 -0.01866,0.04107 -0.09479,0.03793 -0.08413,-0.0035 -0.101248,-0.02058 -0.04363,-0.04363 z m 2.672222,-0.433333 c 0.05214,-0.02086 0.114427,-0.0183 0.138426,0.0057 0.024,0.024 -0.01866,0.04107 -0.09479,0.03793 -0.08413,-0.0035 -0.101248,-0.02058 -0.04363,-0.04363 z M 43.422315,13.463187 c -0.09615,-0.107878 -0.120663,-0.154774 -0.05447,-0.104214 0.09771,0.07463 0.126334,0.07422 0.152135,-0.0022 0.01748,-0.05176 0.02364,-0.0388 0.0137,0.02881 -0.0099,0.06761 0.0191,0.136285 0.06453,0.152612 0.04544,0.01633 0.06378,0.05026 0.04077,0.0754 -0.02301,0.02514 -0.120514,-0.04255 -0.216666,-0.150427 z m -0.710787,0.06606 c -0.0031,-0.052 -0.0382,-0.07445 -0.07792,-0.0499 -0.03972,0.02455 -0.07222,-0.01001 -0.07222,-0.0768 0,-0.101518 0.01837,-0.106193 0.111989,-0.0285 0.09443,0.07837 0.118192,0.06922 0.151554,-0.05835 0.04249,-0.162496 0.29016,-0.196379 0.29016,-0.0397 0,0.06908 -0.02455,0.07235 -0.0963,0.01281 -0.07524,-0.06245 -0.0963,-0.04547 -0.0963,0.07763 0,0.08665 -0.02972,0.13918 -0.06605,0.116727 -0.03633,-0.02245 -0.08251,4e-6 -0.102631,0.0499 -0.02835,0.07032 -0.03786,0.06946 -0.04228,-0.0038 z m 12.60315,-0.111911 c 0.02502,-0.0652 0.115139,-0.115983 0.200264,-0.112847 0.105643,0.0039 0.120384,0.01843 0.04644,0.04581 -0.05958,0.02206 -0.149703,0.07284 -0.200265,0.112847 -0.06877,0.05442 -0.08047,0.04288 -0.04644,-0.04581 z m 1.907815,0.07043 c 0,-0.06411 0.292188,-0.09762 0.32919,-0.03775 0.02225,0.03599 -0.04272,0.06544 -0.144372,0.06544 -0.10165,0 -0.184818,-0.01246 -0.184818,-0.02769 z m -0.952431,-0.09387 c 0.05214,-0.02086 0.114427,-0.0183 0.138426,0.0057 0.024,0.024 -0.01866,0.04107 -0.09479,0.03793 -0.08413,-0.0035 -0.101249,-0.02058 -0.04363,-0.04364 z m 4.838889,-0.361111 c 0.05214,-0.02086 0.114427,-0.0183 0.138426,0.0057 0.024,0.024 -0.01866,0.04107 -0.09479,0.03793 -0.08413,-0.0035 -0.101248,-0.02058 -0.04363,-0.04364 z M 44.408207,12.607516 c -0.167825,-0.167825 -0.137943,-0.194748 0.06706,-0.06042 0.09931,0.06507 0.180555,0.130817 0.180555,0.146109 0,0.06775 -0.144019,0.01791 -0.247619,-0.08569 z m -0.518451,-0.06497 c 0.02473,-0.168474 0.09511,-0.202206 0.237042,-0.113595 0.113625,0.07094 0.106979,0.0754 -0.04818,0.03231 -0.160846,-0.04466 -0.169507,-0.03735 -0.08143,0.06877 0.08416,0.101409 0.08238,0.118751 -0.01223,0.118751 -0.06093,0 -0.103769,-0.04781 -0.09519,-0.106243 z m 0.34967,-0.276081 c 0.0689,-0.05577 0.101396,-0.130343 0.07222,-0.165714 -0.02917,-0.03537 0.02028,-0.0026 0.109899,0.0729 0.08962,0.07547 0.142044,0.156371 0.116501,0.179786 -0.02554,0.02341 -0.06086,0.0022 -0.07849,-0.04713 -0.02374,-0.06645 -0.07267,-0.07009 -0.188724,-0.01407 -0.141641,0.06837 -0.144654,0.0659 -0.03141,-0.02577 z m 0.994178,-0.07939 c 0,-0.07013 0.203475,-0.09648 0.295438,-0.03826 0.07408,0.04689 0.04772,0.06474 -0.09683,0.06554 -0.109236,6.08e-4 -0.198611,-0.01167 -0.198611,-0.02728 z m 0.902778,-0.332727 c -0.05649,-0.0914 0.03912,-0.0914 0.180555,0 0.09336,0.06033 0.09145,0.07016 -0.01379,0.07112 -0.06717,6.08e-4 -0.142213,-0.03139 -0.166762,-0.07112 z m -1.446394,-0.07538 c -0.02348,-0.03799 0.02423,-0.06907 0.10602,-0.06907 0.174386,0 0.191978,0.04016 0.04269,0.09745 -0.05831,0.02238 -0.12523,0.0096 -0.148707,-0.02838 z m 0.963408,0.02604 c 0.05213,-0.02086 0.114427,-0.0183 0.138426,0.0057 0.024,0.024 -0.01866,0.04107 -0.09479,0.03793 -0.08413,-0.0035 -0.101248,-0.02058 -0.04363,-0.04363 z m 0.697703,-0.308621 c 0.02348,-0.03799 0.0904,-0.05076 0.148707,-0.02838 0.149291,0.05729 0.131699,0.09745 -0.04269,0.09745 -0.08179,0 -0.129498,-0.03108 -0.10602,-0.06907 z m 12.591185,-0.341379 c 0.05214,-0.02086 0.114428,-0.0183 0.138426,0.0057 0.024,0.024 -0.01866,0.04107 -0.09479,0.03793 -0.08414,-0.0035 -0.101249,-0.02058 -0.04364,-0.04363 z M 46.720146,10.997361 c -0.02126,-0.0344 -0.120676,-0.04686 -0.220929,-0.02769 -0.100254,0.01917 -0.18228,0.01859 -0.18228,-0.0013 0,-0.08987 0.368065,-0.09548 0.441718,-0.0067 0.04484,0.05403 0.06321,0.09823 0.04083,0.09823 -0.02238,0 -0.05808,-0.02814 -0.07934,-0.06254 z m 0.694515,-0.153151 c -0.131113,-0.03105 -0.261113,-0.08027 -0.288889,-0.109378 -0.05625,-0.05894 0.374362,0.02236 0.599499,0.11319 0.182755,0.07373 0.0077,0.07158 -0.31061,-0.0038 z M 46.285078,10.7326 c -0.136646,-0.103353 -0.136081,-0.106036 0.02232,-0.106036 0.08938,0 0.14414,0.02972 0.121687,0.06605 -0.02245,0.03633 4e-6,0.08251 0.0499,0.102631 0.0499,0.02012 0.05823,0.03811 0.01851,0.03998 -0.03972,0.0019 -0.135309,-0.04431 -0.212415,-0.102632 z m 0.573526,-0.03381 c 0.02455,-0.03972 0.07522,-0.07222 0.112596,-0.07222 0.03738,0 0.06796,0.0325 0.06796,0.07222 0,0.03972 -0.05067,0.07222 -0.112595,0.07222 -0.06193,0 -0.09251,-0.0325 -0.06796,-0.07222 z m -0.349853,-0.256072 c 0.0188,-0.04899 0.09708,-0.07263 0.173962,-0.05252 0.182728,0.04778 0.176317,0.06811 -0.03418,0.108344 -0.117852,0.02253 -0.162937,0.0045 -0.13978,-0.05582 z m 1.397075,0.03611 c -0.07912,-0.05354 -0.0499,-0.06024 0.108333,-0.02485 0.265556,0.0594 0.323203,0.100738 0.138426,0.09926 -0.07613,-6.09e-4 -0.187176,-0.0341 -0.246759,-0.07442 z m -1.697222,-0.06892 c -0.02455,-0.03972 -0.01214,-0.07222 0.02759,-0.07222 0.03972,0 0.09231,0.0325 0.116858,0.07222 0.02455,0.03972 0.01214,0.07222 -0.02759,0.07222 -0.03972,0 -0.09231,-0.0325 -0.116858,-0.07222 z m 1.336111,0 c 0.140022,-0.09049 0.216667,-0.09049 0.216667,0 0,0.03972 -0.07312,0.07172 -0.1625,0.07112 -0.131404,-8.94e-4 -0.14177,-0.0145 -0.05417,-0.07112 z m -0.558348,-0.05005 c 0.07027,-0.01831 0.16777,-0.01711 0.216667,0.0027 0.0489,0.01978 -0.0086,0.03477 -0.127763,0.03329 -0.119167,-0.0015 -0.159174,-0.01766 -0.0889,-0.03597 z m 9.283695,7.13e-4 c 0.05214,-0.02086 0.114427,-0.0183 0.138426,0.0057 0.024,0.024 -0.01866,0.04107 -0.09479,0.03793 -0.08413,-0.0035 -0.101249,-0.02058 -0.04363,-0.04363 z m -8.075347,-0.09511 c -0.13202,-0.08532 -0.01799,-0.08532 0.180556,0 0.09524,0.04093 0.107542,0.06342 0.03611,0.06604 -0.05958,0.0022 -0.157084,-0.02754 -0.216666,-0.06604 z m -1.408333,-0.144445 c -0.137826,-0.05923 -0.136999,-0.0623 0.01805,-0.06715 0.08937,-0.0028 0.1625,0.02742 0.1625,0.06715 0,0.03972 -0.0081,0.06994 -0.01806,0.06715 -0.0099,-0.0028 -0.08306,-0.03301 -0.1625,-0.06715 z m 8.544791,0.02289 c 0.05214,-0.02086 0.114427,-0.0183 0.138426,0.0057 0.024,0.024 -0.01866,0.04107 -0.09479,0.03793 -0.08414,-0.0035 -0.101249,-0.02058 -0.04364,-0.04364 z M 54.392284,9.9272278 c 0.05214,-0.020863 0.114428,-0.018297 0.138426,0.0057 0.024,0.023999 -0.01866,0.041068 -0.09479,0.037933 -0.08413,-0.00347 -0.101249,-0.020579 -0.04364,-0.043634 z m -7.425347,-0.095109 c 0.05958,-0.038506 0.140834,-0.07001 0.180556,-0.07001 0.03972,0 0.02347,0.031505 -0.03611,0.07001 -0.05958,0.038506 -0.140834,0.07001 -0.180556,0.07001 -0.03972,0 -0.02347,-0.031505 0.03611,-0.07001 z m 0.722222,0.00227 c 0,-0.038476 0.04875,-0.051248 0.108334,-0.028384 0.05958,0.022864 0.108333,0.054344 0.108333,0.069956 0,0.015611 -0.04875,0.028384 -0.108333,0.028384 -0.05958,0 -0.108334,-0.03148 -0.108334,-0.069956 z m 6.342014,0.02062 c 0.05214,-0.020863 0.114427,-0.018297 0.138426,0.0057 0.024,0.023999 -0.01866,0.041068 -0.09479,0.037933 -0.08413,-0.00347 -0.101249,-0.020579 -0.04363,-0.043634 z M 53.236729,9.7105611 c 0.05213,-0.020863 0.114427,-0.018297 0.138426,0.0057 0.024,0.023999 -0.01866,0.041068 -0.09479,0.037933 -0.08414,-0.00347 -0.101248,-0.020579 -0.04363,-0.043634 z m -0.437847,-0.070718 c 0.04965,-0.020035 0.130902,-0.020035 0.180555,0 0.04965,0.020035 0.009,0.036428 -0.09028,0.036428 -0.09931,0 -0.13993,-0.016393 -0.09028,-0.036428 z M 47.039159,9.4769614 c 0.09931,-0.080952 0.245556,-0.1453426 0.325,-0.1430899 0.103238,0.00293 0.11354,0.015598 0.03611,0.044414 -0.05958,0.022175 -0.205834,0.086566 -0.325,0.14309 l -0.216667,0.1027713 z m 1.552778,0.066269 c -0.184038,-0.079084 0.0058,-0.079084 0.252778,0 0.145147,0.046484 0.152229,0.05824 0.03611,0.059947 -0.07944,0.00117 -0.209444,-0.025809 -0.288888,-0.059947 z m 3.773611,0.024391 c 0.04965,-0.020035 0.130903,-0.020035 0.180556,0 0.04965,0.020035 0.009,0.036428 -0.09028,0.036428 -0.09931,0 -0.13993,-0.016393 -0.09028,-0.036428 z m -4.134722,-0.096613 c 0.02455,-0.039722 0.07522,-0.072222 0.112596,-0.072222 0.03738,0 0.06796,0.0325 0.06796,0.072222 0,0.039722 -0.05067,0.072222 -0.112596,0.072222 -0.06193,0 -0.09251,-0.0325 -0.06796,-0.072222 z m -0.535648,-0.025951 c 0.01655,-0.014273 0.127593,-0.04776 0.246759,-0.074416 0.158233,-0.035394 0.18745,-0.028694 0.108334,0.024845 -0.09753,0.065997 -0.427567,0.1120708 -0.355093,0.049571 z m 3.659259,-0.02188 c 0.04965,-0.020035 0.130903,-0.020035 0.180556,0 0.04965,0.020035 0.009,0.036428 -0.09028,0.036428 -0.09931,0 -0.139931,-0.016393 -0.09028,-0.036428 z m -0.46807,-0.07444 c 0.07027,-0.018311 0.16777,-0.017107 0.216667,0.00268 0.0489,0.019783 -0.0086,0.034765 -0.127763,0.033294 -0.119167,-0.00147 -0.159174,-0.017658 -0.0889,-0.03597 z m -0.682971,-0.071509 c 0.05213,-0.020863 0.114427,-0.018297 0.138426,0.0057 0.024,0.023999 -0.01866,0.041068 -0.09479,0.037933 -0.08414,-0.00347 -0.101248,-0.020579 -0.04363,-0.043634 z m -0.654514,-0.070718 c 0.04965,-0.020035 0.130902,-0.020035 0.180555,0 0.04965,0.020035 0.009,0.036428 -0.09028,0.036428 -0.09931,0 -0.13993,-0.016393 -0.09028,-0.036428 z m -2.401389,-0.096613 c -0.02455,-0.039722 -0.01214,-0.072222 0.02759,-0.072222 0.03972,0 0.09231,0.0325 0.116858,0.072222 0.02455,0.039722 0.01214,0.072222 -0.02759,0.072222 -0.03972,0 -0.09231,-0.0325 -0.116858,-0.072222 z m 1.209722,0.019611 c 0.148958,-0.015581 0.392708,-0.015581 0.541667,0 0.148958,0.015582 0.02708,0.02833 -0.270834,0.02833 -0.297916,0 -0.419791,-0.012748 -0.270833,-0.02833 z"
       id="path39"
       sodipodi:nodetypes="sssssssssssssssssssssssssssssssssssccssssssssssssscssssssssssssssscsssssssssssssssssscsscsssscccsssssssssscssssssscssssscccssscssssscsccccccscccssssssscsssscsssscsssssssssssscccccsssssssssssssssssssssscsscssccssssssssssssssssscsssscsssssssssssscscccsssssssssscsssccscsssscsscscssscssssscsscsssssssssssssccsssssssscssscsssccssssssssssssssssssssscsssccssssssscsssscsssssssscsssssscssssssssssssscssssssssscsscsssccssscscsssssssscscccscsssssssssssssssssssssscssscscccsscsssscsscsscssccsssssscssssssssssssssscsccccscccssssscssssccsscsssssssssssssssssssssscssscssssscssssscsscssccsssscssssssssscssscssccssssssscsscccccsscsssscscsscccsscsssssssssssssssssssssssssssssssssssscssssssssssssssssssssssssssssssssssssssssssssssss" /><path
       style="display:none;fill:#606060;fill-opacity:1"
       d="m 7.4172925,40.784594 c -0.2097776,-0.919124 0.2719039,0.256356 0,0 z m 0.049791,-0.877937 c 0.061405,-0.272224 0.057732,0.346543 0,0 z m 0.072222,-0.433334 c 0.06141,-0.272217 0.057726,0.346574 0,0 z m 0.072222,-0.361111 c 0.061415,-0.272207 0.057721,0.346575 0,0 z m 0.2166667,-0.866667 c 0.061415,-0.272207 0.057721,0.346575 0,0 z m 1.9442982,0.01486 c 0.3667056,-0.580845 0.2321556,0.0071 0,0 z M 11.105634,36.33287 c -0.09577,-0.366764 0.238537,0.276506 0,0 z m 1.196848,-1.403528 c -0.0025,-0.388698 0.278062,-0.08147 0,0 z m 0.392041,-0.257583 c -0.09577,-0.366764 0.238537,0.276506 0,0 z M 9.5965806,33.716505 c 0.2423287,-0.368118 -0.064009,0.307772 0,0 z m 4.6944444,-0.866667 c 0.242323,-0.368115 -0.06401,0.307775 0,0 z m 1.120503,-0.967623 c 0.440498,-0.352526 0.476063,0.0815 0,0 z m -0.250733,-0.298673 c -0.160862,-0.932036 0.4022,-0.07334 0,0 z m 0.973272,-0.321859 c 0.435628,-0.469277 0.457584,-0.183125 0,0 z m 1.543789,-1.573257 c -0.09578,-0.366765 0.238538,0.276501 0,0 z m -0.177585,-0.247973 c 0.208864,-0.436761 0.05182,0.397649 0,0 z m 0.785232,-0.234722 c -0.204232,-0.332084 0.417896,0.433089 0,0 z m 0.442545,-0.318982 c 0.176002,-0.231587 0.207067,0.270198 0,0 z m 1.161258,-0.391204 c 0.06142,-0.272194 0.0577,0.346573 0,0 z m 1.36652,-0.130006 c 0.34159,-0.236313 0.333542,0.139513 0,0 z m 0.433333,-0.240485 c 0.668209,-0.516797 -0.02585,0.205742 0,0 z m 0.65,-0.165157 c 0.34733,-0.547733 -0.166426,0.503167 0,0 z m 0.433334,-0.291155 c 0.216419,-0.265943 0.20842,0.171366 0,0 z m 0.981448,-0.05952 c 0.275337,-0.165919 0.353648,0.236963 0,0 z m 0.24633,-0.157144 c 0.414999,-0.374853 0.163228,0.208323 0,0 z m 0.597207,-0.04778 c 0.580467,-0.187531 0.01569,0.166681 0,0 z m 0.63057,-0.0944 c 1.180163,-0.273451 -0.482056,0.23326 0,0 z m -10.831036,-0.04826 c 0.06013,-0.69138 0.419335,-0.103763 0,0 z m 12.189717,-0.14552 c 0.392204,-0.150305 -0.03256,0.165497 0,0 z m 0.895416,-0.123936 0.08611,0.0127 z M 16.277569,26.82666 c 0.192715,-0.724216 0.04715,0.42077 0,0 z m 12.06965,0.07743 c 0.334984,-0.602696 0.110922,0.186918 0,0 z m -12.83306,-0.09975 c 0.198368,-0.277265 0.02655,0.248405 0,0 z m -1.263888,-0.07222 c 0.168445,-0.301905 0.09126,0.254427 0,0 z m 2.43768,-0.288888 c 0.271723,-1.322016 -0.04032,0.968094 0,0 z m 14.48175,0.09439 c 0.580473,-0.187531 0.01568,0.166681 0,0 z m -14.824986,-0.09866 c 0.150735,-0.166631 0.133641,0.278349 0,0 z m 13.216667,-0.03185 c 0.15446,-0.454212 0.284152,0.307836 0,0 z m -15.133526,-0.04092 c -0.09577,-0.366764 0.238536,0.276507 0,0 z m 1.62797,-0.103528 c 0.208835,-0.436717 0.05183,0.397626 0,0 z m 0.409259,-0.01204 c -0.296266,-0.514692 0.311483,0.09738 0,0 z m 1.065982,-0.04799 c -0.01396,-0.66275 0.354626,0.01334 0,0 z M 16.16119,25.93287 c -0.09581,-0.366762 0.238532,0.276491 0,0 z m -0.460773,-0.109547 c 0.06142,-0.272194 0.0577,0.346573 0,0 z m 1.083333,0 c 0.06142,-0.272194 0.0577,0.346573 0,0 z m -2.344756,-0.04331 c 0.43506,-0.174536 0.05437,0.232461 0,0 z m 0.36478,-0.04686 c -0.04831,-0.414147 0.399834,0.267972 0,0 z m 0.602052,-0.120482 c 0.05185,-0.3976 0.208799,0.436671 0,0 z m 2.17807,-0.03611 c 0.04988,-0.422606 0.04982,0.422907 0,0 z m -2.060814,-0.111126 c -0.264253,-0.668817 0.279537,0.298402 0,0 z m 0.249557,-0.0032 c 0.06142,-0.272194 0.0577,0.346573 0,0 z m 1.519675,-0.210648 c 0.09894,-1.008052 0.09634,0.958611 0,0 z m -2.345939,0.144444 c 0.23123,-0.388202 -0.01284,0.339201 0,0 z m 6.916478,-0.04729 c -0.389903,-0.474506 0.762673,0.600651 0,0 z m -4.967549,-0.24439 c -0.234887,-0.536628 0.289292,0.298618 0,0 z m -1.091902,-0.03275 c -0.07888,-0.682859 0.258257,0.213349 0,0 z m 5.808069,-0.126961 c -0.5326,-0.594145 0.683516,0.64265 0,0 z m -3.961054,-0.06019 c 0.06142,-0.272194 0.0577,0.346573 0,0 z m 3.634658,-0.04815 c -0.482114,-0.561054 0.598153,0.565372 0,0 z m 2.686823,0.05159 c -1.487777,-1.283433 0.346493,-0.423246 0,0 z m 2.676521,-0.0095 c -0.296266,-0.514692 0.311483,0.09738 0,0 z m -4.742593,-0.132408 c -0.53929,-0.768063 0.678825,0.367258 0,0 z m -4.938194,-0.0215 c -0.07168,-0.555598 0.289345,0.197999 0,0 z m 3.782639,-0.05072 c -0.700043,-0.920584 0.59488,0.09205 0,0 z m -3.427472,-0.03112 c 0.05485,-0.498475 0.210526,0.317662 0,0 z m 7.137082,-0.04069 c -0.916948,-0.893544 0.333241,-0.06421 1.2e-5,9e-6 z m 1.195975,0.08986 c -0.38296,-0.564837 0.619831,0.225339 0,0 z m -3.208363,-0.126389 c 0.02655,-0.248405 0.198368,0.277265 0,0 z m 2.459474,0.0063 c 0.169734,-0.215771 0.327093,0.319725 0,0 z m -3.83624,-0.241062 c -0.624639,-0.684174 0.764274,0.73087 0,0 z m -0.831478,-0.108334 c -0.532602,-0.594145 0.683515,0.642646 0,0 z m 1.151809,0.07222 c -0.213068,-0.352 0.464006,0.497279 0,0 z m 4.306946,0.05499 c 0.123302,-0.179005 0.241722,0.338346 0,0 z M 18.408408,24.2283 c -0.03597,-0.704782 0.28172,0.446462 0,0 z m 3.828907,-0.01686 c -0.246452,-0.634883 0.40465,0.452637 0,0 z M 19.33893,24.1994 c 0.0069,-0.46811 0.443594,0.03694 0,0 z m 0.46905,-0.03811 c -0.04777,-0.41606 0.441065,0.234017 0,0 z m 2.747846,0.08681 c 0.273463,-0.366184 0.209048,0.166293 0,0 z m -1.168572,-0.240077 c 0.0654,-0.241492 0.706616,0.500215 0,0 z m 17.549475,-1.803097 c 0.392204,-0.150305 -0.03256,0.165497 0,0 z m 0.66956,-0.765545 c 0.295724,-0.345855 0.31635,-0.02159 0,0 z m -0.840952,-1.19245 c -0.330586,-0.698084 0.266353,-0.0913 0,0 z m 2.0266,-0.376003 c -0.115068,-0.418134 0.432079,0.495307 0,0 z m -1.769444,-0.212404 c 0.111982,-0.417558 0.151333,0.23781 0,0 z m 0.361111,-0.68153 c 0.25322,-0.534391 0.228764,0.140075 0,0 z m 0.216667,-0.29265 c 0.326472,-0.388845 0.352686,0.01344 0,0 z M 40.1648,17.863483 c -0.0489,-1.242354 0.252843,0.585354 0,0 z m 0.360153,-0.465991 c -0.06807,-1.140063 0.27908,0.460877 0,0 z m 3.269908,-0.168613 c 0.06142,-0.272196 0.0577,0.346573 0,0 z m 0.33615,-0.400166 c 0.395335,-0.279468 -0.135925,0.243596 0,0 z m -2.861324,-0.532705 c 0.137229,-1.220963 0.126352,0.473055 0,0 z m -12.50275,-0.108333 c -0.171288,-0.274819 0.409495,0.291124 0,0 z m 12.783334,-0.02759 c 0.119945,-0.539138 0.187232,0.276445 0,0 z m 3.886458,-0.09397 c 0.392204,-0.150305 -0.03256,0.165497 0,0 z M 41.406932,15.55573 c 0.111573,-0.787431 0.253207,0.501337 0,0 z m 0.293485,0.01204 c 0.06142,-0.272196 0.0577,0.346573 0,0 z m 4.63595,-0.08014 c 0.580468,-0.187531 0.01569,0.166681 0,0 z m -4.558026,-0.455507 c 0.04987,-0.422746 0.04984,0.422926 0,0 z m 1.0812,-0.173659 c -0.270804,-1.315876 0.38574,1.008009 0,0 z m -0.329112,-0.156499 c -0.139684,-0.79332 0.277218,0.562138 0,0 z m 5.611494,0.06344 c 0.580475,-0.187531 0.01568,0.166681 0,0 z m -6.302764,-0.311061 c 0.157638,-0.515025 0.05716,0.504283 0,0 z m 0.149521,0.09454 c -0.05171,-0.517439 0.331893,-0.08741 0,0 z m 7.308798,-0.07237 c 0.580467,-0.187531 0.01569,0.166681 0,0 z m 0.937515,2.65e-4 c 0.509617,-0.178581 0.153157,0.141709 0,0 z m -7.529167,-0.158357 c 0.149605,-0.462202 0.19335,0.1971 0,0 z m 8.288833,-0.09291 c 0.524557,-0.331265 -0.06266,0.250481 0,0 z m -8.408355,-0.243727 c -0.08952,-0.496917 0.234544,0.388875 0,0 z m -0.446852,-0.105218 c 0.04988,-0.422606 0.04982,0.422907 0,0 z m 0.101573,-0.195497 c -0.06409,-0.315948 0.241264,0.374859 0,0 z m 11.501259,0.07394 c 0.3922,-0.150317 -0.03255,0.165502 0,0 z M 42.723237,13.67774 c -0.07403,-0.654394 0.973723,-0.288779 0,0 z m 0.767821,-0.07201 c -0.16319,-0.318094 0.586884,0.521386 0,0 z m 10.829004,0.07705 c 0.392225,-0.150292 -0.03259,0.165491 0,0 z m 2.166667,-0.288889 c 0.392228,-0.150281 -0.03259,0.165486 0,0 z m -0.794445,-0.07222 c 0.392212,-0.150315 -0.03257,0.1655 0,0 z m 1.733334,0 c 0.392204,-0.150305 -0.03256,0.165497 0,0 z m 0.912507,-0.01672 c 0.216422,-0.449169 0.529841,0.232807 0,0 z M 43.500271,13.158604 c 0.111982,-0.417558 0.151333,0.23781 0,0 z m 0.541666,-0.0043 c 0.431208,-0.482988 -0.111542,0.403813 0,0 z m 15.690278,0.02125 c 0.671085,-0.176733 0.216237,0.134497 0,0 z m 2.275,-0.07104 c 0.509617,-0.178581 0.153157,0.141709 0,0 z M 43.902136,12.742179 c -0.06407,-0.315949 0.241261,0.374861 0,0 z m 0.320357,-0.165615 c -0.171289,-0.274819 0.409493,0.291123 0,0 z m 0.108333,-0.144445 c -0.197551,-0.656571 0.469528,0.575678 0,0 z m -0.432822,8.28e-4 c 0.123295,-0.179029 0.241725,0.338322 0,0 z m 0.655562,-0.119376 c -0.02863,-0.308582 0.341227,0.472248 0,0 z m 0.993943,-0.107798 c 0.66301,-0.201171 -0.154098,0.291555 0,0 z m -0.981961,-0.110374 c 0.452515,-0.180137 0.08186,0.166648 0,0 z m 1.448959,-0.218171 c 0.392204,-0.150305 -0.03256,0.165497 0,0 z m -0.798117,-0.07397 c 0.723832,-0.204529 0.08871,0.16741 0,0 z m 0.233881,-0.310032 c -0.21209,-0.315339 0.465703,0.307805 0,0 z m 0.597207,0.02217 c 0.580467,-0.187531 0.01569,0.166681 0,0 z m -0.109707,-0.280149 c -0.631541,-0.592458 0.743499,0.353022 0,0 z m 0.416005,-0.104313 c 0.519157,-0.215594 -0.01713,0.275142 0,0 z m -0.145172,-0.143266 c 0.02655,-0.248405 0.198368,0.277265 0,0 z m 0.416162,0.02007 c 0.206033,-0.361573 0.376664,0.276303 0,0 z m 1.371338,-0.0018 c -0.559368,-0.416572 1.033995,0.218599 0,0 z m -0.523611,-0.11889 c 0.273462,-0.366183 0.209046,0.166294 0,0 z m -0.374653,-0.09318 c 0.392215,-0.150292 -0.03258,0.165487 0,0 z m -0.433333,-0.07222 c 0.392204,-0.150305 -0.03256,0.165497 0,0 z m -0.09479,-0.203423 c 0.128873,-0.34698 1.149502,0.167523 0,0 z m 1.697222,0.03609 c 0.19686,-0.325163 0.476719,0.465702 0,0 z m -0.433333,-0.07222 c 1.180213,-0.273455 -0.482088,0.233263 0,0 z m 8.797569,0.02289 c 0.3922,-0.150317 -0.03255,0.165502 0,0 z m -8.111458,-0.167331 c 0.01515,-0.292893 0.312575,0.346699 0,0 z m -0.991723,-0.08439 c 0.524558,-0.3312478 -0.06268,0.250481 0,0 z m 0.630612,0.01217 c 0.71755,-0.2978057 -0.23856,0.234819 0,0 z m -1.083333,-0.07222 c -0.207877,-0.2889284 0.722025,0.281613 0,0 z m 8.400347,0.02289 c 0.392216,-0.150303 -0.03258,0.165495 0,0 z M 54.536729,9.99945 c 0.392208,-0.1503002 -0.03257,0.165494 0,0 z M 54.175618,9.927228 c 0.392211,-0.1503164 -0.03258,0.165515 0,0 z M 46.894715,9.832119 c -0.430507,-0.2505444 0.725447,0.23721 0,0 z m 6.558681,-0.049336 c 0.392225,-0.1503078 -0.0326,0.1655109 0,0 z m -0.51007,-0.070718 c 0.452517,-0.1801292 0.08187,0.1666393 0,0 z m -5.630319,-0.1121779 0.294739,-0.092881 z m 1.676152,0.022327 c 0.357471,-0.158814 0.343595,0.2505265 0,0 z m 3.59757,0.016125 c 0.392224,-0.1503109 -0.0326,0.1655142 0,0 z m -5.728125,-0.095108 c -0.326899,-0.2465487 0.783615,0.3049142 0,0 z m 1.733333,0 c 0.717556,-0.2977965 -0.238561,0.2348095 0,0 z m -0.631944,-0.047831 c 0.452521,-0.1801311 0.08186,0.1666407 0,0 z m 3.648597,-0.00222 c 0.580443,-0.187558 0.01572,0.1666509 0,0 z m -0.543042,-0.070004 c 0.452515,-0.180129 0.08187,0.1666392 0,0 z M 48.181173,9.34945 c 0.392221,-0.1503202 -0.03259,0.1655199 0,0 z m 2.37882,0.0015 c 0.452522,-0.1801313 0.08186,0.1666413 0,0 z M 49.986729,9.277223 c 0.392224,-0.1503109 -0.0326,0.1655142 0,0 z M 49.043326,9.203372 c 0.671086,-0.1767278 0.216237,0.1344929 0,0 z M 47.887771,9.134288 c 0.452517,-0.180128 0.08187,0.1666388 0,0 z"
       id="path38" /><path
       style="display:inline;fill:#8c8c8c;fill-opacity:1;stroke-width:0.3"
       d="m 8.0654367,36.614873 c 0,0 1.5909903,-3.513437 5.0823303,-7.159456 3.491339,-3.646019 6.14299,-5.634757 6.14299,-5.634757 0,0 0.04419,-0.06629 0.441942,-0.30936 0.397747,-0.243067 0.773398,-0.707106 2.077126,-0.729203 1.303728,-0.0221 2.474874,-0.110486 3.425048,0.729203 0.950175,0.83969 2.099224,1.237437 2.607457,2.43068 0.508233,1.193243 1.303728,2.496971 1.723572,3.955379 0.419845,1.458407 0.994369,1.81196 0.994369,1.81196 0,0 -0.686875,-0.493862 -4.993941,-1.723572 -3.370314,-0.962258 -4.132156,-0.928078 -4.574097,-0.972272 -0.441942,-0.04419 -0.596622,-0.53033 -3.579728,1.347922 -2.983107,1.878253 -9.3470683,6.253476 -9.3470683,6.253476 z"
       id="path2"
       transform="matrix(1.2748987,-0.52808353,0.57290404,0.71191821,-24.654597,19.897962)"
       sodipodi:nodetypes="cscssssscsssc" /><path
       style="display:inline;fill:#494949;fill-opacity:1"
       d="m 7.4613817,40.50445 c 0.7424321,-5.333657 3.7999443,-9.915998 6.6341813,-14.356135 0.66992,0.753757 1.955519,-1.124271 1.681013,-0.05558 0.910684,-0.496292 1.197396,-0.143013 1.87466,-0.919766 0.191939,0.840594 1.329367,-1.294429 2.382225,-0.863928 2.051291,-0.0027 4.086105,0.362687 6.143757,0.299775 1.037373,0.201877 3.903356,0.6536 3.252284,2.031903 -3.451043,0.662374 -7.049966,0.927376 -10.334326,2.272546 -2.538928,1.32987 -4.34787,3.639475 -6.347131,5.629887 -1.570583,1.626905 -2.7976726,3.548739 -4.2973497,5.225373 C 8.1478792,40.04739 7.8186325,40.299082 7.4613817,40.50445 Z M 37.52441,23.046926 c 0.509365,-3.424136 3.342855,-5.927715 5.026982,-8.800747 1.636172,-1.705401 4.046238,-2.502952 5.458504,-4.4471134 2.773485,-1.297388 5.702847,0.3436644 8.495351,0.7041004 1.480443,0.465435 4.438023,0.688426 4.624374,2.304231 -1.68283,0.929518 -3.830022,0.0425 -5.675356,0.653473 -2.831951,0.422955 -5.570731,0.780253 -8.511867,1.845009 -3.014838,1.397017 -8.542063,8.43624 -9.417988,7.741047 z m -6.007327,-8.273603 c 0.266972,-0.04573 -0.364192,0.482781 0,0 z M 47.170062,9.5661167 c -6.95e-4,-0.4477537 0.29703,0.2251828 0,0 z"
       id="path37"
       sodipodi:nodetypes="ccccccccccccccccccccccc" /><path
       style="fill:#333333;fill-opacity:1"
       d="m 28.73645,16.517253 c -0.06053,-0.322675 0.0022,-0.420333 0.144726,-0.225383 0.126303,0.172731 0.126587,0.196269 0.0044,0.363403 -0.09031,0.123501 -0.102086,0.112597 -0.149102,-0.13802 z m 3.321242,-0.741741 c -0.03919,-0.102931 -0.0309,-0.111227 0.04043,-0.04043 0.04936,0.04899 0.07155,0.107268 0.04931,0.129504 -0.02224,0.02224 -0.06262,-0.01785 -0.08974,-0.08907 z m -2.961659,-0.253907 c -0.215421,-0.307557 -0.07214,-0.706152 0.253841,-0.706152 0.163016,0 0.188433,0.270794 0.06,0.639222 -0.09383,0.269174 -0.162,0.283711 -0.313839,0.06693 z m 2.158256,-0.66649 c -0.147164,-0.224601 -0.109494,-0.436885 0.07753,-0.436885 0.117139,0 0.14753,0.05631 0.165664,0.306945 0.0251,0.346952 -0.0683,0.396858 -0.24319,0.12994 z"
       id="path36" /><path
       d="M 37.603405,31.47996 C 37.28702,31.231091 36.318737,29.656472 36.175968,29.158663 l -0.06269,-0.218578 0.195337,0.125528 c 0.107435,0.06904 0.309086,0.212148 0.448114,0.318017 0.266268,0.202762 0.988622,0.65211 1.048307,0.65211 0.08691,0 0.02173,-0.745879 -0.107718,-1.232662 -0.07851,-0.295231 -0.14351,-0.615078 -0.144445,-0.710772 -0.0015,-0.157764 0.02903,-0.141455 0.327859,0.174903 0.181257,0.19189 0.38071,0.448935 0.443229,0.571211 0.06252,0.122276 0.201683,0.33607 0.309255,0.475097 0.337435,0.436108 0.569737,0.891087 0.622057,1.218338 l 0.05045,0.315561 -0.178873,-0.117203 c -0.22663,-0.148494 -0.275677,-0.09644 -0.275677,0.292564 0,0.172129 -0.03195,0.312963 -0.071,0.312963 -0.03905,0 -0.157867,-0.170625 -0.264031,-0.379167 -0.106164,-0.208542 -0.206311,-0.340367 -0.222549,-0.292946 -0.01624,0.04742 -0.07617,0.06832 -0.133192,0.04644 -0.162377,-0.06231 -0.126867,0.221179 0.04747,0.378949 0.08312,0.07523 0.183084,0.196473 0.222133,0.269438 0.06439,0.120315 0.05537,0.124568 -0.09697,0.04569 -0.09238,-0.04783 -0.225041,-0.136761 -0.294798,-0.197616 -0.18682,-0.16298 -0.245727,-0.04303 -0.100011,0.203652 0.122472,0.207329 0.12207,0.214445 -0.01211,0.214445 -0.07633,0 -0.22155,-0.0651 -0.322704,-0.144669 z"
       style="fill:#ae430f;fill-opacity:1"
       id="path1" /><path
       d="m 28.471981,33.547029 c 0,-0.01603 0.03297,-0.115866 0.07327,-0.221861 0.0403,-0.105996 0.122736,-0.522048 0.183193,-0.924561 0.120273,-0.800768 0.207262,-0.988892 0.284163,-0.61454 0.09489,0.461929 0.320789,1.141708 0.439718,1.323217 0.06578,0.100393 0.08957,0.182532 0.05288,0.182532 -0.09651,0 -0.282158,-0.159764 -0.36127,-0.310898 -0.05953,-0.113723 -0.09451,-0.08877 -0.274323,0.195707 -0.171532,0.27137 -0.397628,0.481987 -0.397628,0.370404 z"
       style="display:inline;fill:#ae430f;fill-opacity:1"
       id="path1-4"
       transform="translate(1.3700194,-18.561553)" /></g></g></svg>
