<svg xmlns="http://www.w3.org/2000/svg" xml:space="preserve" fill-rule="evenodd" clip-rule="evenodd" viewBox="0 0 64 64">
  <g id="blue">
    <path fill="#73d2fd" d="M32.396 9.346c.685 0 .952.461 1.428.937l1.427 1.428 1.428 1.427 1.427 1.428 5.71 5.71 5.71 5.711 1.428 1.427 1.427 1.428 1.428 1.427c.476.476.695.755.695 1.428 0 .695-.251.983-.743 1.475l-2.95 2.951-1.476 1.475L37.533 49.4l-2.95 2.951-1.476 1.475c-.491.492-.779.828-1.475.828-.673 0-.952-.305-1.427-.78l-2.856-2.855-1.427-1.428-5.711-5.71-5.71-5.71-4.283-4.282c-.476-.476-.724-.755-.724-1.428 0-.695.28-.983.772-1.475l20.655-20.655c.492-.492.791-.985 1.475-.985Z"/>
  </g>
  <g id="white">
    <path fill="#ebebeb" d="M12 33.5c1.409-2.775 4.305-6.781 7.5-8.422.705-.362 2.205-1.078 2.205-1.078l1.795.5c2.585 1.372 5.227 2.319 8 3.75.618-.694.982-.964 2-1.25.833-.225 1.667-.244 2.5 0 .624.182 1.154.619 1.608.863 1.954-1.448 4.86-1.961 6.892-2.863.381.121 1 .278 1 .278l1.303.644C49.592 27.299 51.606 29.371 53 32c.668 1.227-.212 1.273-2.824 0l-5.473-3L38 32.175A2.595 2.595 0 0 1 37.306 34c-.782.846-1.603.588-3.166.731-1.05-.111-1.667-.177-2.64-1.006-.353-.3-.898-1.084-1.298-1.447-1.17.243-5.007-2.016-8.702-4.096-4.373 4.379-7.549 6.172-9.5 5.318Z"/>
    <path fill="#fefffe" d="M35.398 27.5c1.563.07 3.848 1.804 2.252 2-1.226.151-2.229 1.392-2.486 3.25-.185 1.336-3.037-1.59-2.781-2.991.279-1.528 1.282-2.336 3.015-2.259Z"/>
    <path fill="#fafafa" d="M35.137 33.137c.439.08.851-.067 1.24-.387 1.403-1.008 2.079-2.987 1.815-3.464-.644.067-1.311.297-2.005.714-1.089.914-1.361 1.974-1.05 3.137Z"/>
  </g>
  <g id="black">
    <path d="M33.446 29.417c.247 0 .447.224.447.5s-.2.5-.447.5c-.246 0-.446-.224-.446-.5s.2-.5.446-.5ZM37 28.5c.274 0 .5.226.5.5s-.226.5-.5.5a.503.503 0 0 1-.5-.5c0-.274.226-.5.5-.5Z"/>
  </g>
  <g id="orange">
    <path fill="#f38d33" d="m35.667 29.612.77 1.377.18 3.129-.564-2.227-.982-1.659.596-.62Z"/>
    <path fill="#c56d2b" d="m34.797 30.875.274-.643.982 1.659.564 2.227-1.061-1.948-.759-1.295Z"/>
    <path fill="#c56d2b" d="m36.794 34.118.512.967h.75l.5.75-1-.305.283 1.025-.783-.967-.184 1.247-.316-.812.29-.688-.79-.847c.127-.385.361-.535.738-.37Z"/>
    <path fill="#c56d2b" d="m31.798 33.835-.914.725-.998.775.923-.274-.059.774.586-.5.22 1 .232-1-.325-.5.736-.717c.078-.377-.029-.506-.401-.283Z"/>
  </g>
  <g id="yellow">
    <g id="grey">
      <path fill="#bdbdbd" d="M31.791 33.841a3.769 3.769 0 0 1-.291-.341l.632.233c-.068-.023-.178.008-.334.102l-.007.006Zm.349-.106.86.317c1.163.524 3.291-.003 4.608-.447-.163.24-.408.466-.741.652l-.073-.139c-.377-.165-.611-.015-.738.37l.074.079c-.338.102-.7.163-1.059.164-1.409.15-2.293-.109-2.916-.571l.044-.042c.044-.213.029-.347-.059-.383Z"/>
      <path fill="#909090" d="M13.086 31.603A5.88 5.88 0 0 0 12 33.5c.235.377.887.485 2.672-.138 1.717-.501 3.511-1.843 5.328-3.445.61-.502 1.09-1.165 1.5-1.917.925 1.294 2.67 2.042 4.5 2.733 2.221 1.497 3.929 1.904 5 .952l-5.119-2.887c-1.93-.887-3.369-1.681-4.499-2.418l-3.599 3.12a12.545 12.545 0 0 1-4.697 2.103Z"/>
      <path fill="#909090" d="M38 32.175c.238-.51.351-.998.289-1.458l6.505-3.217 5.706 3.154 2.183.776c.334.174.497.547.532 1.07.038.397-.154.603-.715.5-1.255-.302-2.195-.848-3-1.5-1.748-.558-3.273-1.451-4.721-2.458-2.021 1.394-4.708 2.638-6.779 3.133Z"/>
    </g>
    <path fill="#f5f5d1" fill-rule="nonzero" stroke="#324565" stroke-width="0.2px" d="M32.488 6.15c-.778 0-1.12.63-1.68 1.191l-1.681 1.68-10.085 10.085-6.724 6.723-5.042 5.042c-.56.56-.978.888-.978 1.681 0 .764.378 1.081.919 1.621l4.864 4.865 6.487 6.486 8.108 8.108 1.621 1.622 1.622 1.621c.54.541.857.975 1.621.975.793 0 1.121-.474 1.681-1.034l1.681-1.681 1.681-1.68 18.489-18.489 1.681-1.68c.56-.56.949-.889.949-1.681 0-.764-.349-1.081-.89-1.622l-1.622-1.621-1.621-1.622-14.594-14.594-1.622-1.621-3.243-3.244c-.541-.54-.843-1.131-1.622-1.131Zm-.092 3.196c.685 0 .952.461 1.428.937l1.427 1.428 1.428 1.427 1.427 1.428 5.71 5.71 5.71 5.711 1.428 1.427 1.427 1.428 1.428 1.427c.476.476.695.755.695 1.428 0 .695-.251.983-.743 1.475l-2.95 2.951-1.476 1.475L37.533 49.4l-2.95 2.951-1.476 1.475c-.491.492-.779.828-1.475.828-.673 0-.952-.305-1.427-.78l-2.856-2.855-1.427-1.428-5.711-5.71-5.71-5.71-4.283-4.282c-.476-.476-.724-.755-.724-1.428 0-.695.28-.983.772-1.475l20.655-20.655c.492-.492.791-.985 1.475-.985Z"/>
  </g>
</svg>
