<svg xmlns="http://www.w3.org/2000/svg" xml:space="preserve" fill-rule="evenodd" clip-rule="evenodd" viewBox="0 0 64 64">
  <g id="blue">
    <path fill="#1f70d9" fill-rule="nonzero" stroke="#324565" stroke-width="0.2px" d="M32.488 6.15c-.778 0-1.12.63-1.68 1.191l-1.681 1.68-10.085 10.085-6.724 6.723-5.042 5.042c-.56.56-.978.888-.978 1.681 0 .764.378 1.081.919 1.621l4.864 4.865 6.487 6.486 8.108 8.108 1.621 1.622 1.622 1.621c.54.541.857.975 1.621.975.793 0 1.121-.474 1.681-1.034l1.681-1.681 1.681-1.68 18.489-18.489 1.681-1.68c.56-.56.949-.889.949-1.681 0-.764-.349-1.081-.89-1.622l-1.622-1.621-1.621-1.622-14.594-14.594-1.622-1.621-3.243-3.244c-.541-.54-.843-1.131-1.622-1.131Zm-.092 3.196c.685 0 .952.461 1.428.937l1.427 1.428 1.428 1.427 1.427 1.428 5.71 5.71 5.71 5.711 1.428 1.427 1.427 1.428 1.428 1.427c.476.476.695.755.695 1.428 0 .695-.251.983-.743 1.475l-2.95 2.951-1.476 1.475L37.533 49.4l-2.95 2.951-1.476 1.475c-.491.492-.779.828-1.475.828-.673 0-.952-.305-1.427-.78l-2.856-2.855-1.427-1.428-5.711-5.71-5.71-5.71-4.283-4.282c-.476-.476-.724-.755-.724-1.428 0-.695.28-.983.772-1.475l20.655-20.655c.492-.492.791-.985 1.475-.985Z"/>
    <path fill="#57e8f7" d="M32.396 9.346c.685 0 .952.461 1.428.937l1.427 1.428 1.428 1.427 1.427 1.428 5.71 5.71 5.71 5.711 1.428 1.427 1.427 1.428 1.428 1.427c.476.476.695.755.695 1.428 0 .695-.251.983-.743 1.475l-2.95 2.951-1.476 1.475L37.533 49.4l-2.95 2.951-1.476 1.475c-.491.492-.779.828-1.475.828-.673 0-.952-.305-1.427-.78l-2.856-2.855-1.427-1.428-5.711-5.71-5.71-5.71-4.283-4.282c-.476-.476-.724-.755-.724-1.428 0-.695.28-.983.772-1.475l20.655-20.655c.492-.492.791-.985 1.475-.985Z"/>
  </g>
  <g id="grey">
    <path fill="#1c2b32" d="M25.588 36.699a.07.07 0 0 1 .035-.006c.072.017.14.043.207.07.437.026.883.011 1.308-.046l.483-.062c.061.064.123.127.187.188.215.201.478.329.744.444.279.12.566.216.844.339.172.076.343.153.515.228l-.104.031c-.385.118-.78.214-1.18.262a5.23 5.23 0 0 1-.961.02c-.177-.026-.353-.058-.53-.09a7.52 7.52 0 0 1-1.065-.271 2.066 2.066 0 0 1-.128-.192 7.109 7.109 0 0 1-.398-.842c-.011-.027.015-.059.043-.073Z"/>
    <path fill="#ccc" d="M40.695 33.08c.737.048 1.177.474.867.379-.345-.106-.706-.1-1.062-.084-.324.015-.618.123-.936.161-.327.039-.657.036-.977.122l-.107.03c.079.13.151.265.22.408.067.137.383.466.256.626-.109.139-.489-.031-.63-.061a5.419 5.419 0 0 1-.837-.263c-.232-.089-.504-.249-.757-.242-.25.007-.509.05-.752.106-.631.144-1.244.317-1.852.542-.291.108-.599.174-.886.289-.284.115-.565.233-.85.343-.485.186-.962.373-1.462.52-.623.184-1.261.32-1.894.464-.632.144-1.258.213-1.898.297a6.893 6.893 0 0 1-1.308.046 1.362 1.362 0 0 0-.207-.07c-.035-.008-.094.041-.078.079.119.287-3.193.126-3.481-.302-1.093-.009-2.2-.266-3.227-.582-.379-.117-.745-.271-1.123-.387l-.202-.063-.078-.032a9.247 9.247 0 0 1-1.013-.488c-.159-.091-.309-.186-.412-.34-.08-.118-.125-.25-.213-.364-.431-.556-1.178-.831-1.76-1.191-.323-.2-.671-.412-.908-.714-.098-.125-.107-.278-.128-.425.063-.125 1.767.177 2.225.674 1.436.612 2.975.935 4.423 1.497.948.462 2.496 1.168 3.361.693.851-.562 2.371-.291 3.401.047 1.179.159 2.425.12 3.461-.147 1.234-.118 2.346-.289 3.704-.43 1.328.237 2.568-.36 3.864-.636 1.083-.222 2.091-.778 3.256-.502Z"/>
    <path fill="#1c2b32" fill-rule="nonzero" d="M49.178 27.073c-2.191.666-4.544 1.454-5.944 3.394-.582.813-1.464 1.574-2.524 1.208-.971-.211-3.321-.183-2.227-1.718-1.403.93-2.778.326-4.214-.269-1.202-.739-3.633-.077-3.512-2.101-.112-1.005.677-2.057.222-2.85-1.865.114-3.422 1.423-4.577 2.811-.879 1.35-2.658.692-4.006 1.109-3.168.426-6.234 1.494-9.085 2.907-.854.793 1.456.497 1.914.994 1.436.612 2.975.935 4.423 1.497.948.462 2.496 1.168 3.361.693.851-.562 2.371-.291 3.401.047 1.179.159 2.425.12 3.461-.147 1.234-.118 2.346-.289 3.704-.43 1.328.237 2.568-.36 3.864-.636 1.083-.222 2.091-.778 3.256-.502 1.596.105 2.16 1.837 3.295 2.687.682.655 2.428 1.539 2.872 1.317-.602-1.023-.875-1.86-1.107-3.016-.878-1.317.438-2.462 1.032-3.576.208-.984.782-1.612 1.601-2.339.295-.094 1.548-1.293.79-1.08Z"/>
    <path fill="#394145" fill-rule="nonzero" d="M26.641 38.379c-.266-.225-.522-.462-.698-.765a7.109 7.109 0 0 1-.398-.842c-.011-.026.015-.058.043-.072a1.29 1.29 0 0 1-.013-.125c-.011-.246.091-.59-.069-.798-.309-.112-.637-.162-.968-.211a8.752 8.752 0 0 1-1.392-.331c-.498-.161-.977-.383-1.487-.508-.192-.048-.4-.1-.599-.092-.079.004-.262.017-.286.1.303.202.59.407.816.683.068.083.129.171.184.268.164.286.259.598.372.903.266.381.555.729.907 1.06.485.455 1.082.82 1.672 1.125.191.099.383.197.578.29.364.137.737.246 1.115.315.48.083.967.123 1.454.12l.132.001c-.172-.145-.342-.293-.512-.44-.277-.237-.573-.446-.851-.681Z"/>
  </g>
  <g id="white">
    <path fill="#fff" d="M18.386 34.525c.185.077.377.15.571.188-.296.026-.598-.039-.899-.049l-.066-.015c-.373-.09-.745-.183-1.126-.231-.213-.026-.431-.016-.644-.027-.136-.007-.253-.057-.375-.101a.63.63 0 0 0-.051-.076 2.187 2.187 0 0 0-.431-.412c.292.077.615.09.92.106.312.094.633.156.949.237.391.102.769.251 1.152.38Zm.126-3.217c.165 0 .3.126.3.282 0 .155-.135.282-.3.282-.166 0-.3-.127-.3-.282 0-.156.134-.282.3-.282Z"/>
  </g>
</svg>
