<svg xmlns="http://www.w3.org/2000/svg" xml:space="preserve" fill-rule="evenodd" clip-rule="evenodd" viewBox="0 0 64 64">
  <g id="blue">
    <path fill="#80afcb" d="M32.396 9.346c.685 0 .952.461 1.428.937l1.427 1.428 1.428 1.427 1.427 1.428 5.71 5.71 5.71 5.711 1.428 1.427 1.427 1.428 1.428 1.427c.476.476.695.755.695 1.428 0 .695-.251.983-.743 1.475l-2.95 2.951-1.476 1.475L37.533 49.4l-2.95 2.951-1.476 1.475c-.491.492-.779.828-1.475.828-.673 0-.952-.305-1.427-.78l-2.856-2.855-1.427-1.428-5.711-5.71-5.71-5.71-4.283-4.282c-.476-.476-.724-.755-.724-1.428 0-.695.28-.983.772-1.475l20.655-20.655c.492-.492.791-.985 1.475-.985Z"/>
  </g>
  <g id="yellow">
    <path fill="#fef9e4" fill-rule="nonzero" d="M20.481 24.367c.096-.096.161-.288.225-.513-.417-.193-.867-.449-.835-.578.032-.16.803-.096 1.316-.064.257-.224.642-.417 1.284-.61 1.925-.545 2.952 1.22 4.525 2.183 1.572.962 4.204.192 7.06.192 1.508 0 2.182-.064 5.487-.064 4.269 0 5.007 4.044 4.397 6.868-.353 1.668-.738 2.663-1.348 3.177.032.513.128.898.257 1.059.289.288.417.353.481 1.091s.289 2.182.417 2.599c.129.417 0 .546-.192.738-.064.064-.096.193-.129.353-.032.289-.256.514-.545.514h-.807c0-.257-.028-.738.229-1.091s-.064-1.733-.289-2.407c-.16-.45-.417-.738-.834-.995v.321c.064.481-.706 1.38-.802 1.99-.064.609.128.77-.032 1.091-.161.321-.358-.018-.422.206-.032.097-.124.435-.188.564a.574.574 0 0 1-.514.321h-1.091c0-.417.517-.814.677-1.167.128-.353.639-2.46.639-2.877 0-.417-.77-1.123-1.412-1.957-.16.064-.343.174-.545.192-2.454.219-4.36-.43-5.167-.513-.129 1.476-.77 2.021-.802 2.567-.033 1.091 0 2.054.032 3.017.032.481-.514.738-.963.738h-.963c-.032-.61.257-.61.481-1.316.193-.738-.256-1.316-.417-2.278a5.44 5.44 0 0 1-.096-.354c-.028-.119-.257-.866-.513-1.347-.065-.097-.129-.032-.129.032l.321 1.38c0 .064-.032.128-.032.192 0 .963-.306 1.952-.113 2.626.032.129-.214.029-.214.157.032.449.134.972-.315.972h-1.412c0-.61.289-.61.546-1.316.256-.738-.193-1.316-.289-2.278-.064-.514-.417-1.509-.738-2.279-2.664-1.187-3.081-3.754-3.53-4.653-.482-.899-.674-3.017-1.99-2.407-1.316.61-1.925.481-2.278-.674-.289-1.316 1.283-3.113 1.572-3.402Zm3.273.129s-.288-1.316-.738-1.573c-.417-.256-.674.482-.674.482 1.059.256 1.412 1.091 1.412 1.091Z"/>
    <path fill="#ddd8c1" d="m31.8 34.5.713.021s.905.017 1.268-.051c.443-.082.113.029 1.137-.417C35.943 33.607 37.15 32 37.15 32s-.155.764-.119 1.91c-.009.635.4 1.206 1.004 1.401.604.195-.851.538-3.035.43-2.184-.107-3.2-1.241-3.2-1.241Zm-4.3.183s-.38.127-.684.253c-.303.127-.187.564-.187.564s-.851-.519-1.433-1c-.583-.481-.942-1.184-.942-1.184s1.17-.051 1.651-.405c.481-.355.582-.886.582-.886s.026.303.279 1.544.734 1.114.734 1.114Z"/>
  </g>
  <g id="green">
    <path fill="#2fcf08" fill-rule="nonzero" stroke="#324565" stroke-width="0.2px" d="M32.488 6.15c-.778 0-1.12.63-1.68 1.191l-1.681 1.68-10.085 10.085-6.724 6.723-5.042 5.042c-.56.56-.978.888-.978 1.681 0 .764.378 1.081.919 1.621l4.864 4.865 6.487 6.486 8.108 8.108 1.621 1.622 1.622 1.621c.54.541.857.975 1.621.975.793 0 1.121-.474 1.681-1.034l1.681-1.681 1.681-1.68 18.489-18.489 1.681-1.68c.56-.56.949-.889.949-1.681 0-.764-.349-1.081-.89-1.622l-1.622-1.621-1.621-1.622-14.594-14.594-1.622-1.621-3.243-3.244c-.541-.54-.843-1.131-1.622-1.131Zm-.092 3.196c.685 0 .952.461 1.428.937l1.427 1.428 1.428 1.427 1.427 1.428 5.71 5.71 5.71 5.711 1.428 1.427 1.427 1.428 1.428 1.427c.476.476.695.755.695 1.428 0 .695-.251.983-.743 1.475l-2.95 2.951-1.476 1.475L37.533 49.4l-2.95 2.951-1.476 1.475c-.491.492-.779.828-1.475.828-.673 0-.952-.305-1.427-.78l-2.856-2.855-1.427-1.428-5.711-5.71-5.71-5.71-4.283-4.282c-.476-.476-.724-.755-.724-1.428 0-.695.28-.983.772-1.475l20.655-20.655c.492-.492.791-.985 1.475-.985Z"/>
  </g>
  <g id="black">
    <path d="M23.76 24.599c-.015-.337-1.379-1.295-1.417-1.195.007-.02.241-.658.657-.49.441.07.803.781.803.781-.03.3-.045.602-.043.904Zm-4.149 2.949c-.185-.106-.345-.323-.456-.678a.09.09 0 0 1 .085-.115c.038 0 .073.026.084.063.118.378.336.34.546.382.211.042.401.164.641-.064a.085.085 0 0 1 .061-.024c.049 0 .088.039.088.088a.09.09 0 0 1-.027.064c-.287.273-.579.397-.833.353a.469.469 0 0 0-.179.255.629.629 0 0 0 .045.403.098.098 0 0 1 .007.033.09.09 0 0 1-.056.082.098.098 0 0 1-.033.007.09.09 0 0 1-.082-.056.8.8 0 0 1-.052-.515.62.62 0 0 1 .161-.278Zm8.024 12.751c.443.317.837.207 1.44-.052.135.44.009.917-.304 1.228l-1.679-.099c.097-.376.285-.734.543-1.077Zm2.411-.127c.453.141.938.135 1.488-.172.058.54-.021.9-.251 1.28l-1.656.032c-.038-.412.105-.792.419-1.14Zm8.762-.027c.184.274.528.409 1.192.267.066.277-.083.43-.465.9h-1.5c.138-.569.154-.918.773-1.167Zm3.495.102c.361.261.84.252 1.425 0-.171.553-.341.896-.512 1.129h-1.418c.095-.391.249-.77.505-1.129ZM19.906 23.432c.365.022.729.133 1.094.444a7.175 7.175 0 0 1-.5.471 1.298 1.298 0 0 0-.594-.915Zm2.084 1.774c.21 0 .38.159.38.355 0 .195-.17.354-.38.354-.209 0-.38-.159-.38-.354 0-.196.171-.355.38-.355Zm19.309 11.587a.088.088 0 1 1-.059.167c-.698-.248-1.504-.815-2.237-1.505-.425.133-.831.052-1.226-.155a.085.085 0 0 1-.019-.014c-1.268-1.176-.811-2.623-.64-3.636a.09.09 0 0 1 .102-.073.09.09 0 0 1 .073.103c-.163.965-.624 2.346.577 3.468l.002.002c.361.187.733.258 1.124.121a.088.088 0 0 1 .09.019c.723.688 1.522 1.257 2.213 1.503Zm-11.318-5.206a.088.088 0 0 1-.069-.09.089.089 0 0 1 .088-.085h.003c.063.002.119.04.152.128.042.111.047.337.015.615-.07.618-.308 1.51-.592 1.946a.834.834 0 0 1-.208.231.306.306 0 0 1-.266.052c-.003-.001-.004.003-.006.005l-.011.014a.542.542 0 0 0-.058.184c-.053.29-.039.747-.002 1.024.013.093.043.193.043.193a.087.087 0 0 1 .017.052.09.09 0 0 1-.089.089.088.088 0 0 1-.065-.028.211.211 0 0 1-.036-.068 1.116 1.116 0 0 1-.045-.214c-.04-.292-.053-.774.003-1.08a.6.6 0 0 1 .111-.284c.052-.059.115-.079.188-.057.039.011.077-.002.115-.028a.634.634 0 0 0 .161-.181c.273-.419.497-1.277.564-1.87.025-.164.027-.331.006-.495a.258.258 0 0 0-.019-.053Z"/>
  </g>
</svg>
