<?xml version="1.0" encoding="UTF-8" standalone="no"?>
<!-- Generator: Adobe Illustrator 27.5.0, SVG Export Plug-In . SVG Version: 6.00 Build 0)  -->

<svg
   version="1.1"
   x="0px"
   y="0px"
   viewBox="0 0 64 64"
   xml:space="preserve"
   id="svg35"
   sodipodi:docname="Sheep Spawner.svg"
   width="64"
   height="64"
   inkscape:version="1.3.2 (091e20e, 2023-11-25, custom)"
   xmlns:inkscape="http://www.inkscape.org/namespaces/inkscape"
   xmlns:sodipodi="http://sodipodi.sourceforge.net/DTD/sodipodi-0.dtd"
   xmlns="http://www.w3.org/2000/svg"
   xmlns:svg="http://www.w3.org/2000/svg"
   xmlns:rdf="http://www.w3.org/1999/02/22-rdf-syntax-ns#"
   xmlns:cc="http://creativecommons.org/ns#"
   xmlns:dc="http://purl.org/dc/elements/1.1/"><title
   id="title1">Sheep Spawner</title><defs
   id="defs35">
	

	
	

		
		
		
		
		
		
		
		
		
		
		
		
		
		
		
		
		
		
		
		
	<filter
   id="Adobe_OpacityMaskFilter"
   filterUnits="userSpaceOnUse"
   x="97.058"
   y="103.634"
   width="15.622"
   height="11.469">
					<feFlood
   style="flood-color:white;flood-opacity:1"
   result="back"
   id="feFlood13" />
					<feBlend
   in="SourceGraphic"
   in2="back"
   mode="normal"
   id="feBlend13" />
				</filter><filter
   id="Adobe_OpacityMaskFilter_00000149370544899693391390000016692353094475525055_"
   filterUnits="userSpaceOnUse"
   x="97.058"
   y="103.634"
   width="15.622"
   height="11.469">
							<feFlood
   style="flood-color:white;flood-opacity:1"
   result="back"
   id="feFlood14" />
							<feBlend
   in="SourceGraphic"
   in2="back"
   mode="normal"
   id="feBlend14" />
						</filter><filter
   id="Adobe_OpacityMaskFilter_00000106107291657713837300000006675987757938326455_"
   filterUnits="userSpaceOnUse"
   x="107.396"
   y="100.171"
   width="28.17"
   height="9.178">
					<feFlood
   style="flood-color:white;flood-opacity:1"
   result="back"
   id="feFlood31" />
					<feBlend
   in="SourceGraphic"
   in2="back"
   mode="normal"
   id="feBlend31" />
				</filter><filter
   id="Adobe_OpacityMaskFilter_00000151538881579225242740000006938153786635347888_"
   filterUnits="userSpaceOnUse"
   x="107.396"
   y="100.171"
   width="28.17"
   height="9.178">
							<feFlood
   style="flood-color:white;flood-opacity:1"
   result="back"
   id="feFlood32" />
							<feBlend
   in="SourceGraphic"
   in2="back"
   mode="normal"
   id="feBlend32" />
						</filter><filter
   id="Adobe_OpacityMaskFilter_00000101066910399177982860000007378421111053909137_"
   filterUnits="userSpaceOnUse"
   x="96.866"
   y="100.487"
   width="60.063"
   height="23.557">
						<feFlood
   style="flood-color:white;flood-opacity:1"
   result="back"
   id="feFlood50" />
						<feBlend
   in="SourceGraphic"
   in2="back"
   mode="normal"
   id="feBlend50" />
					</filter><filter
   id="Adobe_OpacityMaskFilter_00000145030146056514617820000005772146794162501765_"
   filterUnits="userSpaceOnUse"
   x="96.866"
   y="100.487"
   width="60.063"
   height="23.557">
								<feFlood
   style="flood-color:white;flood-opacity:1"
   result="back"
   id="feFlood51" />
								<feBlend
   in="SourceGraphic"
   in2="back"
   mode="normal"
   id="feBlend51" />
							</filter><filter
   id="Adobe_OpacityMaskFilter_00000016070308648928465410000003150515413964550577_"
   filterUnits="userSpaceOnUse"
   x="96.866"
   y="100.487"
   width="42.015"
   height="22.794">
						<feFlood
   style="flood-color:white;flood-opacity:1"
   result="back"
   id="feFlood68" />
						<feBlend
   in="SourceGraphic"
   in2="back"
   mode="normal"
   id="feBlend68" />
					</filter><filter
   id="Adobe_OpacityMaskFilter_00000181777329976999361680000016917856250708932023_"
   filterUnits="userSpaceOnUse"
   x="96.866"
   y="100.487"
   width="42.015"
   height="22.794">
								<feFlood
   style="flood-color:white;flood-opacity:1"
   result="back"
   id="feFlood69" />
								<feBlend
   in="SourceGraphic"
   in2="back"
   mode="normal"
   id="feBlend69" />
							</filter><filter
   id="Adobe_OpacityMaskFilter_00000062153602196186589720000017089737301901591172_"
   filterUnits="userSpaceOnUse"
   x="96.866"
   y="100.487"
   width="60.063"
   height="23.557">
						<feFlood
   style="flood-color:white;flood-opacity:1"
   result="back"
   id="feFlood86" />
						<feBlend
   in="SourceGraphic"
   in2="back"
   mode="normal"
   id="feBlend86" />
					</filter><filter
   id="Adobe_OpacityMaskFilter_00000170962291936353982460000004109012460342924204_"
   filterUnits="userSpaceOnUse"
   x="96.866"
   y="100.487"
   width="60.063"
   height="23.557">
								<feFlood
   style="flood-color:white;flood-opacity:1"
   result="back"
   id="feFlood87" />
								<feBlend
   in="SourceGraphic"
   in2="back"
   mode="normal"
   id="feBlend87" />
							</filter><filter
   id="Adobe_OpacityMaskFilter_00000053517062200695724660000005297092441354610344_"
   filterUnits="userSpaceOnUse"
   x="115.848"
   y="100.487"
   width="41.081"
   height="22.533">
						<feFlood
   style="flood-color:white;flood-opacity:1"
   result="back"
   id="feFlood104" />
						<feBlend
   in="SourceGraphic"
   in2="back"
   mode="normal"
   id="feBlend104" />
					</filter><filter
   id="Adobe_OpacityMaskFilter_00000140714824629038506450000014615063031990649762_"
   filterUnits="userSpaceOnUse"
   x="115.848"
   y="100.487"
   width="41.081"
   height="22.533">
								<feFlood
   style="flood-color:white;flood-opacity:1"
   result="back"
   id="feFlood105" />
								<feBlend
   in="SourceGraphic"
   in2="back"
   mode="normal"
   id="feBlend105" />
							</filter><filter
   id="Adobe_OpacityMaskFilter_00000152947346325055538930000005884925843889531780_"
   filterUnits="userSpaceOnUse"
   x="9.977"
   y="7.049"
   width="316.646"
   height="109.027">
					<feFlood
   style="flood-color:white;flood-opacity:1"
   result="back"
   id="feFlood126" />
					<feBlend
   in="SourceGraphic"
   in2="back"
   mode="normal"
   id="feBlend126" />
				</filter><filter
   id="Adobe_OpacityMaskFilter_00000028295071284563137190000015482029745280952748_"
   filterUnits="userSpaceOnUse"
   x="9.977"
   y="7.049"
   width="316.646"
   height="109.027">
							<feFlood
   style="flood-color:white;flood-opacity:1"
   result="back"
   id="feFlood127" />
							<feBlend
   in="SourceGraphic"
   in2="back"
   mode="normal"
   id="feBlend127" />
						</filter><filter
   id="Adobe_OpacityMaskFilter_00000128467137249528035150000002754830791135403401_"
   filterUnits="userSpaceOnUse"
   x="10.058"
   y="69.929"
   width="1.777"
   height="0.515">
					<feFlood
   style="flood-color:white;flood-opacity:1"
   result="back"
   id="feFlood144" />
					<feBlend
   in="SourceGraphic"
   in2="back"
   mode="normal"
   id="feBlend144" />
				</filter><filter
   id="Adobe_OpacityMaskFilter_00000163770894738067303820000010129748582420329880_"
   filterUnits="userSpaceOnUse"
   x="10.058"
   y="69.929"
   width="1.777"
   height="0.515">
							<feFlood
   style="flood-color:white;flood-opacity:1"
   result="back"
   id="feFlood145" />
							<feBlend
   in="SourceGraphic"
   in2="back"
   mode="normal"
   id="feBlend145" />
						</filter><filter
   id="Adobe_OpacityMaskFilter_00000067922601880514957050000001960009662824454531_"
   filterUnits="userSpaceOnUse"
   x="9.977"
   y="7.049"
   width="261.974"
   height="75.566">
					<feFlood
   style="flood-color:white;flood-opacity:1"
   result="back"
   id="feFlood162" />
					<feBlend
   in="SourceGraphic"
   in2="back"
   mode="normal"
   id="feBlend162" />
				</filter><filter
   id="Adobe_OpacityMaskFilter_00000055675261997008502120000000279267684749120180_"
   filterUnits="userSpaceOnUse"
   x="9.977"
   y="7.049"
   width="261.974"
   height="75.566">
							<feFlood
   style="flood-color:white;flood-opacity:1"
   result="back"
   id="feFlood163" />
							<feBlend
   in="SourceGraphic"
   in2="back"
   mode="normal"
   id="feBlend163" />
						</filter><filter
   id="Adobe_OpacityMaskFilter_00000114755550369457049690000006079377340164731824_"
   filterUnits="userSpaceOnUse"
   x="105.858"
   y="93.971"
   width="15.624"
   height="5.666">
					<feFlood
   style="flood-color:white;flood-opacity:1"
   result="back"
   id="feFlood166" />
					<feBlend
   in="SourceGraphic"
   in2="back"
   mode="normal"
   id="feBlend166" />
				</filter><filter
   id="Adobe_OpacityMaskFilter_00000005977014564442684860000010036000019492990364_"
   filterUnits="userSpaceOnUse"
   x="105.858"
   y="93.971"
   width="15.624"
   height="5.666">
							<feFlood
   style="flood-color:white;flood-opacity:1"
   result="back"
   id="feFlood167" />
							<feBlend
   in="SourceGraphic"
   in2="back"
   mode="normal"
   id="feBlend167" />
						</filter><filter
   id="Adobe_OpacityMaskFilter_00000133505748430935611770000006150074082443734913_"
   filterUnits="userSpaceOnUse"
   x="124.996"
   y="96.292"
   width="7.554"
   height="5.619">
					<feFlood
   style="flood-color:white;flood-opacity:1"
   result="back"
   id="feFlood184" />
					<feBlend
   in="SourceGraphic"
   in2="back"
   mode="normal"
   id="feBlend184" />
				</filter><filter
   id="Adobe_OpacityMaskFilter_00000167362887232091914240000006419328092665393286_"
   filterUnits="userSpaceOnUse"
   x="124.996"
   y="96.292"
   width="7.554"
   height="5.619">
							<feFlood
   style="flood-color:white;flood-opacity:1"
   result="back"
   id="feFlood185" />
							<feBlend
   in="SourceGraphic"
   in2="back"
   mode="normal"
   id="feBlend185" />
						</filter><filter
   id="Adobe_OpacityMaskFilter_00000116921767200386859480000011960623912812423842_"
   filterUnits="userSpaceOnUse"
   x="77.639"
   y="94.505"
   width="13.969"
   height="18.456">
					<feFlood
   style="flood-color:white;flood-opacity:1"
   result="back"
   id="feFlood202" />
					<feBlend
   in="SourceGraphic"
   in2="back"
   mode="normal"
   id="feBlend202" />
				</filter><filter
   id="Adobe_OpacityMaskFilter_00000031908216777633409700000014027787407599540875_"
   filterUnits="userSpaceOnUse"
   x="77.639"
   y="94.505"
   width="13.969"
   height="18.456">
							<feFlood
   style="flood-color:white;flood-opacity:1"
   result="back"
   id="feFlood203" />
							<feBlend
   in="SourceGraphic"
   in2="back"
   mode="normal"
   id="feBlend203" />
						</filter><filter
   id="Adobe_OpacityMaskFilter_00000073685612945211266330000015309297531153397905_"
   filterUnits="userSpaceOnUse"
   x="90.516"
   y="95.091"
   width="29.551"
   height="19.415">
					<feFlood
   style="flood-color:white;flood-opacity:1"
   result="back"
   id="feFlood220" />
					<feBlend
   in="SourceGraphic"
   in2="back"
   mode="normal"
   id="feBlend220" />
				</filter><filter
   id="Adobe_OpacityMaskFilter_00000060030205626766905870000000521871769183571356_"
   filterUnits="userSpaceOnUse"
   x="90.516"
   y="95.091"
   width="29.551"
   height="19.415">
							<feFlood
   style="flood-color:white;flood-opacity:1"
   result="back"
   id="feFlood221" />
							<feBlend
   in="SourceGraphic"
   in2="back"
   mode="normal"
   id="feBlend221" />
						</filter><filter
   id="Adobe_OpacityMaskFilter_00000122699209003967426330000003384366822432464035_"
   filterUnits="userSpaceOnUse"
   x="117.489"
   y="7.049"
   width="51.019"
   height="36.259">
					<feFlood
   style="flood-color:white;flood-opacity:1"
   result="back"
   id="feFlood244" />
					<feBlend
   in="SourceGraphic"
   in2="back"
   mode="normal"
   id="feBlend244" />
				</filter><filter
   id="Adobe_OpacityMaskFilter_00000178910849252990637770000008000851723389134211_"
   filterUnits="userSpaceOnUse"
   x="117.489"
   y="7.049"
   width="51.019"
   height="36.259">
							<feFlood
   style="flood-color:white;flood-opacity:1"
   result="back"
   id="feFlood245" />
							<feBlend
   in="SourceGraphic"
   in2="back"
   mode="normal"
   id="feBlend245" />
						</filter><filter
   id="Adobe_OpacityMaskFilter_00000139258801425234193260000017283982020072392631_"
   filterUnits="userSpaceOnUse"
   x="255.153"
   y="78.967"
   width="49.938"
   height="37.108">
					<feFlood
   style="flood-color:white;flood-opacity:1"
   result="back"
   id="feFlood262" />
					<feBlend
   in="SourceGraphic"
   in2="back"
   mode="normal"
   id="feBlend262" />
				</filter><filter
   id="Adobe_OpacityMaskFilter_00000120516857183574117200000008599918341250708612_"
   filterUnits="userSpaceOnUse"
   x="255.153"
   y="78.967"
   width="49.938"
   height="37.108">
							<feFlood
   style="flood-color:white;flood-opacity:1"
   result="back"
   id="feFlood263" />
							<feBlend
   in="SourceGraphic"
   in2="back"
   mode="normal"
   id="feBlend263" />
						</filter><filter
   id="Adobe_OpacityMaskFilter_00000052101130698492793990000010355883039578698394_"
   filterUnits="userSpaceOnUse"
   x="253.768"
   y="26.806"
   width="72.854"
   height="48.985">
					<feFlood
   style="flood-color:white;flood-opacity:1"
   result="back"
   id="feFlood280" />
					<feBlend
   in="SourceGraphic"
   in2="back"
   mode="normal"
   id="feBlend280" />
				</filter><filter
   id="Adobe_OpacityMaskFilter_00000039129287237365788330000007549821460852684209_"
   filterUnits="userSpaceOnUse"
   x="253.768"
   y="26.806"
   width="72.854"
   height="48.985">
							<feFlood
   style="flood-color:white;flood-opacity:1"
   result="back"
   id="feFlood281" />
							<feBlend
   in="SourceGraphic"
   in2="back"
   mode="normal"
   id="feBlend281" />
						</filter><filter
   id="Adobe_OpacityMaskFilter_00000070112550615471496650000016605952459665077947_"
   filterUnits="userSpaceOnUse"
   x="291.658"
   y="38.166"
   width="4.072"
   height="2.199">
					<feFlood
   style="flood-color:white;flood-opacity:1"
   result="back"
   id="feFlood298" />
					<feBlend
   in="SourceGraphic"
   in2="back"
   mode="normal"
   id="feBlend298" />
				</filter><filter
   id="Adobe_OpacityMaskFilter_00000164508017788945936110000006578396162285595555_"
   filterUnits="userSpaceOnUse"
   x="291.658"
   y="38.166"
   width="4.072"
   height="2.199">
							<feFlood
   style="flood-color:white;flood-opacity:1"
   result="back"
   id="feFlood299" />
							<feBlend
   in="SourceGraphic"
   in2="back"
   mode="normal"
   id="feBlend299" />
						</filter><filter
   id="Adobe_OpacityMaskFilter_00000065762032079780780730000009269371589862254510_"
   filterUnits="userSpaceOnUse"
   x="253.768"
   y="44.407"
   width="31.676"
   height="28.991">
					<feFlood
   style="flood-color:white;flood-opacity:1"
   result="back"
   id="feFlood316" />
					<feBlend
   in="SourceGraphic"
   in2="back"
   mode="normal"
   id="feBlend316" />
				</filter><filter
   id="Adobe_OpacityMaskFilter_00000080908280477734180460000016017068635941762199_"
   filterUnits="userSpaceOnUse"
   x="253.768"
   y="44.407"
   width="31.676"
   height="28.991">
							<feFlood
   style="flood-color:white;flood-opacity:1"
   result="back"
   id="feFlood317" />
							<feBlend
   in="SourceGraphic"
   in2="back"
   mode="normal"
   id="feBlend317" />
						</filter><filter
   id="Adobe_OpacityMaskFilter_00000021811343468226134770000011961699695776846507_"
   filterUnits="userSpaceOnUse"
   x="34.398"
   y="66.06"
   width="18.675"
   height="15.391">
					<feFlood
   style="flood-color:white;flood-opacity:1"
   result="back"
   id="feFlood334" />
					<feBlend
   in="SourceGraphic"
   in2="back"
   mode="normal"
   id="feBlend334" />
				</filter><filter
   id="Adobe_OpacityMaskFilter_00000027588065739327555350000009720595055958163894_"
   filterUnits="userSpaceOnUse"
   x="34.398"
   y="66.06"
   width="18.675"
   height="15.391">
							<feFlood
   style="flood-color:white;flood-opacity:1"
   result="back"
   id="feFlood335" />
							<feBlend
   in="SourceGraphic"
   in2="back"
   mode="normal"
   id="feBlend335" />
						</filter><path
   id="SVGID_00000076598796319586908130000005167430376105370289_"
   d="M41.414,70.818c-0.397,0.121-0.69,0.298-0.896,0.516       c-0.076,1.25,0.547,2.485,1.265,3.493c0.661,0.93,2.438,3.581,3.899,2.974c2.106-0.878,3.436-2.224,4.84-3.749       C47.636,72.449,44.731,70.813,41.414,70.818z" /><filter
   id="Adobe_OpacityMaskFilter_00000001645663709189951310000010959355307674602375_"
   filterUnits="userSpaceOnUse"
   x="179.377"
   y="87.291"
   width="23.236"
   height="12.486">
						<feFlood
   style="flood-color:white;flood-opacity:1"
   result="back"
   id="feFlood362" />
						<feBlend
   in="SourceGraphic"
   in2="back"
   mode="normal"
   id="feBlend362" />
					</filter><filter
   id="Adobe_OpacityMaskFilter_00000158019530846418195080000004655119734297348787_"
   filterUnits="userSpaceOnUse"
   x="179.377"
   y="87.291"
   width="23.236"
   height="12.486">
								<feFlood
   style="flood-color:white;flood-opacity:1"
   result="back"
   id="feFlood363" />
								<feBlend
   in="SourceGraphic"
   in2="back"
   mode="normal"
   id="feBlend363" />
							</filter><filter
   id="Adobe_OpacityMaskFilter_00000046325076324494167610000013871092276743025804_"
   filterUnits="userSpaceOnUse"
   x="181.167"
   y="87.782"
   width="21.446"
   height="11.995">
						<feFlood
   style="flood-color:white;flood-opacity:1"
   result="back"
   id="feFlood380" />
						<feBlend
   in="SourceGraphic"
   in2="back"
   mode="normal"
   id="feBlend380" />
					</filter><filter
   id="Adobe_OpacityMaskFilter_00000127736308124832484420000017549436446684762764_"
   filterUnits="userSpaceOnUse"
   x="181.167"
   y="87.782"
   width="21.446"
   height="11.995">
								<feFlood
   style="flood-color:white;flood-opacity:1"
   result="back"
   id="feFlood381" />
								<feBlend
   in="SourceGraphic"
   in2="back"
   mode="normal"
   id="feBlend381" />
							</filter><filter
   id="Adobe_OpacityMaskFilter_00000113332813460222153190000015665510405366652044_"
   filterUnits="userSpaceOnUse"
   x="180.78"
   y="89.323"
   width="19.213"
   height="9.497">
						<feFlood
   style="flood-color:white;flood-opacity:1"
   result="back"
   id="feFlood398" />
						<feBlend
   in="SourceGraphic"
   in2="back"
   mode="normal"
   id="feBlend398" />
					</filter><filter
   id="Adobe_OpacityMaskFilter_00000018947997924100086620000008143627428864295823_"
   filterUnits="userSpaceOnUse"
   x="180.78"
   y="89.323"
   width="19.213"
   height="9.497">
								<feFlood
   style="flood-color:white;flood-opacity:1"
   result="back"
   id="feFlood399" />
								<feBlend
   in="SourceGraphic"
   in2="back"
   mode="normal"
   id="feBlend399" />
							</filter><filter
   id="Adobe_OpacityMaskFilter_00000119797464858176473120000017480951229808221356_"
   filterUnits="userSpaceOnUse"
   x="77.531"
   y="93.236"
   width="62.823"
   height="42.28">
						<feFlood
   style="flood-color:white;flood-opacity:1"
   result="back"
   id="feFlood406" />
						<feBlend
   in="SourceGraphic"
   in2="back"
   mode="normal"
   id="feBlend406" />
					</filter><filter
   id="Adobe_OpacityMaskFilter_00000030459023687194231040000012974047765947418534_"
   filterUnits="userSpaceOnUse"
   x="77.531"
   y="93.236"
   width="62.823"
   height="42.28">
								<feFlood
   style="flood-color:white;flood-opacity:1"
   result="back"
   id="feFlood407" />
								<feBlend
   in="SourceGraphic"
   in2="back"
   mode="normal"
   id="feBlend407" />
							</filter><filter
   id="Adobe_OpacityMaskFilter_00000016063935057005424050000011701605392895375789_"
   filterUnits="userSpaceOnUse"
   x="77.531"
   y="93.236"
   width="62.823"
   height="42.28">
						<feFlood
   style="flood-color:white;flood-opacity:1"
   result="back"
   id="feFlood424" />
						<feBlend
   in="SourceGraphic"
   in2="back"
   mode="normal"
   id="feBlend424" />
					</filter><filter
   id="Adobe_OpacityMaskFilter_00000070800906986990734280000001078318320019952277_"
   filterUnits="userSpaceOnUse"
   x="77.531"
   y="93.236"
   width="62.823"
   height="42.28">
								<feFlood
   style="flood-color:white;flood-opacity:1"
   result="back"
   id="feFlood425" />
								<feBlend
   in="SourceGraphic"
   in2="back"
   mode="normal"
   id="feBlend425" />
							</filter><filter
   id="Adobe_OpacityMaskFilter_00000179612817915304048730000001182569842379913639_"
   filterUnits="userSpaceOnUse"
   x="99.973"
   y="99.022"
   width="40.382"
   height="36.493">
						<feFlood
   style="flood-color:white;flood-opacity:1"
   result="back"
   id="feFlood442" />
						<feBlend
   in="SourceGraphic"
   in2="back"
   mode="normal"
   id="feBlend442" />
					</filter><filter
   id="Adobe_OpacityMaskFilter_00000083804246149007932150000004408308841036097433_"
   filterUnits="userSpaceOnUse"
   x="99.973"
   y="99.022"
   width="40.382"
   height="36.493">
								<feFlood
   style="flood-color:white;flood-opacity:1"
   result="back"
   id="feFlood443" />
								<feBlend
   in="SourceGraphic"
   in2="back"
   mode="normal"
   id="feBlend443" />
							</filter><filter
   id="Adobe_OpacityMaskFilter_00000138534085466555495740000007011452501224040329_"
   filterUnits="userSpaceOnUse"
   x="86.138"
   y="97.889"
   width="34.616"
   height="30.839">
						<feFlood
   style="flood-color:white;flood-opacity:1"
   result="back"
   id="feFlood460" />
						<feBlend
   in="SourceGraphic"
   in2="back"
   mode="normal"
   id="feBlend460" />
					</filter><filter
   id="Adobe_OpacityMaskFilter_00000142140417564399495900000017215964357033098654_"
   filterUnits="userSpaceOnUse"
   x="86.138"
   y="97.889"
   width="34.616"
   height="30.839">
								<feFlood
   style="flood-color:white;flood-opacity:1"
   result="back"
   id="feFlood461" />
								<feBlend
   in="SourceGraphic"
   in2="back"
   mode="normal"
   id="feBlend461" />
							</filter><filter
   id="Adobe_OpacityMaskFilter_00000015340205885140511190000000219925801032702849_"
   filterUnits="userSpaceOnUse"
   x="256.592"
   y="79.28"
   width="42.542"
   height="34.862">
					<feFlood
   style="flood-color:white;flood-opacity:1"
   result="back"
   id="feFlood464" />
					<feBlend
   in="SourceGraphic"
   in2="back"
   mode="normal"
   id="feBlend464" />
				</filter><filter
   id="Adobe_OpacityMaskFilter_00000110447968814697417120000004047849997574223267_"
   filterUnits="userSpaceOnUse"
   x="256.592"
   y="79.28"
   width="42.542"
   height="34.862">
							<feFlood
   style="flood-color:white;flood-opacity:1"
   result="back"
   id="feFlood465" />
							<feBlend
   in="SourceGraphic"
   in2="back"
   mode="normal"
   id="feBlend465" />
						</filter><filter
   id="Adobe_OpacityMaskFilter_00000034800962585059604430000010936485175015942806_"
   filterUnits="userSpaceOnUse"
   x="15.172"
   y="41.196"
   width="200.906"
   height="32.923">
						<feFlood
   style="flood-color:white;flood-opacity:1"
   result="back"
   id="feFlood572" />
						<feBlend
   in="SourceGraphic"
   in2="back"
   mode="normal"
   id="feBlend572" />
					</filter><filter
   id="Adobe_OpacityMaskFilter_00000145750802810706443520000001087598542850897036_"
   filterUnits="userSpaceOnUse"
   x="15.172"
   y="41.196"
   width="200.906"
   height="32.923">
								<feFlood
   style="flood-color:white;flood-opacity:1"
   result="back"
   id="feFlood573" />
								<feBlend
   in="SourceGraphic"
   in2="back"
   mode="normal"
   id="feBlend573" />
							</filter><filter
   id="Adobe_OpacityMaskFilter_00000018917119181324191220000002698845619400569006_"
   filterUnits="userSpaceOnUse"
   x="125.401"
   y="8.92"
   width="38.934"
   height="29.754">
						<feFlood
   style="flood-color:white;flood-opacity:1"
   result="back"
   id="feFlood576" />
						<feBlend
   in="SourceGraphic"
   in2="back"
   mode="normal"
   id="feBlend576" />
					</filter><filter
   id="Adobe_OpacityMaskFilter_00000000185054326247367440000012133073238996213162_"
   filterUnits="userSpaceOnUse"
   x="125.401"
   y="8.92"
   width="38.934"
   height="29.754">
								<feFlood
   style="flood-color:white;flood-opacity:1"
   result="back"
   id="feFlood577" />
								<feBlend
   in="SourceGraphic"
   in2="back"
   mode="normal"
   id="feBlend577" />
							</filter><filter
   id="Adobe_OpacityMaskFilter_00000024717172716179813730000017113419728725885859_"
   filterUnits="userSpaceOnUse"
   x="269.686"
   y="33.745"
   width="41.511"
   height="35.438">
						<feFlood
   style="flood-color:white;flood-opacity:1"
   result="back"
   id="feFlood580" />
						<feBlend
   in="SourceGraphic"
   in2="back"
   mode="normal"
   id="feBlend580" />
					</filter><filter
   id="Adobe_OpacityMaskFilter_00000169540928648392974810000007535231940579753662_"
   filterUnits="userSpaceOnUse"
   x="269.686"
   y="33.745"
   width="41.511"
   height="35.438">
								<feFlood
   style="flood-color:white;flood-opacity:1"
   result="back"
   id="feFlood581" />
								<feBlend
   in="SourceGraphic"
   in2="back"
   mode="normal"
   id="feBlend581" />
							</filter></defs><sodipodi:namedview
   id="namedview35"
   pagecolor="#ffffff"
   bordercolor="#000000"
   borderopacity="0.25"
   inkscape:showpageshadow="2"
   inkscape:pageopacity="0.0"
   inkscape:pagecheckerboard="true"
   inkscape:deskcolor="#d1d1d1"
   inkscape:zoom="16"
   inkscape:cx="25.03125"
   inkscape:cy="29.09375"
   inkscape:window-width="2659"
   inkscape:window-height="1638"
   inkscape:window-x="113"
   inkscape:window-y="203"
   inkscape:window-maximized="0"
   inkscape:current-layer="g56"
   inkscape:clip-to-page="false" />

<g
   inkscape:groupmode="layer"
   id="layer1"
   inkscape:label="signage layer"
   style="display:inline"
   transform="translate(-0.19517359,-0.04920669)"><g
     id="g56"><path
       d="m 32.695049,4.2990822 c -0.838339,-1.53e-5 -1.206034,0.6044709 -1.808594,1.2070312 l -1.806641,1.8085938 -1.808593,1.8066408 -1.806641,1.808594 -7.232422,7.230468 -7.230469,7.230469 -1.80664,1.808594 -1.808594,1.80664 -1.806641,1.808594 c -0.60256,0.602561 -0.947281,0.954492 -0.947265,1.806641 1.5e-5,0.82453 0.305619,1.16699 0.888672,1.75 l 1.748047,1.748047 1.75,1.75 1.748046,1.748047 6.998047,6.996093 6.996094,6.996094 1.75,1.75 1.748047,1.748047 1.75,1.75 c 0.583052,0.583009 0.923517,0.957046 1.748047,0.957031 0.852089,-1.5e-5 1.206076,-0.413107 1.808593,-1.015625 l 1.806641,-1.808594 1.808594,-1.80664 1.80664,-1.806641 7.230469,-7.230469 7.230469,-7.230468 1.806641,-1.808594 1.808593,-1.806641 1.806641,-1.808593 c 0.602518,-0.602518 0.912093,-0.954553 0.912109,-1.806641 1.5e-5,-0.82453 -0.270506,-1.166947 -0.853515,-1.75 l -1.748047,-1.748047 -1.75,-1.75 -1.748047,-1.748047 -6.996094,-6.998047 -6.996094,-6.996093 -1.75,-1.748047 -1.748046,-1.7500003 -1.75,-1.75 C 33.860086,4.864467 33.533389,4.2990975 32.695049,4.2990822 Z"
       style="display:inline;fill:#ffffff;fill-opacity:1;stroke:none;stroke-width:0.249751"
       id="path76" /><path
       d="M 32.793612,0.37647838 C 31.839909,0.37646359 31.420646,1.1487382 30.734164,1.8351778 l -2.059447,2.0593188 -2.059446,2.059319 -2.059447,2.0593189 -8.237788,8.2372765 -8.2377883,8.237274 -2.059447,2.05932 -2.059447,2.059318 c 0,0 -1.3729647,1.372879 -2.0594469,2.059319 -0.6864824,0.68644 -1.19767362,1.088517 -1.19768862,2.059319 -1.458e-5,0.936605 0.46279982,1.324559 1.12507902,1.986838 0.6622792,0.662279 1.9868375,1.986838 1.9868375,1.986838 l 1.9868374,1.986837 1.9868375,1.986838 7.9473504,7.947349 7.947349,7.94735 1.986837,1.986838 1.986838,1.986837 c 0,0 1.324558,1.324559 1.986837,1.986838 0.66228,0.662279 1.050234,1.194397 1.986838,1.194411 0.970803,1.5e-5 1.372965,-0.580453 2.059447,-1.266893 0.686482,-0.686439 2.059446,-2.059318 2.059446,-2.059318 l 2.059448,-2.059319 2.059447,-2.05932 8.237788,-8.237275 8.237788,-8.237275 2.059447,-2.05932 2.059446,-2.059319 c 0,0 1.372965,-1.372879 2.059447,-2.059318 0.686482,-0.68644 1.16255,-1.088517 1.162566,-2.059319 1.5e-5,-0.936605 -0.427677,-1.324559 -1.089956,-1.986838 -0.662279,-0.662279 -1.986838,-1.986837 -1.986838,-1.986837 L 58.622499,25.604746 56.635661,23.617908 48.688311,15.670559 40.740961,7.7232088 38.754123,5.7363714 36.767286,3.7495339 34.780449,1.7626963 C 34.11817,1.1004171 33.747315,0.37649317 32.793612,0.37647838 Z M 32.680919,4.2920145 c 0.838341,1.53e-5 1.166022,0.565487 1.749032,1.1485403 l 1.749032,1.7491597 1.749031,1.7491603 1.749032,1.7491592 6.996126,6.996638 6.996127,6.99664 1.749032,1.749159 1.749031,1.74916 c 0,0 1.166021,1.166106 1.749032,1.749159 0.58301,0.583054 0.852165,0.924629 0.85215,1.74916 -1.6e-5,0.852089 -0.308154,1.205036 -0.910673,1.807554 -0.602518,0.602518 -1.807555,1.807555 -1.807555,1.807555 l -1.807554,1.807554 -1.807555,1.807556 -7.230219,7.230218 -7.230218,7.230219 -1.807554,1.807555 -1.807555,1.807555 c 0,0 -1.205036,1.205036 -1.807555,1.807554 -0.602518,0.602518 -0.955465,1.015114 -1.807555,1.015129 -0.824531,1.5e-5 -1.166106,-0.373595 -1.749159,-0.956605 -0.583053,-0.583011 -1.74916,-1.749032 -1.74916,-1.749032 l -1.74916,-1.749032 -1.74916,-1.749031 -6.996638,-6.996127 -6.99664,-6.996127 -1.7491588,-1.749031 -1.7491601,-1.749032 c 0,0 -1.1661064,-1.166022 -1.7491596,-1.749032 -0.5830532,-0.58301 -0.887386,-0.9245 -0.8874012,-1.749031 -1.58e-5,-0.85215 0.3433633,-1.205122 0.9459243,-1.807683 0.6025609,-0.602561 1.8076828,-1.807682 1.8076828,-1.807682 l 1.8076824,-1.807684 1.8076832,-1.807682 7.230731,-7.23073 7.230731,-7.230732 1.807683,-1.8076825 1.807682,-1.8076832 1.807683,-1.8076826 c 0.602561,-0.6025609 0.969342,-1.2070785 1.807682,-1.2070632 z"
       style="display:inline;fill:#f6c840;fill-opacity:1;stroke:#1d3244;stroke-width:0.249751;stroke-opacity:1"
       id="path55"
       sodipodi:nodetypes="zzcccccccssscccccccssscccccccsssccccccczzzzcccccccssscccccccssscccccccsssccccccczz"
       inkscape:label="holder" /></g></g>
<metadata
   id="metadata35"><rdf:RDF><cc:Work
       rdf:about=""><cc:license
         rdf:resource="http://artlibre.org/licence/lal" /><dc:creator><cc:Agent><dc:title>Tigon Trollhammer</dc:title></cc:Agent></dc:creator><dc:title>Sheep Spawner</dc:title></cc:Work><cc:License
       rdf:about="http://artlibre.org/licence/lal"><cc:permits
         rdf:resource="http://creativecommons.org/ns#Reproduction" /><cc:permits
         rdf:resource="http://creativecommons.org/ns#Distribution" /><cc:permits
         rdf:resource="http://creativecommons.org/ns#DerivativeWorks" /><cc:requires
         rdf:resource="http://creativecommons.org/ns#ShareAlike" /><cc:requires
         rdf:resource="http://creativecommons.org/ns#Notice" /><cc:requires
         rdf:resource="http://creativecommons.org/ns#Attribution" /></cc:License></rdf:RDF></metadata><style
   type="text/css"
   id="style1">
	.st0{fill:#58565C;}
	.st1{fill:#949397;}
	.st2{fill:#4F4B4E;}
	.st3{fill:#616064;}
	.st4{fill:#939293;}
	.st5{fill:#A8A6A8;}
	.st6{fill:#A5A5A5;}
	.st7{fill:#A1A3AE;}
	.st8{fill:none;}
	.st9{fill:#4D4C50;}
	.st10{fill:#313033;}
	.st11{fill:#262528;}
	.st12{fill:#313034;}
	.st13{fill:#0D121B;}
	.st14{fill:#79767B;}
	.st15{fill:#5F5D61;}
	.st16{fill:#767677;}
</style><g
   id="g73"
   transform="matrix(0.64866911,0,0,0.64866911,5.024263,-19.62205)"><path
     d="m 19.589041,65.845438 c 0.183187,-0.183187 0.305312,-0.54956 0.427436,-0.976995 -0.793809,-0.366374 -1.648679,-0.854872 -1.587617,-1.09912 0.06106,-0.305311 1.526555,-0.183187 2.503551,-0.122125 0.488497,-0.427435 1.221243,-0.793808 2.442487,-1.160182 3.663732,-1.038056 5.617722,2.320364 8.609769,4.15223 2.992048,1.831866 7.999148,0.366373 13.433684,0.366373 2.869924,0 4.152229,-0.122124 10.441636,-0.122124 8.121272,0 9.525703,7.693837 8.365521,13.06731 -0.671685,3.175234 -1.404431,5.068163 -2.564613,6.045157 0.06106,0.976996 0.24425,1.709742 0.488497,2.015053 0.549561,0.54956 0.793809,0.671684 0.915934,2.076115 0.122124,1.404429 0.549559,4.152227 0.793809,4.946039 0.244248,0.793808 0,1.038053 -0.366374,1.404428 -0.122124,0.122126 -0.183187,0.366375 -0.244249,0.671682 -0.06106,0.549563 -0.488497,0.976996 -1.038057,0.976996 h -2.015053 c 0,-0.488495 0.427436,-1.404428 0.915934,-2.07611 0.488497,-0.671688 -0.122125,-3.297361 -0.549561,-4.579668 -0.30531,-0.85487 -0.793808,-1.40443 -1.587617,-1.892928 0,0.24425 0,0.427436 0,0.610623 0.122126,0.915932 -1.343367,2.625674 -1.526554,3.785858 -0.122125,1.160177 0.244249,1.46549 -0.06106,2.076115 -0.305311,0.61062 -0.793808,0.366369 -0.915932,0.793807 -0.06106,0.183187 -0.122125,0.427432 -0.244249,0.671683 -0.183186,0.366375 -0.54956,0.61062 -0.976995,0.61062 H 53.17325 c 0,-0.793807 0.671684,-1.282303 0.976995,-1.95399 0.244248,-0.671683 1.526555,-4.946035 1.526555,-5.739844 0,-0.793809 -1.465493,-2.137178 -2.686736,-3.724795 -0.305311,0.122125 -0.671685,0.24425 -1.038058,0.366373 -3.90798,1.587617 -8.121272,-0.549559 -9.831014,-0.976995 -0.244248,2.808862 -1.465492,3.846918 -1.526554,4.884976 -0.06106,2.076115 0,3.907982 0.06106,5.739847 0.06106,0.915933 -0.976996,1.404428 -1.831866,1.404428 h -1.831867 c -0.06106,-1.160178 0.488499,-1.160178 0.915934,-2.503548 0.366373,-1.404432 -0.488498,-2.50355 -0.793808,-4.335416 -0.06106,-0.183187 -0.122126,-0.427435 -0.183187,-0.671684 v 0 c 0,0 -0.488498,-1.648679 -0.976995,-2.564612 -0.122125,-0.183187 -0.244249,-0.06106 -0.244249,0.06106 l 0.610622,2.625675 c 0,0.122125 -0.06106,0.244249 -0.06106,0.366373 0,1.831866 -0.244248,3.541608 0.122125,4.823915 0.06106,0.244245 0.122124,0.488495 0.122124,0.732745 0.06106,0.854871 -0.610621,1.587615 -1.465493,1.587615 H 32.35104 c 0,-1.160182 0.549561,-1.160182 1.038058,-2.503547 0.488498,-1.404432 -0.366373,-2.50355 -0.549559,-4.335416 C 32.717414,90.392439 32.04573,88.499511 31.435108,87.034018 26.366946,84.774717 25.573137,79.889741 24.718267,78.18 23.802333,76.470258 23.43596,72.440154 20.932411,73.600335 c -2.503551,1.160182 -3.663733,0.915933 -4.335417,-1.282306 -0.54956,-2.50355 2.442488,-5.923033 2.992047,-6.472592 z m 6.228345,0.244248 c 0,0 -0.54956,-2.50355 -1.404431,-2.992048 -0.793808,-0.488497 -1.282306,0.915933 -1.282306,0.915933 2.015053,0.488498 2.686737,2.076115 2.686737,2.076115 z"
     id="path1"
     style="stroke-width:0.61062;fill:#fef9e4;fill-opacity:1;stroke:#060a0e;stroke-opacity:1" /><path
     style="fill:#ddd8c1;fill-opacity:1;stroke:none;stroke-width:0.867931;stroke-opacity:1"
     d="m 39.50687,83.088065 c 0,0 1.937882,2.551765 6.093843,2.756157 4.155964,0.204391 6.268009,-0.885697 6.268009,-0.885697 0,0 -2.248308,-0.885698 -2.316438,-3.065874 -0.06812,-2.180178 0.272523,-3.81531 0.272523,-3.81531 0,0 -2.343334,3.239694 -4.292224,4.087833 -1.94889,0.848139 -1.320582,0.63788 -2.16411,0.794189 -0.691009,0.128045 -2.412569,0.09706 -2.412569,0.09706"
     id="path73"
     sodipodi:nodetypes="cscsczsc" /><path
     style="fill:#ddd8c1;fill-opacity:1;stroke:none;stroke-width:0.867931;stroke-opacity:1"
     d="m 33.878191,85.314374 c 0,0 -0.915335,0.240878 -1.397091,-2.119725 -0.481755,-2.360602 -0.529931,-2.938709 -0.529931,-2.938709 0,0 -0.192702,1.011687 -1.108038,1.686145 -0.915336,0.674457 -2.794183,0.722633 -2.794183,0.722633 0,0 0.481756,1.156213 1.589794,2.071549 1.108038,0.915336 2.023374,1.108038 2.023374,1.108038 0,0 0.337229,0.192702 0.915335,-0.04818 0.578107,-0.240878 1.30074,-0.481756 1.30074,-0.481756 z"
     id="path74" /><ellipse
     style="fill:#34301c;fill-opacity:1;stroke:none;stroke-width:0.867931;stroke-opacity:1"
     id="path75"
     cx="22.460583"
     cy="68.1157"
     rx="0.72263342"
     ry="0.67445785" /></g></svg>
