<svg xmlns="http://www.w3.org/2000/svg" xml:space="preserve" fill-rule="evenodd" stroke-linejoin="round" stroke-miterlimit="2" clip-rule="evenodd" viewBox="0 0 64 64">
  <g id="grey">
    <path fill="#d1d2d3" d="m25.121 10.053 36.602 30.712-22.784 13.154L2.338 23.207l22.783-13.154Z"/>
    <path fill="#444" d="m19.731 13.079 36.642 30.746-12.124 7L7.607 20.079l12.124-7Z"/>
  </g>
  <g id="white"/>
  <g id="green" fill="#558e2f">
    <path d="m25.521 15.387 2.028-1.171 3.587 3.01-2.027 1.171-3.588-3.01Zm6.27 5.261 2.027-1.171 3.587 3.009-2.028 1.171-3.586-3.009Zm6.268 5.259 2.028-1.17 3.587 3.01-2.028 1.17-3.587-3.01Zm6.27 5.261 2.027-1.171 3.588 3.01-2.028 1.171-3.587-3.01Zm6.269 5.261 2.028-1.171 3.586 3.009-2.028 1.171-3.586-3.009Z"/>
    <path d="m7.768 25.637 2.027-1.171 3.588 3.01-2.028 1.171-3.587-3.01Zm6.269 5.261 2.028-1.171 3.586 3.009-2.028 1.171-3.586-3.009Zm6.269 5.259 2.027-1.17 3.588 3.01-2.028 1.17-3.587-3.01Zm6.269 5.261 2.028-1.171 3.587 3.01-2.028 1.171-3.587-3.01Zm6.27 5.261 2.027-1.171 3.587 3.009-2.028 1.171-3.586-3.009Z"/>
    <path d="m5.949 22.675 4.781 1.251-3.897 2.25-.884-3.501Z"/>
    <path d="m40.277 51.48-4.781-1.252 3.897-2.25.884 3.502Z"/>
    <path d="m23.703 12.425 4.781 1.251-3.897 2.25-.884-3.501Z"/>
    <path d="m58.031 41.23-4.781-1.252 3.897-2.25.884 3.502Z"/>
  </g>
  <g id="blue" fill="#73a7c7">
    <path d="m16.685 20.545 2.028-1.17 3.587 3.01-2.027 1.17-3.588-3.01Zm6.27 5.261 2.027-1.171 3.587 3.01-2.028 1.17-3.586-3.009Zm6.268 5.26 2.028-1.171 3.587 3.01-2.029 1.172-3.586-3.011Zm6.269 5.261 2.028-1.171 3.588 3.01-2.028 1.171-3.588-3.01Zm6.27 5.26 2.028-1.17 3.586 3.009-2.028 1.171-3.586-3.01Z"/>
    <path d="m14.826 17.55 4.781 1.251-3.897 2.25-.884-3.501Z"/>
  </g>
</svg>
