<?xml version="1.0" encoding="utf-8"?>
<!-- Generator: Adobe Illustrator 26.1.0, SVG Export Plug-In . SVG Version: 6.00 Build 0)  -->
<svg version="1.1" id="a" xmlns="http://www.w3.org/2000/svg" xmlns:xlink="http://www.w3.org/1999/xlink" x="0px" y="0px"
	 viewBox="0 0 123.6 183.7" style="enable-background:new 0 0 123.6 183.7;" xml:space="preserve">
<style type="text/css">
	.st0{fill:#758193;}
	.st1{display:none;fill:#D1D2D3;}
	.st2{display:none;}
	.st3{display:inline;fill:#65C936;}
	.st4{fill:#84BBFD;}
</style>
<g>
	<rect x="3.7" y="0.2" class="st0" width="117.2" height="183.2"/>
	<rect class="st1" width="28.6" height="183.5"/>
	<rect x="95" y="0.2" class="st1" width="28.6" height="183.5"/>
</g>
<g class="st2">
	<path class="st3" d="M11.1,161.9v-15.6l6.3,0.1V162 M11.1,140.8v-15.6l6.3,0.1v15.6 M11.1,119.9v-15.6l6.3,0.1V120 M11.2,98.9V83.3
		l6.3,0.1V99 M11.2,77.9V62.3l6.3,0.1V78 M11.2,56.9V41.2l6.3,0.1V57 M11.2,35.9l0.1-15l6.3,0.1l-0.1,15"/>
	<polygon class="st3" points="14.3,12.8 14.3,12.8 7.7,21.3 20.6,21.7 	"/>
	<polygon class="st3" points="13.7,169.8 13.7,169.8 20.5,161.3 7.5,160.8 	"/>
</g>
<g class="st2">
	<path class="st3" d="M106.5,162v-15.6l6.3,0.1v15.6 M106.5,140.9v-15.6l6.3,0.1V141 M106.5,120v-15.6l6.3,0.1v15.6 M106.6,99.1
		V83.5l6.3,0.1v15.6 M106.6,78.1V62.5l6.3,0.1v15.6 M106.6,57.1V41.5l6.3,0.1v15.6 M106.6,36.2l0.1-15l6.3,0.1l-0.1,15"/>
	<polygon class="st3" points="109.7,13.1 109.7,13.1 103.1,21.6 116,22 	"/>
	<polygon class="st3" points="109.1,169.9 109.1,169.9 115.9,161.4 103,160.9 	"/>
</g>
<g>
	<path class="st4" d="M59.7,163v-15.9h5.1V163 M59.7,141.9V126h5.1v15.9 M59.8,120.7v-15.9h5.1v15.9 M59.8,99.7V83.8h5.1v15.9
		 M59.9,78.6V62.7H65v15.9 M59.9,57.5V41.6H65v15.9 M60,36.4l0.1-15.1h5.1l-0.1,15.1"/>
	<polygon class="st4" points="62.5,13 62.5,13 57,21.6 67.7,21.9 	"/>
	<polygon class="st4" points="62.2,169.5 62.2,169.5 67.7,160.8 57,160.5 	"/>
</g>
</svg>
