<svg xmlns="http://www.w3.org/2000/svg" xmlns:xlink="http://www.w3.org/1999/xlink" xml:space="preserve" fill-rule="evenodd" stroke-linejoin="round" stroke-miterlimit="2" clip-rule="evenodd" viewBox="0 0 64 64">
  <defs>
    <path id="reuse-0" fill="#f4f4f4" d="M29.934 59.107-6.642 28.415l9.343-5.394.435.365-8.864 5.118 4.137 3.471 8.864-5.118.435.366-8.864 5.117 4.137 3.471 8.864-5.117.435.365-8.863 5.118 4.136 3.471 8.864-5.118.435.366-8.863 5.117 4.136 3.471 8.864-5.117.435.365-8.863 5.117 4.136 3.472 8.864-5.118.435.365-8.863 5.118 4.137 3.471 8.863-5.117.436.365-8.864 5.117 4.137 3.471 8.863-5.117.436.365-8.864 5.118 3.7 3.105 8.864-5.118.436.366-9.343 5.395Z"/>
    <path id="reuse-1" fill="#f4f4f4" d="m70.721 35.618-9.211 5.318-.436-.366 8.739-5.045-3.707-3.111-8.738 5.046-.437-.367 8.738-5.045-4.142-3.476-8.739 5.045-.437-.367 8.739-5.045-4.143-3.476-8.739 5.045-.436-.367 8.738-5.045-4.143-3.476-8.738 5.045-.437-.366 8.738-5.045-4.142-3.477-8.739 5.046-.437-.367 8.739-5.045-4.143-3.476-8.738 5.045-.437-.367 8.738-5.045-4.143-3.476-8.738 5.045-.437-.367 8.739-5.045-4.143-3.476-8.739 5.045-.436-.366 9.21-5.318 36.637 30.742Z"/>
  </defs>
  <g id="grey">
    <use xlink:href="#reuse-0"/>
    <use xlink:href="#reuse-0"/>
    <use xlink:href="#reuse-1"/>
    <use xlink:href="#reuse-1"/>
    <path fill="#d1d2d3" d="m25.103 10.061 36.602 30.712-22.783 13.154L2.32 23.215l22.783-13.154Z"/>
    <path fill="#444" d="m19.713 13.087 36.642 30.746-12.124 7L7.589 20.087l12.124-7Z"/>
  </g>
  <g id="white">
    <path fill="#f7f7f7" d="m44.959 42.053 5.638 4.731-1.135.656-5.638-4.731 1.135-.656Zm-7.605-6.381 5.638 4.731-1.135.655-5.638-4.731 1.135-.655Zm-7.605-6.381 5.638 4.731-1.135.655-5.638-4.731 1.135-.655Zm-7.581-6.361 5.639 4.731-1.135.655-5.639-4.731 1.135-.655Zm-7.605-6.381 5.639 4.731-1.135.655-5.639-4.731 1.135-.655Z"/>
  </g>
  <g id="green" fill="#558e2f">
    <path d="m25.504 15.395 2.027-1.171 3.588 3.01-2.028 1.171-3.587-3.01Zm6.269 5.261 2.028-1.171 3.586 3.009-2.028 1.171-3.586-3.009Zm6.269 5.26 2.027-1.171 3.587 3.01-2.027 1.171-3.587-3.01Zm6.269 5.26 2.028-1.17 3.587 3.01-2.028 1.17-3.587-3.01Zm6.269 5.261 2.028-1.171 3.586 3.01-2.027 1.17-3.587-3.009Z"/>
    <path d="m7.75 25.645 2.028-1.171 3.587 3.01-2.028 1.171-3.587-3.01Zm6.27 5.261 2.027-1.171 3.587 3.009-2.028 1.171-3.586-3.009Zm6.268 5.26 2.028-1.171 3.587 3.01-2.028 1.171-3.587-3.01Zm6.269 5.26 2.028-1.17 3.587 3.01-2.027 1.17-3.588-3.01Zm6.27 5.261 2.028-1.171 3.586 3.01-2.028 1.17-3.586-3.009Z"/>
    <path d="m5.931 22.683 4.781 1.252-3.897 2.25-.884-3.502Z"/>
    <path d="m40.26 51.488-4.782-1.252 3.898-2.25.884 3.502Z"/>
    <path d="m23.685 12.433 4.781 1.252-3.897 2.25-.884-3.502Z"/>
    <path d="m58.013 41.238-4.781-1.252 3.897-2.25.884 3.502Z"/>
  </g>
  <g id="blue" fill="#73a7c7">
    <path d="m20.217 18.422 2.027-1.17 3.587 3.01-2.026 1.17-3.588-3.01Zm6.27 5.261 2.026-1.17 3.587 3.009-2.027 1.17-3.586-3.009Zm6.268 5.26 2.027-1.17 3.588 3.009-2.029 1.171-3.586-3.01Zm6.269 5.261 2.028-1.171 3.587 3.01-2.027 1.171-3.588-3.01Zm6.27 5.26 2.027-1.17 3.586 3.009-2.027 1.17-3.586-3.009Z"/>
    <path d="m13.167 22.493 2.028-1.171 3.587 3.01-2.028 1.171-3.587-3.01Zm6.269 5.26 2.028-1.17 3.586 3.009-2.027 1.171-3.587-3.01Zm6.269 5.26 2.028-1.17 3.587 3.01-2.029 1.171-3.586-3.011Zm6.268 5.262 2.029-1.172 3.587 3.01-2.027 1.171-3.589-3.009Zm6.271 5.26 2.027-1.171 3.587 3.009-2.028 1.171-3.586-3.009Z"/>
    <path d="m45.676 48.335-4.781-1.251 3.897-2.25.884 3.501Z"/>
    <path d="m18.391 15.489 4.781 1.252-3.897 2.25-.884-3.502Z"/>
  </g>
</svg>
