<?xml version="1.0" encoding="UTF-8"?><svg id="a" xmlns="http://www.w3.org/2000/svg" viewBox="0 0 137 183.7"><defs><style>.b{fill:#84bbfd;}.c{fill:#758193;}.d{fill:#d1d2d3;}.e{fill:#65c936;}.f{fill:none;}.g{fill:#f7f7f7;}</style></defs><g><rect class="c" x="39.84" y=".2" width="58.41" height="183.2"/><rect class="g" x="66.56" y="4.1" width="5.53" height="26.3"/><rect class="g" x="66.61" y="34.9" width="5.53" height="26.3"/><rect class="g" x="66.56" y="65.3" width="5.53" height="26.3"/><rect class="g" x="66.66" y="96.1" width="5.53" height="26.3"/><rect class="g" x="66.76" y="126.9" width="5.53" height="23.9"/><rect class="g" x="66.81" y="155" width="5.53" height="23.9"/><rect class="d" x="38" width="14.25" height="183.5"/><rect class="d" x="85.35" y=".2" width="14.25" height="183.5"/></g><g><path class="e" d="M43.53,161.9v-15.6l3.14,.1v15.6m-3.14-21.2v-15.6l3.14,.1v15.6m-3.14-21v-15.6l3.14,.1v15.6m-3.09-21.1v-15.6l3.14,.1v15.6m-3.14-21.1v-15.6l3.14,.1v15.6m-3.14-21.1v-15.7l3.14,.1v15.7m-3.14-21.1l.05-15,3.14,.1-.05,15"/><polygon class="e" points="45.13 12.8 45.13 12.8 41.84 21.3 48.27 21.7 45.13 12.8"/><polygon class="e" points="44.83 169.8 44.83 169.8 48.22 161.3 41.74 160.8 44.83 169.8"/></g><g><path class="e" d="M91.08,162v-15.6l3.14,.1v15.6m-3.14-21.2v-15.6l3.14,.1v15.6m-3.14-21v-15.6l3.14,.1v15.6m-3.09-21v-15.6l3.14,.1v15.6m-3.14-21.1v-15.6l3.14,.1v15.6m-3.14-21.1v-15.6l3.14,.1v15.6m-3.14-21l.05-15,3.14,.1-.05,15"/><polygon class="e" points="92.67 13.1 92.67 13.1 89.38 21.6 95.81 22 92.67 13.1"/><polygon class="e" points="92.37 169.9 92.37 169.9 95.76 161.4 89.33 160.9 92.37 169.9"/></g><g><path class="b" d="M76.92,169.78v-16.72h2.67v16.72m-2.63-22.23v-16.72h2.67v16.72m-2.63-22.33v-16.72h2.67v16.72m-2.67-22.13v-16.72h2.67v16.72m-2.63-22.23v-16.72h2.67v16.72m-2.67-22.23v-16.72h2.67v16.72m-2.63-22.23l.04-15.92h2.67l-.04,15.92"/><polygon class="b" points="78.41 11.78 78.41 11.78 75.54 20.89 81.12 21.19 78.41 11.78"/></g><g><path class="b" d="M60.31,11.78V28.5h-2.67V11.78m2.63,22.23v16.72h-2.67v-16.72m2.63,22.33v16.72h-2.67v-16.72m2.67,22.13v16.72h-2.67v-16.72m2.63,22.23v16.72h-2.67v-16.72m2.67,22.23v16.72h-2.67v-16.72m2.63,22.23l-.04,15.92h-2.67l.04-15.92"/><polygon class="b" points="58.81 169.78 58.81 169.78 61.69 160.67 56.1 160.37 58.81 169.78"/></g><rect class="f" y="4" width="38" height="22"/><g><rect class="d" y="8" width="39" height="2"/><rect class="d" x="-9.5" y="17.5" width="21" height="2" transform="translate(19.5 17.5) rotate(90)"/><rect class="d" y="29" width="39" height="2"/><rect class="d" x="-9.5" y="38.5" width="21" height="2" transform="translate(40.5 38.5) rotate(90)"/><rect class="d" y="50" width="39" height="2"/><rect class="d" x="-9.5" y="59.5" width="21" height="2" transform="translate(61.5 59.5) rotate(90)"/><rect class="d" y="71" width="39" height="2"/><rect class="d" x="-9.5" y="80.5" width="21" height="2" transform="translate(82.5 80.5) rotate(90)"/><rect class="d" y="92" width="39" height="2"/><rect class="d" x="-9.5" y="101.5" width="21" height="2" transform="translate(103.5 101.5) rotate(90)"/><rect class="d" y="113" width="39" height="2"/><rect class="d" x="-9.5" y="122.5" width="21" height="2" transform="translate(124.5 122.5) rotate(90)"/><rect class="d" y="134" width="39" height="2"/><rect class="d" x="-9.5" y="143.5" width="21" height="2" transform="translate(145.5 143.5) rotate(90)"/><rect class="d" y="155" width="39" height="2"/><rect class="d" x="-9.5" y="164.5" width="21" height="2" transform="translate(166.5 164.5) rotate(90)"/><rect class="d" y="174" width="39" height="2"/></g><g><rect class="d" x="98" y="173" width="39" height="2" transform="translate(235 348) rotate(180)"/><rect class="d" x="125.5" y="163.5" width="21" height="2" transform="translate(-28.5 300.5) rotate(-90)"/><rect class="d" x="98" y="152" width="39" height="2" transform="translate(235 306) rotate(180)"/><rect class="d" x="125.5" y="142.5" width="21" height="2" transform="translate(-7.5 279.5) rotate(-90)"/><rect class="d" x="98" y="131" width="39" height="2" transform="translate(235 264) rotate(180)"/><rect class="d" x="125.5" y="121.5" width="21" height="2" transform="translate(13.5 258.5) rotate(-90)"/><rect class="d" x="98" y="110" width="39" height="2" transform="translate(235 222) rotate(180)"/><rect class="d" x="125.5" y="100.5" width="21" height="2" transform="translate(34.5 237.5) rotate(-90)"/><rect class="d" x="98" y="89" width="39" height="2" transform="translate(235 180) rotate(180)"/><rect class="d" x="125.5" y="79.5" width="21" height="2" transform="translate(55.5 216.5) rotate(-90)"/><rect class="d" x="98" y="68" width="39" height="2" transform="translate(235 138) rotate(180)"/><rect class="d" x="125.5" y="58.5" width="21" height="2" transform="translate(76.5 195.5) rotate(-90)"/><rect class="d" x="98" y="47" width="39" height="2" transform="translate(235 96) rotate(180)"/><rect class="d" x="125.5" y="37.5" width="21" height="2" transform="translate(97.5 174.5) rotate(-90)"/><rect class="d" x="98" y="26" width="39" height="2" transform="translate(235 54) rotate(180)"/><rect class="d" x="125.5" y="16.5" width="21" height="2" transform="translate(118.5 153.5) rotate(-90)"/><rect class="d" x="98" y="7" width="39" height="2" transform="translate(235 16) rotate(180)"/></g></svg>