<?xml version="1.0" encoding="UTF-8"?><svg id="a" xmlns="http://www.w3.org/2000/svg" viewBox="0 0 117.2 183.2"><defs><style>.b{fill:#84bbfd;}.c{fill:#758193;}.d{fill:#f7f7f7;}</style></defs><g><rect class="c" width="117.2" height="183.2"/><rect class="d" x="53.6" y="3.9" width="11.1" height="26.3"/><rect class="d" x="53.7" y="34.7" width="11.1" height="26.3"/><rect class="d" x="53.6" y="65.1" width="11.1" height="26.3"/><rect class="d" x="53.8" y="95.9" width="11.1" height="26.3"/><rect class="d" x="54" y="126.7" width="11.1" height="23.9"/><rect class="d" x="54.1" y="154.8" width="11.1" height="23.9"/></g><g><path class="b" d="M26.09,169.8v-16.72h5.36v16.72m-5.28-22.23v-16.72h5.36v16.72m-5.28-22.33v-16.72h5.36v16.72m-5.36-22.13v-16.72h5.36v16.72m-5.28-22.23v-16.72h5.36v16.72m-5.36-22.23v-16.72h5.36v16.72m-5.28-22.23l.08-15.92h5.36l-.08,15.92"/><polygon class="b" points="29.09 11.8 29.09 11.8 23.33 20.91 34.53 21.21 29.09 11.8"/></g><g><path class="b" d="M89.39,170.58v-16.72h5.36v16.72m-5.28-22.23v-16.72h5.36v16.72m-5.28-22.33v-16.72h5.36v16.72m-5.36-22.13v-16.72h5.36v16.72m-5.28-22.23v-16.72h5.36v16.72m-5.36-22.23v-16.72h5.36v16.72m-5.28-22.23l.08-15.92h5.36l-.08,15.92"/><polygon class="b" points="92.39 12.58 92.39 12.58 86.63 21.69 97.83 21.99 92.39 12.58"/></g></svg>