<?xml version="1.0" encoding="UTF-8"?><svg id="a" xmlns="http://www.w3.org/2000/svg" viewBox="0 0 123.6 183.7"><defs><style>.b{fill:#84bbfd;}.c{fill:#758193;}.d{fill:#d1d2d3;}.e{fill:#65c936;}</style></defs><g><rect class="c" x="3.7" y=".2" width="117.2" height="183.2"/><rect class="d" width="28.6" height="183.5"/><rect class="d" x="95" y=".2" width="28.6" height="183.5"/></g><g><path class="e" d="M11.1,161.9v-15.6l6.3,.1v15.6m-6.3-21.2v-15.6l6.3,.1v15.6m-6.3-21v-15.6l6.3,.1v15.6m-6.2-21.1v-15.6l6.3,.1v15.6m-6.3-21.1v-15.6l6.3,.1v15.6m-6.3-21.1v-15.7l6.3,.1v15.7m-6.3-21.1l.1-15,6.3,.1-.1,15"/><polygon class="e" points="14.3 12.8 14.3 12.8 7.7 21.3 20.6 21.7 14.3 12.8"/><polygon class="e" points="13.7 169.8 13.7 169.8 20.5 161.3 7.5 160.8 13.7 169.8"/></g><g><path class="e" d="M106.5,162v-15.6l6.3,.1v15.6m-6.3-21.2v-15.6l6.3,.1v15.6m-6.3-21v-15.6l6.3,.1v15.6m-6.2-21v-15.6l6.3,.1v15.6m-6.3-21.1v-15.6l6.3,.1v15.6m-6.3-21.1v-15.6l6.3,.1v15.6m-6.3-21l.1-15,6.3,.1-.1,15"/><polygon class="e" points="109.7 13.1 109.7 13.1 103.1 21.6 116 22 109.7 13.1"/><polygon class="e" points="109.1 169.9 109.1 169.9 115.9 161.4 103 160.9 109.1 169.9"/></g><g><path class="b" d="M59.65,163.01v-15.88h5.09v15.88m-5.01-21.1v-15.88h5.09v15.88m-5.01-21.2v-15.88h5.09v15.88m-5.09-21.01v-15.88h5.09v15.88m-5.01-21.1v-15.88h5.09v15.88m-5.09-21.1v-15.88h5.09v15.88m-5.01-21.1l.08-15.12h5.09l-.08,15.12"/><polygon class="b" points="62.5 13 62.5 13 57.03 21.65 67.66 21.94 62.5 13"/><polygon class="b" points="62.19 169.48 62.19 169.48 67.66 160.83 57.03 160.54 62.19 169.48"/></g></svg>