<svg xmlns="http://www.w3.org/2000/svg" xml:space="preserve" fill-rule="evenodd" stroke-linejoin="round" stroke-miterlimit="2" clip-rule="evenodd" viewBox="0 0 64 64">
  <g id="grey">
    <path fill="#444" d="M19.741 13.074 56.383 43.82l-12.124 7L7.617 20.074l12.124-7Z"/>
  </g>
  <g id="blue" fill="#73a7c7">
    <path d="m16.65 20.485 2.027-1.17 3.587 3.01-2.027 1.17-3.587-3.01Zm6.269 5.261 2.027-1.17 3.586 3.009-2.026 1.17-3.587-3.009Zm6.269 5.26 2.027-1.171 3.588 3.01-2.029 1.171-3.586-3.01Zm6.268 5.261 2.029-1.172 3.586 3.011-2.026 1.17-3.589-3.009Zm6.271 5.26 2.026-1.17 3.587 3.009-2.027 1.17-3.586-3.009Z"/>
    <path d="m49.159 46.328-4.781-1.252 3.897-2.25.884 3.502Z"/>
    <path d="m14.823 17.552 4.782 1.252-3.897 2.25-.885-3.502Z"/>
  </g>
</svg>
