<svg xmlns="http://www.w3.org/2000/svg" xml:space="preserve" fill-rule="evenodd" stroke-linejoin="round" stroke-miterlimit="2" clip-rule="evenodd" viewBox="0 0 64 64">
  <g id="grey">
    <path fill="#d1d2d3" d="m25.121 10.053 36.602 30.712-22.784 13.154L2.338 23.207l22.783-13.154Z"/>
    <path fill="#444" d="m19.731 13.079 36.642 30.746-12.124 7L7.607 20.079l12.124-7Z"/>
  </g>
  <g id="white">
    <path fill="#f7f7f7" d="m44.976 42.045 5.639 4.731-1.135.655-5.639-4.731 1.135-.655Zm-7.605-6.381 5.639 4.731-1.135.655-5.639-4.731 1.135-.655Zm-7.605-6.382 5.639 4.731-1.136.656-5.638-4.731 1.135-.656Zm-7.58-6.36 5.638 4.731-1.135.655-5.638-4.731 1.135-.655Zm-7.605-6.382 5.638 4.731-1.135.656-5.638-4.731 1.135-.656Z"/>
  </g>
  <g id="green" fill="#558e2f">
    <path d="m25.521 15.387 2.028-1.171 3.587 3.01-2.027 1.171-3.588-3.01Zm6.27 5.261 2.027-1.171 3.587 3.009-2.028 1.171-3.586-3.009Zm6.268 5.259 2.028-1.17 3.587 3.01-2.028 1.17-3.587-3.01Zm6.27 5.261 2.027-1.171 3.588 3.01-2.028 1.171-3.587-3.01Zm6.269 5.261 2.028-1.171 3.586 3.009-2.028 1.171-3.586-3.009Z"/>
    <path d="m7.768 25.637 2.027-1.171 3.588 3.01-2.028 1.171-3.587-3.01Zm6.269 5.261 2.028-1.171 3.586 3.009-2.028 1.171-3.586-3.009Zm6.269 5.259 2.027-1.17 3.588 3.01-2.028 1.17-3.587-3.01Zm6.269 5.261 2.028-1.171 3.587 3.01-2.028 1.171-3.587-3.01Zm6.27 5.261 2.027-1.171 3.587 3.009-2.028 1.171-3.586-3.009Z"/>
    <path d="m5.949 22.675 4.781 1.251-3.897 2.25-.884-3.501Z"/>
    <path d="m40.277 51.48-4.781-1.252 3.897-2.25.884 3.502Z"/>
    <path d="m23.703 12.425 4.781 1.251-3.897 2.25-.884-3.501Z"/>
    <path d="m58.031 41.23-4.781-1.252 3.897-2.25.884 3.502Z"/>
  </g>
  <g id="blue" fill="#73a7c7">
    <path d="m20.235 18.414 2.027-1.17 3.587 3.01-2.027 1.17-3.587-3.01Zm6.269 5.261 2.027-1.17 3.586 3.009-2.026 1.17-3.587-3.009Zm6.269 5.26 2.027-1.171 3.588 3.01-2.029 1.171-3.586-3.01Zm6.268 5.261 2.029-1.171 3.586 3.01-2.026 1.17-3.589-3.009Zm6.271 5.26 2.026-1.17 3.587 3.009-2.027 1.17-3.586-3.009Z"/>
    <path d="m13.185 22.485 2.027-1.171 3.588 3.01-2.028 1.171-3.587-3.01Zm6.269 5.26 2.028-1.171 3.586 3.01-2.028 1.17-3.586-3.009Zm6.269 5.26 2.027-1.171 3.587 3.01-2.028 1.172-3.586-3.011Zm6.268 5.261 2.029-1.171 3.587 3.01-2.028 1.171-3.588-3.01Zm6.27 5.26 2.028-1.17 3.586 3.009-2.027 1.171-3.587-3.01Z"/>
    <path d="m45.694 48.327-4.781-1.252 3.897-2.25.884 3.502Z"/>
    <path d="m18.409 15.481 4.781 1.252-3.897 2.25-.884-3.502Z"/>
  </g>
</svg>
