<svg xmlns="http://www.w3.org/2000/svg" xml:space="preserve" fill-rule="evenodd" stroke-linejoin="round" stroke-miterlimit="2" clip-rule="evenodd" viewBox="0 0 64 64">
  <g id="grey">
    <path fill="#d1d2d3" d="M19.741 13.074 56.383 43.82l-12.124 7L7.617 20.074l12.124-7Z"/>
  </g>
  <g id="white"/>
  <g id="green" fill="#558e2f">
    <path d="m16.655 20.507 2.027-1.171 3.588 3.01-2.028 1.171-3.587-3.01Zm6.269 5.261 2.028-1.171 3.586 3.009-2.028 1.171-3.586-3.009Zm6.269 5.26 2.027-1.171 3.587 3.01-2.027 1.171-3.587-3.01Zm6.269 5.26 2.028-1.17 3.587 3.01-2.028 1.17-3.587-3.01Zm6.269 5.261 2.028-1.171 3.586 3.01-2.027 1.17-3.587-3.009Z"/>
    <path d="m14.836 17.545 4.781 1.252-3.897 2.25-.884-3.502Z"/>
    <path d="m49.164 46.35-4.781-1.252 3.897-2.25.884 3.502Z"/>
  </g>
</svg>
