<?xml version="1.0" encoding="utf-8"?>
<!-- Generator: Adobe Illustrator 26.1.0, SVG Export Plug-In . SVG Version: 6.00 Build 0)  -->
<svg version="1.1" id="a" xmlns="http://www.w3.org/2000/svg" xmlns:xlink="http://www.w3.org/1999/xlink" x="0px" y="0px"
	 viewBox="0 0 153.8 197" style="enable-background:new 0 0 153.8 197;" xml:space="preserve">
<style type="text/css">
	.st0{fill:#758193;}
	.st1{fill:#F7F7F7;}
	.st2{fill:#D1D2D3;}
	.st3{fill:#84BBFD;}
	.st4{fill:#65C936;}
</style>
<g>
	<rect x="17.7" y="5.2" class="st0" width="117.2" height="183.2"/>
	<rect x="71.3" y="9.1" class="st1" width="11.1" height="26.3"/>
	<rect x="71.4" y="39.9" class="st1" width="11.1" height="26.3"/>
	<rect x="71.3" y="70.3" class="st1" width="11.1" height="26.3"/>
	<rect x="71.5" y="101.1" class="st1" width="11.1" height="26.3"/>
	<rect x="71.7" y="131.9" class="st1" width="11.1" height="23.9"/>
	<rect x="71.8" y="160" class="st1" width="11.1" height="23.9"/>
	<rect x="14" y="5" class="st2" width="28.6" height="183.5"/>
	<rect x="109" y="5.2" class="st2" width="28.6" height="183.5"/>
</g>
<g>
	<path class="st3" d="M91.4,174.9l0-16.7l6.5,0l0,16.7 M91.5,152.8l0-16.7l6.5,0l0,16.7 M91.6,130.6l0-16.7l6.5,0l0,16.7
		 M91.6,108.6l0-16.7l6.5,0l0,16.7 M91.7,86.5l0-16.7l6.5,0l0,16.7 M91.7,64.5l0-16.7l6.5,0l0,16.7 M91.8,42.4l0.1-15.8l6.5,0
		l-0.1,15.8"/>
	<polygon class="st3" points="95.1,17.9 95.1,17.9 88.1,26.9 101.8,27.3 	"/>
</g>
<g>
	<path class="st4" d="M25.1,166.9v-15.6l6.3,0.1V167 M25.1,145.8v-15.6l6.3,0.1v15.6 M25.1,124.9v-15.6l6.3,0.1V125 M25.2,103.9
		V88.3l6.3,0.1V104 M25.2,82.9V67.3l6.3,0.1v15.6 M25.2,61.9V46.2l6.3,0.1V62 M25.2,40.9l0.1-15l6.3,0.1l-0.1,15"/>
	<polygon class="st4" points="28.3,17.8 28.3,17.8 21.7,26.3 34.6,26.7 	"/>
	<polygon class="st4" points="27.7,174.8 27.7,174.8 34.5,166.3 21.5,165.8 	"/>
</g>
<g>
	<path class="st4" d="M120.5,167v-15.6l6.3,0.1v15.6 M120.5,145.9v-15.6l6.3,0.1v15.6 M120.5,125v-15.6l6.3,0.1v15.6 M120.6,104.1
		V88.5l6.3,0.1v15.6 M120.6,83.1V67.5l6.3,0.1v15.6 M120.6,62.1V46.5l6.3,0.1v15.6 M120.6,41.2l0.1-15l6.3,0.1l-0.1,15"/>
	<polygon class="st4" points="123.7,18.1 123.7,18.1 117.1,26.6 130,27 	"/>
	<polygon class="st4" points="123.1,174.9 123.1,174.9 129.9,166.4 117,165.9 	"/>
</g>
<g>
	<path class="st3" d="M59.7,17.3l0,16.7l-6.6,0l0-16.7 M59.6,39.5l0,16.7l-6.6,0l0-16.7 M59.5,61.8l0,16.7l-6.6,0l0-16.7 M59.5,83.9
		l0,16.7l-6.6,0l0-16.7 M59.4,106.1l0,16.7l-6.6,0l0-16.7 M59.4,128.3l0,16.7l-6.6,0l0-16.7 M59.3,150.5l-0.1,15.9l-6.6,0l0.1-15.9"
		/>
	<polygon class="st3" points="56,175.1 56,175.1 63.1,166 49.3,165.7 	"/>
</g>
</svg>
