<?xml version="1.0" encoding="UTF-8"?><svg id="a" xmlns="http://www.w3.org/2000/svg" viewBox="0 0 123.68 184.99"><defs><style>.b{fill:#758193;}.c{fill:#65c936;}</style></defs><rect class="b" x="19.64" y="3" width="87.96" height="181.99"/><g><path class="c" d="M61.83,163.64v-15.54l6.3,.12v15.54m-6.36-21.06v-15.54l6.3,.12v15.54m-6.24-20.94v-15.54l6.3,.12v15.54m-6.24-20.94v-15.54l6.3,.12v15.54m-6.24-20.94v-15.54l6.3,.12v15.54m-6.36-21.06v-15.54l6.3,.12v15.54m-6.24-20.94l.08-14.93,6.3,.12-.08,14.93"/><polygon class="c" points="64.99 15.54 64.99 15.54 58.41 23.99 71.32 24.36 64.99 15.54"/><polygon class="c" points="64.43 171.48 64.43 171.48 71.26 163.07 58.22 162.56 64.43 171.48"/></g></svg>