<svg xmlns="http://www.w3.org/2000/svg" xml:space="preserve" fill-rule="evenodd" stroke-linejoin="round" stroke-miterlimit="2" clip-rule="evenodd" viewBox="0 0 64 64">
  <g id="brown">
    <path fill="#a2886b" d="m25.244 24.959-1.051.607-1.643-1.38 1.051-.606 1.643 1.379Z"/>
    <path fill="#a2886b" d="m24.839 22.864 3.737-2.157 1.644 1.379-3.737 2.157-1.644-1.379Z"/>
    <path fill="#a2886b" d="m29.815 19.991.789-.455 1.644 1.379-.789.456-1.644-1.38Z"/>
    <path fill="#a2886b" d="m33.064 22.718.789-.456 1.643 1.379-.789.456-1.643-1.379Z"/>
    <path fill="#a2886b" d="m36.432 25.544.789-.456 1.643 1.379-.789.455-1.643-1.378Z"/>
    <path fill="#a2886b" d="m36.836 27.638-3.737 2.157-1.643-1.378 3.737-2.158 1.643 1.379Z"/>
    <path fill="#a2886b" d="m31.861 30.511-1.051.606-1.644-1.379 1.051-.606 1.644 1.379Z"/>
    <path fill="#a2886b" d="m28.493 27.684-1.051.607-1.644-1.379 1.051-.607 1.644 1.379Z"/>
    <path fill="#a2886b" d="m28.088 25.59 3.737-2.158 1.644 1.38-3.737 2.157-1.644-1.379Z"/>
    <path fill="#66503a" d="m25.674 25.32-1.481.855L22.55 24.8v-.614l1.643 1.375 1.048-.605.433.363v.001Z"/>
    <path fill="#66503a" d="m26.48 24.241 3.737-2.158.433.364-3.737 2.158-.433-.364Z"/>
    <path fill="#66503a" d="m31.455 21.368.79-.455v.613l-.356.206-.434-.364Z"/>
    <path fill="#66503a" d="m34.704 24.094.789-.455v.614l-.355.205-.434-.364Z"/>
    <path fill="#66503a" d="m38.072 26.92.789-.455v.614l-.437.252.009-.104.004-.001-.003-.003-.362-.303Z"/>
    <path fill="#66503a" d="m28.923 28.045-1.481.856-1.644-1.375v-.614l1.644 1.375 1.048-.605.433.363Z"/>
    <path fill="#66503a" d="m29.729 26.966 3.737-2.157.433.364-3.737 2.157-.433-.364Z"/>
    <path fill="#66503a" d="M37.814 27.585v-.004l.301-.172-.301.176Z"/>
    <path fill="#66503a" d="M32.838 30.458v-.004l.301-.172-.301.176Z"/>
    <path fill="#66503a" d="m37.267 27.999-3.819 2.205.009-.103.004-.002-.003-.003-.362-.303 3.738-2.157.433.363Z"/>
    <path fill="#66503a" d="m32.291 30.872-1.481.855-1.644-1.375v-.614l1.644 1.375 1.048-.605.433.364Z"/>
    <path fill="#a2886b" d="m16.11 30.232-1.051.607-1.643-1.379 1.051-.607 1.643 1.379Z"/>
    <path fill="#a2886b" d="m15.705 28.138 3.737-2.158 1.644 1.38-3.737 2.157-1.644-1.379Z"/>
    <path fill="#a2886b" d="m20.681 25.265.789-.455 1.644 1.379-.789.455-1.644-1.379Z"/>
    <path fill="#a2886b" d="m23.93 27.991.789-.455 1.643 1.379-.789.455-1.643-1.379Z"/>
    <path fill="#a2886b" d="m27.298 30.817.789-.455 1.643 1.379-.789.455-1.643-1.379Z"/>
    <path fill="#a2886b" d="m27.702 32.911-3.737 2.158-1.643-1.379 3.737-2.158 1.643 1.379Z"/>
    <path fill="#a2886b" d="m22.727 35.784-1.051.607-1.644-1.379 1.051-.607 1.644 1.379Z"/>
    <path fill="#a2886b" d="m19.359 32.958-1.051.607-1.644-1.379 1.051-.607 1.644 1.379Z"/>
    <path fill="#a2886b" d="m18.954 30.864 3.737-2.158 1.644 1.379-3.737 2.158-1.644-1.379Z"/>
    <path fill="#66503a" d="m16.54 30.593-1.481.855-1.643-1.374v-.614l1.643 1.375 1.048-.605.433.363Z"/>
    <path fill="#66503a" d="m17.346 29.514 3.737-2.157.433.364-3.737 2.157-.433-.364Z"/>
    <path fill="#66503a" d="m22.321 26.641.79-.455v.614l-.356.205-.434-.364Z"/>
    <path fill="#66503a" d="m25.57 29.367.789-.455v.614l-.355.205-.434-.364Z"/>
    <path fill="#66503a" d="m28.938 32.194.789-.456v.614l-.437.253.009-.104.004-.002-.003-.003-.362-.303v.001Z"/>
    <path fill="#66503a" d="m19.789 33.319-1.481.855-1.644-1.375v-.613l1.644 1.374 1.048-.605.433.364Z"/>
    <path fill="#66503a" d="m20.595 32.24 3.737-2.158.433.364-3.737 2.158-.433-.364Z"/>
    <path fill="#66503a" d="M28.68 32.858v-.004l.301-.171-.301.175Z"/>
    <path fill="#66503a" d="M23.704 35.731v-.004l.301-.171-.301.175Z"/>
    <path fill="#66503a" d="m28.133 33.272-3.819 2.206.009-.104.004-.002-.003-.002-.362-.303 3.738-2.158.433.363Z"/>
    <path fill="#66503a" d="M23.157 36.145 21.676 37l-1.644-1.375v-.614l1.644 1.376 1.048-.605.433.363Z"/>
    <path fill="#a2886b" d="m35.006 33.15-1.051.606-1.644-1.379 1.051-.606 1.644 1.379Z"/>
    <path fill="#a2886b" d="m34.601 31.055 3.737-2.157 1.643 1.379-3.737 2.157-1.643-1.379Z"/>
    <path fill="#a2886b" d="m39.577 28.182.788-.455 1.644 1.379-.789.455-1.643-1.379Z"/>
    <path fill="#a2886b" d="m42.826 30.908.788-.455 1.644 1.379-.789.456-1.643-1.38Z"/>
    <path fill="#a2886b" d="m46.193 33.735.789-.456 1.644 1.379-.789.455-1.644-1.378Z"/>
    <path fill="#a2886b" d="m46.598 35.829-3.737 2.157-1.644-1.379 3.738-2.157 1.643 1.379Z"/>
    <path fill="#a2886b" d="m41.622 38.702-1.051.606-1.643-1.379 1.051-.607 1.643 1.38Z"/>
    <path fill="#a2886b" d="m38.255 35.875-1.051.607-1.644-1.379 1.051-.607 1.644 1.379Z"/>
    <path fill="#a2886b" d="m37.85 33.781 3.736-2.158 1.644 1.379-3.737 2.158-1.643-1.379Z"/>
    <path fill="#66503a" d="m35.436 33.51-1.481.856-1.644-1.375v-.614l1.644 1.375 1.048-.605.433.363Z"/>
    <path fill="#66503a" d="m36.241 32.432 3.737-2.158.434.364-3.738 2.157-.433-.363Z"/>
    <path fill="#66503a" d="m41.217 29.559.789-.456v.614l-.356.206-.433-.364Z"/>
    <path fill="#66503a" d="m44.466 32.285.789-.456v.614l-.356.206-.433-.364Z"/>
    <path fill="#66503a" d="m47.834 35.111.789-.455v.614l-.437.252.009-.104.003-.002-.003-.002-.361-.303Z"/>
    <path fill="#66503a" d="m38.685 36.236-1.481.855-1.644-1.374v-.614l1.644 1.374 1.047-.604.434.363Z"/>
    <path fill="#66503a" d="M39.49 35.157 43.227 33l.434.364-3.738 2.157-.433-.364Z"/>
    <path fill="#66503a" d="M47.576 35.776v-.004l.3-.172-.3.176Z"/>
    <path fill="#66503a" d="M42.6 38.649v-.005l.3-.171-.3.176Z"/>
    <path fill="#66503a" d="m47.028 36.19-3.818 2.205.009-.103.003-.002-.003-.003-.361-.303 3.737-2.158.433.364Z"/>
    <path fill="#66503a" d="m42.053 39.063-1.482.855-1.643-1.375v-.614l1.643 1.375 1.048-.605.434.364Z"/>
    <path fill="#a2886b" d="m25.872 38.423-1.051.607-1.644-1.379 1.051-.607 1.644 1.379Z"/>
    <path fill="#a2886b" d="m25.467 36.329 3.737-2.158 1.643 1.379-3.737 2.158-1.643-1.379Z"/>
    <path fill="#a2886b" d="m30.443 33.456.788-.455 1.644 1.379-.789.455-1.643-1.379Z"/>
    <path fill="#a2886b" d="m33.692 36.182.788-.455 1.644 1.379-.789.455-1.643-1.379Z"/>
    <path fill="#a2886b" d="m37.059 39.008.789-.456 1.644 1.379-.789.455-1.644-1.378Z"/>
    <path fill="#a2886b" d="m37.464 41.102-3.737 2.158-1.644-1.379 3.738-2.158 1.643 1.379Z"/>
    <path fill="#a2886b" d="m32.488 43.975-1.051.607-1.643-1.379 1.051-.607 1.643 1.379Z"/>
    <path fill="#a2886b" d="m29.121 41.149-1.052.607-1.643-1.38 1.051-.606 1.644 1.379Z"/>
    <path fill="#a2886b" d="m28.716 39.054 3.736-2.157 1.644 1.379-3.737 2.157-1.643-1.379Z"/>
    <path fill="#66503a" d="m26.302 38.784-1.481.855-1.644-1.374v-.614l1.644 1.374 1.048-.604.433.362v.001Z"/>
    <path fill="#66503a" d="m27.107 37.705 3.737-2.157.434.363-3.738 2.158-.433-.364Z"/>
    <path fill="#66503a" d="m32.083 34.832.789-.455v.614l-.356.205-.433-.364Z"/>
    <path fill="#66503a" d="m35.332 37.558.789-.455v.614l-.356.205-.433-.364Z"/>
    <path fill="#66503a" d="m38.7 40.385.789-.456v.614l-.437.252.009-.103.003-.002-.003-.003-.361-.303v.001Z"/>
    <path fill="#66503a" d="m29.551 41.51-1.482.855-1.643-1.375v-.614l1.643 1.375 1.048-.605.434.364Z"/>
    <path fill="#66503a" d="m30.356 40.431 3.737-2.158.434.364-3.738 2.158-.433-.364Z"/>
    <path fill="#66503a" d="M38.442 41.049v-.004l.3-.171-.3.175Z"/>
    <path fill="#66503a" d="M33.466 43.922v-.004l.3-.171-.3.175Z"/>
    <path fill="#66503a" d="m37.894 41.463-3.818 2.205.009-.103.003-.002-.003-.002-.361-.304 3.737-2.157.433.363Z"/>
    <path fill="#66503a" d="m32.919 44.336-1.482.855-1.643-1.375v-.614l1.643 1.376 1.048-.606.434.364Z"/>
  </g>
  <g id="grey">
    <path fill="#575656" d="m32.922 31.426.071-.813.619-.362-.071.817-.619.358Z"/>
    <path fill="#575656" d="m37.898 28.553.071-.813.619-.362-.071.817-.619.358Z"/>
    <path fill="#808080" d="M23.132 23.211v-.877l9.861 8.275-.072.816-9.789-8.214Z"/>
    <path fill="#808080" d="M28.108 20.339v-.878l9.861 8.275-.072.817-9.789-8.214Z"/>
    <path fill="#d8d5d5" d="m23.132 22.334.619-.358 9.864 8.277-.622.356-9.861-8.275Z"/>
    <path fill="#d8d5d5" d="m28.108 19.461.619-.358 9.864 8.277-.622.356-9.861-8.275Z"/>
    <path fill="#575656" d="m23.788 36.7.071-.814.619-.362-.071.818-.619.358Z"/>
    <path fill="#575656" d="m28.764 33.827.071-.814.619-.362-.071.817-.619.359Z"/>
    <path fill="#808080" d="M13.998 28.485v-.877l9.861 8.274-.072.817-9.789-8.215v.001Z"/>
    <path fill="#808080" d="M18.974 25.612v-.877l9.861 8.274-.072.818-9.789-8.215Z"/>
    <path fill="#d8d5d5" d="m13.998 27.608.619-.358 9.864 8.277-.622.355-9.861-8.274Z"/>
    <path fill="#d8d5d5" d="m18.974 24.735.619-.358 9.864 8.277-.622.355-9.861-8.275v.001Z"/>
    <path fill="#575656" d="m42.684 39.617.07-.814.62-.362-.072.818-.618.358Z"/>
    <path fill="#575656" d="m47.66 36.744.07-.813.62-.362-.072.816-.618.359Z"/>
    <path fill="#808080" d="M32.894 31.402v-.877l9.86 8.274-.071.817-9.789-8.214Z"/>
    <path fill="#808080" d="M37.869 28.529v-.877l9.861 8.275-.071.817-9.79-8.215Z"/>
    <path fill="#d8d5d5" d="m32.894 30.525.619-.358 9.864 8.277-.623.355-9.86-8.274Z"/>
    <path fill="#d8d5d5" d="m37.869 27.652.619-.358 9.865 8.277-.623.356-9.861-8.275Z"/>
    <path fill="#575656" d="m33.55 44.891.07-.814.62-.362-.072.817-.618.359Z"/>
    <path fill="#575656" d="m38.526 42.018.07-.814.62-.362-.072.817-.618.359Z"/>
    <path fill="#808080" d="M23.76 36.676v-.877l9.86 8.274-.071.817-9.789-8.215v.001Z"/>
    <path fill="#808080" d="M28.735 33.803v-.877l9.861 8.274-.071.817-9.79-8.214Z"/>
    <path fill="#d8d5d5" d="m23.76 35.799.619-.358 9.863 8.277-.622.355-9.86-8.274Z"/>
    <path fill="#d8d5d5" d="m28.735 32.926.619-.358 9.864 8.277-.622.355-9.861-8.275v.001Z"/>
    <path fill="#575656" d="m38.369 13.005 20.526 17.224-7.262 4.193-20.527-17.224 7.263-4.193Z"/>
    <path fill="#575656" d="m12.367 28.017 20.527 17.224-7.263 4.193L5.105 32.21l7.262-4.193Z"/>
    <path fill="#707070" d="M51.653 34.439v1.544L31.106 18.742v-1.544l20.547 17.241Z"/>
    <path fill="#707070" d="M25.651 49.451v1.544L5.105 33.754V32.21l20.546 17.241Z"/>
    <path fill="#2e2e2e" d="M58.859 30.198v1.545l-7.262 4.193v-1.545l7.262-4.193Z"/>
    <path fill="#2e2e2e" d="M32.857 45.211v1.544l-7.262 4.193v-1.544l7.262-4.193Z"/>
  </g>
</svg>
