<svg xmlns="http://www.w3.org/2000/svg" xml:space="preserve" fill-rule="evenodd" stroke-linejoin="round" stroke-miterlimit="2" clip-rule="evenodd" viewBox="0 0 64 64">
  <g>
    <g id="grey">
      <path fill="#444" fill-rule="nonzero" d="M6.698 34.456 35.662 58.76l21.672-12.513v-2.588L35.9 56.034 6.666 31.504l.032 2.952Z"/>
      <path fill="#929191" fill-rule="nonzero" d="M6.666 31.504 35.9 56.034l21.434-12.375L28.1 19.129 6.666 31.504Z"/>
      <path fill="#c9c9c9" d="m20.034 23.846 29.234 24.531-1.275.736-29.235-24.53 1.276-.737Zm6.6-3.81 29.234 24.53-1.275.737-29.235-24.531 1.276-.736ZM8.763 30.354l29.234 24.53-1.276.737L7.487 31.09l1.276-.736Zm6.6-3.811 29.234 24.531-1.276.736-29.234-24.53 1.276-.737Z"/>
      <path fill="#2e2e2e" d="m26.061 20.366 29.234 24.531-.461.266L25.6 20.632l.461-.266Zm-6.28 3.626 29.235 24.531-.462.266L19.32 24.258l.461-.266Zm-4.991 2.882 29.234 24.53-.461.267L14.328 27.14l.462-.266Zm-6.28 3.625L37.744 55.03l-.461.266-29.235-24.53.462-.267Z"/>
      <path fill="#ebebeb" d="M55.739 42.193v-19.31h.075a.535.535 0 0 1 .161-.136c.27-.156.661-.137.874.041.035.03.063.062.084.095h.049v.146a.254.254 0 0 1 0 .039v18.914a.254.254 0 0 1 0 .039v.172h-.062a.527.527 0 0 1-.174.153c-.269.156-.661.137-.874-.041a.404.404 0 0 1-.094-.112h-.039Z"/>
      <path fill="#ebebeb" d="M30.743 56.624v-19.31h.076a.535.535 0 0 1 .161-.136c.269-.156.661-.137.874.041.035.03.063.062.084.095h.049v19.31h-.063a.513.513 0 0 1-.173.153c-.27.156-.661.137-.874-.041a.404.404 0 0 1-.094-.112h-.04Z"/>
      <path fill="#ebebeb" d="M10.005 39.222V19.913h.076a.537.537 0 0 1 .161-.137c.269-.155.661-.137.874.042a.39.39 0 0 1 .084.095h.049v19.309h-.063a.525.525 0 0 1-.173.154c-.27.156-.661.137-.874-.041a.412.412 0 0 1-.095-.113h-.039Z"/>
      <path fill="#ebebeb" d="M35 24.791V5.482h.076a.537.537 0 0 1 .161-.137c.27-.155.661-.137.874.042a.39.39 0 0 1 .084.095h.049v19.309h-.063a.515.515 0 0 1-.173.154c-.269.156-.661.137-.874-.042a.39.39 0 0 1-.094-.112H35Z"/>
      <path d="M27.014 13.586a.5.5 0 0 1 .643-.766l20.315 17.046a.5.5 0 1 1-.643.766L27.014 13.586Z"/>
      <path d="M15.596 19.451a.5.5 0 0 1 .642-.766l20.355 17.079a.5.5 0 0 1-.643.766L15.596 19.451Z"/>
      <path fill="#575757" d="M31.656 39.028a.5.5 0 0 1-.27-.963s9.814-4.257 12.176-5.621c2.38-1.374 12.093-8.397 12.093-8.397a.501.501 0 0 1 .658.753s-9.82 7.107-12.251 8.51c-2.44 1.409-12.406 5.718-12.406 5.718Z"/>
      <path fill="#575757" d="M34.899 6.631a.501.501 0 0 1 .658.753s-9.807 7.099-12.238 8.503c-2.448 1.413-12.442 5.74-12.442 5.74a.5.5 0 0 1-.272-.963s9.843-4.274 12.214-5.643c2.38-1.374 12.08-8.39 12.08-8.39Z"/>
    </g>
    <g id="white">
      <path fill="#fff" d="m39.988 35.314 1.3 1.088-1.756 1.014-1.456-1.228c.645-.292 1.291-.587 1.912-.874Zm-6.61-.942-.261.148-.044-.404.305.256Zm3.855 1.104-2.336-1.972-.593.339-1.386-1.163-.249-2.301 5.715 1.1-1.761 1.016 2.52 2.111c-.626.288-1.272.582-1.91.87Zm-8.286 8.051-5.716-1.1 1.761-1.017-4.665-3.907 1.756-1.014 4.635 3.912 1.781-1.016.448 4.142Z"/>
    </g>
  </g>
</svg>
