<svg xmlns="http://www.w3.org/2000/svg" xml:space="preserve" fill-rule="evenodd" stroke-linejoin="round" stroke-miterlimit="2" clip-rule="evenodd" viewBox="0 0 64 64">
  <g>
    <g id="grey">
      <path fill="#444" fill-rule="nonzero" d="M12.236 31.252 41.2 55.556l10.696-6.175v-2.588L41.438 52.83 12.104 28.357l.132 2.895Z"/>
      <path fill="#929191" fill-rule="nonzero" d="m12.104 28.358 29.234 24.53 10.558-6.095-29.234-24.531-10.558 6.096Z"/>
      <path fill="#c9c9c9" d="m14.54 26.952 29.234 24.53-1.276.736-29.234-24.53 1.276-.736Zm6.6-3.811 29.234 24.53-1.276.737-29.234-24.53 1.276-.737Z"/>
      <path fill="#2e2e2e" d="m20.567 23.471 29.234 24.531-.461.266-29.235-24.53.462-.267Zm-6.28 3.626 29.234 24.531-.461.266-29.235-24.531.462-.266Z"/>
    </g>
    <g id="white">
      <path fill="#fff" fill-rule="nonzero" d="m27.93 34.198.423 3.91 1.681-.959 4.378 3.694 1.658-.957-4.405-3.689 1.663-.961-5.398-1.038Z"/>
    </g>
    <path fill="#ebebeb" d="M15.265 36.409v-19.31h.075a.535.535 0 0 1 .161-.136c.27-.156.661-.137.874.041.035.03.063.062.084.095h.049v.146a.254.254 0 0 1 0 .039v18.914a.254.254 0 0 1 0 .039v.172h-.062a.527.527 0 0 1-.174.153c-.269.156-.661.137-.874-.041a.418.418 0 0 1-.094-.112h-.039Z"/>
    <path fill="#ebebeb" d="M36.003 53.81V34.5h.076a.545.545 0 0 1 .16-.136c.27-.156.661-.137.874.041.035.03.063.062.085.095h.048v.147a.254.254 0 0 1 0 .039V53.6a.254.254 0 0 1 0 .039v.171h-.062a.54.54 0 0 1-.174.154c-.269.155-.661.137-.873-.042a.379.379 0 0 1-.095-.112h-.039Z"/>
    <path fill="#ebebeb" d="M29.836 27.996V8.686h.076a.55.55 0 0 1 .161-.136c.269-.156.661-.137.874.041.035.03.063.062.084.095h.049v19.31h-.063a.513.513 0 0 1-.173.153c-.27.156-.661.137-.874-.041a.426.426 0 0 1-.095-.112h-.039Z"/>
    <path fill="#ebebeb" d="M50.574 45.397V26.088h.076a.537.537 0 0 1 .161-.137c.27-.156.661-.137.874.042a.39.39 0 0 1 .084.095h.049v19.309h-.063a.526.526 0 0 1-.173.154c-.269.155-.661.137-.874-.042a.39.39 0 0 1-.094-.112h-.04Z"/>
    <path d="M22.861 16.207a.5.5 0 1 1 .643-.766l20.315 17.046a.5.5 0 0 1-.643.766L22.861 16.207Z"/>
    <path fill="#575757" d="M36.916 36.214a.5.5 0 1 1-.27-.962s4.726-1.321 7.089-2.685c2.38-1.374 7.15-5.543 7.15-5.543a.5.5 0 1 1 .657.753s-4.876 4.253-7.307 5.656c-2.44 1.409-7.319 2.781-7.319 2.781Z"/>
    <path fill="#575757" d="M30.129 9.608a.501.501 0 0 1 .658.753s-4.864 4.246-7.295 5.649c-2.448 1.414-7.356 2.803-7.356 2.803a.5.5 0 1 1-.271-.963s4.756-1.337 7.127-2.706c2.38-1.374 7.137-5.536 7.137-5.536Z"/>
  </g>
</svg>
