<svg xmlns="http://www.w3.org/2000/svg" xml:space="preserve" fill-rule="evenodd" stroke-linejoin="round" stroke-miterlimit="2" clip-rule="evenodd" viewBox="0 0 64 64">
  <g id="grey">
    <rect width="26.308" height="47.78" x="18.846" y="8.11" fill="#d1d2d3"/>
    <rect width="14" height="47.833" x="25" y="8.031" fill="#444"/>
  </g>
  <g id="white"/>
  <g id="green" fill="#558e2f">
    <path d="M41.079 13.239h2.342v4.683h-2.342v-4.683Zm0 8.184h2.342v4.682h-2.342v-4.682Zm0 8.183h2.342v4.683h-2.342v-4.683Zm0 8.184h2.342v4.683h-2.342V37.79Zm0 8.184h2.342v4.682h-2.342v-4.682Z"/>
    <path d="M20.579 13.239h2.342v4.683h-2.342v-4.683Zm0 8.184h2.342v4.682h-2.342v-4.682Zm0 8.183h2.342v4.683h-2.342v-4.683Zm0 8.184h2.342v4.683h-2.342V37.79Zm0 8.184h2.342v4.682h-2.342v-4.682Z"/>
    <path d="M21.75 9.541 24 13.239h-4.5l2.25-3.698Z"/>
    <path d="m21.75 54.354-2.25-3.698H24l-2.25 3.698Z"/>
    <path d="m42.25 9.541 2.25 3.698H40l2.25-3.698Z"/>
    <path d="M42.25 54.354 40 50.656h4.5l-2.25 3.698Z"/>
  </g>
  <g id="blue" fill="#73a7c7">
    <path d="M30.83 13.291h2.341v4.683H30.83v-4.683Zm0 8.185h2.341v4.681H30.83v-4.681Zm0 8.183h2.341v4.682h-2.342l.001-4.682Zm-.001 8.184h2.342v4.683H30.83l-.001-4.683Zm.001 8.184h2.341v4.682H30.83v-4.682Z"/>
    <path d="m32 9.541 2.25 3.698h-4.5L32 9.541Z"/>
  </g>
</svg>
