<svg xmlns="http://www.w3.org/2000/svg" xmlns:xlink="http://www.w3.org/1999/xlink" xml:space="preserve" fill-rule="evenodd" stroke-linejoin="round" stroke-miterlimit="2" clip-rule="evenodd" viewBox="0 0 64 64">
  <defs>
    <path id="reuse-0" fill="#f4f4f4" d="M8.476 55.881V8.134h10.789v.568H9.03v5.4h10.235v.569H9.03v5.4h10.235v.568H9.03v5.4h10.235v.568H9.03v5.401h10.235v.568H9.03v5.4h10.235v.568H9.03v5.4h10.235v.569H9.03v5.4h10.235v.568H9.03v4.831h10.235v.569H8.476Z"/>
    <path id="reuse-1" fill="#f4f4f4" d="M55.524 55.936H44.888v-.569h10.091v-4.839H44.888v-.57h10.091V44.55H44.888v-.57h10.091v-5.408H44.888v-.571h10.091v-5.408H44.888v-.57h10.091v-5.408H44.888v-.57h10.091v-5.408H44.888v-.57h10.091v-5.408H44.888v-.571h10.091V8.68H44.888v-.57h10.636v47.826Z"/>
  </defs>
  <g id="grey">
    <use xlink:href="#reuse-0"/>
    <use xlink:href="#reuse-0"/>
    <use xlink:href="#reuse-1"/>
    <use xlink:href="#reuse-1"/>
    <rect width="26.308" height="47.78" x="18.846" y="8.11" fill="#d1d2d3"/>
    <rect width="14" height="47.833" x="25" y="8.031" fill="#444"/>
  </g>
  <g id="white">
    <path fill="#f7f7f7" d="M32.655 48.159v7.36h-1.31v-7.36h1.31Zm0-9.928v7.361h-1.31v-7.361h1.31Zm0-9.927v7.36h-1.31v-7.36h1.31Zm0-9.896v7.361h-1.31v-7.361h1.31Zm0-9.927v7.36h-1.31v-7.36h1.31Z"/>
  </g>
  <g id="green" fill="#558e2f">
    <path d="M41.079 13.239h2.342v4.683h-2.342v-4.683Zm0 8.184h2.342v4.682h-2.342v-4.682Zm0 8.183h2.342v4.683h-2.342v-4.683Zm0 8.184h2.342v4.683h-2.342V37.79Zm0 8.184h2.342v4.682h-2.342v-4.682Z"/>
    <path d="M20.579 13.239h2.342v4.683h-2.342v-4.683Zm0 8.184h2.342v4.682h-2.342v-4.682Zm0 8.183h2.342v4.683h-2.342v-4.683Zm0 8.184h2.342v4.683h-2.342V37.79Zm0 8.184h2.342v4.682h-2.342v-4.682Z"/>
    <path d="M21.75 9.541 24 13.239h-4.5l2.25-3.698Z"/>
    <path d="m21.75 54.354-2.25-3.698H24l-2.25 3.698Z"/>
    <path d="m42.25 9.541 2.25 3.698H40l2.25-3.698Z"/>
    <path d="M42.25 54.354 40 50.656h4.5l-2.25 3.698Z"/>
  </g>
  <g id="blue" fill="#73a7c7">
    <path d="M34.996 13.216h2.34v4.683h-2.34v-4.683Zm0 8.184h2.34v4.682h-2.34V21.4Zm0 8.183h2.34l.001 4.683h-2.343l.002-4.683Zm-.002 8.184h2.343l-.001 4.683h-2.34l-.002-4.683Zm.002 8.184h2.34v4.682h-2.34v-4.682Z"/>
    <path d="M26.854 13.216h2.342v4.683h-2.342v-4.683Zm0 8.184h2.342v4.682h-2.342V21.4Zm0 8.183h2.342v4.683h-2.343l.001-4.683Zm-.001 8.184h2.343v4.683h-2.342l-.001-4.683Zm.001 8.184h2.342v4.682h-2.342v-4.682Z"/>
    <path d="m28.025 54.331-2.25-3.698h4.5l-2.25 3.698Z"/>
    <path d="m36.137 9.541 2.25 3.698h-4.5l2.25-3.698Z"/>
  </g>
</svg>
