<svg xmlns="http://www.w3.org/2000/svg" xml:space="preserve" fill-rule="evenodd" stroke-linejoin="round" stroke-miterlimit="2" clip-rule="evenodd" viewBox="0 0 64 64">
  <g id="red">
    <path fill="#ff5757" fill-rule="nonzero" d="M55 12.95H9c-1.3 0-2.3 1.1-2.3 2.5v33.2c0 1.3 1 2.5 2.3 2.5h46c1.3 0 2.3-1.1 2.3-2.5v-33.2c0-1.4-1-2.5-2.3-2.5Z"/>
  </g>
  <g id="white">
    <path fill="#fff" d="M10.8 14.15h42.5c1.3 0 2.4 1.1 2.4 2.5v30.8c0 1.3-1.1 2.5-2.4 2.5H10.8c-1.3 0-2.4-1.1-2.4-2.5v-30.7c0-1.5 1.1-2.6 2.4-2.6ZM9 26.45v20.9c0 1.1.8 2 1.8 2h42.5c1 0 1.8-.9 1.8-2v-20.9H9Zm36.784 3.207h-1.5v1.7h1.5v1.7h-1.5v2h1.7v1.8h-4v-9.1h3.8v1.9ZM17.298 38.41c.9 0 1.6.2 2 .7.5.5.7 1.1.7 1.9v1.4h-2.4v-1.9c0-.2 0-.3-.1-.4-.1-.1-.2-.1-.3-.1-.1 0-.2.1-.3.2-.1.1-.1.2-.1.4v5.5c0 .1 0 .3.1.4.1.1.1.2.3.2.2 0 .3 0 .3-.2.1-.1.1-.3.1-.5v-2h2.4v1.6c0 .5-.1.9-.3 1.3-.2.3-.5.7-.9.9-.4.2-.9.3-1.5.3-.9 0-1.6-.2-2.1-.7-.5-.4-.7-1.2-.7-2.2v-4.1c0-.9.2-1.6.7-2.1.4-.4 1.2-.6 2.1-.6Zm4.455-10.953c.9 0 1.5.2 2 .6.4.4.6 1 .6 2v1h-2.2v-1.4c0-.2 0-.3-.1-.4-.1-.1-.1-.1-.3-.1-.3 0-.4.2-.4.6v5c0 .2 0 .4.1.5.1 0 .2.1.3.1.2 0 .3 0 .3-.1.1-.1.1-.3.1-.5v-1.6h-.4v-1.3h2.7v4.9h-1.5l-.1-.7c-.2.3-.5.5-.8.6-.3.1-.6.2-1 .2-.7 0-1.2-.3-1.6-.7-.3-.5-.5-1.1-.5-1.8v-4.1c0-1 .2-1.7.7-2.1.5-.5 1.2-.7 2.1-.7Zm5.711 12.853v1c0 .5-.1.9-.4 1.2-.2.1-.5.3-1 .3.5 0 .9.2 1.1.5.2.2.4.6.4 1.2v3.3h-2.2v-3.6c0-.5-.2-.8-.6-.8h-.3v4.4h-2.3v-9.4h2.8c.5 0 1 0 1.4.1.3.1.6.3.8.6.2.3.3.6.3 1.2Zm-2.9 1.7c.3 0 .5-.1.6-.2.1-.1.2-.3.2-.5v-.8c0-.2-.1-.3-.2-.4-.1-.1-.3-.2-.6-.2h-.2v2.1h.2Zm10.465 6h-2.4l-.1-1.7h-.9l-.1 1.7h-2.5l1.2-9.4h3.5l1.3 9.4Zm-3.4-3.3h.8l-.4-4.5-.4 4.5Zm7.666-6.2c1.8 0 2.7.7 2.7 2v.9h-2.2v-.8c0-.4-.2-.6-.5-.6s-.4.2-.4.6v.5c0 .2.1.4.2.5l.3.3c.2.1.4.3.7.5.4.2.7.4 1 .7.3.2.5.4.7.8.2.4.3.8.3 1.2v.8c0 .9-.3 1.6-.8 1.9-.5.3-1.2.5-2 .5-1 0-1.7-.2-2.1-.6-.4-.4-.6-.9-.6-1.8v-1.2h2.3v1.5c0 .4.1.6.4.6.2 0 .3 0 .3-.2.1-.1.2-.3.2-.6v-.5c0-.2-.1-.4-.2-.6-.2-.2-.3-.3-.5-.4-.1-.2-.3-.3-.6-.5-.4-.2-.7-.4-1-.6-.2-.2-.4-.5-.6-.8-.2-.3-.3-.7-.3-1.2v-.6c0-1.5.9-2.3 2.7-2.3Zm-7.589-1.753h-2.3l-.1-1.6h-.8l-.2 1.6h-2.2l1.1-9.1h3.3l1.2 9.1Zm-3.2-3.2h.8l-.5-4.3-.3 4.3Zm17.567 8.553h.9v-3.4h2.4v9.4h-2.4v-3.9h-.9v3.9h-2.4v-9.4h2.4v3.4Zm-9.201-8.953.5-5.3h3.1v9.1h-1.9v-6.7l-1 6.7h-1.4l-1-6.8v6.7h-1.9v-9.1h3l.6 5.4ZM18.2 23.85c.7 0 1.2-.8.9-1.5l-3.2-5.4c-.4-.6-1.3-.6-1.7 0l-3.2 5.4c-.4.7 0 1.5.8 1.5h6.4Zm-3.7-1.3c0-.3.2-.4.5-.4s.4.2.4.4-.2.4-.4.4a.598.598 0 0 1-.059-.003.283.283 0 0 1-.041.003.4.4 0 0 1-.268-.118.346.346 0 0 1-.132-.282Zm.9-4.2v3c0 .2-.2.4-.4.4s-.4-.1-.4-.4v-3c0-.2.2-.4.4-.4s.4.2.4.4Zm25.5 4.8v-5.6h-.7v2.3c0 .9 0 1.5.1 2.3-.3-.6-.6-1.1-1-1.8l-1.8-2.8h-.8v5.6h.8v-2.4c0-.9-.1-1.6-.1-2.3.2.6.6 1.3 1 1.9l1.8 2.8h.7Zm2 0v-5.6h-.7v5.6h.7Zm-12.3 0h.8l-1.9-5.6h-.9l-1.9 5.6h.7l.6-1.8h2l.6 1.8Zm-1.6-5c.052.155.103.31.155.479.064.182.141.365.245.521l.5 1.6h-1.7l.5-1.6c.1-.3.2-.7.3-1Zm-4.4 5v-.1h.8l1.6-5.6h-.7l-.7 2.8c-.2.7-.4 1.3-.5 1.9-.1-.6-.2-1.2-.4-1.9l-.7-2.8h-.8l-.7 2.8c-.2.7-.4 1.3-.5 1.9-.1-.5-.2-1.2-.4-1.9l-.7-2.8h-.8l1.4 5.6h.8l.8-2.9c.2-.7.3-1.2.4-1.8.1.6.2 1.1.4 1.9l.7 2.9Zm10.5 0 .8-.1c-.1-.2-.2-.7-.4-1.5-.1-.6-.4-.9-.8-1.1.5-.2 1-.7 1-1.4 0-.5-.2-.9-.5-1-.3-.4-.8-.5-1.6-.5-.5 0-1 0-1.4.1v5.5h.7v-2.4h.7c.6 0 .9.3 1.1 1.1.2.7.3 1.1.4 1.3Zm-.1-4.1c0 .7-.5 1.1-1.3 1.1H33v-2.1c.1-.1.3-.1.7-.1.8.1 1.3.4 1.3 1.1Zm13.4 4.1v-5.6h-.7v4.6c-.3-.6-.6-1.1-1-1.8l-1.6-2.8h-.8v5.6h.7v-2.4c0-.9-.1-1.6-.1-2.3.2.6.6 1.3 1 1.9l1.8 2.8h.7Zm5.5-.3h.1v-2.6h-1.8v.5h1.1v1.9c-.2 0-.5.1-1 .1-1.4 0-2.2-.8-2.2-2.3 0-1.5.8-2.3 2.2-2.3.5 0 .9.1 1.2.2l.2-.6c-.2-.2-.7-.3-1.4-.3-1.8 0-3 1.2-3 2.9 0 .9.3 1.6.8 2.1.6.5 1.3.7 2.1.7.7 0 1.4-.2 1.7-.3Z"/>
  </g>
</svg>
