<svg xmlns="http://www.w3.org/2000/svg" xml:space="preserve" fill-rule="evenodd" stroke-linejoin="round" stroke-miterlimit="2" clip-rule="evenodd" viewBox="0 0 64 64">
  <g id="grey">
    <path fill="#6e6e6e" d="M10.001 10.001h43.998V53.99H10.001z"/>
  </g>
  <g id="blue">
    <path fill="#9eb9e1" d="M54.475 8h.001C55.312 8 56 8.688 56 9.524v6.473h-2.001v-5.996h-5.996V8h6.472ZM38.004 53.999h7.997V56h-7.997v-2.001Zm-10.007 0h8.006V56h-8.006v-2.001Zm-9.998 0h8.005V56h-8.005v-2.001ZM8 38.004h2.001v7.997H8v-7.997ZM9.525 56h-.001A1.531 1.531 0 0 1 8 54.476v-6.473h2.001v5.996h6.005V56H9.525Zm44.474-28.003H56v7.997h-2.001v-7.997ZM8 27.997h2.001v7.997H8v-7.997Zm48 19.997v6.473c0 .837-.688 1.525-1.525 1.525h-6.472V53.99h5.996v-5.996H56Zm-2.001-29.995H56v7.997h-2.001v-7.997Zm0 20.005H56v7.997h-2.001v-7.997ZM10.001 10.001v5.996H8V9.524C8 8.688 8.688 8 9.524 8h6.473v2.001h-5.996ZM27.997 8h8.006v2.001h-8.006V8Zm-9.998 0h8.005v2.001h-8.005V8Zm20.005 0h7.997v2.001h-7.997V8ZM8 17.999h2.001v7.997H8v-7.997Z"/>
    <path fill="#d7e3f0" d="M20.462 39.465h-6.564a1.907 1.907 0 0 1-1.871-1.872c0-1.026-.06-3.618 0-5.585.061-1.967-.019-6.696 4.424-8.317a6.39 6.39 0 0 0 5.237 2.313c1.383.023 1.774-.3 2.562-.712a7.6 7.6 0 0 0-.509 2.741c0 4.093 3.259 6.825 1.821 5.08-2.996 1.093-4.599 4.162-5.1 6.352Zm4.196-15.279c-.393.67-1.499 1.059-2.823 1.059-3.632-.001-6.621-2.99-6.622-6.623.001-3.632 2.99-6.621 6.622-6.622 3.632.001 6.621 2.99 6.623 6.622 0 1.142-.29 2.266-1.568 3.155a7.66 7.66 0 0 0-2.232 2.409Zm18.88 15.279h6.564a1.907 1.907 0 0 0 1.871-1.872c0-1.026.06-3.618 0-5.585s.02-6.696-4.424-8.317a6.39 6.39 0 0 1-5.237 2.313c-1.383.023-1.774-.3-2.562-.712a7.6 7.6 0 0 1 .509 2.741c0 4.093-3.259 6.825-1.821 5.08 2.996 1.093 4.6 4.162 5.1 6.352Zm-4.196-15.279c.393.67 1.499 1.059 2.823 1.059 3.632-.001 6.621-2.99 6.623-6.622-.002-3.633-2.991-6.622-6.623-6.623-3.632.001-6.621 2.99-6.623 6.623.001 1.141.29 2.265 1.568 3.154a7.66 7.66 0 0 1 2.232 2.409Z"/>
    <path fill="#c2f0ff" d="M25.808 33.861a7.35 7.35 0 0 0 6.023 2.66c4.468.074 5.772-2.991 6.542-2.66 4.52 1.844 4.928 7.375 4.934 9.564.006 2.188 0 6.423 0 6.423A2.194 2.194 0 0 1 41.155 52H22.873a2.194 2.194 0 0 1-2.152-2.152c0-1.181-.069-4.161 0-6.423.07-2.262-.022-7.701 5.087-9.564ZM32 20.417c4.177.002 7.614 3.439 7.616 7.616-.002 4.177-3.439 7.613-7.616 7.615-4.177-.002-7.614-3.438-7.616-7.615.003-4.177 3.439-7.613 7.616-7.615v-.001Z"/>
  </g>
</svg>
